<?xml version="1.0" encoding="UTF-8" standalone="no"?>
<!-- Created with Inkscape (http://www.inkscape.org/) -->

<svg
   xmlns:dc="http://purl.org/dc/elements/1.1/"
   xmlns:cc="http://creativecommons.org/ns#"
   xmlns:rdf="http://www.w3.org/1999/02/22-rdf-syntax-ns#"
   xmlns:svg="http://www.w3.org/2000/svg"
   xmlns="http://www.w3.org/2000/svg"
   xmlns:sodipodi="http://sodipodi.sourceforge.net/DTD/sodipodi-0.dtd"
   xmlns:inkscape="http://www.inkscape.org/namespaces/inkscape"
   width="500"
   height="500"
   viewBox="0 0 132.29166 132.29167"
   version="1.1"
   id="svg8"
   inkscape:version="0.92.4 (5da689c313, 2019-01-14)"
   sodipodi:docname="Happy-Cat-logo.svg">
  <defs
     id="defs2" />
  <sodipodi:namedview
     id="base"
     pagecolor="#ffffff"
     bordercolor="#666666"
     borderopacity="1.0"
     inkscape:pageopacity="0.0"
     inkscape:pageshadow="2"
     inkscape:zoom="0.7"
     inkscape:cx="211.64296"
     inkscape:cy="197.02778"
     inkscape:document-units="mm"
     inkscape:current-layer="layer1"
     showgrid="false"
     units="px"
     inkscape:window-width="1358"
     inkscape:window-height="740"
     inkscape:window-x="0"
     inkscape:window-y="0"
     inkscape:window-maximized="0" />
  <metadata
     id="metadata5">
    <rdf:RDF>
      <cc:Work
         rdf:about="">
        <dc:format>image/svg+xml</dc:format>
        <dc:type
           rdf:resource="http://purl.org/dc/dcmitype/StillImage" />
        <dc:title></dc:title>
      </cc:Work>
    </rdf:RDF>
  </metadata>
  <g
     inkscape:label="Layer 1"
     inkscape:groupmode="layer"
     id="layer1"
     transform="translate(0,-164.70832)">
    <path
       style="fill:#ef2929;stroke-width:0.06408063"
       d="m 62.256415,255.37666 c -5.703053,-0.29764 -10.802646,-1.15115 -15.355143,-2.56993 -4.559647,-1.42101 -8.482082,-3.37812 -11.847665,-5.91141 -6.681194,-5.02901 -10.734235,-12.21957 -12.060393,-21.39653 -0.128298,-0.88805 -0.439138,-4.52335 -0.470676,-5.50539 l -0.01684,-0.50963 -0.35261,0.0167 c -1.231092,0.0568 -3.22915,0.37797 -4.712334,0.75744 -4.165314,1.06577 -7.9255705,3.30076 -10.0619135,5.98055 -0.5271649,0.66124 -0.59428,0.72348 -0.3541923,0.32834 1.3570008,-2.23341 3.6890638,-4.2539 6.5780968,-5.69927 2.44324,-1.22235 5.279925,-2.0362 8.14109,-2.33575 l 0.761863,-0.0798 0.03974,-0.95977 c 0.02189,-0.52787 0.06163,-1.20813 0.08823,-1.5117 l 0.0485,-0.55193 -0.280616,-0.0407 c -1.40642,-0.204 -3.750472,-0.28125 -5.281439,-0.17406 -3.598817,0.25194 -6.676227,1.07571 -9.5487913,2.55595 -2.1826975,1.12481 -4.070553,2.60845 -5.3528485,4.20675 -0.6627075,0.82603 -0.6715484,0.80859 -0.056409,-0.11096 1.3365268,-1.99808 3.4873012,-3.83803 5.9858715,-5.1208 3.0997523,-1.59144 6.3673913,-2.43373 10.1203563,-2.60872 1.436392,-0.0669 3.605921,0.0135 4.409931,0.16316 0.157936,0.0294 0.176137,0.0116 0.213988,-0.21226 0.123765,-0.73084 0.532215,-2.35106 0.806078,-3.19715 0.424827,-1.31251 0.855413,-2.34071 1.545953,-3.69147 l 0.58076,-1.13602 -1.159565,-3.47543 c -2.485757,-7.45035 -3.86608,-12.35574 -4.474369,-15.90074 -0.136887,-0.79805 -0.176945,-1.24438 -0.180852,-2.01752 -0.005,-0.92776 0.005,-1.01158 0.147834,-1.28094 0.369702,-0.69743 0.932294,-1.15858 1.68493,-1.38109 0.589262,-0.17424 1.846351,-0.16098 2.746384,0.0288 3.690481,0.7785 9.341571,3.9461 16.214679,9.08877 1.633409,1.22218 1.768849,1.31005 1.923401,1.24819 5.008435,-2.00489 10.213855,-3.27172 15.84198,-3.85543 10.368727,-1.07537 20.791247,0.14298 29.346721,3.4304 0.553269,0.2126 0.944643,0.33021 0.99416,0.29878 0.04494,-0.0285 0.874889,-0.64522 1.8444,-1.37045 7.702839,-5.76197 13.807395,-8.90869 17.310205,-8.92288 1.23414,-0.006 1.97535,0.26704 2.62869,0.96472 0.49887,0.53279 0.58831,0.82684 0.58721,1.93059 -9.2e-4,1.69888 -0.4418,4.23178 -1.38777,7.98664 -1.21967,4.84135 -2.98936,10.30136 -3.9738,12.26034 l -0.27115,0.53957 0.28182,0.47621 c 1.2159,2.05448 2.2314,4.6826 2.74486,7.10374 0.0881,0.41577 0.17563,0.82288 0.19434,0.90465 0.0283,0.12339 0.0637,0.14247 0.20796,0.11159 0.0957,-0.0203 0.73652,-0.063 1.42414,-0.0948 5.74487,-0.26527 11.13188,1.23022 15.20719,4.22169 0.73812,0.54184 2.12522,1.85196 2.68567,2.53663 0.34889,0.42626 1.01138,1.37116 1.16279,1.65852 0.0921,0.17444 0.0615,0.14063 -0.40276,-0.44833 -3.48566,-4.42177 -10.31608,-7.13587 -17.43472,-6.92775 -1.14183,0.0333 -2.3912,0.12849 -2.59818,0.19767 -0.0444,0.0152 -0.0406,0.28855 0.0116,0.84613 0.0427,0.45328 0.0796,1.14711 0.0817,1.5418 l 0.004,0.71763 0.20836,0.0314 c 0.11467,0.0172 0.62672,0.091 1.13801,0.16332 5.76013,0.81791 10.85128,3.66167 13.43357,7.50351 0.59752,0.88895 0.62354,0.99888 0.0601,0.25399 -0.17133,-0.22646 -0.58267,-0.69404 -0.91414,-1.03904 -3.07705,-3.20255 -8.0522,-5.37239 -13.41875,-5.85229 l -0.48663,-0.0436 -0.0415,0.85521 c -0.0717,1.4743 -0.35363,4.40034 -0.52171,5.4161 -0.95813,5.78978 -3.03242,10.72741 -6.25319,14.88501 -4.856678,6.26937 -12.254779,10.67666 -21.910017,13.05251 -3.116031,0.76678 -6.220414,1.24999 -10.162058,1.58181 -1.369463,0.11519 -6.507752,0.17166 -8.09494,0.0886 z m 5.844706,-5.3742 c 1.034446,-0.21327 2.388048,-0.91442 3.255802,-1.68654 l 0.316967,-0.28202 -0.152548,-0.47546 c -0.158947,-0.49561 -0.236432,-1.15811 -0.167364,-1.43268 0.106919,-0.42548 0.566464,-0.33389 1.140624,0.22734 0.212454,0.20768 0.394755,0.3776 0.405075,0.3776 0.04194,0 0.877405,-1.16088 1.244477,-1.72927 0.536648,-0.83105 1.456767,-2.66143 1.883495,-3.74684 1.125774,-2.86346 1.778077,-5.9291 1.853391,-8.71053 0.01834,-0.67729 0.01347,-0.70527 -0.117691,-0.72397 -0.11922,-0.017 -0.09227,-0.0614 0.209592,-0.34669 0.710021,-0.67085 1.445623,-1.78649 1.825133,-2.76812 0.298176,-0.77123 0.44135,-1.50655 0.474701,-2.43791 l 0.02978,-0.83262 -0.123939,0.56972 c -0.360642,1.65785 -0.964531,2.83585 -2.01538,3.93133 -1.0709,1.11641 -2.199316,1.77138 -3.742829,2.17253 -0.622146,0.16165 -0.791666,0.17871 -1.777653,0.17864 -1.132408,-6e-5 -1.521759,-0.0572 -2.468365,-0.36212 -1.322299,-0.42593 -2.783576,-1.46023 -3.642828,-2.57845 l -0.143962,-0.1874 -0.106252,0.15542 c -0.196208,0.28719 -1.072313,1.15739 -1.456042,1.44624 -0.867416,0.65293 -1.820555,1.09942 -2.93121,1.37309 -0.503845,0.12403 -0.773245,0.14817 -1.689358,0.15037 -0.691616,9.1e-4 -1.230501,-0.0289 -1.474612,-0.0837 -1.61817,-0.36363 -2.840505,-1.01968 -3.949492,-2.11975 -1.144699,-1.13547 -1.855561,-2.46748 -2.145267,-4.01962 -0.05775,-0.30911 -0.120388,-0.57643 -0.139585,-0.59405 -0.06751,-0.0624 0.04899,1.57637 0.143289,2.0167 0.401002,1.86969 1.568095,3.68471 3.005075,4.67338 l 0.341582,0.23502 0.04006,0.81266 c 0.174371,3.5287 1.383219,7.70606 3.13508,10.83376 0.474195,0.84658 1.371146,2.20763 1.578314,2.3949 0.119387,0.108 0.128976,0.10403 0.261891,-0.11094 0.351954,-0.56888 0.85469,-0.78227 1.069924,-0.45412 0.145644,0.22207 0.187907,0.94791 0.09043,1.55192 l -0.08015,0.49559 0.375932,0.33838 c 0.909226,0.81845 2.239356,1.52537 3.284493,1.7456 0.730564,0.1539 1.621051,0.15509 2.359105,0.004 z m -7.964365,-11.97422 c -0.815996,-0.49709 -1.80035,-2.70453 -1.985799,-4.45314 l -0.04681,-0.44209 0.248944,0.0414 c 0.136887,0.0227 0.580725,0.0603 0.986239,0.0834 0.417201,0.0239 0.757756,0.0726 0.784411,0.11249 0.02593,0.0388 0.04831,0.22887 0.04968,0.42265 0.0014,0.19373 0.06262,0.59722 0.136048,0.89666 0.10792,0.44071 0.139416,0.82193 0.165513,2.0015 0.0352,1.59682 0.04226,1.56879 -0.338131,1.33705 z m 13.452047,-1.33705 c 0.0229,-1.10702 0.05641,-1.54944 0.139415,-1.84138 0.06012,-0.21136 0.123587,-0.58604 0.1411,-0.83261 0.05539,-0.77922 -0.02037,-0.71088 0.839938,-0.75868 0.415045,-0.0232 0.862805,-0.06 0.995029,-0.0823 0.236466,-0.0397 0.240423,-0.0371 0.240423,0.16601 0,0.29375 -0.230488,1.38537 -0.423446,2.00544 -0.44099,1.41707 -1.373823,2.80059 -1.88831,2.80059 -0.05489,0 -0.06633,-0.37951 -0.04412,-1.45709 z m -5.466011,-9.9132 c 1.845003,-0.26171 3.174393,-0.89354 3.595769,-1.70897 0.569023,-1.10111 -1.058675,-2.26411 -3.659887,-2.61503 -0.790504,-0.10672 -2.470266,-0.0898 -3.289715,0.0331 -1.72741,0.25896 -3.117281,0.92426 -3.466422,1.65925 -0.567525,1.19476 1.185411,2.39078 3.935146,2.68495 0.601991,0.0643 2.272863,0.0336 2.885109,-0.0533 z m -20.388043,-1.63843 c 2.443745,-0.3745 4.700696,-2.23165 5.985921,-4.92547 1.559929,-3.26965 1.517111,-7.24994 -0.112646,-10.46471 -0.923773,-1.82227 -2.222889,-3.1835 -3.821678,-4.00442 -2.031934,-1.04331 -4.292387,-1.0439 -6.333601,-9.1e-4 -3.052927,1.55879 -5.078581,5.28725 -5.078581,9.3477 0,4.78885 2.755443,8.95883 6.564359,9.93429 0.897894,0.22994 1.800653,0.26684 2.796188,0.11428 z m -1.739416,-3.58425 c -1.063695,-0.15611 -2.222856,-0.81374 -2.951685,-1.67461 -1.86974,-2.20847 -2.240046,-5.49085 -0.919699,-8.15221 0.79458,-1.60159 2.072024,-2.68891 3.543186,-3.01587 0.737786,-0.164 1.744653,-0.10083 2.431405,0.15223 0.864118,0.31852 1.715203,0.93502 2.254004,1.6327 1.199892,1.55369 1.749502,3.63067 1.481248,5.59761 -0.220405,1.61607 -0.858378,2.99292 -1.853274,3.99965 -0.817881,0.8276 -1.749112,1.31665 -2.779335,1.45955 -0.557876,0.0773 -0.684476,0.0775 -1.20585,9.2e-4 z m 2.521013,-2.5979 c 1.61162,-0.47307 2.744632,-1.95444 2.744632,-3.58849 0,-0.64123 -0.09716,-1.0533 -0.395277,-1.67714 -0.602799,-1.26118 -1.963153,-2.1212 -3.355345,-2.1212 -1.664205,0 -3.241004,1.22809 -3.653305,2.84539 -0.126295,0.49516 -0.124266,1.35289 0.005,1.85067 0.309358,1.19787 1.295565,2.26412 2.435649,2.63334 0.741912,0.24026 1.527264,0.26058 2.219336,0.0574 z m -1.216174,-2.22749 c -1.101678,-0.35876 -1.460536,-1.73629 -0.677794,-2.6018 0.840815,-0.92975 2.403337,-0.51566 2.726482,0.72257 0.300095,1.14994 -0.902054,2.25266 -2.048688,1.87923 z m 39.223146,8.40964 c 2.443731,-0.3745 4.70068,-2.23165 5.985902,-4.92547 1.118246,-2.34384 1.422469,-5.0225 0.871792,-7.67574 -0.508723,-2.45106 -1.884387,-4.74154 -3.641223,-6.06269 -2.284244,-1.71776 -5.041186,-1.98702 -7.498453,-0.73238 -3.200949,1.63441 -5.243676,5.61641 -5.058144,9.86011 0.164167,3.75384 1.935762,7.02407 4.691905,8.66061 1.394724,0.82817 2.993056,1.12925 4.648221,0.87556 z m -1.739439,-3.58425 c -3.309356,-0.48567 -5.420401,-4.59021 -4.380888,-8.51784 0.338761,-1.27994 1.181346,-2.62821 2.100808,-3.36169 0.968611,-0.77267 1.942487,-1.09368 3.147351,-1.0374 0.85297,0.04 1.493288,0.24727 2.226823,0.72129 3.307114,2.13718 3.778314,7.81356 0.891091,10.73512 -0.817863,0.82761 -1.749107,1.31665 -2.779329,1.45956 -0.557882,0.0774 -0.684477,0.0776 -1.205856,9.2e-4 z m 0.864642,-2.78694 c 0.606186,-0.1561 1.117594,-0.45772 1.616741,-0.95338 1.806895,-1.79434 1.178157,-4.79481 -1.211784,-5.78275 -0.586426,-0.24242 -1.640782,-0.27979 -2.297744,-0.0814 -0.629391,0.19001 -1.113797,0.49398 -1.579125,0.99089 -1.316828,1.40626 -1.28049,3.50597 0.08437,4.87645 0.470438,0.47239 1.002422,0.78796 1.608534,0.95423 0.436011,0.11968 1.306774,0.11762 1.778985,-0.004 z m -1.497828,-2.00408 c -0.473811,-0.15526 -0.88884,-0.52373 -1.065467,-0.94602 -0.127459,-0.30467 -0.109942,-0.96263 0.03382,-1.27167 0.453555,-0.97501 1.781393,-1.23451 2.541827,-0.49673 0.80088,0.77702 0.608051,2.08091 -0.383149,2.59103 -0.274906,0.14145 -0.872242,0.20685 -1.127059,0.12339 z"
       id="path23"
       inkscape:connector-curvature="0" />
    <text
       xml:space="preserve"
       style="font-style:normal;font-variant:normal;font-weight:normal;font-stretch:normal;font-size:21.73139381px;line-height:1.25;font-family:'UKIJ Qolyazma Tuz';-inkscape-font-specification:'UKIJ Qolyazma Tuz, Normal';font-variant-ligatures:normal;font-variant-caps:normal;font-variant-numeric:normal;font-feature-settings:normal;text-align:center;letter-spacing:0px;word-spacing:0px;writing-mode:lr-tb;text-anchor:middle;fill:#ef2929;fill-opacity:1;stroke:none;stroke-width:0.33955303"
       x="65.642387"
       y="267.91248"
       id="text27"
       transform="scale(1.00051,0.99949026)"><tspan
         sodipodi:role="line"
         id="tspan25"
         x="65.642387"
         y="267.91248"
         style="font-style:normal;font-variant:normal;font-weight:normal;font-stretch:normal;font-size:21.73139381px;font-family:'UKIJ Qolyazma Tuz';-inkscape-font-specification:'UKIJ Qolyazma Tuz, Normal';font-variant-ligatures:normal;font-variant-caps:normal;font-variant-numeric:normal;font-feature-settings:normal;text-align:center;writing-mode:lr-tb;text-anchor:middle;fill:#ef2929;stroke-width:0.33955303">Ha:ppy Cat</tspan></text>
  </g>
</svg>
