<?xml version="1.0" encoding="UTF-8" standalone="no"?>
<!-- Created with Inkscape (http://www.inkscape.org/) -->

<svg
   xmlns:dc="http://purl.org/dc/elements/1.1/"
   xmlns:cc="http://creativecommons.org/ns#"
   xmlns:rdf="http://www.w3.org/1999/02/22-rdf-syntax-ns#"
   xmlns:svg="http://www.w3.org/2000/svg"
   xmlns="http://www.w3.org/2000/svg"
   xmlns:sodipodi="http://sodipodi.sourceforge.net/DTD/sodipodi-0.dtd"
   xmlns:inkscape="http://www.inkscape.org/namespaces/inkscape"
   width="512"
   height="512"
   viewBox="0 0 135.46666 135.46667"
   version="1.1"
   id="svg8"
   inkscape:version="0.92.4 (5da689c313, 2019-01-14)"
   sodipodi:docname="castle.svg">
  <defs
     id="defs2" />
  <sodipodi:namedview
     id="base"
     pagecolor="#ffffff"
     bordercolor="#666666"
     borderopacity="1.0"
     inkscape:pageopacity="0.0"
     inkscape:pageshadow="2"
     inkscape:zoom="0.35"
     inkscape:cx="251.77895"
     inkscape:cy="560"
     inkscape:document-units="mm"
     inkscape:current-layer="layer1"
     showgrid="false"
     units="px"
     inkscape:window-width="675"
     inkscape:window-height="740"
     inkscape:window-x="683"
     inkscape:window-y="0"
     inkscape:window-maximized="0" />
  <metadata
     id="metadata5">
    <rdf:RDF>
      <cc:Work
         rdf:about="">
        <dc:format>image/svg+xml</dc:format>
        <dc:type
           rdf:resource="http://purl.org/dc/dcmitype/StillImage" />
        <dc:title></dc:title>
      </cc:Work>
    </rdf:RDF>
  </metadata>
  <g
     inkscape:label="Layer 1"
     inkscape:groupmode="layer"
     id="layer1"
     transform="translate(0,-161.53332)">
    <g
       id="g41"
       transform="matrix(0.79073838,0,0,0.79073838,-15.056497,89.631867)">
      <path
         style="fill:#c5c4c9;stroke-width:0.28222221"
         d="m 36.150786,233.90787 c -0.264674,-0.1068 -0.352778,-1.46812 -0.352778,-5.45086 0,-4.78802 0.04842,-5.32899 0.493889,-5.51734 0.271639,-0.11485 2.081389,-0.28719 4.021666,-0.38297 l 3.527778,-0.17415 v -29.63333 -29.63333 l -3.386667,-0.0692 c -1.862666,-0.0381 -3.672416,-0.13575 -4.021666,-0.21704 l -0.635,-0.1478 v -13.22888 c 0,-11.80265 0.04813,-13.24734 0.446416,-13.40018 0.657448,-0.25228 12.617674,-0.2003 13.022028,0.0566 0.241798,0.15363 0.368527,1.52523 0.423333,4.58179 l 0.07822,4.36253 2.046111,0.0829 2.046111,0.0829 v -4.33036 c 0,-2.99177 0.104689,-4.43506 0.338667,-4.66904 0.480734,-0.48073 13.235265,-0.48073 13.715999,0 0.233979,0.23398 0.338667,1.67727 0.338667,4.66904 v 4.33036 l 2.046111,-0.0829 2.046111,-0.0829 0.07822,-4.36253 c 0.05481,-3.05656 0.181534,-4.42816 0.423334,-4.58179 0.456737,-0.29018 12.942908,-0.28414 13.400712,0.006 0.27945,0.17741 0.339888,3.05963 0.282222,13.45911 l -0.07338,13.23336 -0.705555,0.16504 c -0.593926,0.13892 -0.719213,0.35155 -0.791882,1.3439 -0.09118,1.24506 -0.06704,1.26598 1.779659,1.5422 0.339279,0.0507 0.601043,0.34135 0.656192,0.72848 0.08709,0.61132 0.194658,0.63986 2.116667,0.56156 l 2.024919,-0.0825 0.07822,-4.36252 c 0.05481,-3.05656 0.181534,-4.42817 0.423334,-4.58179 0.189808,-0.1206 3.301003,-0.22121 6.913761,-0.22359 l 6.568645,-0.004 0.27524,0.72393 c 0.15138,0.39816 0.27524,2.49366 0.27524,4.65666 v 3.93274 h 1.97555 1.97556 v -3.93274 c 0,-2.163 0.12385,-4.2585 0.27524,-4.65666 l 0.27523,-0.72393 6.56865,0.004 c 3.61276,0.002 6.72396,0.10299 6.91377,0.22358 0.24179,0.15363 0.36852,1.52523 0.42333,4.58179 l 0.0782,4.36253 2.02492,0.0825 c 1.92462,0.0784 2.02946,0.0505 2.11667,-0.56444 0.0708,-0.4995 0.31686,-0.6791 1.07952,-0.78805 0.95236,-0.13605 0.99083,-0.18841 1.07292,-1.46013 0.0769,-1.19166 0.0224,-1.3279 -0.56445,-1.41111 l -0.64958,-0.0921 -0.0734,-13.24604 c -0.0577,-10.40969 0.003,-13.29439 0.28222,-13.47179 0.45781,-0.29063 12.94398,-0.29667 13.40072,-0.006 0.24179,0.15362 0.36852,1.52523 0.42333,4.58179 l 0.0782,4.36253 2.04611,0.0829 2.04611,0.0829 v -4.33036 c 0,-2.99177 0.10469,-4.43506 0.33867,-4.66904 0.48074,-0.48073 13.23527,-0.48073 13.716,0 0.23398,0.23398 0.33867,1.67727 0.33867,4.66904 v 4.33036 l 2.04611,-0.0829 2.04611,-0.0829 0.0782,-4.36253 c 0.0548,-3.05656 0.18154,-4.42816 0.42334,-4.58179 0.40435,-0.2569 12.36457,-0.30888 13.02202,-0.0566 0.39829,0.15284 0.44642,1.59753 0.44642,13.40018 v 13.22888 l -0.635,0.1478 c -0.34925,0.0813 -2.159,0.17896 -4.02167,0.21704 l -3.38666,0.0692 v 29.63333 29.63333 l 3.52777,0.17415 c 1.94028,0.0958 3.75003,0.26812 4.02167,0.38297 0.44543,0.18834 0.49389,0.729 0.49389,5.51066 0,4.57423 -0.0613,5.32534 -0.44642,5.47314 -0.53421,0.20499 -143.190258,0.1895 -143.698571,-0.0156 z m 71.839664,-54.33842 c 0.38232,-0.38232 0.45354,-2.99438 0.097,-3.55652 -0.16184,-0.25515 -0.78572,-0.34138 -2.04179,-0.28223 l -1.80875,0.0852 -0.0858,1.66173 c -0.0472,0.91395 -0.0194,1.8347 0.0617,2.04611 0.18856,0.49139 3.2944,0.52897 3.77766,0.0457 z m 7.05555,0 c 0.38232,-0.38232 0.45355,-2.99438 0.097,-3.55652 -0.16183,-0.25515 -0.78572,-0.34138 -2.04179,-0.28223 l -1.80874,0.0852 -0.0858,1.66173 c -0.0472,0.91395 -0.0194,1.8347 0.0617,2.04611 0.18857,0.49139 3.29441,0.52897 3.77766,0.0457 z m 18.90723,-1.85305 0.083,-2.05059 -7.84412,0.075 -7.84412,0.075 -0.0858,1.66173 c -0.0472,0.91395 -0.0187,1.83675 0.0634,2.05066 0.12273,0.31985 1.51648,0.37559 7.84691,0.31383 l 7.69766,-0.0751 z M 52.872452,154.08478 v -1.97556 h -1.834445 -1.834444 l -0.08319,2.0593 -0.08319,2.05929 1.917631,-0.0837 1.91763,-0.0837 z m 7.055555,0 v -1.97556 h -1.834445 -1.834444 l -0.08319,2.0593 -0.08319,2.05929 1.91763,-0.0837 1.91763,-0.0837 z m 18.908888,0 v -1.97556 h -7.761111 -7.761111 l -0.08301,2.0506 -0.08301,2.0506 7.844121,-0.075 7.844121,-0.075 z m 66.886665,0 v -1.97556 l -1.80875,-0.0852 c -2.09891,-0.0989 -2.27287,0.0513 -2.27915,1.9671 -0.007,2.15721 0.0846,2.24613 2.21774,2.15185 l 1.87016,-0.0827 z m 7.05555,0 v -1.97556 l -1.80874,-0.0852 c -2.09892,-0.0989 -2.27287,0.0513 -2.27916,1.9671 -0.007,2.15721 0.0846,2.24613 2.21774,2.15185 l 1.87016,-0.0827 z m 18.90889,0 v -1.97556 l -7.74159,-0.0752 c -6.00537,-0.0583 -7.79248,0.005 -7.96846,0.28222 -0.2678,0.42191 -0.3109,2.79588 -0.0625,3.44318 0.15367,0.40045 1.04452,0.44245 7.97278,0.37586 l 7.79978,-0.075 z m -65.98247,0.81011 c -0.10925,-0.10924 -0.19864,-9.88849 -0.19864,-21.73166 0,-24.57011 -0.29527,-22.11734 2.66256,-22.11734 1.19448,0 1.70599,0.13522 2.13522,0.56445 0.52668,0.52668 0.94074,0.56444 6.18873,0.56444 6.73141,0 6.51127,-0.10087 6.51127,2.98349 v 2.09651 h 5.751 c 4.53224,0 5.81917,0.0821 6.0727,0.38763 0.2267,0.27316 0.29941,2.50252 0.24622,7.54944 l -0.0755,7.16182 h -8.46666 -8.46667 l -0.14111,-2.39889 -0.14111,-2.39889 h -3.52778 -3.52778 l -0.14111,13.68778 -0.14111,13.68778 -2.27081,0.081 c -1.24895,0.0446 -2.3602,-0.008 -2.46944,-0.1176 z"
         id="path55"
         inkscape:connector-curvature="0" />
      <path
         style="fill:#aadf94;stroke-width:0.28222221"
         d="m 36.150786,233.62564 c -0.264163,-0.10659 -0.352778,-1.43807 -0.352778,-5.30063 v -5.15828 l 1.481667,-0.17797 c 0.814916,-0.0979 2.653997,-0.17907 4.086845,-0.18042 2.467106,-0.002 2.613309,-0.0361 2.758594,-0.63745 0.08438,-0.34925 0.118548,-13.843 0.07593,-29.98611 l -0.07748,-29.35111 -4.162777,-0.0781 -4.162778,-0.0781 v -13.11041 -13.11041 l 0.635,-0.15574 c 0.34925,-0.0856 3.3655,-0.11982 6.702777,-0.0759 l 6.067778,0.0798 0.141111,4.51556 0.141111,4.51555 h 2.257778 2.257777 l 0.07822,-4.36252 c 0.05481,-3.05656 0.181535,-4.42817 0.423334,-4.58179 0.189811,-0.1206 3.15531,-0.22121 6.589998,-0.22359 4.830043,-0.003 6.314882,0.08 6.553831,0.36793 0.184765,0.22263 0.34045,2.06596 0.387333,4.58611 l 0.07839,4.21386 2.178902,0.0823 c 2.62406,0.0991 2.452787,0.44578 2.550227,-5.16228 l 0.06865,-3.95111 h 6.632222 6.632222 l 0.07344,12.96523 c 0.04606,8.13174 -0.02896,13.06763 -0.201233,13.2399 -0.151071,0.15107 -1.454119,0.34922 -2.895662,0.44033 l -2.620989,0.16565 v 8.46667 8.46666 l 3.245555,0.14111 3.245556,0.14112 v 2.39888 2.39889 l -3.245556,0.14111 -3.245555,0.14112 -0.07258,18.55611 c -0.04819,12.31894 0.02297,18.55611 0.211667,18.55611 0.156337,0 0.284251,-0.31304 0.284251,-0.69563 0,-0.3989 0.232853,-0.82025 0.545891,-0.98778 0.317015,-0.16966 2.629589,-0.29215 5.515697,-0.29215 h 4.969807 l -0.08292,-2.04611 -0.08292,-2.04611 -4.374444,-0.14111 -4.374444,-0.14111 -0.08184,-2.32013 c -0.09816,-2.78289 -0.453828,-2.59226 5.020724,-2.69109 l 3.81,-0.0688 0.07406,-10.5832 0.07406,-10.58319 3.873268,-3.88069 3.873271,-3.8807 h 8.313896 8.31389 l 0.79036,0.75721 c 0.60403,0.5787 1.20005,0.80552 2.52814,0.96212 l 1.73778,0.20489 2.99064,2.9894 2.99063,2.98939 0.14112,3.31572 c 0.13612,3.19846 0.1641,3.31897 0.79131,3.40789 1.62149,0.22987 1.62149,4.948 0,5.17787 l -0.6502,0.0922 -0.0744,9.24277 -0.0744,9.24278 h 3.33659 c 3.59832,0 4.18514,0.19072 4.34172,1.41111 0.0814,0.63466 0.21814,0.70556 1.36052,0.70556 h 1.27 v -2.82223 -2.82222 l -4.37445,-0.14111 -4.37444,-0.14111 -0.0842,-2.11046 c -0.11325,-2.83794 -0.12986,-2.82843 4.9375,-2.82843 h 4.03985 l -0.0721,-24.34166 -0.0721,-24.34167 -0.9075,-0.0877 -0.9075,-0.0877 -0.0803,3.05104 -0.0803,3.05105 -0.98778,0.14111 c -0.92021,0.13146 -0.99404,0.21808 -1.07936,1.26642 -0.0504,0.61892 -0.22467,1.28567 -0.38733,1.48167 -0.41298,0.49761 -13.22043,0.51412 -13.71686,0.0177 -0.23402,-0.23401 -0.33867,-1.67849 -0.33867,-4.67455 v -4.33588 l -0.91722,0.0884 -0.91722,0.0884 -0.0799,3.01741 -0.0799,3.01741 -1.04895,0.087 c -1.02596,0.0851 -1.05092,0.11477 -1.13895,1.3524 -0.0495,0.69595 -0.24001,1.36076 -0.42334,1.47734 -0.44217,0.2812 -12.93509,0.2744 -13.37844,-0.007 -0.2418,-0.15362 -0.36853,-1.52523 -0.42333,-4.58179 l -0.0782,-4.36253 -0.907506,-0.0877 -0.9075,-0.0877 -0.08028,3.05104 -0.08028,3.05105 -0.987777,0.14111 c -0.920217,0.13146 -0.994044,0.21808 -1.079362,1.26642 -0.05037,0.61892 -0.224674,1.28567 -0.387336,1.48167 -0.452687,0.54545 -13.29454,0.50989 -13.749313,-0.0381 -0.212826,-0.25644 -0.298966,-1.36719 -0.246225,-3.175 0.09293,-3.18505 0.05422,-3.14875 2.969142,-2.78456 1.265481,0.15811 1.561177,0.30497 1.781635,0.88481 0.253664,0.66719 0.352665,0.69191 2.454004,0.61277 l 2.189677,-0.0825 0.141111,-4.51555 0.141111,-4.51556 6.455701,-0.0759 c 4.455398,-0.0524 6.573748,0.022 6.836688,0.24025 0.28233,0.23431 0.40113,1.42332 0.45874,4.5915 l 0.0778,4.2753 h 2.11666 2.11667 l 0.0777,-4.2753 c 0.0576,-3.16818 0.17642,-4.35719 0.45875,-4.5915 0.26294,-0.21822 2.38129,-0.29266 6.83669,-0.24025 l 6.4557,0.0759 0.14111,4.51556 0.14111,4.51555 2.18968,0.0825 c 2.11876,0.0798 2.19851,0.0592 2.46246,-0.635 0.18462,-0.48559 0.48564,-0.71748 0.93138,-0.71748 1.15255,0 1.66444,-0.60376 1.56316,-1.84369 -0.0731,-0.89504 -0.24514,-1.18909 -0.87004,-1.48716 l -0.77892,-0.37153 0.0734,-13.03603 0.0734,-13.03603 h 6.63223 6.63222 l 0.0686,3.95111 c 0.0974,5.60806 -0.0738,5.26137 2.55022,5.16228 l 2.17891,-0.0823 0.0784,-4.21386 c 0.0469,-2.52015 0.20257,-4.36348 0.38733,-4.58611 0.23895,-0.28791 1.72379,-0.37127 6.55383,-0.36793 3.43469,0.002 6.40019,0.10299 6.59,0.22359 0.2418,0.15362 0.36853,1.52523 0.42333,4.58179 l 0.0782,4.36252 h 2.25777 2.25778 l 0.14111,-4.51555 0.14111,-4.51556 6.06778,-0.0798 c 3.33728,-0.0439 6.35353,-0.01 6.70278,0.0759 l 0.635,0.15574 v 13.11041 13.11041 l -4.16278,0.0781 -4.16278,0.0781 -0.0775,29.35111 c -0.0426,16.14311 -0.008,29.63686 0.0759,29.98611 0.14529,0.60134 0.29149,0.63513 2.7586,0.63745 1.43284,0.001 3.27192,0.0825 4.08684,0.18042 l 1.48167,0.17797 v 5.15161 c 0,4.43724 -0.0619,5.17536 -0.44642,5.32291 -0.53421,0.20499 -143.190258,0.1895 -143.698571,-0.0156 z m 36.900553,-43.92692 c 0,-24.23944 0.07559,-30.9506 0.352778,-31.32176 0.295329,-0.39544 0.996196,-0.48465 4.303889,-0.54783 l 3.951111,-0.0755 v -8.32556 -8.32555 h -0.705556 c -0.703625,0 -0.705776,0.008 -0.785498,3.01812 l -0.07995,3.01812 -1.183674,0.0863 c -1.154452,0.0842 -1.188714,0.11605 -1.387745,1.29011 -0.11224,0.66208 -0.281359,1.32883 -0.375816,1.48166 -0.281627,0.45568 -13.260715,0.36591 -13.642705,-0.0944 -0.184767,-0.22263 -0.34045,-2.06596 -0.387334,-4.58611 -0.07642,-4.10801 -0.0941,-4.21609 -0.703659,-4.30277 -0.60837,-0.0865 -0.627435,-0.006 -0.705555,2.96333 l -0.08029,3.05225 -1.27,0.14111 c -1.24993,0.13888 -1.271447,0.15889 -1.361585,1.26642 -0.05037,0.61892 -0.224672,1.28567 -0.387334,1.48166 -0.222727,0.26837 -1.922312,0.35636 -6.883485,0.35636 -6.22426,0 -6.603855,-0.0301 -6.879888,-0.54589 -0.163213,-0.30497 -0.292152,-2.36881 -0.292152,-4.6763 0,-4.12195 -0.0013,-4.13022 -0.635,-4.04022 l -0.635,0.0902 v 8.32555 8.32556 l 10.442222,0.14111 10.442222,0.14111 v 2.39889 2.39889 l -6.208889,0.14111 -6.208888,0.14111 -0.07346,12.62334 -0.07346,12.62334 0.637901,0.14513 c 0.350846,0.0798 1.399901,0.17781 2.331235,0.21777 l 1.693333,0.0726 v 2.25778 2.25778 l -1.693333,0.0726 c -0.931334,0.04 -1.981417,0.13821 -2.333518,0.21835 l -0.640186,0.1457 0.07574,6.55498 0.07574,6.55499 2.257777,0.14111 2.257778,0.14112 v 2.25777 2.25778 l -2.257778,0.14111 -2.257777,0.14111 -0.07791,4.30389 -0.07791,4.30389 h 10.731795 10.731794 z m -14.49484,21.47634 c -0.222383,-0.83016 -0.222383,-2.7193 0,-3.54945 0.16469,-0.61479 0.283221,-0.64193 2.465591,-0.56445 l 2.292583,0.0814 v 2.25777 2.25778 l -2.292583,0.0814 c -2.18237,0.0775 -2.300901,0.0504 -2.465591,-0.56444 z m 7.055556,0 c -0.222383,-0.83016 -0.222383,-2.7193 0,-3.54945 0.164688,-0.61479 0.283221,-0.64193 2.465589,-0.56445 l 2.292584,0.0814 v 2.25777 2.25778 l -2.292584,0.0814 c -2.182368,0.0775 -2.300901,0.0504 -2.465589,-0.56444 z M 53.705187,184.91247 c -0.07553,-0.19683 -0.103294,-3.53058 -0.0617,-7.40834 l 0.07563,-7.05046 h 7.337778 7.337777 l 0.0893,0.77611 c 0.08362,0.72675 0.17566,0.77611 1.447111,0.77611 0.811584,0 1.488118,0.15701 1.681737,0.39031 0.22208,0.26759 0.299497,1.84262 0.246222,5.00945 l -0.0777,4.61913 -1.552222,0.14111 -1.552222,0.14111 -0.09158,1.12531 c -0.05037,0.61892 -0.224674,1.28567 -0.387336,1.48167 -0.429209,0.51716 -14.294307,0.51572 -14.492788,-0.001 z m 113.326143,26.32231 v -9.31334 h -5.44688 c -3.86018,0 -5.54555,-0.0986 -5.78556,-0.33866 -0.41505,-0.41505 -0.44863,-3.44408 -0.0465,-4.19544 0.27349,-0.51101 0.64324,-0.5459 5.78556,-0.5459 h 5.4934 v -18.99605 c 0,-14.75677 0.0787,-19.10148 0.35278,-19.46843 0.29533,-0.39544 0.9962,-0.48465 4.30389,-0.54783 l 3.95111,-0.0755 v -8.32556 -8.32555 h -0.70555 c -0.70363,0 -0.70578,0.008 -0.7855,3.01812 l -0.0799,3.01812 -1.19005,0.0863 c -1.15653,0.0839 -1.19432,0.11814 -1.34107,1.21522 -0.0831,0.62089 -0.24929,1.28764 -0.36943,1.48166 -0.30657,0.49514 -13.18102,0.50843 -13.67534,0.0141 -0.23402,-0.23402 -0.33866,-1.67888 -0.33866,-4.67629 0,-4.33686 -1.2e-4,-4.33761 -0.635,-4.24745 -0.60186,0.0855 -0.64237,0.24484 -0.77611,3.05352 l -0.14112,2.96334 -1.27,0.14111 c -1.24992,0.13888 -1.27144,0.15889 -1.36158,1.26642 -0.0504,0.61892 -0.22467,1.28567 -0.38733,1.48166 -0.22277,0.26842 -1.92561,0.35636 -6.90041,0.35636 h -6.60464 l -0.27524,-0.72393 c -0.15138,-0.39816 -0.27524,-2.50249 -0.27524,-4.67629 0,-3.93733 -0.003,-3.95203 -0.635,-3.86219 l -0.635,0.0902 v 8.32555 8.32556 l 10.16,0.0719 c 11.58762,0.082 10.86556,-0.0914 10.86556,2.60919 0,2.59256 0.17717,2.5229 -6.63223,2.60749 l -5.92666,0.0736 -0.0735,12.62334 -0.0735,12.62334 0.63791,0.14038 c 0.35084,0.0772 1.0189,0.17521 1.48456,0.21777 l 0.84667,0.0774 v 2.25778 2.25778 l -0.84667,0.0774 c -0.46566,0.0426 -1.1343,0.1407 -1.48585,0.21809 l -0.63919,0.14071 0.0747,8.38968 0.0747,8.38968 2.25778,0.14111 2.25777,0.14111 v 2.25778 2.25778 l -2.25777,0.14111 -2.25778,0.14111 -0.0815,2.46945 -0.0815,2.46944 h 10.73543 10.73543 z m -14.19435,4.05601 c -0.10944,-0.10944 -0.19898,-1.19894 -0.19898,-2.42113 v -2.22215 l 2.32833,0.082 2.32834,0.082 v 2.25778 2.25778 l -2.12936,0.0814 c -1.17114,0.0448 -2.21889,-0.008 -2.32833,-0.11759 z m 7.05555,0 c -0.10943,-0.10944 -0.19897,-1.19894 -0.19897,-2.42113 v -2.22215 l 2.32833,0.082 2.32833,0.082 v 2.25778 2.25778 l -2.12935,0.0814 c -1.17115,0.0448 -2.2189,-0.008 -2.32834,-0.11759 z m -12.0188,-30.40342 c -0.23158,-0.27904 -0.3039,-2.42193 -0.25018,-7.4131 l 0.0756,-7.0206 h 7.33778 7.33778 l 0.0893,0.77611 c 0.0836,0.72675 0.17566,0.77611 1.44711,0.77611 0.81158,0 1.48812,0.15701 1.68174,0.39031 0.22208,0.26759 0.29949,1.84262 0.24622,5.00945 l -0.0777,4.61913 -1.55222,0.14111 -1.55222,0.14111 -0.14111,1.41111 -0.14111,1.41111 -7.0876,0.0753 c -5.77679,0.0614 -7.14785,0.003 -7.41334,-0.31717 z M 106.283,154.76773 c -0.46344,-0.26993 -0.49388,-1.5967 -0.49388,-21.52497 0,-16.14161 0.0813,-21.31857 0.33866,-21.57598 0.18627,-0.18626 1.05559,-0.33866 1.93182,-0.33866 1.23472,0 1.70807,0.12698 2.10396,0.56444 0.47861,0.52886 0.86924,0.56444 6.19619,0.56444 4.04565,0 5.78304,0.0977 6.02403,0.33867 0.20552,0.20552 0.33867,1.20415 0.33867,2.54 v 2.20133 h 5.62136 c 3.09175,0 5.82225,0.0771 6.06778,0.17131 0.39078,0.14996 0.44641,1.06034 0.44641,7.30486 v 7.13356 l -0.635,0.17017 c -0.82779,0.22184 -14.55331,0.22184 -15.38111,0 -0.58865,-0.15775 -0.635,-0.32843 -0.635,-2.33859 0,-1.31025 -0.13403,-2.30245 -0.33866,-2.50708 -0.35573,-0.35573 -6.26421,-0.49467 -7.11714,-0.16736 -0.39847,0.1529 -0.44642,1.62199 -0.44642,13.67784 0,13.06468 -0.0179,13.5161 -0.54589,13.7987 -0.69448,0.37167 -2.82925,0.36389 -3.47578,-0.0127 z"
         id="path53"
         inkscape:connector-curvature="0" />
      <path
         style="fill:#eaaf55;stroke-width:0.28222221"
         d="m 36.150786,233.62564 c -0.2642,-0.1066 -0.352778,-1.4402 -0.352778,-5.31129 v -5.16895 l 2.00082,-0.20094 c 1.10045,-0.11051 2.111485,-0.0903 2.246744,0.045 0.135258,0.13526 0.282639,1.51454 0.327513,3.06507 l 0.08159,2.81915 67.662775,0.0711 67.66277,0.0711 V 226.203 c 0,-3.3283 0.0944,-3.43745 2.7636,-3.19542 l 1.75196,0.15887 v 5.15171 c 0,4.43735 -0.0619,5.17548 -0.44642,5.32303 -0.53421,0.20499 -143.19026,0.1895 -143.698573,-0.0156 z m 8.100466,-8.2092 c -0.0074,-0.11641 -0.03913,-14.24516 -0.07056,-31.39722 l -0.05713,-31.18555 -4.162777,-0.0781 -4.162778,-0.0781 v -13.11041 -13.11041 l 0.635,-0.15574 c 0.34925,-0.0856 3.3655,-0.11982 6.702777,-0.0759 l 6.067778,0.0798 0.141111,4.51556 0.141111,4.51555 h 2.257778 2.257777 l 0.07822,-4.36252 c 0.05481,-3.05656 0.181535,-4.42817 0.423334,-4.58179 0.189811,-0.1206 3.15531,-0.22121 6.589998,-0.22359 4.830043,-0.003 6.314882,0.08 6.553831,0.36793 0.184765,0.22263 0.34045,2.06596 0.387333,4.58611 l 0.07839,4.21386 2.178902,0.0823 c 2.62406,0.0991 2.452787,0.44578 2.550227,-5.16228 l 0.06865,-3.95111 h 6.632222 6.632222 l 0.07344,12.96523 c 0.04606,8.13174 -0.02896,13.06763 -0.201233,13.2399 -0.151071,0.15107 -1.454119,0.34922 -2.895662,0.44033 l -2.620989,0.16565 v 8.46667 8.46666 l 3.245555,0.14111 3.245556,0.14112 v 2.39888 2.39889 l -3.245556,0.14111 -3.245555,0.14112 -0.07258,18.53919 -0.07258,18.53919 -1.05631,0.0875 c -1.011039,0.0837 -1.060236,0.13571 -1.147894,1.21279 -0.05037,0.61892 -0.224674,1.28567 -0.387336,1.48166 -0.232054,0.27961 -3.874363,0.35636 -16.912302,0.35636 -9.139105,0 -16.622594,-0.0952 -16.629976,-0.21167 z m 28.800087,-35.71772 c 0,-24.23944 0.07559,-30.9506 0.352778,-31.32176 0.295329,-0.39544 0.996196,-0.48465 4.303889,-0.54783 l 3.951111,-0.0755 v -8.32556 -8.32555 h -0.705556 c -0.703625,0 -0.705776,0.008 -0.785498,3.01812 l -0.07995,3.01812 -1.183674,0.0863 c -1.154452,0.0842 -1.188714,0.11605 -1.387745,1.29011 -0.11224,0.66208 -0.281359,1.32883 -0.375816,1.48166 -0.281627,0.45568 -13.260715,0.36591 -13.642705,-0.0944 -0.184767,-0.22263 -0.34045,-2.06596 -0.387334,-4.58611 -0.07642,-4.10801 -0.0941,-4.21609 -0.703659,-4.30277 -0.60837,-0.0865 -0.627435,-0.006 -0.705555,2.96333 l -0.08029,3.05225 -1.27,0.14111 c -1.24993,0.13888 -1.271447,0.15889 -1.361585,1.26642 -0.05037,0.61892 -0.224672,1.28567 -0.387334,1.48166 -0.222727,0.26837 -1.922312,0.35636 -6.883485,0.35636 -6.22426,0 -6.603855,-0.0301 -6.879888,-0.54589 -0.163213,-0.30497 -0.292152,-2.36881 -0.292152,-4.6763 0,-4.12195 -0.0013,-4.13022 -0.635,-4.04022 l -0.635,0.0902 v 8.32555 8.32556 l 10.442222,0.14111 10.442222,0.14111 v 2.39889 2.39889 l -6.208889,0.14111 -6.208888,0.14111 -0.07346,12.62334 -0.07346,12.62334 0.637901,0.14513 c 0.350846,0.0798 1.399901,0.17781 2.331235,0.21777 l 1.693333,0.0726 v 2.25778 2.25778 l -1.693333,0.0726 c -0.931334,0.04 -1.981417,0.13821 -2.333518,0.21835 l -0.640186,0.1457 0.07574,6.55498 0.07574,6.55499 2.257777,0.14111 2.257778,0.14112 v 2.25777 2.25778 l -2.257778,0.14111 -2.257777,0.14111 -0.07791,4.30389 -0.07791,4.30389 h 10.731795 10.731794 z m -14.49484,21.47634 c -0.222383,-0.83016 -0.222383,-2.7193 0,-3.54945 0.16469,-0.61479 0.283221,-0.64193 2.465591,-0.56445 l 2.292583,0.0814 v 2.25777 2.25778 l -2.292583,0.0814 c -2.18237,0.0775 -2.300901,0.0504 -2.465591,-0.56444 z m 7.055556,0 c -0.222383,-0.83016 -0.222383,-2.7193 0,-3.54945 0.164688,-0.61479 0.283221,-0.64193 2.465589,-0.56445 l 2.292584,0.0814 v 2.25777 2.25778 l -2.292584,0.0814 c -2.182368,0.0775 -2.300901,0.0504 -2.465589,-0.56444 z M 53.705187,184.91247 c -0.07553,-0.19683 -0.103294,-3.53058 -0.0617,-7.40834 l 0.07563,-7.05046 h 7.337778 7.337777 l 0.0893,0.77611 c 0.08362,0.72675 0.17566,0.77611 1.447111,0.77611 0.811584,0 1.488118,0.15701 1.681737,0.39031 0.22208,0.26759 0.299497,1.84262 0.246222,5.00945 l -0.0777,4.61913 -1.552222,0.14111 -1.552222,0.14111 -0.09158,1.12531 c -0.05037,0.61892 -0.224674,1.28567 -0.387336,1.48167 -0.429209,0.51716 -14.294307,0.51572 -14.492788,-0.001 z m 27.587041,40.37697 c -0.196658,-0.19665 -0.338667,-1.13922 -0.338667,-2.24785 0,-1.59871 0.08877,-1.95668 0.545891,-2.20133 0.317015,-0.16966 2.629589,-0.29215 5.515697,-0.29215 h 4.969807 l -0.08292,-2.04611 -0.08292,-2.04611 -4.374444,-0.14111 -4.374444,-0.14111 -0.08184,-2.32013 c -0.09816,-2.78289 -0.453828,-2.59226 5.020724,-2.69109 l 3.81,-0.0688 0.07406,-10.5832 0.07406,-10.58319 3.873268,-3.88069 3.873271,-3.8807 h 8.313889 8.31389 l 0.79036,0.75721 c 0.60403,0.5787 1.20005,0.80552 2.52814,0.96212 l 1.73778,0.20489 2.99064,2.9894 2.99063,2.98939 0.14112,3.31572 c 0.13612,3.19846 0.1641,3.31897 0.79131,3.40789 1.62149,0.22987 1.62149,4.948 0,5.17787 l -0.6502,0.0922 -0.0744,9.24277 -0.0744,9.24278 h 3.26797 c 1.79738,0 3.51361,0.13147 3.81385,0.29215 0.45712,0.24465 0.54589,0.60262 0.54589,2.20133 0,1.10863 -0.142,2.0512 -0.33866,2.24785 -0.49105,0.49105 -53.018279,0.49105 -53.509328,0 z m 56.995302,-0.033 c -0.18129,-0.21842 -0.341,-1.99309 -0.38734,-4.30388 l -0.0789,-3.9322 -4.37445,-0.14111 -4.37444,-0.14111 -0.0842,-2.11046 c -0.11325,-2.83794 -0.12986,-2.82843 4.9375,-2.82843 h 4.03985 l -0.0721,-24.34166 -0.0721,-24.34167 -0.9075,-0.0877 -0.9075,-0.0877 -0.0803,3.05104 -0.0803,3.05105 -0.98778,0.14111 c -0.92021,0.13146 -0.99404,0.21808 -1.07936,1.26642 -0.0504,0.61892 -0.22467,1.28567 -0.38733,1.48167 -0.41298,0.49761 -13.22043,0.51412 -13.71686,0.0177 -0.23402,-0.23401 -0.33867,-1.67849 -0.33867,-4.67455 v -4.33588 l -0.91722,0.0884 -0.91722,0.0884 -0.0799,3.01741 -0.0799,3.01741 -1.04895,0.087 c -1.02596,0.0851 -1.05092,0.11477 -1.13895,1.3524 -0.0495,0.69595 -0.24001,1.36076 -0.42334,1.47734 -0.44217,0.2812 -12.93509,0.2744 -13.37844,-0.007 -0.2418,-0.15362 -0.36853,-1.52523 -0.42333,-4.58179 l -0.0782,-4.36253 -0.907503,-0.0877 -0.9075,-0.0877 -0.08028,3.05104 -0.08028,3.05105 -0.987777,0.14111 c -0.920217,0.13146 -0.994044,0.21808 -1.079362,1.26642 -0.05037,0.61892 -0.224674,1.28567 -0.387336,1.48167 -0.452687,0.54545 -13.29454,0.50989 -13.749313,-0.0381 -0.212826,-0.25644 -0.298966,-1.36719 -0.246225,-3.175 0.09293,-3.18505 0.05422,-3.14875 2.969142,-2.78456 1.265481,0.15811 1.561177,0.30497 1.781635,0.88481 0.253664,0.66719 0.352665,0.69191 2.454004,0.61277 l 2.189677,-0.0825 0.141111,-4.51555 0.141111,-4.51556 6.455701,-0.0759 c 4.455405,-0.0524 6.573755,0.022 6.836695,0.24025 0.28233,0.23431 0.40113,1.42332 0.45874,4.5915 l 0.0778,4.2753 h 2.11666 2.11667 l 0.0777,-4.2753 c 0.0576,-3.16818 0.17642,-4.35719 0.45875,-4.5915 0.26294,-0.21822 2.38129,-0.29266 6.83669,-0.24025 l 6.4557,0.0759 0.14111,4.51556 0.14111,4.51555 2.18968,0.0825 c 2.11876,0.0798 2.19851,0.0592 2.46246,-0.635 0.18462,-0.48559 0.48564,-0.71748 0.93138,-0.71748 1.15255,0 1.66444,-0.60376 1.56316,-1.84369 -0.0731,-0.89504 -0.24514,-1.18909 -0.87004,-1.48716 l -0.77892,-0.37153 0.0734,-13.03603 0.0734,-13.03603 h 6.63223 6.63222 l 0.0686,3.95111 c 0.0974,5.60806 -0.0738,5.26137 2.55022,5.16228 l 2.17891,-0.0823 0.0784,-4.21386 c 0.0469,-2.52015 0.20257,-4.36348 0.38733,-4.58611 0.23895,-0.28791 1.72379,-0.37127 6.55383,-0.36793 3.43469,0.002 6.40019,0.10299 6.59,0.22359 0.2418,0.15362 0.36853,1.52523 0.42333,4.58179 l 0.0782,4.36252 h 2.25777 2.25778 l 0.14111,-4.51555 0.14111,-4.51556 6.06778,-0.0798 c 3.33728,-0.0439 6.35353,-0.01 6.70278,0.0759 l 0.635,0.15574 v 13.11041 13.11041 l -4.16278,0.0781 -4.16278,0.0781 -0.0458,31.10189 c -0.0252,17.10603 -0.12793,31.23478 -0.22833,31.39722 -0.12371,0.20016 -5.48605,0.29533 -16.64131,0.29533 -13.26946,0 -16.51856,-0.072 -16.76726,-0.3717 z m 28.7438,-14.02163 v -9.31334 h -5.44688 c -3.86018,0 -5.54555,-0.0986 -5.78556,-0.33866 -0.41505,-0.41505 -0.44863,-3.44408 -0.0465,-4.19544 0.27349,-0.51101 0.64324,-0.5459 5.78556,-0.5459 h 5.4934 v -18.99605 c 0,-14.75677 0.0787,-19.10148 0.35278,-19.46843 0.29533,-0.39544 0.9962,-0.48465 4.30389,-0.54783 l 3.95111,-0.0755 v -8.32556 -8.32555 h -0.70555 c -0.70363,0 -0.70578,0.008 -0.7855,3.01812 l -0.0799,3.01812 -1.19005,0.0863 c -1.15653,0.0839 -1.19432,0.11814 -1.34107,1.21522 -0.0831,0.62089 -0.24929,1.28764 -0.36943,1.48166 -0.30657,0.49514 -13.18102,0.50843 -13.67534,0.0141 -0.23402,-0.23402 -0.33866,-1.67888 -0.33866,-4.67629 0,-4.33686 -1.2e-4,-4.33761 -0.635,-4.24745 -0.60186,0.0855 -0.64237,0.24484 -0.77611,3.05352 l -0.14112,2.96334 -1.27,0.14111 c -1.24992,0.13888 -1.27144,0.15889 -1.36158,1.26642 -0.0504,0.61892 -0.22467,1.28567 -0.38733,1.48166 -0.22277,0.26842 -1.92561,0.35636 -6.90041,0.35636 h -6.60464 l -0.27524,-0.72393 c -0.15138,-0.39816 -0.27524,-2.50249 -0.27524,-4.67629 0,-3.93733 -0.003,-3.95203 -0.635,-3.86219 l -0.635,0.0902 v 8.32555 8.32556 l 10.16,0.0719 c 11.58762,0.082 10.86556,-0.0914 10.86556,2.60919 0,2.59256 0.17717,2.5229 -6.63223,2.60749 l -5.92666,0.0736 -0.0735,12.62334 -0.0735,12.62334 0.63791,0.14038 c 0.35084,0.0772 1.0189,0.17521 1.48456,0.21777 l 0.84667,0.0774 v 2.25778 2.25778 l -0.84667,0.0774 c -0.46566,0.0426 -1.1343,0.1407 -1.48585,0.21809 l -0.63919,0.14071 0.0747,8.38968 0.0747,8.38968 2.25778,0.14111 2.25777,0.14111 v 2.25778 2.25778 l -2.25777,0.14111 -2.25778,0.14111 -0.0815,2.46945 -0.0815,2.46944 h 10.73543 10.73543 z m -14.19435,4.05601 c -0.10944,-0.10944 -0.19898,-1.19894 -0.19898,-2.42113 v -2.22215 l 2.32833,0.082 2.32834,0.082 v 2.25778 2.25778 l -2.12936,0.0814 c -1.17114,0.0448 -2.21889,-0.008 -2.32833,-0.11759 z m 7.05555,0 c -0.10943,-0.10944 -0.19897,-1.19894 -0.19897,-2.42113 v -2.22215 l 2.32833,0.082 2.32833,0.082 v 2.25778 2.25778 l -2.12935,0.0814 c -1.17115,0.0448 -2.2189,-0.008 -2.32834,-0.11759 z m -12.0188,-30.40342 c -0.23158,-0.27904 -0.3039,-2.42193 -0.25018,-7.4131 l 0.0756,-7.0206 h 7.33778 7.33778 l 0.0893,0.77611 c 0.0836,0.72675 0.17566,0.77611 1.44711,0.77611 0.81158,0 1.48812,0.15701 1.68174,0.39031 0.22208,0.26759 0.29949,1.84262 0.24622,5.00945 l -0.0777,4.61913 -1.55222,0.14111 -1.55222,0.14111 -0.14111,1.41111 -0.14111,1.41111 -7.0876,0.0753 c -5.77679,0.0614 -7.14785,0.003 -7.41334,-0.31717 z M 106.283,154.76773 c -0.46344,-0.26993 -0.49388,-1.5967 -0.49388,-21.52497 0,-16.14161 0.0813,-21.31857 0.33866,-21.57598 0.18627,-0.18626 1.05559,-0.33866 1.93182,-0.33866 1.23472,0 1.70807,0.12698 2.10396,0.56444 0.47861,0.52886 0.86924,0.56444 6.19619,0.56444 4.04565,0 5.78304,0.0977 6.02403,0.33867 0.20552,0.20552 0.33867,1.20415 0.33867,2.54 v 2.20133 h 5.62136 c 3.09175,0 5.82225,0.0771 6.06778,0.17131 0.39078,0.14996 0.44641,1.06034 0.44641,7.30486 v 7.13356 l -0.635,0.17017 c -0.82779,0.22184 -14.55331,0.22184 -15.38111,0 -0.58865,-0.15775 -0.635,-0.32843 -0.635,-2.33859 0,-1.31025 -0.13403,-2.30245 -0.33866,-2.50708 -0.35573,-0.35573 -6.26421,-0.49467 -7.11714,-0.16736 -0.39847,0.1529 -0.44642,1.62199 -0.44642,13.67784 0,13.06468 -0.0179,13.5161 -0.54589,13.7987 -0.69448,0.37167 -2.82925,0.36389 -3.47578,-0.0127 z"
         id="path51"
         inkscape:connector-curvature="0" />
      <path
         style="fill:#97969c;stroke-width:0.28222221"
         d="m 36.150786,233.62564 c -0.2642,-0.1066 -0.352778,-1.4402 -0.352778,-5.31129 v -5.16895 l 2.00082,-0.20094 c 1.10045,-0.11051 2.111485,-0.0903 2.246744,0.045 0.135258,0.13526 0.282639,1.51454 0.327513,3.06507 l 0.08159,2.81915 67.662775,0.0711 67.66277,0.0711 V 226.203 c 0,-3.3283 0.0944,-3.43745 2.7636,-3.19542 l 1.75196,0.15887 v 5.15171 c 0,4.43735 -0.0619,5.17548 -0.44642,5.32303 -0.53421,0.20499 -143.19026,0.1895 -143.698573,-0.0156 z m 8.100466,-8.2092 c -0.0074,-0.11641 -0.03913,-14.24516 -0.07056,-31.39722 l -0.05713,-31.18555 -4.162777,-0.0781 -4.162778,-0.0781 v -13.11041 -13.11041 l 0.635,-0.15574 c 0.34925,-0.0856 3.3655,-0.11982 6.702777,-0.0759 l 6.067778,0.0798 0.141111,4.51556 0.141111,4.51555 h 2.257778 2.257777 l 0.07822,-4.36252 c 0.05481,-3.05656 0.181535,-4.42817 0.423334,-4.58179 0.189811,-0.1206 3.15531,-0.22121 6.589998,-0.22359 4.830043,-0.003 6.314882,0.08 6.553831,0.36793 0.184765,0.22263 0.34045,2.06596 0.387333,4.58611 l 0.07839,4.21386 2.178902,0.0823 c 2.62406,0.0991 2.452787,0.44578 2.550227,-5.16228 l 0.06865,-3.95111 h 6.632222 6.632222 l 0.07344,12.96523 c 0.04606,8.13174 -0.02896,13.06763 -0.201233,13.2399 -0.151071,0.15107 -1.454119,0.34922 -2.895662,0.44033 l -2.620989,0.16565 v 8.46667 8.46666 l 3.245555,0.14111 3.245556,0.14112 v 2.39888 2.39889 l -3.245556,0.14111 -3.245555,0.14112 -0.07258,18.53919 -0.07258,18.53919 -1.05631,0.0875 c -1.011039,0.0837 -1.060236,0.13571 -1.147894,1.21279 -0.05037,0.61892 -0.224674,1.28567 -0.387336,1.48166 -0.232054,0.27961 -3.874363,0.35636 -16.912302,0.35636 -9.139105,0 -16.622594,-0.0952 -16.629976,-0.21167 z m 28.800087,-35.71772 c 0,-24.23944 0.07559,-30.9506 0.352778,-31.32176 0.295329,-0.39544 0.996196,-0.48465 4.303889,-0.54783 l 3.951111,-0.0755 v -8.32556 -8.32555 h -0.705556 c -0.703625,0 -0.705776,0.008 -0.785498,3.01812 l -0.07995,3.01812 -1.183674,0.0863 c -1.154452,0.0842 -1.188714,0.11605 -1.387745,1.29011 -0.11224,0.66208 -0.281359,1.32883 -0.375816,1.48166 -0.281627,0.45568 -13.260715,0.36591 -13.642705,-0.0944 -0.184767,-0.22263 -0.34045,-2.06596 -0.387334,-4.58611 -0.07642,-4.10801 -0.0941,-4.21609 -0.703659,-4.30277 -0.60837,-0.0865 -0.627435,-0.006 -0.705555,2.96333 l -0.08029,3.05225 -1.27,0.14111 c -1.24993,0.13888 -1.271447,0.15889 -1.361585,1.26642 -0.05037,0.61892 -0.224672,1.28567 -0.387334,1.48166 -0.222727,0.26837 -1.922312,0.35636 -6.883485,0.35636 -6.22426,0 -6.603855,-0.0301 -6.879888,-0.54589 -0.163213,-0.30497 -0.292152,-2.36881 -0.292152,-4.6763 0,-4.12195 -0.0013,-4.13022 -0.635,-4.04022 l -0.635,0.0902 v 8.32555 8.32556 l 10.442222,0.14111 10.442222,0.14111 v 2.39889 2.39889 l -6.208889,0.14111 -6.208888,0.14111 -0.07346,12.62334 -0.07346,12.62334 0.637901,0.14513 c 0.350846,0.0798 1.399901,0.17781 2.331235,0.21777 l 1.693333,0.0726 v 2.25778 2.25778 l -1.693333,0.0726 c -0.931334,0.04 -1.981417,0.13821 -2.333518,0.21835 l -0.640186,0.1457 0.07574,6.55498 0.07574,6.55499 2.257777,0.14111 2.257778,0.14112 v 2.25777 2.25778 l -2.257778,0.14111 -2.257777,0.14111 -0.07791,4.30389 -0.07791,4.30389 h 10.731795 10.731794 z m -14.49484,21.47634 c -0.222383,-0.83016 -0.222383,-2.7193 0,-3.54945 0.16469,-0.61479 0.283221,-0.64193 2.465591,-0.56445 l 2.292583,0.0814 v 2.25777 2.25778 l -2.292583,0.0814 c -2.18237,0.0775 -2.300901,0.0504 -2.465591,-0.56444 z m 7.055556,0 c -0.222383,-0.83016 -0.222383,-2.7193 0,-3.54945 0.164688,-0.61479 0.283221,-0.64193 2.465589,-0.56445 l 2.292584,0.0814 v 2.25777 2.25778 l -2.292584,0.0814 c -2.182368,0.0775 -2.300901,0.0504 -2.465589,-0.56444 z M 53.705187,184.91247 c -0.07553,-0.19683 -0.103294,-3.53058 -0.0617,-7.40834 l 0.07563,-7.05046 h 7.337778 7.337777 l 0.0893,0.77611 c 0.08362,0.72675 0.17566,0.77611 1.447111,0.77611 0.811584,0 1.488118,0.15701 1.681737,0.39031 0.22208,0.26759 0.299497,1.84262 0.246222,5.00945 l -0.0777,4.61913 -1.552222,0.14111 -1.552222,0.14111 -0.09158,1.12531 c -0.05037,0.61892 -0.224674,1.28567 -0.387336,1.48167 -0.429209,0.51716 -14.294307,0.51572 -14.492788,-0.001 z m 27.587041,40.37697 c -0.196658,-0.19665 -0.338667,-1.13922 -0.338667,-2.24785 0,-1.59871 0.08877,-1.95668 0.545891,-2.20133 0.317015,-0.16966 2.629589,-0.29215 5.515697,-0.29215 h 4.969807 l -0.08292,-2.04611 -0.08292,-2.04611 -4.374444,-0.14111 -4.374444,-0.14111 -0.08184,-2.32013 c -0.09816,-2.78289 -0.453828,-2.59226 5.020724,-2.69109 l 3.81,-0.0688 0.07406,-10.5832 0.07406,-10.58319 3.873268,-3.88069 3.873271,-3.8807 h 8.313889 8.31389 l 0.79036,0.75721 c 0.60403,0.5787 1.20005,0.80552 2.52814,0.96212 l 1.73778,0.20489 2.99064,2.9894 2.99063,2.98939 0.14112,3.31572 c 0.13612,3.19846 0.1641,3.31897 0.79131,3.40789 1.62149,0.22987 1.62149,4.948 0,5.17787 l -0.6502,0.0922 -0.0744,9.24277 -0.0744,9.24278 h 3.26797 c 1.79738,0 3.51361,0.13147 3.81385,0.29215 0.45712,0.24465 0.54589,0.60262 0.54589,2.20133 0,1.10863 -0.142,2.0512 -0.33866,2.24785 -0.49105,0.49105 -53.018279,0.49105 -53.509328,0 z m 38.043552,-18.92888 v -14.46977 l -2.47503,-2.46356 -2.47502,-2.46356 h -4.74607 -4.74607 l -1.81001,1.73807 -1.81002,1.73806 v 2.91323 c 0,3.31612 -0.15723,3.13372 2.82222,3.27414 l 1.55222,0.0732 0.0736,12.065 0.0736,12.065 h 6.77031 6.7703 z m -8.84296,3.8394 c -0.33183,-0.33183 -0.20556,-3.91489 0.15052,-4.27096 0.18938,-0.18938 1.09753,-0.33867 2.06022,-0.33867 0.96269,0 1.87084,0.14929 2.06022,0.33867 0.35005,0.35005 0.46993,3.22423 0.16736,4.01269 -0.13434,0.35009 -0.61139,0.44642 -2.21074,0.44642 -1.12169,0 -2.1241,-0.0847 -2.22758,-0.18815 z m 0,-7.05555 c -0.33183,-0.33183 -0.20556,-3.91489 0.15052,-4.27097 0.18938,-0.18938 1.09753,-0.33866 2.06022,-0.33866 0.96269,0 1.87084,0.14928 2.06022,0.33866 0.35005,0.35005 0.46993,3.22423 0.16736,4.0127 -0.13434,0.35008 -0.61139,0.44642 -2.21074,0.44642 -1.12169,0 -2.1241,-0.0847 -2.22758,-0.18815 z m 0,-7.05556 c -0.33183,-0.33183 -0.20556,-3.91489 0.15052,-4.27096 0.18938,-0.18938 1.09753,-0.33867 2.06022,-0.33867 0.96269,0 1.87084,0.14929 2.06022,0.33867 0.35005,0.35005 0.46993,3.22423 0.16736,4.01269 -0.13434,0.35009 -0.61139,0.44642 -2.21074,0.44642 -1.12169,0 -2.1241,-0.0847 -2.22758,-0.18815 z m 27.79471,29.16756 c -0.18129,-0.21842 -0.341,-1.99309 -0.38734,-4.30388 l -0.0789,-3.9322 -4.37445,-0.14111 -4.37444,-0.14111 -0.0842,-2.11046 c -0.11325,-2.83794 -0.12986,-2.82843 4.9375,-2.82843 h 4.03985 l -0.0721,-24.34166 -0.0721,-24.34167 -0.9075,-0.0877 -0.9075,-0.0877 -0.0803,3.05104 -0.0803,3.05105 -0.98778,0.14111 c -0.92021,0.13146 -0.99404,0.21808 -1.07936,1.26642 -0.0504,0.61892 -0.22467,1.28567 -0.38733,1.48167 -0.41298,0.49761 -13.22043,0.51412 -13.71686,0.0177 -0.23402,-0.23401 -0.33867,-1.67849 -0.33867,-4.67455 v -4.33588 l -0.91722,0.0884 -0.91722,0.0884 -0.0799,3.01741 -0.0799,3.01741 -1.04895,0.087 c -1.02596,0.0851 -1.05092,0.11477 -1.13895,1.3524 -0.0495,0.69595 -0.24001,1.36076 -0.42334,1.47734 -0.44217,0.2812 -12.93509,0.2744 -13.37844,-0.007 -0.2418,-0.15362 -0.36853,-1.52523 -0.42333,-4.58179 l -0.0782,-4.36253 -0.907503,-0.0877 -0.9075,-0.0877 -0.08028,3.05104 -0.08028,3.05105 -0.987777,0.14111 c -0.920217,0.13146 -0.994044,0.21808 -1.079362,1.26642 -0.05037,0.61892 -0.224674,1.28567 -0.387336,1.48167 -0.452687,0.54545 -13.29454,0.50989 -13.749313,-0.0381 -0.212826,-0.25644 -0.298966,-1.36719 -0.246225,-3.175 0.09293,-3.18505 0.05422,-3.14875 2.969142,-2.78456 1.265481,0.15811 1.561177,0.30497 1.781635,0.88481 0.253664,0.66719 0.352665,0.69191 2.454004,0.61277 l 2.189677,-0.0825 0.141111,-4.51555 0.141111,-4.51556 6.455701,-0.0759 c 4.455405,-0.0524 6.573755,0.022 6.836695,0.24025 0.28233,0.23431 0.40113,1.42332 0.45874,4.5915 l 0.0778,4.2753 h 2.11666 2.11667 l 0.0777,-4.2753 c 0.0576,-3.16818 0.17642,-4.35719 0.45875,-4.5915 0.26294,-0.21822 2.38129,-0.29266 6.83669,-0.24025 l 6.4557,0.0759 0.14111,4.51556 0.14111,4.51555 2.18968,0.0825 c 2.11876,0.0798 2.19851,0.0592 2.46246,-0.635 0.18462,-0.48559 0.48564,-0.71748 0.93138,-0.71748 1.15255,0 1.66444,-0.60376 1.56316,-1.84369 -0.0731,-0.89504 -0.24514,-1.18909 -0.87004,-1.48716 l -0.77892,-0.37153 0.0734,-13.03603 0.0734,-13.03603 h 6.63223 6.63222 l 0.0686,3.95111 c 0.0974,5.60806 -0.0738,5.26137 2.55022,5.16228 l 2.17891,-0.0823 0.0784,-4.21386 c 0.0469,-2.52015 0.20257,-4.36348 0.38733,-4.58611 0.23895,-0.28791 1.72379,-0.37127 6.55383,-0.36793 3.43469,0.002 6.40019,0.10299 6.59,0.22359 0.2418,0.15362 0.36853,1.52523 0.42333,4.58179 l 0.0782,4.36252 h 2.25777 2.25778 l 0.14111,-4.51555 0.14111,-4.51556 6.06778,-0.0798 c 3.33728,-0.0439 6.35353,-0.01 6.70278,0.0759 l 0.635,0.15574 v 13.11041 13.11041 l -4.16278,0.0781 -4.16278,0.0781 -0.0458,31.10189 c -0.0252,17.10603 -0.12793,31.23478 -0.22833,31.39722 -0.12371,0.20016 -5.48605,0.29533 -16.64131,0.29533 -13.26946,0 -16.51856,-0.072 -16.76726,-0.3717 z m 28.7438,-14.02163 v -9.31334 h -5.44688 c -3.86018,0 -5.54555,-0.0986 -5.78556,-0.33866 -0.41505,-0.41505 -0.44863,-3.44408 -0.0465,-4.19544 0.27349,-0.51101 0.64324,-0.5459 5.78556,-0.5459 h 5.4934 v -18.99605 c 0,-14.75677 0.0787,-19.10148 0.35278,-19.46843 0.29533,-0.39544 0.9962,-0.48465 4.30389,-0.54783 l 3.95111,-0.0755 v -8.32556 -8.32555 h -0.70555 c -0.70363,0 -0.70578,0.008 -0.7855,3.01812 l -0.0799,3.01812 -1.19005,0.0863 c -1.15653,0.0839 -1.19432,0.11814 -1.34107,1.21522 -0.0831,0.62089 -0.24929,1.28764 -0.36943,1.48166 -0.30657,0.49514 -13.18102,0.50843 -13.67534,0.0141 -0.23402,-0.23402 -0.33866,-1.67888 -0.33866,-4.67629 0,-4.33686 -1.2e-4,-4.33761 -0.635,-4.24745 -0.60186,0.0855 -0.64237,0.24484 -0.77611,3.05352 l -0.14112,2.96334 -1.27,0.14111 c -1.24992,0.13888 -1.27144,0.15889 -1.36158,1.26642 -0.0504,0.61892 -0.22467,1.28567 -0.38733,1.48166 -0.22277,0.26842 -1.92561,0.35636 -6.90041,0.35636 h -6.60464 l -0.27524,-0.72393 c -0.15138,-0.39816 -0.27524,-2.50249 -0.27524,-4.67629 0,-3.93733 -0.003,-3.95203 -0.635,-3.86219 l -0.635,0.0902 v 8.32555 8.32556 l 10.16,0.0719 c 11.58762,0.082 10.86556,-0.0914 10.86556,2.60919 0,2.59256 0.17717,2.5229 -6.63223,2.60749 l -5.92666,0.0736 -0.0735,12.62334 -0.0735,12.62334 0.63791,0.14038 c 0.35084,0.0772 1.0189,0.17521 1.48456,0.21777 l 0.84667,0.0774 v 2.25778 2.25778 l -0.84667,0.0774 c -0.46566,0.0426 -1.1343,0.1407 -1.48585,0.21809 l -0.63919,0.14071 0.0747,8.38968 0.0747,8.38968 2.25778,0.14111 2.25777,0.14111 v 2.25778 2.25778 l -2.25777,0.14111 -2.25778,0.14111 -0.0815,2.46945 -0.0815,2.46944 h 10.73543 10.73543 z m -14.19435,4.05601 c -0.10944,-0.10944 -0.19898,-1.19894 -0.19898,-2.42113 v -2.22215 l 2.32833,0.082 2.32834,0.082 v 2.25778 2.25778 l -2.12936,0.0814 c -1.17114,0.0448 -2.21889,-0.008 -2.32833,-0.11759 z m 7.05555,0 c -0.10943,-0.10944 -0.19897,-1.19894 -0.19897,-2.42113 v -2.22215 l 2.32833,0.082 2.32833,0.082 v 2.25778 2.25778 l -2.12935,0.0814 c -1.17115,0.0448 -2.2189,-0.008 -2.32834,-0.11759 z m -12.0188,-30.40342 c -0.23158,-0.27904 -0.3039,-2.42193 -0.25018,-7.4131 l 0.0756,-7.0206 h 7.33778 7.33778 l 0.0893,0.77611 c 0.0836,0.72675 0.17566,0.77611 1.44711,0.77611 0.81158,0 1.48812,0.15701 1.68174,0.39031 0.22208,0.26759 0.29949,1.84262 0.24622,5.00945 l -0.0777,4.61913 -1.55222,0.14111 -1.55222,0.14111 -0.14111,1.41111 -0.14111,1.41111 -7.0876,0.0753 c -5.77679,0.0614 -7.14785,0.003 -7.41334,-0.31717 z M 106.283,154.76773 c -0.46344,-0.26993 -0.49388,-1.5967 -0.49388,-21.52497 0,-16.14161 0.0813,-21.31857 0.33866,-21.57598 0.18627,-0.18626 1.05559,-0.33866 1.93182,-0.33866 1.23472,0 1.70807,0.12698 2.10396,0.56444 0.47861,0.52886 0.86924,0.56444 6.19619,0.56444 4.04565,0 5.78304,0.0977 6.02403,0.33867 0.20552,0.20552 0.33867,1.20415 0.33867,2.54 v 2.20133 h 5.62136 c 3.09175,0 5.82225,0.0771 6.06778,0.17131 0.39078,0.14996 0.44641,1.06034 0.44641,7.30486 v 7.13356 l -0.635,0.17017 c -0.82779,0.22184 -14.55331,0.22184 -15.38111,0 -0.58865,-0.15775 -0.635,-0.32843 -0.635,-2.33859 0,-1.31025 -0.13403,-2.30245 -0.33866,-2.50708 -0.35573,-0.35573 -6.26421,-0.49467 -7.11714,-0.16736 -0.39847,0.1529 -0.44642,1.62199 -0.44642,13.67784 0,13.06468 -0.0179,13.5161 -0.54589,13.7987 -0.69448,0.37167 -2.82925,0.36389 -3.47578,-0.0127 z"
         id="path49"
         inkscape:connector-curvature="0" />
      <path
         style="fill:#e96b51;stroke-width:0.28222221"
         d="m 35.798011,228.37978 2e-6,-5.15056 h 2.046109 2.046108 l 0.08188,2.66584 c 0.04503,1.46621 0.219333,2.83146 0.387334,3.03389 0.24957,0.30071 12.664972,0.36805 67.857736,0.36805 h 67.55229 l 0.14627,-0.635 c 0.0804,-0.34925 0.17811,-1.7145 0.21704,-3.03389 l 0.0708,-2.39889 h 2.04587 2.04587 l 2.4e-4,5.15056 2.4e-4,5.15055 H 108.04689 35.798008 Z m 8.397335,-34.42887 -0.07178,-31.39946 -4.162777,-0.0781 -4.162778,-0.0781 v -12.97468 -12.97468 h 6.626845 6.626845 l 0.148394,0.635 c 0.08162,0.34925 0.179287,2.413 0.217044,4.58611 l 0.06865,3.95111 2.143467,0.0816 c 1.543234,0.0588 2.232555,-0.0257 2.461607,-0.30169 0.196105,-0.2363 0.348211,-1.99973 0.396533,-4.5972 l 0.07839,-4.21386 h 6.491111 6.49111 l 0.07839,4.21386 c 0.04832,2.59747 0.200429,4.3609 0.396534,4.5972 0.229051,0.27599 0.918373,0.36047 2.461607,0.30169 l 2.143466,-0.0816 0.06865,-3.95111 c 0.03776,-2.17311 0.136014,-4.23919 0.218347,-4.59129 l 0.149696,-0.64019 6.554986,0.0757 6.554989,0.0757 0.0735,12.68295 c 0.04487,7.74362 -0.03097,12.78742 -0.194761,12.9512 -0.212099,0.2121 -4.367118,0.62354 -7.428182,0.73556 -0.459128,0.0168 -0.493889,0.62113 -0.493889,8.58654 v 8.56846 l 1.481667,0.17797 c 0.814916,0.0979 2.624666,0.18102 4.021666,0.18475 1.397,0.004 2.705018,0.11144 2.906705,0.23938 0.257486,0.16333 0.341543,0.81348 0.282223,2.1829 l -0.08448,1.95029 -3.809999,0.17833 c -2.0955,0.0981 -4.03225,0.19333 -4.303889,0.21167 -0.464679,0.0314 -0.49554,1.12246 -0.521801,18.44833 -0.01535,10.12825 -0.1106,19.1135 -0.211666,19.96722 l -0.183755,1.55223 -16.720439,0.0728 -16.720439,0.0728 z m 29.10241,26.78145 c 0.227364,-0.27395 0.335596,-9.04704 0.387336,-31.39722 l 0.0718,-31.01703 4.092222,-0.14111 4.092222,-0.14111 0.07484,-8.44827 c 0.04129,-4.66179 -0.03752,-8.56063 -0.175844,-8.69896 -0.137872,-0.13787 -1.144968,-0.16255 -2.237992,-0.0548 l -1.987315,0.19583 -0.150292,2.99979 c -0.188781,3.76807 -0.442078,5.48195 -0.849379,5.74714 -0.568457,0.37012 -12.441721,0.2565 -12.820903,-0.12268 -0.232775,-0.23277 -0.338667,-1.63946 -0.338667,-4.4989 0,-2.28812 -0.117705,-4.23298 -0.261567,-4.32189 -0.143861,-0.0889 -1.141119,-0.0799 -2.216128,0.02 l -1.954562,0.18166 -0.165148,4.07598 c -0.102172,2.52167 -0.29431,4.23161 -0.503854,4.4841 -0.280722,0.33825 -1.431198,0.39515 -6.720389,0.33236 l -6.381684,-0.0758 -0.141111,-4.4225 c -0.07761,-2.43237 -0.228164,-4.50909 -0.334562,-4.61493 -0.106398,-0.10584 -1.122398,-0.0842 -2.257778,0.048 l -2.064327,0.24049 v 8.32555 8.32556 l 1.411111,0.18694 c 0.776112,0.10282 5.877474,0.19807 11.336362,0.21167 5.458888,0.0136 10.126137,0.10181 10.371666,0.19603 0.647564,0.24849 0.647564,3.92445 0,4.17294 -0.245529,0.0942 -2.830399,0.17131 -5.744156,0.17131 -2.913757,0 -6.07837,0.0816 -7.032473,0.18131 l -1.734732,0.18132 v 12.77457 12.77456 l 2.751666,0.18096 c 1.513417,0.0995 3.069167,0.20662 3.457222,0.238 0.679964,0.055 0.705556,0.12871 0.705556,2.03261 0,1.9039 -0.02559,1.97762 -0.705556,2.03261 -0.388055,0.0314 -1.943805,0.13848 -3.457222,0.238 l -2.751666,0.18096 v 13.46882 13.46882 l 1.481666,0.29001 c 0.823191,0.16113 6.138354,0.30944 11.959887,0.33373 8.481866,0.0354 10.538337,-0.0287 10.793751,-0.33648 z m -21.573521,-9.58729 c -0.08375,-0.21826 -0.113665,-1.14461 -0.06647,-2.05856 l 0.0858,-1.66173 h 2.116666 2.116667 v 1.97555 1.97556 l -2.050192,0.083 c -1.558783,0.0631 -2.086692,-0.0121 -2.202469,-0.31382 z m 7.215994,-1.74474 v -2.14139 l 2.046111,0.0829 2.046111,0.0829 v 1.97555 1.97556 l -2.046111,0.0829 -2.046111,0.0829 z m 7.055555,0 v -2.14139 l 2.046111,0.0829 2.046111,0.0829 v 1.97555 1.97556 l -2.046111,0.0829 -2.046111,0.0829 z M 54.207874,184.7523 c -0.276563,-0.17554 -0.340707,-1.79422 -0.282222,-7.12179 l 0.07569,-6.89462 6.99196,-0.0755 c 6.461215,-0.0698 7.007498,-0.0376 7.196666,0.42333 0.11259,0.27436 0.204707,3.30509 0.204707,6.73495 0,4.87079 -0.0848,6.33829 -0.387333,6.70278 -0.34005,0.40969 -1.184157,0.46613 -6.914446,0.46234 -3.58991,-0.002 -6.688169,-0.10655 -6.88502,-0.23149 z m 9.24791,-6.96085 v -2.39889 h -2.398888 -2.398889 v 2.39889 2.39888 h 2.398889 2.398888 z m 17.897559,47.1715 c -0.08143,-0.2122 -0.10944,-1.1336 -0.06225,-2.04755 l 0.0858,-1.66173 5.362222,-0.15691 c 2.949222,-0.0863 5.399109,-0.18155 5.444191,-0.21167 0.04509,-0.0301 0.04509,-1.10251 0,-2.38309 l -0.08197,-2.32833 -4.374444,-0.14112 -4.374444,-0.14111 -0.08292,-2.04611 -0.08292,-2.04611 h 4.189253 c 2.882011,0 4.294934,-0.10568 4.52792,-0.33866 0.251369,-0.25137 0.338666,-3.06739 0.338666,-10.92457 v -10.5859 l 3.75099,-3.75099 3.75099,-3.75099 h 8.241663 8.24167 l 2.18901,1.94691 c 1.20395,1.0708 2.97876,2.75355 3.94402,3.73944 l 1.755,1.79254 0.0794,3.38667 0.0794,3.38666 1.69333,0.16608 c 2.96591,0.2909 2.96334,0.28869 2.96334,2.54291 0,2.25425 0.0762,2.18542 -2.72771,2.46257 l -1.92896,0.19067 -0.0744,9.20751 -0.0744,9.20751 1.62659,0.19889 c 0.89462,0.10939 3.27758,0.284 5.29547,0.38804 l 3.66889,0.18916 v 1.97555 1.97556 l -26.60775,0.072 c -22.289954,0.0603 -26.631771,0.009 -26.755799,-0.31382 z m 37.982437,-18.60239 v -14.46977 l -2.47503,-2.46356 -2.47502,-2.46356 h -4.74607 -4.74607 l -1.81001,1.73807 -1.81002,1.73806 v 2.91323 c 0,3.31612 -0.15723,3.13372 2.82222,3.27414 l 1.55222,0.0732 0.0736,12.065 0.0736,12.065 h 6.77031 6.7703 z m -8.84296,3.8394 c -0.33183,-0.33183 -0.20556,-3.91489 0.15052,-4.27096 0.18938,-0.18938 1.09753,-0.33867 2.06022,-0.33867 0.96269,0 1.87084,0.14929 2.06022,0.33867 0.35005,0.35005 0.46993,3.22423 0.16736,4.01269 -0.13434,0.35009 -0.61139,0.44642 -2.21074,0.44642 -1.12169,0 -2.1241,-0.0847 -2.22758,-0.18815 z m 0,-7.05555 c -0.33183,-0.33183 -0.20556,-3.91489 0.15052,-4.27097 0.18938,-0.18938 1.09753,-0.33866 2.06022,-0.33866 0.96269,0 1.87084,0.14928 2.06022,0.33866 0.35005,0.35005 0.46993,3.22423 0.16736,4.0127 -0.13434,0.35008 -0.61139,0.44642 -2.21074,0.44642 -1.12169,0 -2.1241,-0.0847 -2.22758,-0.18815 z m 0,-7.05556 c -0.33183,-0.33183 -0.20556,-3.91489 0.15052,-4.27096 0.18938,-0.18938 1.09753,-0.33867 2.06022,-0.33867 0.96269,0 1.87084,0.14929 2.06022,0.33867 0.35005,0.35005 0.46993,3.22423 0.16736,4.01269 -0.13434,0.35009 -0.61139,0.44642 -2.21074,0.44642 -1.12169,0 -2.1241,-0.0847 -2.22758,-0.18815 z m 27.88802,28.90652 c -0.0715,-0.19527 -0.1632,-2.13304 -0.20368,-4.30615 l -0.0736,-3.95111 -4.37445,-0.14111 -4.37444,-0.14111 v -1.97556 -1.97555 l 3.81,-0.0688 c 2.0955,-0.0378 4.09645,-0.13567 4.44655,-0.21743 l 0.63655,-0.14865 -0.0721,-24.61812 -0.0721,-24.61812 -3.10445,0.0915 c -2.36842,0.0698 -3.35604,-0.015 -4.16565,-0.35777 l -1.0612,-0.44931 0.0734,-12.76557 0.0734,-12.76557 6.55499,-0.0757 6.55499,-0.0757 0.1497,0.64019 c 0.0823,0.3521 0.18058,2.41818 0.21834,4.59129 l 0.0686,3.95111 2.14347,0.0816 c 1.54323,0.0588 2.23255,-0.0257 2.4616,-0.30169 0.19611,-0.2363 0.34821,-1.99973 0.39654,-4.5972 l 0.0784,-4.21386 h 6.49111 6.49111 l 0.0784,4.21386 c 0.0483,2.59747 0.20043,4.3609 0.39654,4.5972 0.22905,0.27599 0.91837,0.36047 2.4616,0.30169 l 2.14347,-0.0816 0.0686,-3.95111 c 0.0378,-2.17311 0.13543,-4.23686 0.21704,-4.58611 l 0.1484,-0.635 h 6.62684 6.62685 v 12.97468 12.97468 l -4.16278,0.0781 -4.16278,0.0781 -0.14111,31.32666 -0.14111,31.32667 -16.58854,0.0728 c -13.12311,0.0576 -16.61572,-0.001 -16.71862,-0.28222 z m 28.90206,-4.26921 c 0.22853,-0.27536 0.29929,-3.05316 0.24623,-9.66611 l -0.0745,-9.27972 -5.64445,-0.14111 -5.64444,-0.14111 -0.0829,-2.04611 c -0.0456,-1.12536 -0.0456,-2.07106 0,-2.10155 0.0456,-0.0305 2.62292,-0.12574 5.72736,-0.21167 l 5.64445,-0.15622 0.14111,-19.33223 0.14111,-19.33222 4.09222,-0.14111 4.09222,-0.14111 0.0748,-8.44827 c 0.0413,-4.66179 -0.0375,-8.56063 -0.17584,-8.69896 -0.13787,-0.13787 -1.14497,-0.16255 -2.23799,-0.0548 l -1.98732,0.19583 -0.14689,2.99979 c -0.0808,1.64989 -0.25037,3.6348 -0.37684,4.41091 l -0.22996,1.41111 -6.31446,0.076 c -4.42036,0.0532 -6.43094,-0.0206 -6.70278,-0.24622 -0.29782,-0.24717 -0.38831,-1.30273 -0.38831,-4.5299 0,-3.23828 -0.0864,-4.24078 -0.37492,-4.35151 -0.2062,-0.0791 -1.19045,-0.0434 -2.18722,0.0794 l -1.8123,0.22328 -0.20299,4.05285 c -0.1174,2.34398 -0.34022,4.21819 -0.52845,4.445 -0.25965,0.31286 -1.55965,0.39127 -6.42923,0.38783 -3.35708,-0.002 -6.25908,-0.10299 -6.44889,-0.22359 -0.2418,-0.15362 -0.36853,-1.52523 -0.42333,-4.58179 l -0.0782,-4.36252 -1.97555,0.0754 c -1.08656,0.0415 -2.13431,0.13273 -2.32833,0.20281 -0.27118,0.098 -0.35278,2.01888 -0.35278,8.30408 0,6.2314 0.0839,8.23096 0.35278,8.40497 0.19402,0.12558 5.43277,0.29182 11.64166,0.36943 l 11.28889,0.14111 v 2.11667 2.11667 l -6.91444,0.17285 c -3.80295,0.0951 -7.0732,0.19032 -7.26723,0.21167 -0.27646,0.0304 -0.35277,2.80815 -0.35277,12.84124 v 12.80244 l 2.61055,0.25034 2.61056,0.25034 v 1.97556 1.97556 l -2.54,0.28222 -2.54,0.28222 -0.0733,13.42416 -0.0733,13.42416 1.48437,0.29045 c 0.82617,0.16167 6.13064,0.30985 11.96259,0.33418 8.56454,0.0357 10.53679,-0.0268 10.7989,-0.34268 z m -21.57867,-5.9122 c -0.0838,-0.21826 -0.11366,-1.14461 -0.0665,-2.05856 l 0.0858,-1.66173 h 2.11666 2.11667 v 1.97555 1.97556 l -2.05019,0.083 c -1.55878,0.0631 -2.08669,-0.0121 -2.20247,-0.31382 z m 7.4157,0.19534 c -0.10984,-0.10984 -0.19971,-1.07311 -0.19971,-2.14059 v -1.94088 l 2.04611,0.0829 2.04612,0.0829 v 1.97555 1.97556 l -1.84641,0.0821 c -1.01552,0.0452 -1.93627,-0.008 -2.04611,-0.11759 z m 7.05556,0 c -0.10984,-0.10984 -0.19971,-1.07311 -0.19971,-2.14059 v -1.94088 l 2.04611,0.0829 2.04611,0.0829 v 1.97555 1.97556 l -1.8464,0.0821 c -1.01552,0.0452 -1.93627,-0.008 -2.04611,-0.11759 z m -12.02368,-30.40914 c -0.22619,-0.27254 -0.29944,-2.39246 -0.24622,-7.12611 l 0.0757,-6.73816 h 7.04292 7.04292 l 0.24798,1.12889 c 0.13639,0.62089 0.19414,3.71234 0.12833,6.86989 -0.0945,4.53517 -0.20322,5.79391 -0.51757,5.9929 -0.21885,0.13854 -3.33512,0.25384 -6.92503,0.25622 -5.19702,0.003 -6.59272,-0.0747 -6.84908,-0.38363 z m 9.28397,-6.80871 v -2.39889 h -2.39889 -2.39889 v 2.39889 2.39888 h 2.39889 2.39889 z m -74.294997,-6.09039 c -0.404153,-0.23539 -0.493889,-0.69114 -0.493889,-2.50833 0,-3.10922 0.003,-3.11351 2.153847,-3.11351 1.644432,0 1.834591,0.0614 2.064853,0.66707 0.323833,0.85175 0.806744,1.02627 2.839779,1.02627 2.493544,0 2.537076,-0.0876 2.537076,-5.10536 v -4.21838 l 6.561667,0.0758 6.561664,0.0758 0.0782,4.36252 c 0.0548,3.05656 0.18153,4.42817 0.42333,4.58179 0.44845,0.28492 3.91066,0.28492 4.35911,0 0.2418,-0.15362 0.36853,-1.52523 0.42333,-4.58179 l 0.0782,-4.36252 6.56167,-0.0758 6.56167,-0.0758 v 4.21838 c 0,5.01775 0.0435,5.10536 2.53707,5.10536 2.01576,0 2.51634,-0.17555 2.82646,-0.99122 0.20261,-0.5329 0.52989,-0.66302 2.08703,-0.82978 1.01572,-0.10877 1.99242,-0.10774 2.17046,0.002 0.51472,0.31811 0.0638,5.24953 -0.52117,5.69926 -0.33394,0.25674 -2.09045,0.35277 -6.45252,0.35277 -5.07251,0 -6.06184,-0.0682 -6.43717,-0.44349 -0.36395,-0.3639 -0.4435,-1.20645 -0.4435,-4.69716 v -4.2537 l -2.01102,0.18691 c -1.10607,0.1028 -2.10247,0.24342 -2.21423,0.31249 -0.11176,0.0691 -0.27854,1.98511 -0.37063,4.25787 -0.0921,2.27276 -0.24898,4.21413 -0.34864,4.31415 -0.24021,0.24107 -11.30686,0.40659 -12.4827,0.1867 l -0.91722,-0.17153 v -4.37051 c 0,-3.64932 -0.0708,-4.39767 -0.4288,-4.53506 -0.23584,-0.0905 -1.251842,-0.0764 -2.257778,0.0313 l -1.828977,0.19587 -0.02382,2.58809 c -0.03234,3.51416 -0.348378,5.82137 -0.840026,6.13245 -0.564947,0.35747 -12.133401,0.32192 -12.753381,-0.0392 z m 23.065587,-17.24994 c -0.0769,-0.20149 -0.10704,-9.89134 -0.0669,-21.53301 l 0.073,-21.16666 1.73891,-0.0834 c 1.48158,-0.071 1.79813,0.001 2.13912,0.48801 0.37703,0.53828 0.74234,0.57582 6.30443,0.64782 l 5.9042,0.0764 0.14112,2.39889 0.14111,2.39889 5.91366,0.0764 c 4.29867,0.0556 5.97383,0.17119 6.134,0.42334 0.37979,0.59785 0.27801,13.30831 -0.10966,13.69598 -0.48276,0.48276 -15.49102,0.48276 -15.97378,0 -0.20572,-0.20571 -0.33867,-1.20587 -0.33867,-2.54775 v -2.20908 l -4.02166,0.0783 -4.02167,0.0783 -0.14111,13.68778 -0.14111,13.68777 -1.76754,0.0841 c -1.25222,0.0596 -1.80833,-0.0227 -1.90743,-0.28222 z"
         id="path47"
         inkscape:connector-curvature="0" />
      <path
         style="fill:#5c5e5e;stroke-width:0.28222221"
         d="m 35.798011,228.37978 2e-6,-5.15056 h 2.046109 2.046108 l 0.08188,2.66584 c 0.04503,1.46621 0.219333,2.83146 0.387334,3.03389 0.24957,0.30071 12.664972,0.36805 67.857736,0.36805 h 67.55229 l 0.14627,-0.635 c 0.0804,-0.34925 0.17811,-1.7145 0.21704,-3.03389 l 0.0708,-2.39889 h 2.04587 2.04587 l 2.4e-4,5.15056 2.4e-4,5.15055 H 108.04689 35.798008 Z m 8.397335,-34.42887 -0.07178,-31.39946 -4.162777,-0.0781 -4.162778,-0.0781 v -12.97468 -12.97468 h 6.626845 6.626845 l 0.148394,0.635 c 0.08162,0.34925 0.179287,2.413 0.217044,4.58611 l 0.06865,3.95111 2.143467,0.0816 c 1.543234,0.0588 2.232555,-0.0257 2.461607,-0.30169 0.196105,-0.2363 0.348211,-1.99973 0.396533,-4.5972 l 0.07839,-4.21386 h 6.491111 6.49111 l 0.07839,4.21386 c 0.04832,2.59747 0.200429,4.3609 0.396534,4.5972 0.229051,0.27599 0.918373,0.36047 2.461607,0.30169 l 2.143466,-0.0816 0.06865,-3.95111 c 0.03776,-2.17311 0.136014,-4.23919 0.218347,-4.59129 l 0.149696,-0.64019 6.554986,0.0757 6.554989,0.0757 0.0735,12.68295 c 0.04487,7.74362 -0.03097,12.78742 -0.194761,12.9512 -0.212099,0.2121 -4.367118,0.62354 -7.428182,0.73556 -0.459128,0.0168 -0.493889,0.62113 -0.493889,8.58654 v 8.56846 l 1.481667,0.17797 c 0.814916,0.0979 2.624666,0.18102 4.021666,0.18475 1.397,0.004 2.705018,0.11144 2.906705,0.23938 0.257486,0.16333 0.341543,0.81348 0.282223,2.1829 l -0.08448,1.95029 -3.809999,0.17833 c -2.0955,0.0981 -4.03225,0.19333 -4.303889,0.21167 -0.464679,0.0314 -0.49554,1.12246 -0.521801,18.44833 -0.01535,10.12825 -0.1106,19.1135 -0.211666,19.96722 l -0.183755,1.55223 -16.720439,0.0728 -16.720439,0.0728 z m 29.10241,26.78145 c 0.227364,-0.27395 0.335596,-9.04704 0.387336,-31.39722 l 0.0718,-31.01703 4.092222,-0.14111 4.092222,-0.14111 0.07484,-8.44827 c 0.04129,-4.66179 -0.03752,-8.56063 -0.175844,-8.69896 -0.137872,-0.13787 -1.144968,-0.16255 -2.237992,-0.0548 l -1.987315,0.19583 -0.150292,2.99979 c -0.188781,3.76807 -0.442078,5.48195 -0.849379,5.74714 -0.568457,0.37012 -12.441721,0.2565 -12.820903,-0.12268 -0.232775,-0.23277 -0.338667,-1.63946 -0.338667,-4.4989 0,-2.28812 -0.117705,-4.23298 -0.261567,-4.32189 -0.143861,-0.0889 -1.141119,-0.0799 -2.216128,0.02 l -1.954562,0.18166 -0.165148,4.07598 c -0.102172,2.52167 -0.29431,4.23161 -0.503854,4.4841 -0.280722,0.33825 -1.431198,0.39515 -6.720389,0.33236 l -6.381684,-0.0758 -0.141111,-4.4225 c -0.07761,-2.43237 -0.228164,-4.50909 -0.334562,-4.61493 -0.106398,-0.10584 -1.122398,-0.0842 -2.257778,0.048 l -2.064327,0.24049 v 8.32555 8.32556 l 1.411111,0.18694 c 0.776112,0.10282 5.877474,0.19807 11.336362,0.21167 5.458888,0.0136 10.126137,0.10181 10.371666,0.19603 0.647564,0.24849 0.647564,3.92445 0,4.17294 -0.245529,0.0942 -2.830399,0.17131 -5.744156,0.17131 -2.913757,0 -6.07837,0.0816 -7.032473,0.18131 l -1.734732,0.18132 v 12.77457 12.77456 l 2.751666,0.18096 c 1.513417,0.0995 3.069167,0.20662 3.457222,0.238 0.679964,0.055 0.705556,0.12871 0.705556,2.03261 0,1.9039 -0.02559,1.97762 -0.705556,2.03261 -0.388055,0.0314 -1.943805,0.13848 -3.457222,0.238 l -2.751666,0.18096 v 13.46882 13.46882 l 1.481666,0.29001 c 0.823191,0.16113 6.138354,0.30944 11.959887,0.33373 8.481866,0.0354 10.538337,-0.0287 10.793751,-0.33648 z m -21.573521,-9.58729 c -0.08375,-0.21826 -0.113665,-1.14461 -0.06647,-2.05856 l 0.0858,-1.66173 h 2.116666 2.116667 v 1.97555 1.97556 l -2.050192,0.083 c -1.558783,0.0631 -2.086692,-0.0121 -2.202469,-0.31382 z m 7.215994,-1.74474 v -2.14139 l 2.046111,0.0829 2.046111,0.0829 v 1.97555 1.97556 l -2.046111,0.0829 -2.046111,0.0829 z m 7.055555,0 v -2.14139 l 2.046111,0.0829 2.046111,0.0829 v 1.97555 1.97556 l -2.046111,0.0829 -2.046111,0.0829 z M 54.207874,184.7523 c -0.276563,-0.17554 -0.340707,-1.79422 -0.282222,-7.12179 l 0.07569,-6.89462 6.99196,-0.0755 c 6.461215,-0.0698 7.007498,-0.0376 7.196666,0.42333 0.11259,0.27436 0.204707,3.30509 0.204707,6.73495 0,4.87079 -0.0848,6.33829 -0.387333,6.70278 -0.34005,0.40969 -1.184157,0.46613 -6.914446,0.46234 -3.58991,-0.002 -6.688169,-0.10655 -6.88502,-0.23149 z m 9.24791,-6.96085 v -2.39889 h -2.398888 -2.398889 v 2.39889 2.39888 h 2.398889 2.398888 z m 17.897559,47.1715 c -0.08143,-0.2122 -0.10944,-1.1336 -0.06225,-2.04755 l 0.0858,-1.66173 5.362222,-0.15691 c 2.949222,-0.0863 5.399109,-0.18155 5.444191,-0.21167 0.04509,-0.0301 0.04509,-1.10251 0,-2.38309 l -0.08197,-2.32833 -4.374444,-0.14112 -4.374444,-0.14111 -0.08292,-2.04611 -0.08292,-2.04611 h 4.189253 c 2.882011,0 4.294934,-0.10568 4.52792,-0.33866 0.251369,-0.25137 0.338666,-3.06739 0.338666,-10.92457 v -10.5859 l 3.75099,-3.75099 3.75099,-3.75099 h 8.241663 8.24167 l 2.18901,1.94691 c 1.20395,1.0708 2.97876,2.75355 3.94402,3.73944 l 1.755,1.79254 0.0794,3.38667 0.0794,3.38666 1.69333,0.16608 c 2.96591,0.2909 2.96334,0.28869 2.96334,2.54291 0,2.25425 0.0762,2.18542 -2.72771,2.46257 l -1.92896,0.19067 -0.0744,9.20751 -0.0744,9.20751 1.62659,0.19889 c 0.89462,0.10939 3.27758,0.284 5.29547,0.38804 l 3.66889,0.18916 v 1.97555 1.97556 l -26.60775,0.072 c -22.289954,0.0603 -26.631771,0.009 -26.755799,-0.31382 z m 19.600307,-4.22832 c 0.21636,-0.26069 0.3365,-4.04681 0.38733,-12.20611 l 0.0737,-11.82819 h 1.97556 1.97555 l 0.0737,11.82819 c 0.0508,8.1593 0.17098,11.94542 0.38734,12.20611 0.42907,0.51701 12.93828,0.55351 13.45253,0.0393 0.25445,-0.25446 0.33866,-3.87866 0.33866,-14.57527 v -14.2366 l -2.52853,-2.56973 -2.52853,-2.56973 h -6.51405 -6.51405 l -2.528527,2.56973 -2.52853,2.56973 v 14.2366 c 0,10.69661 0.08421,14.32081 0.338666,14.57527 0.473673,0.47367 3.739211,0.4427 4.139201,-0.0393 z m 9.69143,-12.67485 0.0829,-2.04611 h 1.97556 1.97555 l 0.0829,2.04611 0.0829,2.04611 h -2.14139 -2.1414 z m 0,-7.05556 0.0829,-2.04611 h 1.97556 1.97555 l 0.0829,2.04611 0.0829,2.04611 h -2.14139 -2.1414 z m 0,-7.05555 0.0829,-2.04611 h 1.97556 1.97555 l 0.0829,2.04611 0.0829,2.04611 h -2.14139 -2.1414 z m 27.73576,31.0467 c -0.0715,-0.19527 -0.1632,-2.13304 -0.20368,-4.30615 l -0.0736,-3.95111 -4.37445,-0.14111 -4.37444,-0.14111 v -1.97556 -1.97555 l 3.81,-0.0688 c 2.0955,-0.0378 4.09645,-0.13567 4.44655,-0.21743 l 0.63655,-0.14865 -0.0721,-24.61812 -0.0721,-24.61812 -3.10445,0.0915 c -2.36842,0.0698 -3.35604,-0.015 -4.16565,-0.35777 l -1.0612,-0.44931 0.0734,-12.76557 0.0734,-12.76557 6.55499,-0.0757 6.55499,-0.0757 0.1497,0.64019 c 0.0823,0.3521 0.18058,2.41818 0.21834,4.59129 l 0.0686,3.95111 2.14347,0.0816 c 1.54323,0.0588 2.23255,-0.0257 2.4616,-0.30169 0.19611,-0.2363 0.34821,-1.99973 0.39654,-4.5972 l 0.0784,-4.21386 h 6.49111 6.49111 l 0.0784,4.21386 c 0.0483,2.59747 0.20043,4.3609 0.39654,4.5972 0.22905,0.27599 0.91837,0.36047 2.4616,0.30169 l 2.14347,-0.0816 0.0686,-3.95111 c 0.0378,-2.17311 0.13543,-4.23686 0.21704,-4.58611 l 0.1484,-0.635 h 6.62684 6.62685 v 12.97468 12.97468 l -4.16278,0.0781 -4.16278,0.0781 -0.14111,31.32666 -0.14111,31.32667 -16.58854,0.0728 c -13.12311,0.0576 -16.61572,-0.001 -16.71862,-0.28222 z m 28.90206,-4.26921 c 0.22853,-0.27536 0.29929,-3.05316 0.24623,-9.66611 l -0.0745,-9.27972 -5.64445,-0.14111 -5.64444,-0.14111 -0.0829,-2.04611 c -0.0456,-1.12536 -0.0456,-2.07106 0,-2.10155 0.0456,-0.0305 2.62292,-0.12574 5.72736,-0.21167 l 5.64445,-0.15622 0.14111,-19.33223 0.14111,-19.33222 4.09222,-0.14111 4.09222,-0.14111 0.0748,-8.44827 c 0.0413,-4.66179 -0.0375,-8.56063 -0.17584,-8.69896 -0.13787,-0.13787 -1.14497,-0.16255 -2.23799,-0.0548 l -1.98732,0.19583 -0.14689,2.99979 c -0.0808,1.64989 -0.25037,3.6348 -0.37684,4.41091 l -0.22996,1.41111 -6.31446,0.076 c -4.42036,0.0532 -6.43094,-0.0206 -6.70278,-0.24622 -0.29782,-0.24717 -0.38831,-1.30273 -0.38831,-4.5299 0,-3.23828 -0.0864,-4.24078 -0.37492,-4.35151 -0.2062,-0.0791 -1.19045,-0.0434 -2.18722,0.0794 l -1.8123,0.22328 -0.20299,4.05285 c -0.1174,2.34398 -0.34022,4.21819 -0.52845,4.445 -0.25965,0.31286 -1.55965,0.39127 -6.42923,0.38783 -3.35708,-0.002 -6.25908,-0.10299 -6.44889,-0.22359 -0.2418,-0.15362 -0.36853,-1.52523 -0.42333,-4.58179 l -0.0782,-4.36252 -1.97555,0.0754 c -1.08656,0.0415 -2.13431,0.13273 -2.32833,0.20281 -0.27118,0.098 -0.35278,2.01888 -0.35278,8.30408 0,6.2314 0.0839,8.23096 0.35278,8.40497 0.19402,0.12558 5.43277,0.29182 11.64166,0.36943 l 11.28889,0.14111 v 2.11667 2.11667 l -6.91444,0.17285 c -3.80295,0.0951 -7.0732,0.19032 -7.26723,0.21167 -0.27646,0.0304 -0.35277,2.80815 -0.35277,12.84124 v 12.80244 l 2.61055,0.25034 2.61056,0.25034 v 1.97556 1.97556 l -2.54,0.28222 -2.54,0.28222 -0.0733,13.42416 -0.0733,13.42416 1.48437,0.29045 c 0.82617,0.16167 6.13064,0.30985 11.96259,0.33418 8.56454,0.0357 10.53679,-0.0268 10.7989,-0.34268 z m -21.57867,-5.9122 c -0.0838,-0.21826 -0.11366,-1.14461 -0.0665,-2.05856 l 0.0858,-1.66173 h 2.11666 2.11667 v 1.97555 1.97556 l -2.05019,0.083 c -1.55878,0.0631 -2.08669,-0.0121 -2.20247,-0.31382 z m 7.4157,0.19534 c -0.10984,-0.10984 -0.19971,-1.07311 -0.19971,-2.14059 v -1.94088 l 2.04611,0.0829 2.04612,0.0829 v 1.97555 1.97556 l -1.84641,0.0821 c -1.01552,0.0452 -1.93627,-0.008 -2.04611,-0.11759 z m 7.05556,0 c -0.10984,-0.10984 -0.19971,-1.07311 -0.19971,-2.14059 v -1.94088 l 2.04611,0.0829 2.04611,0.0829 v 1.97555 1.97556 l -1.8464,0.0821 c -1.01552,0.0452 -1.93627,-0.008 -2.04611,-0.11759 z m -12.02368,-30.40914 c -0.22619,-0.27254 -0.29944,-2.39246 -0.24622,-7.12611 l 0.0757,-6.73816 h 7.04292 7.04292 l 0.24798,1.12889 c 0.13639,0.62089 0.19414,3.71234 0.12833,6.86989 -0.0945,4.53517 -0.20322,5.79391 -0.51757,5.9929 -0.21885,0.13854 -3.33512,0.25384 -6.92503,0.25622 -5.19702,0.003 -6.59272,-0.0747 -6.84908,-0.38363 z m 9.28397,-6.80871 v -2.39889 h -2.39889 -2.39889 v 2.39889 2.39888 h 2.39889 2.39889 z m -74.294997,-6.09039 c -0.404153,-0.23539 -0.493889,-0.69114 -0.493889,-2.50833 0,-3.10922 0.003,-3.11351 2.153847,-3.11351 1.644432,0 1.834591,0.0614 2.064853,0.66707 0.323833,0.85175 0.806744,1.02627 2.839779,1.02627 2.493544,0 2.537076,-0.0876 2.537076,-5.10536 v -4.21838 l 6.561667,0.0758 6.561664,0.0758 0.0782,4.36252 c 0.0548,3.05656 0.18153,4.42817 0.42333,4.58179 0.44845,0.28492 3.91066,0.28492 4.35911,0 0.2418,-0.15362 0.36853,-1.52523 0.42333,-4.58179 l 0.0782,-4.36252 6.56167,-0.0758 6.56167,-0.0758 v 4.21838 c 0,5.01775 0.0435,5.10536 2.53707,5.10536 2.01576,0 2.51634,-0.17555 2.82646,-0.99122 0.20261,-0.5329 0.52989,-0.66302 2.08703,-0.82978 1.01572,-0.10877 1.99242,-0.10774 2.17046,0.002 0.51472,0.31811 0.0638,5.24953 -0.52117,5.69926 -0.33394,0.25674 -2.09045,0.35277 -6.45252,0.35277 -5.07251,0 -6.06184,-0.0682 -6.43717,-0.44349 -0.36395,-0.3639 -0.4435,-1.20645 -0.4435,-4.69716 v -4.2537 l -2.01102,0.18691 c -1.10607,0.1028 -2.10247,0.24342 -2.21423,0.31249 -0.11176,0.0691 -0.27854,1.98511 -0.37063,4.25787 -0.0921,2.27276 -0.24898,4.21413 -0.34864,4.31415 -0.24021,0.24107 -11.30686,0.40659 -12.4827,0.1867 l -0.91722,-0.17153 v -4.37051 c 0,-3.64932 -0.0708,-4.39767 -0.4288,-4.53506 -0.23584,-0.0905 -1.251842,-0.0764 -2.257778,0.0313 l -1.828977,0.19587 -0.02382,2.58809 c -0.03234,3.51416 -0.348378,5.82137 -0.840026,6.13245 -0.564947,0.35747 -12.133401,0.32192 -12.753381,-0.0392 z m 23.065587,-17.24994 c -0.0769,-0.20149 -0.10704,-9.89134 -0.0669,-21.53301 l 0.073,-21.16666 1.73891,-0.0834 c 1.48158,-0.071 1.79813,0.001 2.13912,0.48801 0.37703,0.53828 0.74234,0.57582 6.30443,0.64782 l 5.9042,0.0764 0.14112,2.39889 0.14111,2.39889 5.91366,0.0764 c 4.29867,0.0556 5.97383,0.17119 6.134,0.42334 0.37979,0.59785 0.27801,13.30831 -0.10966,13.69598 -0.48276,0.48276 -15.49102,0.48276 -15.97378,0 -0.20572,-0.20571 -0.33867,-1.20587 -0.33867,-2.54775 v -2.20908 l -4.02166,0.0783 -4.02167,0.0783 -0.14111,13.68778 -0.14111,13.68777 -1.76754,0.0841 c -1.25222,0.0596 -1.80833,-0.0227 -1.90743,-0.28222 z M 130.286,127.64056 c 0.38509,-0.38509 0.46721,-4.66625 0.10059,-5.24402 -0.17163,-0.27047 -1.14827,-0.34158 -3.87623,-0.28222 l -3.6468,0.0793 -0.0823,2.51766 c -0.0452,1.38472 -0.0175,2.68647 0.0617,2.89278 0.19438,0.50654 6.93988,0.53957 7.44299,0.0364 z m -12.42067,-4.98091 c 0.26514,-0.16821 0.34178,-0.95264 0.28222,-2.88845 l -0.0818,-2.65753 h -3.81 -3.81 l -0.0818,2.65753 c -0.0596,1.93581 0.0171,2.72024 0.28223,2.88845 0.20019,0.12701 1.82449,0.23093 3.60954,0.23093 1.78506,0 3.40935,-0.10392 3.60955,-0.23093 z"
         id="path45"
         inkscape:connector-curvature="0" />
      <path
         style="fill:#1f1e20;stroke-width:0.28222221"
         d="m 35.798292,228.45033 2.83e-4,-4.93889 h 1.904716 1.904717 l 0.141111,2.96334 0.141111,2.96333 h 68.15666 68.15667 l 0.14111,-2.96333 0.14111,-2.96334 h 1.90472 1.90471 l 2.8e-4,4.93889 2.9e-4,4.93889 H 108.04689 35.798005 Z m 8.880955,-3.73714 c -0.07366,-0.1953 -0.165316,-14.32508 -0.20369,-31.39952 l -0.06977,-31.04445 h -4.304204 -4.304205 l 3.16e-4,-12.94186 c 2.85e-4,-11.68525 0.04366,-12.92522 0.446732,-12.77055 0.245528,0.0942 3.157588,0.1713 6.471244,0.1713 h 6.024829 l 0.09042,4.38528 c 0.07259,3.52072 0.173881,4.43792 0.513755,4.65234 0.622772,0.3929 4.617772,0.34283 5.023555,-0.063 0.233894,-0.23389 0.338667,-1.67452 0.338667,-4.65667 v -4.318 h 6.35 6.349999 v 4.318 c 0,2.98215 0.104772,4.42278 0.338667,4.65667 0.378206,0.37821 4.383199,0.46791 4.945332,0.11076 0.241799,-0.15362 0.368528,-1.52523 0.423333,-4.58179 l 0.07822,-4.36252 h 6.35 6.35 v 12.55888 12.55889 l -3.81,0.21031 c -2.0955,0.11567 -3.96875,0.27043 -4.162778,0.34392 -0.456963,0.17307 -0.517999,17.7959 -0.06261,18.07735 0.159591,0.0986 2.191591,0.25241 4.515556,0.34172 l 4.225385,0.1624 v 1.65048 1.65049 l -2.751666,0.0306 c -1.513417,0.0169 -3.513667,0.1121 -4.445,0.21166 l -1.693333,0.18104 -0.141111,20.03778 -0.141111,20.03777 -16.306309,0.0729 c -12.895681,0.0576 -16.33432,-0.001 -16.440228,-0.28222 z m 28.880092,-3.65708 c 0.259295,-0.25929 0.338667,-7.60118 0.338667,-31.32666 v -30.988 h 3.916556 c 2.972051,0 3.993943,-0.0932 4.237462,-0.38668 0.228131,-0.27488 0.299319,-2.90628 0.246224,-9.10166 l -0.07469,-8.715 -2.393558,-0.083 c -2.008044,-0.0697 -2.451238,-0.004 -2.751666,0.40672 -0.24988,0.34173 -0.358109,1.71182 -0.358109,4.53332 v 4.04358 l -6.420555,-0.0758 -6.420555,-0.0759 -0.07778,-4.45549 -0.07777,-4.4555 -2.603336,0.0811 -2.603335,0.081 -0.177233,3.95112 c -0.09748,2.17311 -0.192727,4.17336 -0.211666,4.445 -0.0317,0.45469 -0.53774,0.49388 -6.377268,0.49388 h -6.342833 l -0.07772,-4.445 -0.07772,-4.445 -2.355686,-0.0824 c -1.494001,-0.0523 -2.500532,0.0378 -2.751667,0.24623 -0.323705,0.26865 -0.395191,1.85479 -0.391658,8.69018 0.0025,4.77427 0.1191,8.54318 0.271858,8.78489 0.229119,0.36255 1.950881,0.43754 11.990122,0.52226 l 11.722585,0.0989 v 1.6269 1.6269 l -7.287106,0.13121 c -4.007909,0.0722 -7.436908,0.22378 -7.619999,0.33694 -0.247975,0.15326 -0.332894,3.5478 -0.332894,13.30704 v 13.1013 l 0.635,0.14725 c 0.34925,0.081 1.9685,0.17865 3.598333,0.21704 l 2.963334,0.0698 v 1.69333 1.69333 l -2.963334,0.0698 c -1.629833,0.0384 -3.249083,0.13606 -3.598333,0.21704 l -0.635,0.14725 v 13.9411 c 0,10.88882 0.07724,13.97227 0.352778,14.08346 0.194028,0.0783 5.756628,0.15237 12.361333,0.16463 8.989099,0.0167 12.09371,-0.0629 12.347221,-0.31639 z M 52.166896,209.40033 v -1.86137 l 1.763889,0.084 1.763889,0.084 v 1.69333 1.69334 l -1.763889,0.084 -1.763889,0.084 z m 7.055555,0 v -1.86137 l 1.763889,0.084 1.763889,0.084 v 1.69333 1.69334 l -1.763889,0.084 -1.763889,0.084 z m 7.055555,0 v -1.86137 l 1.763889,0.084 1.763889,0.084 v 1.69333 1.69334 l -1.763889,0.084 -1.763889,0.084 z m -12.006905,-25.3307 c -0.07689,-0.20036 -0.105534,-3.21892 -0.06366,-6.7079 l 0.07613,-6.34362 6.696122,-0.0756 6.696123,-0.0756 0.157011,0.64009 c 0.08635,0.35205 0.121099,3.37059 0.07721,6.70787 l -0.0798,6.06778 -6.709668,0.0757 c -5.275434,0.0595 -6.73955,-0.002 -6.849459,-0.28861 z m 9.688445,-6.34874 0.08043,-2.89278 h -2.973207 -2.973207 v 2.77519 c 0,1.52635 0.08896,2.86414 0.197686,2.97287 0.108727,0.10873 1.410477,0.16164 2.892778,0.11759 l 2.695092,-0.0801 z m 17.674391,46.95559 c -0.08233,-0.21455 -0.110346,-1.00895 -0.06226,-1.76534 l 0.08744,-1.37525 5.362222,-0.14111 5.362222,-0.14111 v -2.68112 -2.68111 l -4.374445,-0.14111 -4.374444,-0.14111 -0.08402,-1.76389 -0.08402,-1.76389 h 4.190353 c 2.882869,0 4.296029,-0.10567 4.529023,-0.33866 0.251398,-0.2514 0.338667,-3.07295 0.338667,-10.94958 v -10.6109 l 3.762846,-3.72598 3.762849,-3.72599 h 7.94758 7.94758 l 2.18901,1.93705 c 1.20396,1.06537 2.91927,2.70694 3.8118,3.64793 l 1.62277,1.7109 v 3.24342 c 0,1.78389 0.0771,3.44432 0.17131,3.68984 0.12621,0.3289 0.56268,0.44642 1.65806,0.44642 0.81771,0 1.88362,0.0794 2.36869,0.17639 0.86546,0.17309 0.88194,0.20682 0.88194,1.80425 0,1.90368 -0.0897,1.97047 -2.64775,1.97047 -0.98863,0 -1.90279,0.14788 -2.09358,0.33867 -0.42068,0.42068 -0.48013,18.47335 -0.063,19.13466 0.21582,0.34216 1.25679,0.4504 5.42846,0.56445 l 5.16144,0.14111 v 1.69333 1.69333 l -26.32552,0.072 c -22.191388,0.0607 -26.349026,0.0108 -26.47521,-0.31809 z m 19.601933,-3.65962 c 0.21636,-0.2607 0.3365,-4.04682 0.38734,-12.20611 l 0.0737,-11.82819 h 1.69334 1.69333 l 0.0737,11.82819 c 0.0508,8.15929 0.17097,11.94541 0.38733,12.20611 0.42952,0.51754 13.50208,0.55415 14.01698,0.0392 0.25456,-0.25456 0.33867,-3.91549 0.33867,-14.74106 v -14.4024 l -2.74638,-2.75671 -2.74637,-2.75672 h -6.3398 -6.33981 l -2.767155,2.76716 -2.767155,2.76715 v 14.39196 c 0,10.81745 0.08411,14.47607 0.338667,14.73062 0.481392,0.48139 4.297983,0.44954 4.703643,-0.0392 z m 9.69033,-12.95708 0.084,-1.76389 h 1.69333 1.69333 l 0.084,1.76389 0.084,1.76389 h -1.86138 -1.86138 z m 0,-7.05556 0.084,-1.76389 h 1.69333 1.69333 l 0.084,1.76389 0.084,1.76389 h -1.86138 -1.86138 z m 0,-7.05555 0.084,-1.76389 h 1.69333 1.69333 l 0.084,1.76389 0.084,1.76389 h -1.86138 -1.86138 z m 27.73687,30.76452 c -0.0715,-0.1953 -0.1632,-2.13308 -0.20369,-4.30619 l -0.0736,-3.95111 -4.37444,-0.14111 -4.37445,-0.14111 v -1.69334 -1.69333 l 4.37445,-0.14111 4.37444,-0.14111 0.0721,-25.01391 c 0.071,-24.63861 0.0638,-25.01608 -0.48115,-25.15858 -0.30428,-0.0796 -1.86071,-0.0815 -3.45874,-0.004 -1.76193,0.0851 -3.21214,0.0202 -3.68456,-0.165 l -0.77905,-0.30531 0.0735,-12.4942 0.0735,-12.49418 h 6.35 6.35 l 0.0782,4.36252 c 0.0548,3.05656 0.18153,4.42817 0.42333,4.58179 0.56214,0.35715 4.56713,0.26745 4.94533,-0.11076 0.2339,-0.23389 0.33867,-1.67452 0.33867,-4.65667 v -4.318 h 6.35 6.35 v 4.318 c 0,2.98215 0.10477,4.42278 0.33867,4.65667 0.40578,0.40578 4.40078,0.45585 5.02355,0.063 0.33988,-0.21442 0.44116,-1.13162 0.51376,-4.65234 l 0.0904,-4.38528 h 6.02483 c 3.31366,0 6.22571,-0.0771 6.47124,-0.1713 0.40307,-0.15467 0.44645,1.0853 0.44673,12.77055 l 2.9e-4,12.94186 h -4.30421 -4.3042 l -0.14111,31.32667 -0.14112,31.32666 -16.3063,0.0729 c -12.89728,0.0576 -16.33351,-0.001 -16.4364,-0.28222 z m 28.87626,-3.65708 c 0.25006,-0.25006 0.33867,-2.83632 0.33867,-9.88476 v -9.5461 l -0.72393,-0.27523 c -0.39816,-0.15139 -3.00166,-0.27524 -5.78555,-0.27524 h -5.06163 v -1.69334 -1.69333 h 5.44689 c 3.86017,0 5.54554,-0.0986 5.78555,-0.33867 0.25675,-0.25674 0.33867,-4.96711 0.33867,-19.47333 v -19.13466 h 3.91656 c 2.97205,0 3.99394,-0.0932 4.23746,-0.38668 0.22813,-0.27488 0.29932,-2.90628 0.24622,-9.10166 l -0.0747,-8.715 h -2.54 -2.54 l -0.1795,3.66889 c -0.0987,2.01789 -0.19397,4.01814 -0.21166,4.445 l -0.0322,0.77611 h -6.35 -6.35 l -0.004,-3.88055 c -0.005,-5.51775 0.18425,-5.18752 -2.92449,-5.09012 l -2.57501,0.0807 -0.14111,4.37445 -0.14111,4.37444 -6.41336,0.0758 -6.41336,0.0758 -0.0777,-4.45028 -0.0778,-4.45028 -2.45376,-0.0813 c -2.23052,-0.0739 -2.48195,-0.0286 -2.76369,0.4978 -0.36741,0.68652 -0.28259,17.03855 0.0903,17.41096 0.1293,0.12913 5.43155,0.2794 11.78278,0.33395 l 11.54769,0.0992 v 1.62627 1.62627 l -7.14834,0.13303 c -3.93158,0.0732 -7.29708,0.22497 -7.47888,0.33733 -0.2449,0.15135 -0.33056,3.59294 -0.33056,13.28077 0,11.6637 0.0482,13.09499 0.44642,13.24779 0.24553,0.0942 1.45203,0.17131 2.68111,0.17131 H 147.84 v 1.83444 1.83444 h -2.23469 c -1.22908,0 -2.43558,0.0771 -2.68111,0.17131 -0.39873,0.153 -0.44642,1.65835 -0.44642,14.09041 0,13.01899 0.0319,13.92746 0.49389,14.04818 0.27164,0.071 5.83424,0.1438 12.36133,0.16181 8.89125,0.0245 11.95238,-0.0522 12.20611,-0.30593 z m -21.39244,-7.98689 v -1.86138 l 1.76389,0.084 1.76389,0.084 v 1.69333 1.69333 l -1.76389,0.084 -1.76389,0.084 z m 7.05556,0 v -1.86138 l 1.76388,0.084 1.76389,0.084 v 1.69333 1.69333 l -1.76389,0.084 -1.76388,0.084 z m 7.05555,0 v -1.86138 l 1.76389,0.084 1.76389,0.084 v 1.69333 1.69333 l -1.76389,0.084 -1.76389,0.084 z m -11.94242,-28.82871 c -0.27325,-0.27325 -0.23277,-12.58188 0.0428,-13.01606 0.17537,-0.27629 1.73794,-0.34077 6.83957,-0.28222 l 6.61227,0.0759 v 6.63222 6.63223 l -6.65075,0.0755 c -3.65792,0.0415 -6.73767,-0.0114 -6.84389,-0.11759 z m 9.62396,-6.51962 0.0804,-2.89278 h -2.97321 -2.9732 v 2.77519 c 0,1.52635 0.089,2.86414 0.19768,2.97287 0.10873,0.10873 1.41048,0.16164 2.89278,0.11759 l 2.69509,-0.0801 z m -74.728201,-8.81944 v -2.54 h 1.559207 c 1.379482,0 1.588442,0.0769 1.812826,0.66706 0.33167,0.87237 0.799866,1.02627 3.122001,1.02627 2.816194,0 2.819299,-0.006 2.819299,-5.10016 v -4.21317 h 6.349999 6.349999 v 4.318 c 0,2.98215 0.10477,4.42277 0.33867,4.65666 0.45248,0.45248 4.51463,0.45248 4.96711,0 0.23389,-0.23389 0.33867,-1.67451 0.33867,-4.65666 v -4.318 h 6.34999 6.35 v 4.21317 c 0,5.09454 0.003,5.10016 2.8193,5.10016 2.32214,0 2.79033,-0.1539 3.122,-1.02627 0.22393,-0.58897 0.4342,-0.66706 1.79617,-0.66706 0.84841,0 1.62605,0.1351 1.7281,0.30022 0.10206,0.16512 0.0963,1.30812 -0.0127,2.54 l -0.19826,2.23978 h -6.32063 -6.32062 v -4.36452 c 0,-4.04226 -0.0407,-4.38632 -0.55177,-4.65981 -0.68105,-0.36449 -4.58091,-0.0537 -4.87669,0.38869 -0.11404,0.17054 -0.20929,2.18333 -0.21167,4.47286 l -0.004,4.16278 h -6.49111 -6.49111 v -4.3805 c 0,-5.17904 0.0542,-5.10012 -3.245553,-4.73069 l -1.975556,0.22119 -0.179493,3.66889 c -0.09872,2.01788 -0.193968,4.01813 -0.211667,4.445 l -0.03217,0.77611 h -6.35 -6.349999 z m 23.343051,-14.56881 c -0.11046,-0.11045 -0.20083,-9.70465 -0.20083,-21.32045 v -21.11963 h 1.62544 c 1.31425,0 1.69225,0.10697 1.97437,0.55872 0.32687,0.52339 0.71918,0.56353 6.20623,0.635 l 5.85729,0.0763 0.14111,2.39889 0.14111,2.39889 6.06778,0.14111 6.06778,0.14111 v 6.77333 6.77334 h -7.90222 -7.90222 l -0.14112,-2.39889 -0.14111,-2.39889 h -4.23333 -4.23333 l -0.14111,13.68778 -0.14111,13.68777 -1.42196,0.0832 c -0.78207,0.0458 -1.51232,-0.007 -1.62277,-0.1176 z m 24.01384,-26.40986 c 0.50242,-0.50242 0.45768,-5.4201 -0.0532,-5.84407 -0.2639,-0.21902 -1.62302,-0.29941 -4.16277,-0.24623 l -3.77095,0.079 -0.081,2.94025 c -0.0595,2.16222 0.0152,3.00123 0.28223,3.17068 0.59548,0.37782 7.39518,0.29083 7.78562,-0.0996 z m -12.38533,-5.13576 c 0.21283,-0.25644 0.29897,-1.3672 0.24623,-3.175 l -0.0811,-2.78057 h -4.09222 -4.09222 l -0.0816,2.81795 c -0.0697,2.40578 -0.0102,2.87018 0.40671,3.175 0.72197,0.52791 7.25138,0.49619 7.6942,-0.0374 z"
         id="path43"
         inkscape:connector-curvature="0" />
    </g>
  </g>
</svg>
