<?xml version="1.0" encoding="UTF-8" standalone="no"?>
<!-- Created with Inkscape (http://www.inkscape.org/) -->

<svg
   xmlns:dc="http://purl.org/dc/elements/1.1/"
   xmlns:cc="http://creativecommons.org/ns#"
   xmlns:rdf="http://www.w3.org/1999/02/22-rdf-syntax-ns#"
   xmlns:svg="http://www.w3.org/2000/svg"
   xmlns="http://www.w3.org/2000/svg"
   xmlns:sodipodi="http://sodipodi.sourceforge.net/DTD/sodipodi-0.dtd"
   xmlns:inkscape="http://www.inkscape.org/namespaces/inkscape"
   width="512"
   height="512"
   viewBox="0 0 135.46666 135.46667"
   version="1.1"
   id="svg8"
   inkscape:version="0.92.4 (5da689c313, 2019-01-14)"
   sodipodi:docname="cat(1).svg">
  <defs
     id="defs2" />
  <sodipodi:namedview
     id="base"
     pagecolor="#ffffff"
     bordercolor="#666666"
     borderopacity="1.0"
     inkscape:pageopacity="0.0"
     inkscape:pageshadow="2"
     inkscape:zoom="0.35"
     inkscape:cx="251.77895"
     inkscape:cy="560"
     inkscape:document-units="mm"
     inkscape:current-layer="layer1"
     showgrid="false"
     units="px"
     inkscape:window-width="675"
     inkscape:window-height="740"
     inkscape:window-x="683"
     inkscape:window-y="0"
     inkscape:window-maximized="0" />
  <metadata
     id="metadata5">
    <rdf:RDF>
      <cc:Work
         rdf:about="">
        <dc:format>image/svg+xml</dc:format>
        <dc:type
           rdf:resource="http://purl.org/dc/dcmitype/StillImage" />
        <dc:title></dc:title>
      </cc:Work>
    </rdf:RDF>
  </metadata>
  <g
     inkscape:label="Layer 1"
     inkscape:groupmode="layer"
     id="layer1"
     transform="translate(0,-161.53332)">
    <g
       id="g133"
       transform="matrix(0.79581298,0,0,0.79581298,12.952352,48.612034)">
      <path
         style="fill:#fdda62;stroke-width:0.28222221"
         d="m 61.080959,299.27812 c -11.313526,-1.12446 -22.602762,-5.59684 -32.272112,-12.78503 -3.154248,-2.34486 -8.675966,-7.59952 -11.106219,-10.56906 -0.857473,-1.04775 -1.670527,-1.905 -1.806788,-1.905 -0.136261,0 -1.751709,0.6985 -3.589885,1.55222 -1.838176,0.85372 -3.6865535,1.55222 -4.1075051,1.55222 -0.9775557,0 -2.1508214,-1.15775 -2.1508214,-2.12239 0,-1.35097 0.5779691,-1.86859 3.8353947,-3.43494 1.7710888,-0.85164 3.2201608,-1.61732 3.2201608,-1.7015 0,-0.0842 -0.633158,-1.25949 -1.407018,-2.61179 -0.773859,-1.3523 -1.8501525,-3.43112 -2.3917629,-4.6196 -0.5416107,-1.18849 -1.1467027,-2.15636 -1.3446494,-2.15083 -0.1979467,0.006 -1.121903,0.19404 -2.0532363,0.41892 -0.9313333,0.22488 -1.9848561,0.41086 -2.3411616,0.41328 -0.959941,0.007 -2.0332826,-1.20386 -2.0332826,-2.2929 0,-1.34172 0.9189068,-2.15275 2.9035182,-2.56266 0.923089,-0.19066 1.7400932,-0.50757 1.8155648,-0.70425 0.075472,-0.19668 -0.1912047,-1.66043 -0.5926142,-3.2528 -1.3246644,-5.25484 -1.6539731,-7.75877 -1.7912172,-13.61965 -0.1929059,-8.23787 0.8316558,-14.80361 3.4293518,-21.97644 l 1.0087296,-2.78533 0.00276,-26.848 0.00276,-26.848 0.6663919,-1.43111 c 0.3665154,-0.78711 1.1333799,-1.81604 1.7041439,-2.28651 1.867177,-1.53909 5.290108,-1.8992 7.595521,-0.7991 0.491691,0.23462 6.989984,5.38952 14.44065,11.45532 7.450666,6.06581 13.709661,11.09705 13.908878,11.18055 0.199215,0.0835 1.723215,-0.24328 3.386667,-0.72618 6.832515,-1.98346 11.953674,-2.6882 19.534453,-2.6882 7.580779,0 12.701938,0.70474 19.534453,2.6882 1.663452,0.4829 3.187452,0.80968 3.386667,0.72618 0.199218,-0.0835 6.458212,-5.11474 13.908879,-11.18055 7.45067,-6.0658 13.94896,-11.2207 14.44065,-11.45532 2.30542,-1.1001 5.72835,-0.73999 7.59553,0.7991 0.57076,0.47047 1.33762,1.4994 1.70414,2.28651 l 0.66639,1.43111 0.003,26.848 0.003,26.848 1.00873,2.78533 c 1.28114,3.5375 2.52885,8.63402 3.07846,12.57453 0.72498,5.19792 0.44738,15.07051 -0.54212,19.27969 -0.073,0.31045 -0.46914,1.93079 -0.88036,3.60076 -0.41122,1.66998 -0.68593,3.19723 -0.61046,3.39391 0.0755,0.19668 0.89248,0.51359 1.81557,0.70425 1.98461,0.40991 2.90352,1.22094 2.90352,2.56266 0,1.08904 -1.07335,2.29943 -2.03329,2.2929 -0.3563,-0.003 -1.40982,-0.1884 -2.34116,-0.41328 -0.93133,-0.22488 -1.85529,-0.4134 -2.05323,-0.41892 -0.19795,-0.006 -0.80304,0.96234 -1.34465,2.15083 -0.54161,1.18848 -1.61791,3.2673 -2.39177,4.6196 -0.77386,1.3523 -1.40701,2.5276 -1.40701,2.61179 0,0.0842 1.44907,0.84986 3.22016,1.7015 3.25742,1.56635 3.83539,2.08397 3.83539,3.43494 0,0.96464 -1.17326,2.12239 -2.15082,2.12239 -0.42095,0 -2.26933,-0.6985 -4.1075,-1.55222 -1.83818,-0.85372 -3.45363,-1.55222 -3.58989,-1.55222 -0.13626,0 -0.94931,0.85725 -1.80679,1.905 -2.43025,2.96954 -7.95197,8.2242 -11.10622,10.56906 -7.81329,5.8084 -16.989684,9.96766 -26.345447,11.94124 -5.5905,1.17931 -15.721696,1.55327 -22.859998,0.84379 z M 44.843502,233.54238 c 1.127173,-0.47097 1.844124,-1.69207 1.844124,-3.14089 0,-1.45548 -1.493649,-2.94912 -2.949126,-2.94912 -3.00493,0 -4.591735,3.18599 -2.635938,5.29244 1.135425,1.22288 2.186626,1.447 3.74094,0.79757 z m 52.211108,0 c 2.925039,-1.22216 2.015673,-6.09001 -1.137677,-6.09001 -3.576577,0 -4.832948,4.5018 -1.689354,6.05325 1.081574,0.53379 1.620692,0.5408 2.827031,0.0368 z"
         id="path147"
         inkscape:connector-curvature="0" />
      <path
         style="fill:#fcc750;stroke-width:0.28222221"
         d="m 60.939848,299.26068 c -11.302441,-1.13732 -23.329763,-5.98813 -32.639173,-13.16388 -3.170948,-2.44418 -7.807928,-6.89064 -10.314337,-9.89055 -1.005079,-1.20297 -1.936556,-2.18722 -2.069951,-2.18722 -0.133395,0 -1.769098,0.6985 -3.634897,1.55222 -1.865799,0.85372 -3.719972,1.55222 -4.1203843,1.55222 -0.940829,0 -2.1134772,-1.17759 -2.1134772,-2.12239 0,-1.35994 0.5750551,-1.873 3.8373994,-3.4237 1.7699851,-0.84134 3.2181561,-1.62242 3.2181561,-1.73573 0,-0.11331 -0.524504,-1.09301 -1.165563,-2.1771 -0.641059,-1.08409 -1.7164,-3.14583 -2.3896449,-4.58163 -0.6732456,-1.43581 -1.3869923,-2.60868 -1.5861041,-2.60639 -0.1991117,0.002 -1.1813054,0.19728 -2.1826526,0.4333 -1.0013473,0.23602 -2.1804005,0.3501 -2.6201185,0.25353 -1.0270354,-0.22558 -1.6901224,-1.24635 -1.575843,-2.4259 0.1097522,-1.13282 1.3248083,-2.04819 3.0943565,-2.33115 1.8588727,-0.29725 1.9582705,-0.48246 1.3449268,-2.50607 -1.6397025,-5.40988 -2.3519371,-11.48117 -2.154105,-18.3622 0.2072767,-7.20955 1.3301333,-12.98184 3.8360969,-19.72029 0.5974302,-1.60647 0.6008889,-1.76979 0.6036301,-28.50444 l 0.00276,-26.88872 0.6663919,-1.43111 c 0.3665154,-0.78711 1.1333799,-1.81604 1.7041439,-2.28651 1.871497,-1.54265 5.310019,-1.90109 7.595521,-0.79179 0.491691,0.23865 7.053484,5.44597 14.581761,11.57181 7.528278,6.12584 13.871724,11.13857 14.096548,11.13941 0.224821,8.5e-4 1.431321,-0.30947 2.681111,-0.68958 6.502323,-1.97759 12.254974,-2.78108 19.911228,-2.78108 7.656254,0 13.408905,0.80349 19.911228,2.78108 1.24979,0.38011 2.45629,0.69042 2.681111,0.68958 0.224824,-8.5e-4 6.568271,-5.01357 14.096543,-11.13941 7.52828,-6.12584 14.09007,-11.33316 14.58176,-11.57181 2.28551,-1.1093 5.72403,-0.75086 7.59553,0.79179 0.57076,0.47047 1.33762,1.4994 1.70414,2.28651 l 0.66639,1.43111 0.003,26.88872 c 0.003,26.73465 0.006,26.89797 0.60363,28.50444 2.51505,6.76286 3.64163,12.54582 3.83783,19.70018 0.19297,7.0364 -0.48365,12.79857 -2.15864,18.38333 -0.61522,2.05126 -0.56649,2.12733 1.66424,2.59772 1.87842,0.3961 2.82903,1.20509 2.82903,2.40756 0,2.02917 -1.37857,2.67941 -4.24714,2.00329 -1.00135,-0.23602 -1.98355,-0.431 -2.18266,-0.4333 -0.19911,-0.002 -0.91286,1.17058 -1.5861,2.60639 -0.67325,1.4358 -1.74859,3.49754 -2.38964,4.58163 -0.64106,1.08409 -1.16557,2.06379 -1.16557,2.1771 0,0.11331 1.44817,0.89439 3.21816,1.73573 3.26228,1.5507 3.83733,2.06376 3.83733,3.4237 0,0.9448 -1.17265,2.12239 -2.11348,2.12239 -0.40041,0 -2.25458,-0.6985 -4.12038,-1.55222 -1.8658,-0.85372 -3.5015,-1.55222 -3.6349,-1.55222 -0.13339,0 -1.06487,0.98425 -2.06995,2.18722 -10.83905,12.9732 -26.879062,21.48211 -43.517949,23.08541 -5.05933,0.48751 -11.619811,0.47531 -16.65111,-0.031 z m 28.711484,-7.56416 c 8.461233,-2.88659 15.674468,-7.09643 21.947398,-12.80911 3.07049,-2.79625 6.28261,-6.32176 6.00249,-6.58813 -0.60052,-0.57103 -11.52868,-3.69698 -19.649205,-5.62056 -5.104254,-1.20909 -5.672675,-1.55134 -5.672675,-3.41551 0,-1.49167 1.060464,-2.50915 2.613465,-2.50755 2.153925,0.002 15.367585,3.40741 22.326515,5.75359 2.08237,0.70207 3.87629,1.22077 3.98648,1.15267 0.51365,-0.31746 4.37602,-7.41165 4.15534,-7.63233 -0.48274,-0.48275 -13.92928,-1.23781 -22.18023,-1.24549 l -5.454484,-0.005 -0.824955,-0.82496 c -1.395425,-1.39542 -1.037421,-3.39478 0.740915,-4.13782 1.970159,-0.82319 21.624544,-0.21695 28.941204,0.89268 l 1.01485,0.15391 0.73507,-2.62802 c 4.28841,-15.33202 1.73346,-31.82197 -6.94444,-44.82023 -10.33138,-15.47495 -26.615812,-25.1582 -45.608418,-27.12026 -8.316676,-0.85916 -21.344813,0.63708 -25.974445,2.9831 -1.699178,0.86103 -5.154289,3.44533 -8.285285,6.19709 -3.105793,2.7296 -7.273622,7.57347 -9.851076,11.44896 -2.145566,3.2261 -5.361333,9.62136 -6.527932,12.98222 -4.074629,11.73863 -4.259024,24.5787 -0.521508,36.31436 l 1.063024,3.33786 7.327099,-0.10412 c 6.116971,-0.0869 7.498138,-0.0326 8.362715,0.32888 1.856356,0.77617 2.244177,2.74775 0.820536,4.17139 l -0.824956,0.82496 -6.160044,0.004 c -3.388021,0.002 -6.335412,0.11539 -6.549751,0.25115 -0.311816,0.19749 -0.145463,0.67611 0.832262,2.39456 0.70579,1.2405 1.406881,2.14552 1.659709,2.14248 0.240756,-0.003 2.723738,-0.57856 5.517738,-1.27926 2.794,-0.70069 5.848101,-1.34929 6.786894,-1.44133 1.544929,-0.15147 1.785335,-0.0999 2.533585,0.54375 0.664128,0.57126 0.826693,0.93869 0.826693,1.86851 0,1.86391 -0.568536,2.20632 -5.672674,3.41637 -7.08441,1.67953 -6.930082,1.62617 -6.582373,2.27587 0.566078,1.05773 7.429084,7.91562 9.844966,9.83762 1.332599,1.06018 3.717989,2.77435 5.300864,3.80927 2.903126,1.89812 10.231083,5.60499 11.797599,5.96785 l 0.846667,0.19612 -1.149491,-1.23531 c -2.139913,-2.29967 -3.039505,-4.4269 -3.371819,-7.97318 l -0.201673,-2.15212 h -0.843325 c -1.264932,0 -4.087089,-0.7957 -5.70243,-1.60779 -3.529982,-1.77464 -5.058678,-3.56527 -4.435455,-5.19545 0.718338,-1.87897 2.620064,-2.24382 4.605658,-0.88361 2.003972,1.3728 3.453172,2.00327 5.281633,2.29773 2.496337,0.40202 4.535737,-0.007 7.385109,-1.48248 4.477944,-2.31822 6.778975,-2.31822 11.256918,0 4.672779,2.41909 8.284706,2.18662 12.666742,-0.81525 1.985595,-1.36021 3.887321,-0.99536 4.605658,0.88361 0.623223,1.63018 -0.905473,3.42081 -4.435455,5.19545 -1.615341,0.81209 -4.437498,1.60779 -5.70243,1.60779 h -0.843325 l -0.201673,2.15213 c -0.228284,2.43614 -0.89259,4.59089 -1.912493,6.20338 -1.525769,2.41228 -4.771962,4.66208 -7.342293,5.08863 -1.797188,0.29824 -1.448234,0.59437 1.275775,1.08266 4.319024,0.7742 6.395406,0.95687 9.948812,0.87525 3.046239,-0.07 3.69117,-0.18167 6.41593,-1.11123 z m -21.53921,-26.39941 c -1.386521,-0.44768 -2.206543,-1.20924 -4.93824,-4.58622 -3.161642,-3.90848 -3.788641,-4.99952 -3.780059,-6.57764 0.007,-1.28631 0.772016,-3.15695 1.587051,-3.88068 1.338301,-1.18837 2.371288,-1.35132 8.566751,-1.35132 7.395929,0 8.412042,0.3127 9.629216,2.96334 0.665779,1.44986 0.669098,3.13713 0.0087,4.43243 -0.807948,1.58475 -5.924326,7.77056 -6.952973,8.4063 -1.053123,0.65086 -3.051685,0.93887 -4.120461,0.59379 z M 40.767801,247.61965 c -2.05705,-0.57607 -3.601756,-1.51441 -5.01247,-3.04485 -2.398296,-2.60184 -3.01647,-4.84993 -2.851897,-10.37136 0.104862,-3.51803 0.174501,-3.91837 0.978007,-5.62219 1.598447,-3.38947 4.960182,-5.80615 8.526514,-6.12953 2.007399,-0.18203 2.678405,0.13484 3.437819,1.62342 0.314105,0.61569 0.676411,1.11945 0.805118,1.11945 0.128711,0 0.792878,0.37869 1.475932,0.84153 0.803484,0.54445 1.602097,0.84334 2.262186,0.84666 1.353679,0.007 2.343477,0.82997 2.979211,2.47762 0.425159,1.1019 0.516072,2.15899 0.516072,6.00061 v 4.66309 l -0.924027,1.87648 c -2.257264,4.58395 -7.486698,7.0369 -12.192465,5.71907 z m 4.235729,-14.10429 c 1.021543,-0.52826 1.684096,-1.75331 1.684096,-3.11387 0,-1.45548 -1.493649,-2.94912 -2.949126,-2.94912 -2.735506,0 -4.380032,2.58643 -3.062585,4.81669 0.885179,1.49848 2.783027,2.04504 4.327615,1.2463 z m 47.975379,14.10429 c -2.05705,-0.57607 -3.601756,-1.51441 -5.012469,-3.04485 -2.390039,-2.59289 -3.001013,-4.8079 -2.854921,-10.35019 0.09425,-3.57548 0.154156,-3.92134 0.977533,-5.64336 1.768083,-3.69778 5.459897,-6.20888 9.128272,-6.20888 1.520314,0 2.335326,0.48763 2.836251,1.69696 0.215161,0.51945 0.781259,1.08692 1.398329,1.40173 0.570246,0.29092 1.202616,0.72872 1.405266,0.9729 0.22918,0.27614 0.82107,0.44396 1.56584,0.44396 1.49655,0 2.44781,0.70786 3.12185,2.32305 0.65701,1.5744 0.91674,8.06534 0.41432,10.35469 -1.28702,5.86458 -7.354659,9.62942 -12.980271,8.05399 z m 4.23573,-14.10429 c 1.021542,-0.52826 1.684096,-1.75331 1.684096,-3.11387 0,-0.79509 -0.218852,-1.24887 -0.959556,-1.98957 -0.740703,-0.7407 -1.194477,-0.95956 -1.98957,-0.95956 -2.735507,0 -4.380033,2.58644 -3.062586,4.8167 0.885179,1.49848 2.783027,2.04504 4.327616,1.2463 z"
         id="path145"
         inkscape:connector-curvature="0" />
      <path
         style="fill:#e4ae4a;stroke-width:0.28222221"
         d="m 60.939848,299.26068 c -11.302441,-1.13732 -23.329763,-5.98813 -32.639173,-13.16388 -3.170948,-2.44418 -7.807928,-6.89064 -10.314337,-9.89055 -1.005079,-1.20297 -1.936556,-2.18722 -2.069951,-2.18722 -0.133395,0 -1.769098,0.6985 -3.634897,1.55222 -1.865799,0.85372 -3.719972,1.55222 -4.1203843,1.55222 -0.940829,0 -2.1134772,-1.17759 -2.1134772,-2.12239 0,-1.35994 0.5750551,-1.873 3.8373994,-3.4237 1.7699851,-0.84134 3.2181561,-1.62242 3.2181561,-1.73573 0,-0.11331 -0.524504,-1.09301 -1.165563,-2.1771 -0.641059,-1.08409 -1.7164,-3.14583 -2.3896449,-4.58163 -0.6732456,-1.43581 -1.3869923,-2.60868 -1.5861041,-2.60639 -0.1991117,0.002 -1.1813054,0.19728 -2.1826526,0.4333 -1.0013473,0.23602 -2.1804005,0.3501 -2.6201185,0.25353 -1.0270354,-0.22558 -1.6901224,-1.24635 -1.575843,-2.4259 0.1097522,-1.13282 1.3248083,-2.04819 3.0943565,-2.33115 1.8588727,-0.29725 1.9582705,-0.48246 1.3449268,-2.50607 -1.6397025,-5.40988 -2.3519371,-11.48117 -2.154105,-18.3622 0.2072767,-7.20955 1.3301333,-12.98184 3.8360969,-19.72029 0.5974302,-1.60647 0.6008889,-1.76979 0.6036301,-28.50444 l 0.00276,-26.88872 0.6663919,-1.43111 c 0.3665154,-0.78711 1.1333799,-1.81604 1.7041439,-2.28651 1.871497,-1.54265 5.310019,-1.90109 7.595521,-0.79179 0.491691,0.23865 7.053484,5.44597 14.581761,11.57181 7.528278,6.12584 13.871724,11.13857 14.096548,11.13941 0.224821,8.5e-4 1.431321,-0.30947 2.681111,-0.68958 6.502323,-1.97759 12.254974,-2.78108 19.911228,-2.78108 7.656254,0 13.408905,0.80349 19.911228,2.78108 1.24979,0.38011 2.45629,0.69042 2.681111,0.68958 0.224824,-8.5e-4 6.568271,-5.01357 14.096543,-11.13941 7.52828,-6.12584 14.09007,-11.33316 14.58176,-11.57181 2.28551,-1.1093 5.72403,-0.75086 7.59553,0.79179 0.57076,0.47047 1.33762,1.4994 1.70414,2.28651 l 0.66639,1.43111 0.003,26.88872 c 0.003,26.73465 0.006,26.89797 0.60363,28.50444 2.51505,6.76286 3.64163,12.54582 3.83783,19.70018 0.19297,7.0364 -0.48365,12.79857 -2.15864,18.38333 -0.61522,2.05126 -0.56649,2.12733 1.66424,2.59772 1.87842,0.3961 2.82903,1.20509 2.82903,2.40756 0,2.02917 -1.37857,2.67941 -4.24714,2.00329 -1.00135,-0.23602 -1.98355,-0.431 -2.18266,-0.4333 -0.19911,-0.002 -0.91286,1.17058 -1.5861,2.60639 -0.67325,1.4358 -1.74859,3.49754 -2.38964,4.58163 -0.64106,1.08409 -1.16557,2.06379 -1.16557,2.1771 0,0.11331 1.44817,0.89439 3.21816,1.73573 3.26228,1.5507 3.83733,2.06376 3.83733,3.4237 0,0.9448 -1.17265,2.12239 -2.11348,2.12239 -0.40041,0 -2.25458,-0.6985 -4.12038,-1.55222 -1.8658,-0.85372 -3.5015,-1.55222 -3.6349,-1.55222 -0.13339,0 -1.06487,0.98425 -2.06995,2.18722 -10.83905,12.9732 -26.879062,21.48211 -43.517949,23.08541 -5.05933,0.48751 -11.619811,0.47531 -16.65111,-0.031 z m 18.01229,-5.05359 c 7.579826,-1.20113 12.291173,-2.64489 18.418324,-5.64417 4.838808,-2.36862 8.903758,-4.99384 12.863138,-8.30723 2.79602,-2.33984 7.57184,-7.26598 7.57324,-7.81161 0.001,-0.54024 -10.83589,-3.75221 -19.422419,-5.75645 -5.271919,-1.23056 -5.976797,-1.63811 -5.976797,-3.45571 0,-1.37149 1.06045,-2.47882 2.369543,-2.47432 1.980221,0.007 16.131713,3.69935 22.755783,5.93764 1.8147,0.6132 3.41657,1.1149 3.55971,1.1149 0.27364,0 2.63794,-3.90165 3.88716,-6.41473 l 0.73363,-1.47583 -0.63681,-0.13709 c -1.95101,-0.42 -8.52335,-0.77138 -16.86457,-0.90165 -5.19995,-0.0812 -9.869406,-0.27491 -10.376576,-0.43045 -0.965948,-0.29626 -1.758981,-1.42395 -1.758981,-2.50128 0,-0.33009 0.389698,-0.98986 0.865993,-1.46616 l 0.865993,-0.86599 10.634561,0.18019 c 5.84901,0.0991 11.71406,0.29445 13.03345,0.4341 1.31939,0.13965 3.24666,0.34481 4.28282,0.45591 l 1.88393,0.202 0.57481,-1.93562 c 3.88181,-13.07173 2.79587,-26.72433 -3.1059,-39.04784 -6.01218,-12.55405 -16.36961,-22.54152 -29.508275,-28.45427 -14.808089,-6.66403 -32.180655,-7.38817 -47.081824,-1.96251 -20.605952,7.50283 -35.394343,24.31307 -38.960316,44.28691 -1.4248756,7.98105 -0.9310654,17.13463 1.350193,25.02803 0.596456,2.06379 0.599543,2.06781 1.465031,1.90588 3.113032,-0.58245 11.431212,-1.00803 19.727357,-1.00929 l 9.264488,-10e-4 0.824956,0.82495 c 0.893349,0.89335 1.012966,1.55808 0.48779,2.71071 -0.628845,1.38017 -1.407702,1.54421 -7.339372,1.54579 -7.794224,0.002 -21.138356,0.77937 -21.618245,1.25926 -0.135788,0.13579 2.290781,4.79255 3.436117,6.59416 0.575537,0.90532 0.900746,1.17429 1.252974,1.03628 4.552559,-1.78372 21.779749,-6.44471 25.170138,-6.81004 1.396867,-0.15051 1.629901,-0.0949 2.328333,0.55567 0.588665,0.54832 0.776111,0.98695 0.776111,1.8161 0,1.82243 -0.699933,2.22439 -6.0373,3.46709 -2.566867,0.59764 -5.719309,1.40173 -7.005421,1.78685 -9.284944,2.78035 -11.965812,3.6263 -12.190131,3.8466 -0.409019,0.40171 7.25295,7.85771 10.646917,10.36072 8.463452,6.24167 18.856513,10.39132 29.120379,11.62692 1.397,0.16818 2.921,0.35808 3.386666,0.42201 1.821206,0.25003 11.719199,-0.11918 14.343402,-0.53502 z m -13.417044,-3.78596 c -2.636108,-1.06157 -5.091839,-3.31377 -6.350815,-5.82446 -0.75865,-1.51292 -0.980206,-2.43664 -1.179813,-4.91897 l -0.169062,-2.10244 -2.405671,-0.47245 c -2.830212,-0.55583 -5.951059,-2.03466 -7.595892,-3.59935 -0.937181,-0.89152 -1.146215,-1.28081 -1.146215,-2.13467 0,-2.31265 2.305067,-3.15192 4.429706,-1.61284 4.460254,3.23099 8.409488,3.37351 13.632516,0.49196 2.063414,-1.13839 2.184117,-1.16777 4.797777,-1.16777 2.61366,0 2.734364,0.0294 4.797778,1.16777 5.223027,2.88155 9.172261,2.73903 13.632515,-0.49196 2.124639,-1.53908 4.429706,-0.69981 4.429706,1.61284 0,0.85386 -0.209034,1.24315 -1.146215,2.13467 -1.644833,1.56469 -4.76568,3.04352 -7.595892,3.59935 l -2.40567,0.47245 -0.169063,2.10244 c -0.09298,1.15634 -0.2699,2.48344 -0.393149,2.94911 -0.773162,2.92118 -3.359709,5.90162 -6.334805,7.2995 -1.619566,0.76096 -2.2059,0.8802 -4.674094,0.95055 -2.252381,0.0642 -3.091053,-0.0278 -4.153642,-0.45573 z m 1.613642,-25.68195 c -0.984379,-0.61487 -1.845414,-1.5321 -4.535265,-4.83126 -3.217353,-3.94616 -3.74387,-5.46451 -2.695364,-7.77279 0.632249,-1.39188 1.954931,-2.54933 3.358837,-2.93923 1.363294,-0.37863 11.178068,-0.37863 12.541362,0 1.403906,0.3899 2.726588,1.54735 3.358837,2.93923 1.048419,2.30809 0.52215,3.82602 -2.694841,7.77279 -2.64926,3.25024 -3.829699,4.48772 -4.73344,4.96215 -1.106297,0.58076 -3.573173,0.51057 -4.600126,-0.13089 z M 39.609629,247.12453 c -4.713901,-1.97922 -6.74561,-5.6084 -6.747123,-12.05217 -0.0011,-4.63741 0.845718,-7.04406 3.384979,-9.62021 1.825839,-1.85236 4.055186,-2.84183 6.535552,-2.90071 1.319671,-0.0313 1.721928,0.0775 2.304454,0.6238 0.388141,0.36397 0.782377,0.96722 0.876077,1.34055 0.0937,0.37334 0.34872,0.6788 0.566708,0.6788 0.217986,0 0.986262,0.4503 1.707278,1.00066 0.86165,0.65771 1.490667,0.94362 1.835345,0.83422 0.288422,-0.0915 0.955762,0.0138 1.482979,0.23408 1.481581,0.61905 2.198203,2.57214 2.392688,6.52109 0.265605,5.39297 -0.634035,8.50456 -3.201086,11.07161 -1.938022,1.93803 -3.943781,2.7517 -7.023187,2.84909 -2.144045,0.0678 -2.785471,-0.0227 -4.114664,-0.58081 z m 5.393901,-13.60917 c 1.021543,-0.52826 1.684096,-1.75331 1.684096,-3.11387 0,-1.45548 -1.493649,-2.94912 -2.949126,-2.94912 -2.735506,0 -4.380032,2.58643 -3.062585,4.81669 0.885179,1.49848 2.783027,2.04504 4.327615,1.2463 z m 46.817207,13.60917 c -4.685873,-1.96746 -6.753766,-5.61112 -6.749256,-11.89233 0.0035,-4.8429 0.822979,-7.22008 3.371556,-9.78005 1.843924,-1.85217 4.079477,-2.84203 6.551108,-2.90071 1.33387,-0.0317 1.719617,0.0754 2.328333,0.64623 0.401275,0.37631 0.72959,0.90324 0.72959,1.17095 0,0.28739 0.491256,0.74031 1.199444,1.10583 0.659695,0.34049 1.474388,0.8733 1.810438,1.18402 0.39748,0.36753 0.80938,0.50198 1.17872,0.38476 0.31226,-0.0991 0.9991,4e-5 1.52632,0.22032 1.44558,0.60401 2.15587,2.49866 2.37074,6.32383 0.39111,6.96256 -1.528,11.17413 -6.05465,13.28717 -2.316917,1.08153 -6.015321,1.19343 -8.262343,0.24998 z m 5.393902,-13.60917 c 1.021542,-0.52826 1.684096,-1.75331 1.684096,-3.11387 0,-0.79509 -0.218852,-1.24887 -0.959556,-1.98957 -0.740703,-0.7407 -1.194477,-0.95956 -1.98957,-0.95956 -2.735507,0 -4.380033,2.58644 -3.062586,4.8167 0.885179,1.49848 2.783027,2.04504 4.327616,1.2463 z M 37.484436,182.57903 c 1.952219,-1.00894 3.544821,-1.89794 3.539115,-1.97555 -0.023,-0.31296 -24.800018,-20.19752 -25.465794,-20.43734 -0.939571,-0.33846 -2.247644,0.45458 -2.119087,1.28472 0.09527,0.61517 19.957064,23.16558 20.292437,23.03934 0.112113,-0.0422 1.801108,-0.90222 3.753329,-1.91117 z m 72.024934,-2.46944 c 6.63732,-7.53009 7.09845,-7.97278 8.30493,-7.97278 0.63218,0 1.34139,0.23228 1.79242,0.58706 0.41048,0.32288 0.8452,0.54513 0.96605,0.49389 0.12084,-0.0512 0.7627,-0.68763 1.42634,-1.41419 1.18124,-1.29325 1.19387,-1.32785 0.60034,-1.6455 -0.33345,-0.17846 -0.78773,-0.75875 -1.00951,-1.28953 -0.54946,-1.31504 -0.13595,-2.2177 2.24966,-4.91089 1.02863,-1.16126 1.87024,-2.33308 1.87024,-2.60405 0,-0.7793 -1.31299,-1.49702 -2.17235,-1.18746 -0.66753,0.24045 -25.444751,20.12637 -25.464275,20.43734 -0.0086,0.13772 7.007215,3.89187 7.346835,3.93124 0.0942,0.0109 1.93442,-1.98038 4.08932,-4.42513 z"
         id="path143"
         inkscape:connector-curvature="0" />
      <path
         style="fill:#a86c44;stroke-width:0.28222221"
         d="m 61.504292,299.27915 c -17.076368,-1.78432 -32.678461,-10.17699 -43.991186,-23.66371 -1.616296,-1.9269 -1.346939,-1.93166 -5.777826,0.10204 -1.684791,0.7733 -3.3420183,1.40599 -3.6827269,1.40599 -0.8248282,0 -2.0049246,-1.21591 -2.0049246,-2.06578 0,-1.21769 1.1176866,-2.18968 4.1416095,-3.60172 1.60267,-0.74838 2.913946,-1.50898 2.913946,-1.69023 0,-0.18125 -0.430752,-1.04465 -0.957227,-1.91868 -0.526475,-0.87403 -1.607133,-2.89089 -2.4014623,-4.48192 -0.8190774,-1.6406 -1.6183801,-2.89278 -1.8465443,-2.89278 -0.2212704,0 -1.3079484,0.19051 -2.4148402,0.42335 -1.5643772,0.32908 -2.1498085,0.35024 -2.629006,0.095 -0.8746275,-0.46582 -1.3026785,-1.10763 -1.3130555,-1.96876 -0.015104,-1.25344 0.8321107,-1.96337 2.9719571,-2.49036 2.2820284,-0.562 2.2195108,-0.33257 1.1657481,-4.27827 -2.9637345,-11.0974 -2.2987439,-24.52151 1.7572806,-35.4741 l 0.8693717,-2.34758 v -26.59952 c 0,-29.74288 -0.078829,-28.50247 1.9438038,-30.58666 2.053865,-2.11637 5.370913,-2.59624 8.066386,-1.16694 0.702401,0.37245 7.273022,5.55762 14.601379,11.5226 7.328357,5.96499 13.593605,10.89691 13.922778,10.95983 0.329169,0.0629 1.667851,-0.20902 2.97485,-0.60433 12.337869,-3.73166 27.128175,-3.73166 39.466044,0 1.306999,0.39531 2.645681,0.66726 2.974851,0.60433 0.329172,-0.0629 6.594421,-4.99484 13.922782,-10.95983 7.32835,-5.96498 13.89897,-11.15015 14.60137,-11.5226 2.69548,-1.4293 6.01252,-0.94943 8.06639,1.16694 2.02263,2.08419 1.9438,0.84378 1.9438,30.58666 v 26.59952 l 0.85158,2.30958 c 0.46836,1.27027 1.22677,3.72369 1.68536,5.45203 2.70124,10.18057 2.59066,21.86946 -0.29867,31.5713 -0.31454,1.05617 -0.50542,2.02787 -0.42418,2.15933 0.0813,0.13145 0.92796,0.39251 1.88158,0.58012 2.00776,0.39501 3.08248,1.26141 3.06869,2.47387 -0.0103,0.90261 -0.42649,1.54067 -1.31305,2.01285 -0.4792,0.25523 -1.06463,0.23407 -2.62901,-0.095 -1.10689,-0.23284 -2.19357,-0.42335 -2.41484,-0.42335 -0.22816,0 -1.02747,1.25218 -1.84654,2.89278 -0.79434,1.59103 -1.87499,3.60789 -2.40147,4.48192 -0.52647,0.87403 -0.95722,1.73743 -0.95722,1.91868 0,0.18125 1.31127,0.94185 2.91394,1.69023 3.02392,1.41204 4.14161,2.38403 4.14161,3.60172 0,0.84987 -1.18009,2.06578 -2.00492,2.06578 -0.34071,0 -1.99794,-0.63269 -3.68273,-1.40599 -4.43089,-2.0337 -4.16153,-2.02894 -5.77783,-0.10204 -11.39392,13.58351 -26.946767,21.90979 -44.205919,23.66579 -4.785332,0.48688 -11.200564,0.48604 -15.871929,-0.002 z m 14.292876,-4.38759 c 11.772151,-1.18473 22.440969,-5.30517 31.949232,-12.33922 3.38098,-2.50119 10.42498,-9.45374 10.28971,-10.15613 -0.0645,-0.33485 -1.19266,-0.8202 -3.89906,-1.67738 -3.94052,-1.24806 -13.99917,-3.92618 -17.872069,-4.75844 -2.627297,-0.56459 -3.669208,-1.30955 -3.669208,-2.62344 0,-1.23395 1.045111,-2.30014 2.254679,-2.30014 2.00319,0 15.364728,3.46471 22.355568,5.7969 2.07507,0.69226 3.8763,1.25865 4.00273,1.25865 0.47687,0 4.50109,-7.16733 4.50109,-8.01665 0,-0.27466 -0.40644,-0.47145 -1.19944,-0.58074 -3.42508,-0.47207 -8.58393,-0.74385 -16.72167,-0.88094 -4.96711,-0.0837 -9.313343,-0.20932 -9.658295,-0.27921 -0.884713,-0.17924 -1.7717,-1.22369 -1.7717,-2.08621 0,-1.07294 0.722167,-1.924 1.91332,-2.25482 1.940295,-0.53887 15.727295,-0.19231 24.051125,0.60457 5.79241,0.55453 5.41369,0.62897 6.01097,-1.18155 0.94243,-2.85676 1.87546,-7.98778 2.2134,-12.17217 1.10919,-13.73384 -3.26973,-27.40398 -12.46393,-38.91005 -1.98271,-2.48126 -5.75483,-6.26969 -8.46044,-8.49703 -9.05927,-7.45786 -20.607864,-12.32398 -32.730375,-13.79128 -3.41941,-0.41389 -12.052564,-0.34744 -15.529624,0.11952 -16.073607,2.15867 -30.827151,10.32598 -40.555805,22.45101 -8.883807,11.07208 -13.2837612,24.93341 -12.22833,38.52333 0.3227626,4.15595 1.3167227,9.66188 2.216253,12.27667 0.619326,1.80028 0.22052,1.71641 5.569062,1.17116 7.47229,-0.76177 22.537627,-1.12774 24.458835,-0.59418 2.258034,0.62712 2.608362,3.10041 0.591317,4.1747 -0.406882,0.2167 -2.46965,0.32923 -6.067777,0.33102 -8.282835,0.004 -21.417311,0.78357 -21.946878,1.30244 -0.282206,0.27651 4.037857,8.29041 4.469122,8.29041 0.108128,0 1.905808,-0.57466 3.994844,-1.27701 6.49454,-2.18355 20.409407,-5.77854 22.366533,-5.77854 1.504476,0 2.690975,1.60634 2.179726,2.95102 -0.404675,1.06438 -1.283315,1.47092 -4.943567,2.28735 -7.324669,1.6338 -20.461111,5.52327 -20.461111,6.05818 0,0.38085 3.04747,3.83998 4.970354,5.64177 10.20441,9.56178 23.049043,15.43758 36.939644,16.89809 3.300961,0.34708 9.527159,0.35594 12.881765,0.0183 z m -8.009455,-4.26364 c -4.992878,-0.67458 -9.150321,-5.1723 -9.44337,-10.21629 -0.182995,-3.14973 -0.237795,-3.28816 -1.301688,-3.28816 -2.534013,0 -6.888386,-1.77123 -8.884349,-3.61389 -1.429763,-1.31995 -1.623805,-2.65206 -0.535268,-3.67469 0.95487,-0.89705 2.119412,-0.77945 3.742134,0.3779 2.640267,1.88308 5.854702,2.66588 8.760786,2.13349 0.927004,-0.16983 2.890402,-0.92727 4.444583,-1.71462 2.630327,-1.33255 2.905093,-1.41041 4.977084,-1.41041 2.071991,0 2.346757,0.0779 4.977085,1.41041 1.55418,0.78735 3.517578,1.54479 4.444582,1.71462 2.906084,0.53239 6.120519,-0.25041 8.760787,-2.13349 1.666059,-1.18826 2.881102,-1.29697 3.781684,-0.33835 1.023513,1.08948 0.825379,2.34248 -0.574819,3.63514 -1.995963,1.84266 -6.350335,3.61389 -8.884349,3.61389 -1.063893,0 -1.118692,0.13843 -1.301688,3.28816 -0.373369,6.42649 -6.320883,11.11373 -12.963194,10.21629 z m 4.443445,-5.2819 c 1.693183,-0.76919 3.774767,-3.38209 3.456064,-4.3382 -0.0483,-0.14492 -1.007087,-0.62114 -2.130628,-1.05828 -1.756065,-0.68324 -2.18079,-0.75245 -3.025885,-0.49308 -0.697737,0.21414 -1.26843,0.21414 -1.966168,0 -0.845095,-0.25937 -1.26982,-0.19016 -3.025885,0.49308 -1.123541,0.43714 -2.082323,0.91336 -2.130628,1.05828 -0.160429,0.48129 0.44553,1.68394 1.39105,2.76083 1.223036,1.39296 2.808724,2.09132 4.748547,2.09132 0.899073,0 2.028258,-0.21626 2.683533,-0.51395 z m -4.183883,-20.48477 c -0.592356,-0.21126 -1.342452,-0.61843 -1.666877,-0.90483 -1.299786,-1.14743 -6.106809,-7.44874 -6.430453,-8.42939 -0.748668,-2.26848 0.398834,-4.78112 2.650473,-5.80363 1.01359,-0.46029 1.899076,-0.52753 6.947207,-0.52753 5.048131,0 5.933618,0.0672 6.947207,0.52753 2.25164,1.02251 3.399141,3.53515 2.650473,5.80363 -0.323644,0.98065 -5.130667,7.28196 -6.430452,8.42939 -0.61855,0.54605 -2.444022,1.28894 -3.167228,1.28894 -0.232833,0 -0.907991,-0.17285 -1.50035,-0.38411 z m -26.45895,-17.36807 c -3.074861,-0.53375 -5.970532,-2.84241 -7.412786,-5.91009 -0.781315,-1.66186 -0.863775,-2.12571 -0.978315,-5.50333 -0.09621,-2.83702 -0.01713,-4.10982 0.342491,-5.51356 1.097523,-4.28391 4.469197,-7.30101 8.716938,-7.80025 1.905996,-0.22401 2.799822,0.2268 3.427323,1.72862 0.225722,0.54023 0.531123,0.98224 0.678666,0.98224 0.147546,0 0.93334,0.44756 1.74621,0.99458 0.981798,0.6607 1.661499,0.93633 2.024722,0.82105 0.300724,-0.0954 0.9095,-0.0233 1.352835,0.16034 1.626799,0.67384 2.369935,3.60703 2.208894,8.71857 -0.103034,3.27036 -0.183151,3.70928 -0.992012,5.43481 -0.48396,1.03242 -1.41301,2.41022 -2.064554,3.06176 -2.210548,2.21055 -5.920243,3.3686 -9.050412,2.82526 z m 3.946754,-14.27866 c 1.557776,-1.31078 1.66944,-3.50851 0.250365,-4.92759 -0.703081,-0.70308 -1.057919,-0.83456 -2.252193,-0.83456 -1.235904,0 -1.540625,0.123 -2.37718,0.95955 -0.781863,0.78186 -0.959555,1.17567 -0.959555,2.1266 0,2.86405 3.205516,4.47084 5.338563,2.676 z m 48.264355,14.27866 c -3.13782,-0.54468 -5.949851,-2.77915 -7.408658,-5.88702 -0.817406,-1.74141 -0.889051,-2.14335 -0.990921,-5.55921 -0.08309,-2.78609 0.0031,-4.12298 0.354363,-5.49395 1.094015,-4.27035 4.471202,-7.28845 8.713543,-7.78705 1.905996,-0.22401 2.799822,0.2268 3.427324,1.72862 0.225721,0.54023 0.529632,0.98224 0.675357,0.98224 0.145726,0 0.920623,0.45102 1.721998,1.00227 1.00883,0.69395 1.63269,0.94652 2.02803,0.82104 0.31404,-0.0997 0.93371,-0.031 1.37705,0.15266 1.62629,0.67363 2.38474,3.76057 2.1919,8.92122 -0.11447,3.06353 -0.2157,3.60542 -0.97534,5.22112 -2.00767,4.27019 -6.563903,6.68798 -11.114646,5.89806 z m 4.139745,-14.50926 c 0.784135,-0.78413 0.959556,-1.17448 0.959556,-2.13522 0,-2.22942 -1.08751,-3.38036 -3.203222,-3.39006 -1.184521,-0.005 -1.497948,0.1229 -2.328334,0.95328 -0.784134,0.78414 -0.959555,1.17449 -0.959555,2.13522 0,1.47203 0.356757,2.14905 1.499678,2.84594 1.439429,0.87768 2.892495,0.73022 4.031877,-0.40916 z m -82.191046,-31.6975 c 2.632622,-3.55436 7.308704,-8.43085 10.821537,-11.28532 1.454438,-1.18185 2.607225,-2.29912 2.561751,-2.48282 -0.103725,-0.41899 -15.527917,-17.87789 -15.816571,-17.90303 -0.116416,-0.0101 -0.211666,7.88096 -0.211666,17.53578 0,10.45995 0.103028,17.44587 0.254935,17.28611 0.140215,-0.14746 1.215721,-1.56529 2.390014,-3.15072 z M 125.99207,187.06439 c 0,-16.5868 -0.0265,-17.51646 -0.49389,-17.31366 -2.22854,0.96703 -3.92642,-0.14866 -3.77194,-2.47855 0.0179,-0.2696 0.98499,-1.56076 2.14916,-2.86923 1.16811,-1.3129 2.11667,-2.63762 2.11667,-2.95604 0,-0.79904 -1.07937,-1.72787 -2.00791,-1.72787 -0.59607,0 -3.67893,2.35889 -13.49345,10.3247 -6.99647,5.67858 -12.720864,10.43949 -12.720864,10.57978 0,0.1403 0.92075,0.71519 2.046111,1.27753 1.125363,0.56234 2.776503,1.46223 3.669213,1.99974 0.89271,0.5375 1.79479,0.93625 2.00464,0.8861 0.20985,-0.0502 2.50504,-2.50419 5.10043,-5.45341 5.92547,-6.73329 6.11873,-6.91445 7.37642,-6.91445 1.22736,0 2.38096,1.10913 2.38096,2.28917 0,0.88295 0.13149,0.71611 -6.13749,7.78804 -2.3676,2.67085 -4.30473,4.977 -4.30473,5.12479 0,0.14779 0.85725,0.93212 1.905,1.74296 3.03469,2.3485 9.34296,8.89059 11.75866,12.19449 1.22005,1.66864 2.26434,3.03389 2.32064,3.03389 0.0563,0 0.10237,-7.88759 0.10237,-17.52798 z m -90.348027,-3.18424 c 0.874028,-0.52616 2.509889,-1.41676 3.63525,-1.9791 1.125361,-0.56234 2.046111,-1.13723 2.046111,-1.27753 0,-0.14029 -5.724389,-4.9012 -12.720866,-10.57978 -9.814514,-7.96581 -12.89738,-10.3247 -13.49345,-10.3247 -0.924078,0 -2.007904,0.92762 -2.007904,1.71852 0,0.65974 19.96397,23.35981 20.565303,23.38382 0.212528,0.008 1.101528,-0.41506 1.975556,-0.94123 z"
         id="path141"
         inkscape:connector-curvature="0" />
      <path
         style="fill:#5e5960;stroke-width:0.28222221"
         d="m 61.513337,299.24094 c -12.447012,-1.35203 -25.026709,-6.60802 -34.77192,-14.52823 -2.576688,-2.09415 -7.217881,-6.74389 -9.054226,-9.0709 -0.709957,-0.89966 -1.506854,-1.62278 -1.788335,-1.62278 -0.27925,0 -2.124926,0.71805 -4.101501,1.59567 -3.3690549,1.49588 -3.6391192,1.57024 -4.3189719,1.18919 -0.3988593,-0.22356 -0.890879,-0.75111 -1.0933766,-1.17234 -0.6768837,-1.40801 -0.025318,-2.12432 3.5204802,-3.8703 1.7337663,-0.85372 3.2324293,-1.63272 3.3303623,-1.7311 0.09793,-0.0984 -0.460795,-1.26048 -1.241617,-2.58244 -0.780823,-1.32196 -1.872064,-3.39627 -2.4249817,-4.60957 -0.5529176,-1.21329 -1.1358911,-2.2867 -1.2954965,-2.38534 -0.1596051,-0.0986 -1.0115264,-0.01 -1.8931581,0.19792 -2.5376854,0.59726 -3.5814009,0.50974 -4.2635944,-0.35753 -0.3217104,-0.40899 -0.5849281,-0.99026 -0.5849281,-1.29171 0,-0.96539 1.4228185,-2.05613 3.193186,-2.44792 0.9025299,-0.19973 1.7052449,-0.53066 1.7838114,-0.73541 0.078566,-0.20474 -0.1126434,-1.24155 -0.4249101,-2.30402 -0.9413392,-3.20286 -1.7172279,-7.81888 -2.0598298,-12.25461 -0.5702201,-7.38275 0.4899874,-15.538 2.9403984,-22.61793 l 1.199566,-3.46589 0.1411111,-27.51667 0.1411111,-27.51666 0.6252658,-1.16912 c 1.7513129,-3.2746 5.6616559,-4.61535 8.9331469,-3.06292 0.497287,0.23597 6.932079,5.33128 14.299538,11.3229 7.367459,5.99162 13.669836,11.07725 14.005283,11.3014 0.547152,0.36561 0.895575,0.31922 3.386666,-0.45097 12.300593,-3.80306 27.401823,-3.80306 39.702416,0 2.491091,0.77019 2.839514,0.81658 3.386667,0.45097 0.335446,-0.22415 6.637824,-5.30978 14.00528,-11.3014 7.36746,-5.99162 13.80225,-11.08693 14.29954,-11.3229 3.27149,-1.55243 7.18183,-0.21168 8.93315,3.06292 l 0.62526,1.16912 0.14111,27.51666 0.14112,27.51667 1.19956,3.46589 c 1.48122,4.27967 2.48378,9.15436 2.93113,14.25192 0.55387,6.31141 -0.25876,14.46751 -2.05454,20.62062 -0.31008,1.06247 -0.50213,2.09242 -0.42678,2.28878 0.0753,0.19635 0.75106,0.50588 1.50159,0.68784 2.14935,0.5211 2.82004,0.86363 3.16242,1.61508 0.44638,0.97969 0.40294,1.33683 -0.26609,2.18736 -0.68219,0.86727 -1.72591,0.95479 -4.26359,0.35753 -0.88164,-0.2075 -1.73356,-0.29656 -1.89316,-0.19792 -0.15961,0.0986 -0.74258,1.17205 -1.2955,2.38534 -0.55292,1.2133 -1.64416,3.28761 -2.42498,4.60957 -0.78082,1.32196 -1.33955,2.48405 -1.24162,2.58244 0.0979,0.0984 1.5966,0.87738 3.33036,1.7311 3.5458,1.74598 4.19737,2.46229 3.52048,3.8703 -0.2025,0.42123 -0.69451,0.94878 -1.09337,1.17234 -0.67986,0.38105 -0.94992,0.30669 -4.31898,-1.18919 -1.97657,-0.87762 -3.82225,-1.59567 -4.1015,-1.59567 -0.28148,0 -1.07837,0.72312 -1.78833,1.62278 -1.83635,2.32701 -6.47754,6.97675 -9.05423,9.0709 -7.78453,6.32672 -17.996632,11.2435 -27.848428,13.40808 -6.851223,1.50531 -15.546317,1.92893 -22.992065,1.12015 z m 13.678732,-4.07069 c 15.458787,-1.40861 29.804411,-8.23501 40.048471,-19.05715 2.61482,-2.76238 3.26015,-3.63318 3.00201,-4.05087 -0.38586,-0.62433 -13.50755,-4.42306 -21.037149,-6.09026 -2.581004,-0.57148 -3.375575,-0.8646 -3.880555,-1.43152 -0.788997,-0.88578 -0.801855,-1.52207 -0.05007,-2.4778 0.461481,-0.58668 0.828415,-0.74362 1.738627,-0.74362 2.177091,0 15.201907,3.37114 22.364307,5.78844 2.10622,0.71084 3.94156,1.22319 4.07851,1.13854 0.33364,-0.2062 2.56894,-4.06524 3.7247,-6.43033 0.58687,-1.20095 0.82971,-1.99758 0.65869,-2.16088 -0.64806,-0.61881 -13.49023,-1.41858 -23.0071,-1.4328 -4.592034,-0.007 -5.001618,-0.0497 -5.573891,-0.58285 -0.814022,-0.75838 -0.826282,-2.25245 -0.02444,-2.97916 0.521402,-0.47255 1.144876,-0.54902 5.150551,-0.63177 5.36942,-0.11093 16.96749,0.38539 21.7729,0.93173 2.57878,0.29318 3.46371,0.30653 3.70962,0.0559 0.53015,-0.54023 1.79266,-5.25589 2.36303,-8.82624 3.29156,-20.60443 -5.36024,-41.24918 -22.72377,-54.22299 -16.502542,-12.3305 -38.431244,-15.81642 -58.137771,-9.24195 -21.956949,7.32526 -37.595948,25.46728 -40.6526713,47.15913 -0.5506045,3.90733 -0.5566757,11.21208 -0.012522,15.06629 0.4890846,3.46416 2.0149653,9.59081 2.5068033,10.0652 0.259202,0.25001 1.11636,0.23579 3.58617,-0.0595 4.469343,-0.53432 16.407693,-1.03912 21.91401,-0.92662 4.006576,0.0819 4.629034,0.1581 5.150555,0.63075 0.774299,0.70175 0.789,2.22992 0.02877,2.99015 -0.52162,0.52162 -0.94451,0.56483 -5.573889,0.56952 -9.048504,0.009 -22.450599,0.84171 -23.061195,1.43257 -0.316898,0.30666 1.226975,3.57705 3.151686,6.67624 0.698891,1.12537 1.296698,2.04612 1.328461,2.04612 0.03176,0 2.145867,-0.6865 4.69801,-1.52554 7.259946,-2.38679 19.527827,-5.52784 21.573593,-5.52367 1.287636,0.003 1.618635,0.16751 2.074418,1.03343 0.472003,0.89673 0.403157,1.38041 -0.310529,2.18164 -0.505243,0.56722 -1.298197,0.85944 -3.880555,1.43006 -7.266339,1.60563 -20.669698,5.49717 -21.049368,6.1115 -0.235502,0.38104 0.359336,1.18581 2.845068,3.84911 12.670701,13.57585 32.474967,20.9733 51.50652,19.23913 z m -7.889437,-4.8084 c -3.108799,-0.6094 -6.247499,-3.0336 -7.708253,-5.95351 -0.746227,-1.49164 -1.329445,-4.2125 -1.333511,-6.22116 -0.0023,-1.15265 -0.02862,-1.16754 -2.573207,-1.45801 -2.806781,-0.3204 -7.504215,-2.79764 -8.410368,-4.4353 -0.524984,-0.94879 -0.0346,-2.28471 1.014061,-2.76251 0.885382,-0.40341 1.395736,-0.25029 3.189873,0.95708 2.489019,1.67499 4.293768,2.18853 7.251762,2.06351 2.481134,-0.10487 2.71997,-0.17461 5.636623,-1.64584 2.886428,-1.45598 3.157217,-1.53632 5.178013,-1.53632 2.020796,0 2.291585,0.0803 5.178013,1.53632 2.916653,1.47123 3.15549,1.54097 5.636624,1.64584 2.957993,0.12502 4.762742,-0.38852 7.251761,-2.06351 1.794138,-1.20737 2.304491,-1.36049 3.189873,-0.95708 1.048656,0.4778 1.539045,1.81372 1.014061,2.76251 -0.906153,1.63766 -5.603587,4.1149 -8.410368,4.4353 -2.544592,0.29047 -2.570872,0.30536 -2.573206,1.45801 -0.0041,2.00866 -0.587285,4.72952 -1.333512,6.22116 -1.513718,3.02579 -4.598156,5.34548 -7.945655,5.97563 -1.739641,0.32748 -2.489022,0.32358 -4.252584,-0.0221 z m 5.142385,-4.6969 c 1.318127,-0.52332 3.209919,-2.62729 3.588803,-3.9913 0.156195,-0.56232 0.2847,-1.9378 0.285563,-3.05663 l 0.0017,-2.03423 -2.029172,-0.99966 c -1.116045,-0.54981 -2.132045,-0.99966 -2.257778,-0.99966 -0.125733,0 -0.228606,0.69142 -0.228606,1.53649 0,1.95112 -0.824326,3.07314 -2.257777,3.07314 -1.433452,0 -2.257778,-1.12202 -2.257778,-3.07314 -1.19e-4,-0.84507 -0.102991,-1.53649 -0.228724,-1.53649 -0.125733,0 -1.141733,0.44985 -2.257778,0.99966 l -2.029172,0.99966 0.0017,2.03423 c 0.002,2.6623 0.342505,3.79185 1.577851,5.23507 2.068257,2.4163 4.946904,3.06126 8.0913,1.81286 z M 67.57207,264.50966 c -0.909281,-0.46903 -4.911053,-4.96437 -6.691974,-7.51734 -1.084724,-1.55496 -1.227975,-3.91674 -0.318003,-5.24289 1.470308,-2.14278 1.46963,-2.14262 8.985532,-2.14262 6.388495,0 6.772594,0.0301 7.528749,0.59039 1.928094,1.42862 2.586504,3.72186 1.676496,5.83923 -0.468489,1.09006 -5.646,7.4074 -6.714778,8.19303 -1.067048,0.78437 -3.226017,0.91982 -4.466022,0.2802 z M 40.649657,247.06042 c -3.145214,-0.86355 -6.246813,-4.10347 -6.95352,-7.26362 -0.198738,-0.88868 -0.291039,-3.05851 -0.231284,-5.43704 0.09553,-3.80236 0.135653,-4.03168 1.019395,-5.82574 1.555253,-3.15728 4.65705,-5.2964 8.041306,-5.54561 1.834416,-0.13508 2.338629,0.13352 2.936759,1.56443 0.216832,0.51873 0.774813,1.10973 1.296837,1.37357 0.503939,0.2547 1.203613,0.72588 1.554827,1.04707 0.476972,0.4362 0.955932,0.56756 1.892636,0.51907 2.541566,-0.13156 3.359542,2.00622 3.20443,8.37478 -0.08547,3.50908 -0.194302,4.34764 -0.710419,5.47369 -2.155472,4.70273 -7.139155,7.06799 -12.050967,5.7194 z m 4.925749,-13.69326 c 0.928228,-0.66095 1.562339,-2.38519 1.284421,-3.49252 -0.101227,-0.40331 -0.552131,-1.14507 -1.002013,-1.64834 -0.719732,-0.80515 -0.984831,-0.91268 -2.207384,-0.89538 -4.011617,0.0568 -4.995708,4.84754 -1.337248,6.50996 1.029685,0.46789 2.173018,0.30186 3.262224,-0.47372 z m 47.285359,13.69326 c -2.676445,-0.73485 -5.197624,-2.96319 -6.471008,-5.7194 -0.554846,-1.20096 -0.614355,-1.79507 -0.614355,-6.13348 v -4.80371 l 0.919954,-1.86869 c 1.554771,-3.15819 4.656153,-5.29746 8.041307,-5.54673 1.834416,-0.13508 2.338628,0.13352 2.936759,1.56443 0.216831,0.51873 0.774813,1.10973 1.296836,1.37357 0.503939,0.2547 1.204702,0.7269 1.557242,1.04935 0.46849,0.42848 0.95337,0.56782 1.80171,0.51776 2.44717,-0.14439 3.34286,1.9258 3.34286,7.72633 0,4.29369 -0.33571,5.73796 -1.84215,7.92524 -2.39884,3.48301 -6.809586,5.05738 -10.969155,3.91533 z m 4.972555,-13.73065 c 0.881671,-0.62314 1.508904,-2.37423 1.237615,-3.45513 -0.101227,-0.40331 -0.552131,-1.14507 -1.002013,-1.64834 -0.719731,-0.80515 -0.984831,-0.91268 -2.207384,-0.89538 -4.042133,0.0572 -5.027165,4.84503 -1.337248,6.49976 0.997777,0.44745 2.231427,0.26071 3.30903,-0.50091 z M 16.193843,201.08383 c 2.379194,-3.21482 8.521137,-9.47206 11.376802,-11.59035 1.196766,-0.88775 1.875982,-1.58488 1.831314,-1.87963 -0.07773,-0.51293 -15.976973,-18.58148 -16.350589,-18.58148 -0.126725,0 -0.223353,8.22325 -0.214729,18.27389 l 0.01568,18.27388 0.619321,-0.82742 c 0.340627,-0.45508 1.565618,-2.10608 2.722201,-3.66889 z M 126.15975,169.10598 c -0.0653,-0.0653 -0.43824,0.0907 -0.82878,0.34654 -1.59016,1.04191 -3.88924,-0.24756 -3.46379,-1.94272 0.10009,-0.39877 1.13263,-1.81536 2.29454,-3.14798 1.16191,-1.33262 2.11257,-2.66841 2.11257,-2.96842 0,-1.28301 -1.95977,-2.27979 -3.19962,-1.62741 -0.75835,0.39902 -25.032079,20.02768 -25.572608,20.67898 -0.255617,0.308 0.488242,0.80186 3.823988,2.53882 2.27774,1.18604 4.23211,2.11992 4.34305,2.07528 0.11094,-0.0446 2.50488,-2.68465 5.31988,-5.8667 2.81499,-3.18206 5.4973,-6.01747 5.96068,-6.30092 0.95616,-0.58487 1.72249,-0.45035 2.56084,0.44952 1.28006,1.37398 0.90764,1.92602 -7.96313,11.80408 -1.05831,1.17848 -1.92103,2.32148 -1.91716,2.54 0.004,0.21853 0.80043,0.99493 1.77014,1.72536 4.31281,3.24857 9.58809,8.82078 13.11229,13.85034 l 1.62054,2.31275 0.0726,-18.1744 c 0.04,-9.99592 0.0192,-18.22783 -0.0461,-18.29312 z m -88.370203,13.86721 c 3.319246,-1.72836 4.05925,-2.22023 3.803641,-2.52822 -0.650466,-0.78376 -24.876829,-20.31843 -25.680404,-20.70711 -1.700184,-0.82238 -3.779902,1.0673 -2.77069,2.5175 0.68164,0.9795 20.133173,22.84119 20.333218,22.85262 0.106285,0.006 2.047688,-0.95457 4.314235,-2.13479 z"
         id="path139"
         inkscape:connector-curvature="0" />
      <path
         style="fill:#665323;stroke-width:0.28222221"
         d="M 64.467625,299.43374 C 54.924953,298.46301 45.370478,295.69883 37.938738,291.75873 30.292847,287.7051 23.709734,282.323 17.477628,275.03051 l -1.411111,-1.65121 -3.245556,1.46975 c -1.785055,0.80836 -3.5642264,1.56966 -3.9537139,1.69178 -1.5834244,0.49648 -2.8702467,-0.91805 -2.1911227,-2.40856 0.2476861,-0.54362 1.1872213,-1.13753 3.6623286,-2.31511 1.831046,-0.87115 3.329175,-1.6942 3.329175,-1.829 0,-0.1348 -0.535889,-1.15625 -1.190864,-2.26989 -0.654975,-1.11364 -1.787381,-3.249 -2.5164565,-4.74526 -0.7290756,-1.49625 -1.4409049,-2.79172 -1.5818425,-2.87883 -0.1409375,-0.0871 -1.0087821,0.0213 -1.9285434,0.24096 -3.0397767,0.72589 -4.1403383,0.46992 -4.5060989,-1.04802 -0.2758886,-1.14496 0.7523101,-2.01198 2.9354338,-2.47527 0.9813772,-0.20826 1.8524679,-0.55624 1.9357568,-0.77329 0.083289,-0.21704 -0.1753531,-1.62598 -0.5747599,-3.13097 -2.3428897,-8.82813 -2.6919893,-18.18207 -0.9974151,-26.72522 0.7027423,-3.54286 1.754659,-7.3216 2.5734229,-9.24437 l 0.6302561,-1.48008 0.1411111,-27.52446 0.1411111,-27.52447 0.7166482,-1.40331 c 0.520726,-1.01966 1.1598253,-1.70012 2.3377113,-2.489 1.388448,-0.9299 1.852577,-1.08904 3.234462,-1.10901 1.22347,-0.0177 1.886233,0.13892 2.742289,0.64793 0.840041,0.49949 25.155651,19.99933 28.437302,22.80522 0.447244,0.38241 0.788168,0.33797 3.386667,-0.4414 12.888648,-3.8657 27.038964,-3.8657 39.927612,0 2.598499,0.77937 2.939424,0.82381 3.386667,0.4414 3.281651,-2.80589 27.597262,-22.30573 28.437302,-22.80522 0.85606,-0.50901 1.51882,-0.66561 2.74229,-0.64793 1.38189,0.02 1.84601,0.17911 3.23446,1.10901 1.17789,0.78888 1.81699,1.46934 2.33771,2.489 l 0.71665,1.40331 0.14111,27.52447 0.14111,27.52446 0.63026,1.48008 c 0.82021,1.92616 1.86837,5.69384 2.58845,9.30435 1.68922,8.46981 1.33408,17.82343 -1.01244,26.66524 -0.39941,1.50499 -0.65805,2.91393 -0.57476,3.13097 0.0833,0.21705 0.95438,0.56503 1.93575,0.77329 2.18313,0.46329 3.21133,1.33031 2.93544,2.47527 -0.36576,1.51794 -1.46633,1.77391 -4.5061,1.04802 -0.91976,-0.21963 -1.78761,-0.32806 -1.92854,-0.24096 -0.14094,0.0871 -0.85277,1.38258 -1.58185,2.87883 -0.72907,1.49626 -1.86148,3.63162 -2.51645,4.74526 -0.65498,1.11364 -1.19087,2.13509 -1.19087,2.26989 0,0.1348 1.49813,0.95785 3.32918,1.829 2.47511,1.17758 3.41464,1.77149 3.66233,2.31511 0.67912,1.49051 -0.6077,2.90504 -2.19113,2.40856 -0.38948,-0.12212 -2.16866,-0.88342 -3.95371,-1.69178 l -3.24556,-1.46975 -1.41111,1.65121 c -0.77611,0.90817 -2.55411,2.84686 -3.95111,4.30821 -9.39927,9.83225 -22.163196,16.598 -35.701108,18.92402 -1.940277,0.33337 -4.062992,0.72821 -4.717144,0.87743 -1.601399,0.36529 -10.14617,0.56156 -12.780633,0.29357 z m 10.724444,-4.26349 c 15.458787,-1.40861 29.804411,-8.23501 40.048471,-19.05715 2.61482,-2.76238 3.26015,-3.63318 3.00201,-4.05087 -0.38586,-0.62433 -13.50755,-4.42306 -21.037149,-6.09026 -2.581004,-0.57148 -3.375575,-0.8646 -3.880555,-1.43152 -0.788997,-0.88578 -0.801855,-1.52207 -0.05007,-2.4778 0.461481,-0.58668 0.828415,-0.74362 1.738627,-0.74362 2.177091,0 15.201907,3.37114 22.364307,5.78844 2.10622,0.71084 3.94156,1.22319 4.07851,1.13854 0.33364,-0.2062 2.56894,-4.06524 3.7247,-6.43033 0.58687,-1.20095 0.82971,-1.99758 0.65869,-2.16088 -0.64806,-0.61881 -13.49023,-1.41858 -23.0071,-1.4328 -4.592034,-0.007 -5.001618,-0.0497 -5.573891,-0.58285 -0.814022,-0.75838 -0.826282,-2.25245 -0.02444,-2.97916 0.521402,-0.47255 1.144876,-0.54902 5.150551,-0.63177 5.36942,-0.11093 16.96749,0.38539 21.7729,0.93173 2.57878,0.29318 3.46371,0.30653 3.70962,0.0559 0.53015,-0.54023 1.79266,-5.25589 2.36303,-8.82624 3.29156,-20.60443 -5.36024,-41.24918 -22.72377,-54.22299 -16.502542,-12.3305 -38.431244,-15.81642 -58.137771,-9.24195 -21.956949,7.32526 -37.595948,25.46728 -40.6526713,47.15913 -0.5506045,3.90733 -0.5566757,11.21208 -0.012522,15.06629 0.4890846,3.46416 2.0149653,9.59081 2.5068033,10.0652 0.259202,0.25001 1.11636,0.23579 3.58617,-0.0595 4.469343,-0.53432 16.407693,-1.03912 21.91401,-0.92662 4.006576,0.0819 4.629034,0.1581 5.150555,0.63075 0.774299,0.70175 0.789,2.22992 0.02877,2.99015 -0.52162,0.52162 -0.94451,0.56483 -5.573889,0.56952 -9.048504,0.009 -22.450599,0.84171 -23.061195,1.43257 -0.316898,0.30666 1.226975,3.57705 3.151686,6.67624 0.698891,1.12537 1.296698,2.04612 1.328461,2.04612 0.03176,0 2.145867,-0.6865 4.69801,-1.52554 7.259946,-2.38679 19.527827,-5.52784 21.573593,-5.52367 1.287636,0.003 1.618635,0.16751 2.074418,1.03343 0.472003,0.89673 0.403157,1.38041 -0.310529,2.18164 -0.505243,0.56722 -1.298197,0.85944 -3.880555,1.43006 -7.266339,1.60563 -20.669698,5.49717 -21.049368,6.1115 -0.235502,0.38104 0.359336,1.18581 2.845068,3.84911 12.670701,13.57585 32.474967,20.9733 51.50652,19.23913 z m -7.889437,-4.8084 c -3.108799,-0.6094 -6.247499,-3.0336 -7.708253,-5.95351 -0.746227,-1.49164 -1.329445,-4.2125 -1.333511,-6.22116 -0.0023,-1.15265 -0.02862,-1.16754 -2.573207,-1.45801 -2.806781,-0.3204 -7.504215,-2.79764 -8.410368,-4.4353 -0.524984,-0.94879 -0.0346,-2.28471 1.014061,-2.76251 0.885382,-0.40341 1.395736,-0.25029 3.189873,0.95708 2.489019,1.67499 4.293768,2.18853 7.251762,2.06351 2.481134,-0.10487 2.71997,-0.17461 5.636623,-1.64584 2.886428,-1.45598 3.157217,-1.53632 5.178013,-1.53632 2.020796,0 2.291585,0.0803 5.178013,1.53632 2.916653,1.47123 3.15549,1.54097 5.636624,1.64584 2.957993,0.12502 4.762742,-0.38852 7.251761,-2.06351 1.794138,-1.20737 2.304491,-1.36049 3.189873,-0.95708 1.048656,0.4778 1.539045,1.81372 1.014061,2.76251 -0.906153,1.63766 -5.603587,4.1149 -8.410368,4.4353 -2.544592,0.29047 -2.570872,0.30536 -2.573206,1.45801 -0.0041,2.00866 -0.587285,4.72952 -1.333512,6.22116 -1.513718,3.02579 -4.598156,5.34548 -7.945655,5.97563 -1.739641,0.32748 -2.489022,0.32358 -4.252584,-0.0221 z m 5.142385,-4.6969 c 1.318127,-0.52332 3.209919,-2.62729 3.588803,-3.9913 0.156195,-0.56232 0.2847,-1.9378 0.285563,-3.05663 l 0.0017,-2.03423 -2.029172,-0.99966 c -1.116045,-0.54981 -2.132045,-0.99966 -2.257778,-0.99966 -0.125733,0 -0.228606,0.69142 -0.228606,1.53649 0,1.95112 -0.824326,3.07314 -2.257777,3.07314 -1.433452,0 -2.257778,-1.12202 -2.257778,-3.07314 -1.19e-4,-0.84507 -0.102991,-1.53649 -0.228724,-1.53649 -0.125733,0 -1.141733,0.44985 -2.257778,0.99966 l -2.029172,0.99966 0.0017,2.03423 c 0.002,2.6623 0.342505,3.79185 1.577851,5.23507 2.068257,2.4163 4.946904,3.06126 8.0913,1.81286 z M 67.57207,264.50966 c -0.909281,-0.46903 -4.911053,-4.96437 -6.691974,-7.51734 -1.084724,-1.55496 -1.227975,-3.91674 -0.318003,-5.24289 1.470308,-2.14278 1.46963,-2.14262 8.985532,-2.14262 6.388495,0 6.772594,0.0301 7.528749,0.59039 1.928094,1.42862 2.586504,3.72186 1.676496,5.83923 -0.468489,1.09006 -5.646,7.4074 -6.714778,8.19303 -1.067048,0.78437 -3.226017,0.91982 -4.466022,0.2802 z m 2.59216,-4.6723 c 0.888308,-0.70857 4.484889,-5.36838 4.382612,-5.67821 -0.209181,-0.63365 -9.796994,-0.49046 -9.796994,0.14632 0,0.32752 4.517466,5.88467 4.783717,5.88467 0.10362,0 0.38742,-0.15875 0.630665,-0.35278 z M 40.649657,247.06042 c -3.145214,-0.86355 -6.246813,-4.10347 -6.95352,-7.26362 -0.198738,-0.88868 -0.291039,-3.05851 -0.231284,-5.43704 0.09553,-3.80236 0.135653,-4.03168 1.019395,-5.82574 1.580232,-3.20799 4.67358,-5.3154 8.137578,-5.5439 1.602079,-0.10568 1.761394,-0.0605 2.328333,0.66024 1.17247,1.49055 0.50296,3.2306 -1.248088,3.24376 -2.119401,0.0159 -4.899874,2.3508 -5.513592,4.62998 -0.171501,0.63691 -0.257375,2.50832 -0.194945,4.24831 0.09015,2.51269 0.231016,3.33797 0.733473,4.29722 1.299797,2.48148 4.694919,3.47013 7.290119,2.12285 1.332608,-0.69182 2.549524,-2.0206 2.857505,-3.1202 0.355848,-1.2705 0.235413,-6.58504 -0.188409,-8.31397 -0.3773,-1.53915 -0.367586,-1.67694 0.16915,-2.39889 0.748671,-1.00703 2.343813,-1.19327 3.167284,-0.3698 1.100334,1.10033 1.498439,3.35919 1.388387,7.87771 -0.08547,3.50908 -0.194302,4.34764 -0.710419,5.47369 -2.155472,4.70273 -7.139155,7.06799 -12.050967,5.7194 z m 52.211108,0 c -2.676445,-0.73485 -5.197624,-2.96319 -6.471008,-5.7194 -0.554846,-1.20096 -0.614355,-1.79507 -0.614355,-6.13348 v -4.80371 l 0.919954,-1.86869 c 1.57973,-3.20889 4.672688,-5.31646 8.137578,-5.54502 1.60208,-0.10568 1.761394,-0.0605 2.328333,0.66024 1.17247,1.49055 0.50296,3.2306 -1.248088,3.24376 -2.111239,0.0159 -4.899589,2.34975 -5.508362,4.61056 -0.165715,0.61541 -0.259125,2.52716 -0.20758,4.24831 0.106968,3.57168 0.606611,4.93517 2.207009,6.02275 2.142611,1.45606 4.229938,1.44441 6.444973,-0.036 2.045281,-1.36692 2.448571,-2.44512 2.441121,-6.52631 -0.004,-2.06093 -0.15216,-3.80683 -0.37906,-4.45999 -0.64874,-1.86738 0.11932,-3.30112 1.76842,-3.30112 2.10804,0 2.99237,2.29361 2.99237,7.76111 0,4.30054 -0.33514,5.74349 -1.84215,7.93161 -2.39884,3.48301 -6.809586,5.05738 -10.969155,3.91533 z M 16.193843,201.08383 c 2.379194,-3.21482 8.521137,-9.47206 11.376802,-11.59035 1.196766,-0.88775 1.875982,-1.58488 1.831314,-1.87963 -0.07773,-0.51293 -15.976973,-18.58148 -16.350589,-18.58148 -0.126725,0 -0.223353,8.22325 -0.214729,18.27389 l 0.01568,18.27388 0.619321,-0.82742 c 0.340627,-0.45508 1.565618,-2.10608 2.722201,-3.66889 z M 126.15975,169.10598 c -0.0653,-0.0653 -0.43824,0.0907 -0.82878,0.34654 -1.59016,1.04191 -3.88924,-0.24756 -3.46379,-1.94272 0.10009,-0.39877 1.13263,-1.81536 2.29454,-3.14798 1.16191,-1.33262 2.11257,-2.66841 2.11257,-2.96842 0,-1.28301 -1.95977,-2.27979 -3.19962,-1.62741 -0.75835,0.39902 -25.032079,20.02768 -25.572608,20.67898 -0.255617,0.308 0.488242,0.80186 3.823988,2.53882 2.27774,1.18604 4.23211,2.11992 4.34305,2.07528 0.11094,-0.0446 2.50488,-2.68465 5.31988,-5.8667 2.81499,-3.18206 5.4973,-6.01747 5.96068,-6.30092 0.95616,-0.58487 1.72249,-0.45035 2.56084,0.44952 1.28006,1.37398 0.90764,1.92602 -7.96313,11.80408 -1.05831,1.17848 -1.92103,2.32148 -1.91716,2.54 0.004,0.21853 0.80043,0.99493 1.77014,1.72536 4.31281,3.24857 9.58809,8.82078 13.11229,13.85034 l 1.62054,2.31275 0.0726,-18.1744 c 0.04,-9.99592 0.0192,-18.22783 -0.0461,-18.29312 z m -88.370203,13.86721 c 3.319246,-1.72836 4.05925,-2.22023 3.803641,-2.52822 -0.650466,-0.78376 -24.876829,-20.31843 -25.680404,-20.70711 -1.700184,-0.82238 -3.779902,1.0673 -2.77069,2.5175 0.68164,0.9795 20.133173,22.84119 20.333218,22.85262 0.106285,0.006 2.047688,-0.95457 4.314235,-2.13479 z"
         id="path137"
         inkscape:connector-curvature="0" />
      <path
         style="fill:#060503;stroke-width:0.28222221"
         d="m 65.314292,299.51602 c -1.164167,-0.0571 -2.370667,-0.2152 -2.681111,-0.35134 -0.310444,-0.13614 -1.770944,-0.40066 -3.245555,-0.58781 -3.697012,-0.46923 -10.501099,-2.2424 -14.395263,-3.75145 -10.235508,-3.96645 -19.352158,-10.36705 -26.03252,-18.27686 -1.436107,-1.70041 -2.773902,-3.09217 -2.972876,-3.09282 -0.198975,-5.6e-4 -1.900274,0.69734 -3.780663,1.55107 -1.88039,0.85372 -3.6981587,1.55222 -4.0394864,1.55222 -1.3586084,0 -2.0729498,-1.98355 -1.0482935,-2.91085 0.2785482,-0.25208 1.8660481,-1.09481 3.5277779,-1.87273 1.782014,-0.83422 3.021326,-1.58071 3.021326,-1.81986 0,-0.22301 -0.575028,-1.3781 -1.277841,-2.56686 -0.702813,-1.18875 -1.837144,-3.35824 -2.5207357,-4.82109 -0.6835916,-1.46285 -1.3935755,-2.65972 -1.5777421,-2.65972 -0.1841667,0 -1.3912962,0.21746 -2.6825102,0.48324 -2.2652512,0.46628 -2.3681029,0.46474 -2.9299717,-0.0437 -0.5772435,-0.5224 -0.7653556,-1.70464 -0.3663214,-2.30225 0.3345471,-0.50103 1.228038,-0.87402 2.934546,-1.22502 0.8790719,-0.18082 1.6645562,-0.50139 1.7455206,-0.71238 0.080965,-0.21099 -0.096748,-1.18852 -0.3949166,-2.17229 -0.6436041,-2.12353 -1.5416811,-6.56296 -1.9502827,-9.6408 C 4.218646,241.06528 4.2896495,233.33664 4.7825926,229.57626 5.299944,225.62968 6.8464305,219.44853 7.9343763,216.9789 l 0.7943632,-1.8032 0.1411111,-27.65778 c 0.1553879,-30.456 0.024844,-28.36565 1.8798044,-30.10055 1.400277,-1.30965 2.825409,-1.93221 4.512152,-1.97109 0.864221,-0.0199 1.652825,0.0762 1.752455,0.21371 0.09963,0.13747 0.541973,0.43615 0.982987,0.66373 0.441014,0.22759 7.024666,5.46614 14.630338,11.64122 7.605671,6.17509 14.039341,11.22598 14.297044,11.22421 0.257703,-0.002 1.688837,-0.37117 3.1803,-0.82089 6.352585,-1.91548 11.800887,-2.66122 19.442694,-2.66122 7.641807,0 13.09011,0.74574 19.442694,2.66122 1.491463,0.44972 2.922598,0.81912 3.1803,0.82089 0.257703,0.002 6.691373,-5.04912 14.297041,-11.22421 7.60567,-6.17508 14.18933,-11.41363 14.63034,-11.64122 0.44101,-0.22758 0.88329,-0.52615 0.98284,-0.66348 0.24622,-0.33969 3.74636,-0.23969 3.86419,0.1104 0.0517,0.15373 0.25113,0.27951 0.44309,0.27951 0.54434,0 2.66949,1.93408 3.20968,2.9211 0.44832,0.81915 0.49756,3.05889 0.6276,28.54667 l 0.14111,27.65778 0.79436,1.8032 c 1.05459,2.3939 2.5856,8.4427 3.1363,12.39107 0.51068,3.6614 0.59093,11.60873 0.15071,14.92475 -0.40861,3.07784 -1.30668,7.51727 -1.95029,9.64076 -0.29816,0.98377 -0.47588,1.9613 -0.39491,2.17229 0.081,0.21099 0.86645,0.53156 1.74552,0.71238 1.70651,0.351 2.6,0.72399 2.93455,1.22502 0.39903,0.59761 0.21092,1.77985 -0.36633,2.30225 -0.56187,0.50848 -0.66472,0.51002 -2.92997,0.0437 -1.29121,-0.26578 -2.49834,-0.48324 -2.68251,-0.48324 -0.18417,0 -0.89415,1.19687 -1.57774,2.65972 -0.68359,1.46285 -1.81792,3.63234 -2.52074,4.82109 -0.70281,1.18876 -1.27784,2.34385 -1.27784,2.56686 0,0.23915 1.23932,0.98564 3.02133,1.81986 1.66173,0.77792 3.24923,1.62065 3.52778,1.87273 1.04472,0.94546 0.30381,2.91085 -1.09733,2.91085 -0.31436,0 -2.11006,-0.6985 -3.99045,-1.55222 -1.88039,-0.85373 -3.58169,-1.5517 -3.78067,-1.55107 -0.19897,5.7e-4 -1.53676,1.39241 -2.97287,3.09282 -6.68037,7.90981 -15.79701,14.31041 -26.032522,18.27686 -3.907697,1.5143 -10.713728,3.28585 -14.395263,3.74697 -1.474611,0.1847 -2.878351,0.4362 -3.119419,0.55891 -0.523963,0.26669 -8.28233,0.53144 -11.273914,0.38472 z m 13.687777,-4.46465 c 6.938207,-1.08588 12.873371,-2.94311 18.908888,-5.91696 7.606073,-3.74771 14.683713,-9.21752 19.652313,-15.1879 1.16227,-1.39662 1.34817,-1.76364 1.04128,-2.05584 -0.77767,-0.74042 -12.11677,-4.0925 -20.077925,-5.93545 -4.766039,-1.10331 -5.198929,-1.28211 -5.441225,-2.2475 -0.286478,-1.14143 0.537924,-2.10668 1.798173,-2.10539 2.176809,0.002 13.664957,2.95265 21.598917,5.54711 3.81031,1.24599 4.8236,1.48369 5.15443,1.20913 0.558,-0.4631 3.00338,-4.54202 4.05078,-6.75675 0.58216,-1.23097 0.76304,-1.90462 0.57293,-2.13369 -0.58353,-0.70312 -12.79419,-1.52094 -22.8541,-1.5307 -5.832394,-0.006 -6.483351,-0.17576 -6.483351,-1.69425 0,-0.94521 0.583653,-1.62072 1.626486,-1.88245 1.199007,-0.30093 16.776215,0.13644 22.255185,0.62487 2.77536,0.24742 5.55041,0.4719 6.16678,0.49886 l 1.12068,0.049 0.65057,-1.80826 c 1.81127,-5.03451 2.8614,-14.20065 2.33601,-20.39014 -1.13793,-13.40567 -6.0754,-24.39402 -15.52905,-34.5599 -6.42369,-6.90765 -14.61758,-12.26946 -24.471528,-16.01335 -1.708565,-0.64915 -7.18043,-2.07767 -9.818465,-2.56328 -5.455186,-1.00419 -13.027657,-1.30357 -18.344444,-0.72527 -19.312115,2.10059 -36.161063,12.36483 -46.329482,28.22354 -7.5805219,11.82262 -10.3863796,26.36994 -7.7296199,40.07518 0.6235804,3.21682 1.8711509,7.51416 2.2493009,7.74787 0.137697,0.0851 1.978106,-0.0368 4.089798,-0.27095 4.775653,-0.52949 13.989652,-0.97104 20.433558,-0.97923 5.7736,-0.007 6.528327,0.22307 6.538792,1.99616 0.0091,1.5381 -0.211791,1.57711 -10.014567,1.76849 -11.823407,0.23083 -18.97603,0.788 -19.249035,1.49944 -0.287438,0.74905 3.376895,7.84774 4.556226,8.8265 0.333601,0.27686 1.332786,0.0407 5.154426,-1.21815 7.665048,-2.52491 19.409852,-5.53756 21.596877,-5.53979 1.260249,-0.001 2.084651,0.96396 1.798173,2.10539 -0.239841,0.9556 -0.699968,1.15219 -5.020008,2.14479 -5.013034,1.15184 -12.233647,3.13724 -16.738881,4.60257 -3.023787,0.9835 -3.683921,1.29619 -3.75438,1.77837 -0.06129,0.41947 0.777414,1.48728 2.963334,3.77282 6.783707,7.09287 13.669384,11.7488 22.670735,15.32943 5.124235,2.03835 10.852468,3.36509 18.336975,4.24708 2.089449,0.24622 11.844711,-0.11045 14.534444,-0.53141 z m -11.712222,-5.04936 c -2.079641,-0.45366 -4.288058,-1.70305 -5.680565,-3.21375 -1.696303,-1.84027 -2.559654,-3.96631 -2.893261,-7.12479 -0.155752,-1.47461 -0.417609,-2.77441 -0.581902,-2.88845 -0.164293,-0.11404 -0.724882,-0.20929 -1.245757,-0.21167 -3.213202,-0.0147 -8.527282,-2.61663 -9.371767,-4.58877 -0.272517,-0.63641 -0.249033,-0.90049 0.131767,-1.48166 0.719881,-1.09868 1.750477,-1.04811 3.478222,0.17066 1.693813,1.19484 3.337593,1.86632 5.369963,2.19363 2.63871,0.42495 4.754883,-0.0223 8.20994,-1.73525 2.656718,-1.31713 3.107825,-1.45247 4.841138,-1.45247 1.733313,0 2.18442,0.13534 4.841138,1.45247 3.455058,1.71293 5.57123,2.1602 8.20994,1.73525 2.03237,-0.32731 3.67615,-0.99879 5.369963,-2.19363 1.727745,-1.21877 2.758342,-1.26934 3.478223,-0.17066 0.380799,0.58117 0.404283,0.84525 0.131766,1.48166 -0.844485,1.97214 -6.158565,4.57411 -9.371767,4.58877 -0.520874,0.002 -1.081464,0.0976 -1.245757,0.21167 -0.164292,0.11404 -0.426149,1.41384 -0.581902,2.88845 -0.334171,3.16382 -1.197139,5.28472 -2.903505,7.13591 -1.436884,1.55883 -3.882954,2.88024 -6.074932,3.28178 -1.977133,0.36217 -2.098537,0.35984 -4.110945,-0.0792 z m 5.179297,-4.08208 c 2.822194,-1.24839 4.118604,-3.49871 4.127839,-7.16513 l 0.0062,-2.4609 -2.156412,-0.99633 c -1.186028,-0.54797 -2.329028,-0.99632 -2.54,-0.99632 -0.274063,0 -0.384776,0.42305 -0.387748,1.48167 -0.0023,0.81491 -0.16479,1.79916 -0.361112,2.18722 -0.300056,0.59309 -0.556734,0.70556 -1.610284,0.70556 -1.053549,0 -1.310227,-0.11247 -1.610283,-0.70556 -0.196323,-0.38806 -0.358823,-1.37231 -0.361112,-2.18722 -0.003,-1.05862 -0.113685,-1.48167 -0.387748,-1.48167 -0.210972,0 -1.353972,0.44835 -2.54,0.99632 l -2.156423,0.99633 v 2.39941 c 0,4.06853 1.454062,6.29352 4.919407,7.52762 1.648773,0.58717 3.267616,0.49083 5.057667,-0.301 z m -4.762008,-21.7422 c -0.834763,-0.3792 -1.852301,-1.40925 -3.847282,-3.89458 -1.49179,-1.85846 -2.917822,-3.77636 -3.168954,-4.262 -1.021145,-1.97468 -0.258852,-4.51662 1.689438,-5.63359 1.044273,-0.59869 1.404346,-0.63036 7.167287,-0.63036 5.762941,0 6.123014,0.0317 7.167287,0.63036 1.954115,1.12031 2.710479,3.65912 1.682414,5.64718 -0.254999,0.49311 -1.70655,2.43793 -3.22567,4.32182 -2.168691,2.68945 -3.010044,3.5245 -3.916522,3.8872 -1.466807,0.5869 -2.138188,0.57441 -3.547998,-0.066 z m 3.010419,-4.7637 c 1.901971,-2.00838 4.238201,-5.13017 4.05774,-5.42217 -0.113854,-0.18421 -2.009973,-0.29283 -5.112072,-0.29283 -4.05971,0 -4.958994,0.0727 -5.088991,0.41148 -0.15058,0.39241 4.483407,6.36185 4.938606,6.36185 0.111351,0 0.653475,-0.47625 1.204717,-1.05833 z M 41.253697,246.91879 c -2.960844,-0.74609 -5.314416,-2.70262 -6.61182,-5.49643 -0.706503,-1.52137 -0.797032,-2.06548 -0.891466,-5.35806 -0.158939,-5.54163 0.492057,-7.68291 3.107467,-10.22121 1.506304,-1.46189 3.470435,-2.35613 5.599023,-2.54914 1.390492,-0.12609 1.703538,-0.0621 2.219232,0.45359 0.709063,0.70906 0.787992,2.06579 0.15689,2.69689 -0.243919,0.24392 -0.8195,0.44349 -1.279065,0.44349 -1.842062,0 -4.079725,1.5224 -5.133707,3.49272 -0.550948,1.02995 -0.622624,1.58886 -0.622624,4.85497 0,3.60919 0.01877,3.72133 0.846666,5.05809 1.719501,2.77638 5.251684,3.56088 7.940884,1.76366 0.880609,-0.58852 1.605915,-1.37234 2.023923,-2.18722 0.61186,-1.19277 0.642636,-1.50167 0.506174,-5.08 -0.07991,-2.0955 -0.226187,-4.33424 -0.325053,-4.97498 -0.155628,-1.00863 -0.09203,-1.22642 0.473846,-1.62277 0.855884,-0.59949 2.029406,-0.58286 2.546358,0.0361 0.952435,1.14034 1.186457,2.24569 1.306946,6.17301 0.167578,5.46237 -0.523937,7.74598 -3.08286,10.18059 -2.043179,1.94393 -6.078242,3.01772 -8.780814,2.33671 z m 52.211109,0 c -1.696291,-0.42744 -3.658797,-1.55227 -4.746275,-2.72038 -2.380903,-2.55742 -2.899585,-4.39889 -2.759481,-9.79692 0.09529,-3.67159 0.165136,-4.1118 0.88596,-5.5842 1.535791,-3.13713 4.478779,-5.2201 7.800997,-5.52135 1.41408,-0.12822 1.723825,-0.0658 2.241234,0.4516 1.225694,1.22569 0.463939,3.13365 -1.256284,3.14658 -1.306192,0.01 -3.025797,0.9433 -4.143812,2.24945 -1.315232,1.53655 -1.733214,3.44154 -1.557192,7.097 0.160231,3.32756 0.905679,4.87404 2.917833,6.05324 1.103543,0.64672 1.512553,0.73002 3.091138,0.6295 2.265869,-0.14428 3.91603,-1.17828 4.878566,-3.05694 0.60282,-1.17658 0.63978,-1.52598 0.52204,-4.93512 -0.0697,-2.01789 -0.21706,-4.08001 -0.32748,-4.58249 -0.33467,-1.523 0.0109,-2.28131 1.13576,-2.49234 2.41992,-0.45398 3.3654,1.93913 3.19427,8.08501 -0.0955,3.42819 -0.1806,3.95143 -0.89727,5.51408 -0.9755,2.12703 -2.64337,3.80052 -4.742332,4.75835 -1.786323,0.81515 -4.55744,1.12832 -6.237672,0.70493 z M 13.988222,204.66292 c 3.508622,-5.15647 8.229463,-10.31685 13.155516,-14.38038 1.591028,-1.31245 2.892778,-2.48468 2.892778,-2.60496 0,-0.34996 -16.672703,-19.05972 -17.067477,-19.15277 -0.196526,-0.0463 -0.435506,0.20768 -0.531067,0.56445 -0.224665,0.83876 -0.228073,35.4415 -0.0036,36.27922 0.247617,0.92398 0.533308,0.79425 1.553824,-0.70556 z m 112.672628,0.70556 c 0.22225,-0.82933 0.22225,-35.43623 0,-36.26556 -0.21049,-0.78544 -0.70442,-0.8108 -1.37434,-0.0706 -0.50873,0.56214 -1.69521,0.74299 -2.28608,0.34845 -0.62361,-0.41639 -0.9649,-1.42652 -0.70746,-2.09386 0.13865,-0.35942 1.15291,-1.66948 2.2539,-2.91126 2.20705,-2.48927 2.45603,-3.29225 1.34456,-4.33642 -0.91964,-0.86396 -2.39022,-1.04358 -3.30549,-0.40375 -2.38954,1.67044 -25.662761,20.85276 -25.662761,21.15184 0,0.1999 0.930684,0.79346 2.068187,1.31902 1.137504,0.52556 2.983774,1.4903 4.102834,2.14386 1.11906,0.65357 2.23173,1.14816 2.4726,1.0991 0.24087,-0.0491 2.87369,-2.8197 5.85071,-6.15698 5.01102,-5.61742 5.48967,-6.07421 6.44888,-6.15436 0.85081,-0.0711 1.12042,0.0421 1.50756,0.63295 0.27257,0.41599 0.40395,0.98846 0.31144,1.35704 -0.088,0.35064 -2.515,3.28937 -5.39333,6.53052 -2.87833,3.24114 -5.23333,5.99305 -5.23333,6.11537 0,0.12231 1.30175,1.2962 2.89278,2.60865 4.92605,4.06353 9.6469,9.22391 13.15552,14.38038 1.02051,1.49981 1.30621,1.62954 1.55382,0.70556 z M 36.032979,184.2316 c 1.101496,-0.64331 2.933403,-1.59965 4.070906,-2.12521 1.137502,-0.52556 2.068186,-1.11912 2.068186,-1.31902 0,-0.32723 -23.801252,-19.90582 -25.735224,-21.16945 -1.553995,-1.01537 -4.05961,0.28734 -3.840978,1.99698 0.102761,0.80356 20.406676,23.78636 21.013815,23.78636 0.231314,0 1.321798,-0.52635 2.423295,-1.16966 z"
         id="path135"
         inkscape:connector-curvature="0" />
    </g>
  </g>
</svg>
