<?xml version="1.0" encoding="UTF-8" standalone="no"?>
<!-- Created with Inkscape (http://www.inkscape.org/) -->

<svg
   xmlns:dc="http://purl.org/dc/elements/1.1/"
   xmlns:cc="http://creativecommons.org/ns#"
   xmlns:rdf="http://www.w3.org/1999/02/22-rdf-syntax-ns#"
   xmlns:svg="http://www.w3.org/2000/svg"
   xmlns="http://www.w3.org/2000/svg"
   xmlns:sodipodi="http://sodipodi.sourceforge.net/DTD/sodipodi-0.dtd"
   xmlns:inkscape="http://www.inkscape.org/namespaces/inkscape"
   width="512"
   height="512"
   viewBox="0 0 135.46666 135.46667"
   version="1.1"
   id="svg8"
   inkscape:version="0.92.4 (5da689c313, 2019-01-14)"
   sodipodi:docname="cat.svg">
  <defs
     id="defs2" />
  <sodipodi:namedview
     id="base"
     pagecolor="#ffffff"
     bordercolor="#666666"
     borderopacity="1.0"
     inkscape:pageopacity="0.0"
     inkscape:pageshadow="2"
     inkscape:zoom="0.35"
     inkscape:cx="251.77895"
     inkscape:cy="560"
     inkscape:document-units="mm"
     inkscape:current-layer="layer1"
     showgrid="false"
     units="px"
     inkscape:window-width="675"
     inkscape:window-height="740"
     inkscape:window-x="683"
     inkscape:window-y="0"
     inkscape:window-maximized="0" />
  <metadata
     id="metadata5">
    <rdf:RDF>
      <cc:Work
         rdf:about="">
        <dc:format>image/svg+xml</dc:format>
        <dc:type
           rdf:resource="http://purl.org/dc/dcmitype/StillImage" />
        <dc:title></dc:title>
      </cc:Work>
    </rdf:RDF>
  </metadata>
  <g
     inkscape:label="Layer 1"
     inkscape:groupmode="layer"
     id="layer1"
     transform="translate(0,-161.53332)">
    <g
       id="g87"
       transform="matrix(0.84374986,0,0,0.84374986,18.937401,41.587089)">
      <path
         style="fill:#fdd65a;stroke-width:0.26458332"
         d="m 7.3654928,294.76573 c -4.8442446,-0.96378 -9.4388485,-5.2825 -11.2348422,-10.56024 l -0.7202932,-2.11666 -0.00138,-10.84792 c -0.00138,-10.68395 0.00796,-10.87498 0.6169292,-12.63815 2.7821759,-8.05536 11.5495233,-11.55741 19.2125154,-7.67428 1.665247,0.84385 4.55166,3.73956 5.497858,5.51557 3.908051,7.33541 0.02572,16.70569 -7.941118,19.16639 -1.981075,0.61189 -4.966257,0.69278 -6.217421,0.16848 -4.0692944,-1.70525 -5.0645587,-7.03263 -1.8678164,-9.99791 2.267819,-2.10362 5.3451274,-2.23405 6.1623134,-0.26119 0.278721,0.6729 0.279346,0.97819 0.0034,1.64446 -0.319005,0.77014 -0.632222,0.97812 -2.7018684,1.79406 -0.5644954,0.22254 -0.7276041,0.46182 -0.7276041,1.06737 0,1.26336 0.6566418,1.70026 2.3004286,1.5306 3.0497889,-0.31476 5.8666849,-2.34407 7.1779699,-5.17104 0.562645,-1.213 0.694558,-1.89394 0.700606,-3.61659 0.0066,-1.87351 -0.09463,-2.32959 -0.863555,-3.8915 -1.505209,-3.05751 -4.021089,-4.7157 -7.4445039,-4.90657 -1.6204075,-0.0904 -2.3040601,0.002 -3.5773546,0.48212 -1.9039529,0.71823 -3.8875346,2.48958 -4.86843442,4.34752 l -0.70120613,1.32816 v 11.1125 11.1125 l 0.81951562,1.71979 c 1.12467063,2.36017 2.87925943,4.22099 5.06112513,5.36752 2.1648067,1.13758 4.4016573,1.56623 7.6131083,1.45892 l 2.38125,-0.0796 0.196416,-1.98438 c 0.55131,-5.56985 5.272178,-9.78958 10.952197,-9.78958 0.687752,0 0.889928,-0.11061 0.889928,-0.48685 0,-0.26776 -0.535781,-3.38243 -1.190624,-6.92149 -0.825458,-4.46112 -1.190625,-7.13901 -1.190625,-8.73125 0,-6.08631 3.200444,-11.92488 8.41217,-15.34633 1.107905,-0.72733 2.161685,-1.32241 2.341737,-1.32241 0.878892,0 0.408937,-0.60188 -1.699705,-2.17682 -4.298756,-3.21074 -9.713938,-9.51586 -11.594319,-13.49975 -0.257569,-0.5457 -0.579964,-0.99218 -0.716433,-0.99218 -0.512522,0 -3.820837,2.55302 -5.551091,4.28378 -0.987898,0.98818 -2.064108,1.86394 -2.391576,1.94613 -0.942066,0.23644 -1.993978,-0.3157 -2.458903,-1.29065 -0.395021,-0.82837 -0.392662,-0.96411 0.03231,-1.85967 0.610977,-1.28754 4.06021,-4.49867 6.584857,-6.13029 1.615557,-1.0441 2.010532,-1.42392 1.917703,-1.84409 -0.0643,-0.29105 -0.426156,-1.7053 -0.804122,-3.14278 -0.377967,-1.43749 -0.689035,-2.92577 -0.691263,-3.3073 -0.0085,-1.44846 -0.251815,-1.49431 -3.043386,-0.57336 -3.2259,1.06424 -5.767106,2.21826 -8.3772799,3.80432 -2.2218601,1.3501 -2.5280158,1.42144 -3.6376097,0.84765 -0.8563049,-0.44281 -1.0772566,-0.87945 -1.0772566,-2.12883 0,-0.70081 0.2066197,-1.05572 0.9921875,-1.70429 1.6635398,-1.37342 7.4812307,-4.14826 11.1337917,-5.31045 l 3.44331,-1.0956 0.171185,-2.02906 c 0.277199,-3.28567 0.933937,-6.60373 1.887681,-9.53719 l 0.892677,-2.74564 v -8.1512 c 0,-4.74423 0.109588,-8.43944 0.262192,-8.84081 0.144206,-0.37929 0.619702,-0.89306 1.056661,-1.14171 0.785133,-0.44677 0.794467,-0.47851 0.794467,-2.70104 0,-2.22254 -0.0093,-2.25427 -0.794467,-2.70105 -0.436959,-0.24865 -0.912455,-0.76241 -1.056661,-1.1417 -0.338317,-0.88984 -0.338881,-8.70288 -7.94e-4,-9.92009 0.746972,-2.68869 3.770532,-4.07154 6.871139,-3.14257 0.633259,0.18973 3.973168,2.74628 9.505489,7.27604 4.691131,3.84094 8.633113,6.98353 8.760031,6.98353 0.126921,0 1.578263,-0.34593 3.225207,-0.76874 3.820181,-0.98072 6.870806,-1.34624 11.243527,-1.34718 4.217106,-9e-4 6.573546,0.29229 10.97054,1.36496 l 3.344627,0.81594 8.561622,-6.9838 c 4.765035,-3.88689 8.980601,-7.12781 9.506452,-7.30854 1.833724,-0.63022 4.305369,-0.23891 5.56355,0.88083 0.317799,0.28283 0.796506,0.99049 1.063796,1.57257 0.45545,0.99183 0.48636,2.13186 0.4918,18.14048 l 0.006,17.08213 0.80083,2.36474 c 0.98199,2.8997 1.74695,6.63148 1.9894,9.70511 l 0.18248,2.31329 1.09333,0.28597 c 4.25539,1.11303 10.36808,3.79911 12.94384,5.68786 0.69694,0.51106 1.38969,1.25146 1.53944,1.64535 0.55284,1.45405 -1.03169,3.2382 -2.53973,2.85971 -0.30114,-0.0756 -1.52352,-0.72401 -2.71638,-1.44094 -1.19287,-0.71694 -3.18306,-1.72807 -4.42264,-2.24697 -2.37693,-0.995 -5.93834,-2.13486 -6.11579,-1.95741 -0.0577,0.0577 -0.28163,1.11806 -0.49755,2.35629 -0.21593,1.23824 -0.63398,3.01515 -0.929,3.9487 l -0.53639,1.69736 0.59627,0.47344 c 0.32795,0.26039 1.54877,1.16534 2.71294,2.011 2.54863,1.85137 5.32425,4.69908 5.58232,5.72734 0.35728,1.42351 -1.1907,3.03154 -2.58215,2.6823 -0.36702,-0.0921 -1.5494,-1.04064 -2.6275,-2.10783 -1.07809,-1.06719 -2.72619,-2.45817 -3.66244,-3.09107 -1.976935,-1.3364 -1.59621,-1.55771 -3.801838,2.20993 -0.756282,1.29188 -1.875422,2.88641 -2.486977,3.54342 -1.066543,1.1458 -1.159116,1.18808 -2.268561,1.03601 -1.134705,-0.15553 -1.186196,-0.12867 -2.714691,1.41594 -1.430626,1.44571 -1.551893,1.65968 -1.482815,2.61641 0.101965,1.41223 -0.223025,1.9139 -2.086824,3.22128 l -1.59417,1.11824 1.263867,0.69165 c 2.214514,1.2119 3.63181,2.30551 5.247002,4.04871 3.278668,3.53851 4.625921,6.8225 4.803793,11.70948 0.106593,2.92861 0.02167,3.67211 -1.094539,9.58102 -0.665557,3.52331 -1.210101,6.58917 -1.210101,6.81302 0,0.28561 0.265433,0.407 0.889929,0.407 4.300667,0 8.226335,2.45827 10.038725,6.2863 0.7925,1.67388 0.85003,1.99656 0.93602,5.25033 l 0.0916,3.46685 -0.72216,0.56805 -0.72217,0.56805 -47.787749,-0.0309 c -39.02689,-0.0252 -48.1180257,-0.0965 -49.5883782,-0.38903 z"
         id="path101"
         inkscape:connector-curvature="0" />
      <path
         style="fill:#a1a1a1;stroke-width:0.26458332"
         d="m 7.3654928,294.76573 c -4.8442446,-0.96378 -9.4388485,-5.2825 -11.2348422,-10.56024 l -0.7202932,-2.11666 -0.00138,-10.84792 c -0.00138,-10.68395 0.00796,-10.87498 0.6169292,-12.63815 2.7821759,-8.05536 11.5495233,-11.55741 19.2125154,-7.67428 1.665247,0.84385 4.55166,3.73956 5.497858,5.51557 3.908051,7.33541 0.02572,16.70569 -7.941118,19.16639 -1.981075,0.61189 -4.966257,0.69278 -6.217421,0.16848 -4.0692944,-1.70525 -5.0645587,-7.03263 -1.8678164,-9.99791 2.267819,-2.10362 5.3451274,-2.23405 6.1623134,-0.26119 0.278721,0.6729 0.279346,0.97819 0.0034,1.64446 -0.319005,0.77014 -0.632222,0.97812 -2.7018684,1.79406 -0.5644954,0.22254 -0.7276041,0.46182 -0.7276041,1.06737 0,1.26336 0.6566418,1.70026 2.3004286,1.5306 3.0497889,-0.31476 5.8666849,-2.34407 7.1779699,-5.17104 0.562645,-1.213 0.694558,-1.89394 0.700606,-3.61659 0.0066,-1.87351 -0.09463,-2.32959 -0.863555,-3.8915 -1.505209,-3.05751 -4.021089,-4.7157 -7.4445039,-4.90657 -1.6204075,-0.0904 -2.3040601,0.002 -3.5773546,0.48212 -1.9039529,0.71823 -3.8875346,2.48958 -4.86843442,4.34752 l -0.70120613,1.32816 v 11.1125 11.1125 l 0.81951562,1.71979 c 1.12467063,2.36017 2.87925943,4.22099 5.06112513,5.36752 2.1648067,1.13758 4.4016573,1.56623 7.6131083,1.45892 l 2.38125,-0.0796 0.196416,-1.98438 c 0.55131,-5.56985 5.272178,-9.78958 10.952197,-9.78958 0.687752,0 0.889928,-0.11061 0.889928,-0.48685 0,-0.26776 -0.535781,-3.38243 -1.190624,-6.92149 -0.825458,-4.46112 -1.190625,-7.13901 -1.190625,-8.73125 0,-6.08631 3.200444,-11.92488 8.41217,-15.34633 1.107905,-0.72733 2.161685,-1.32241 2.341737,-1.32241 0.878892,0 0.408937,-0.60188 -1.699705,-2.17682 -4.298756,-3.21074 -9.713938,-9.51586 -11.594319,-13.49975 -0.257569,-0.5457 -0.579964,-0.99218 -0.716433,-0.99218 -0.512522,0 -3.820837,2.55302 -5.551091,4.28378 -0.987898,0.98818 -2.064108,1.86394 -2.391576,1.94613 -0.942066,0.23644 -1.993978,-0.3157 -2.458903,-1.29065 -0.395021,-0.82837 -0.392662,-0.96411 0.03231,-1.85967 0.610977,-1.28754 4.06021,-4.49867 6.584857,-6.13029 1.615557,-1.0441 2.010532,-1.42392 1.917703,-1.84409 -0.0643,-0.29105 -0.426156,-1.7053 -0.804122,-3.14278 -0.377967,-1.43749 -0.689035,-2.92577 -0.691263,-3.3073 -0.0085,-1.44846 -0.251815,-1.49431 -3.043386,-0.57336 -3.2259,1.06424 -5.767106,2.21826 -8.3772799,3.80432 -2.2218601,1.3501 -2.5280158,1.42144 -3.6376097,0.84765 -0.8563049,-0.44281 -1.0772566,-0.87945 -1.0772566,-2.12883 0,-0.70081 0.2066197,-1.05572 0.9921875,-1.70429 1.6635398,-1.37342 7.4812307,-4.14826 11.1337917,-5.31045 l 3.44331,-1.0956 0.171185,-2.02906 c 0.271484,-3.21793 0.939377,-6.597 1.813058,-9.1728 l 0.807691,-2.38125 0.145952,-8.95298 0.145949,-8.95298 0.742357,-0.63816 c 0.408297,-0.351 0.973844,-0.63817 1.256771,-0.63817 0.47139,0 0.514414,-0.19916 0.514414,-2.38125 0,-2.1821 -0.04302,-2.38125 -0.514414,-2.38125 -0.282927,0 -0.848474,-0.28708 -1.256771,-0.63796 l -0.742357,-0.63795 -0.08325,-4.49577 c -0.04746,-2.56271 0.03474,-4.93397 0.191172,-5.5149 0.74672,-2.77311 3.743785,-4.18093 6.892401,-3.23758 0.633259,0.18973 3.973168,2.74628 9.505489,7.27604 4.691054,3.84094 8.633036,6.98353 8.759954,6.98353 0.126921,0 1.578263,-0.34593 3.225207,-0.76874 3.820181,-0.98072 6.870806,-1.34624 11.243527,-1.34718 4.217106,-9e-4 6.573546,0.29229 10.97054,1.36496 l 3.344627,0.81594 8.561622,-6.9838 c 4.765035,-3.88689 8.980601,-7.12781 9.506452,-7.30854 1.833724,-0.63022 4.305369,-0.23891 5.56355,0.88083 0.317799,0.28283 0.796515,0.99049 1.063805,1.57257 0.45545,0.99183 0.48636,2.13186 0.4918,18.14048 l 0.006,17.08213 0.80083,2.36474 c 0.98199,2.8997 1.74695,6.63148 1.9894,9.70511 l 0.18248,2.31329 1.09333,0.28597 c 4.25539,1.11303 10.36808,3.79911 12.94384,5.68786 0.69694,0.51106 1.38969,1.25146 1.53944,1.64535 0.55284,1.45405 -1.03169,3.2382 -2.53973,2.85971 -0.30114,-0.0756 -1.52352,-0.72401 -2.71638,-1.44094 -1.19287,-0.71694 -3.18306,-1.72807 -4.42264,-2.24697 -2.37693,-0.995 -5.93834,-2.13486 -6.11579,-1.95741 -0.0577,0.0577 -0.28163,1.11806 -0.49755,2.35629 -0.21593,1.23824 -0.63398,3.01515 -0.929,3.9487 l -0.53639,1.69736 0.59627,0.47344 c 0.32795,0.26039 1.54877,1.16534 2.71294,2.011 2.54863,1.85137 5.32425,4.69908 5.58232,5.72734 0.35728,1.42351 -1.1907,3.03154 -2.58215,2.6823 -0.36702,-0.0921 -1.5494,-1.04064 -2.6275,-2.10783 -2.04823,-2.02751 -5.11503,-4.28149 -5.500951,-4.04297 -0.123534,0.0763 -0.779839,1.12809 -1.458458,2.33721 -1.653344,2.94583 -3.42823,5.16951 -4.301019,5.38856 -0.385831,0.0968 -1.102627,0.031 -1.592878,-0.14625 -0.883254,-0.31939 -0.90619,-0.30764 -2.519749,1.29098 -1.246817,1.23526 -1.55557,1.6861 -1.317646,1.92403 0.38006,0.38006 0.407133,1.91164 0.04573,2.58694 -0.145756,0.27234 -0.982385,0.99838 -1.859179,1.61342 l -1.59417,1.11824 1.263867,0.69165 c 2.214514,1.2119 3.63181,2.30551 5.247002,4.04871 3.278668,3.53851 4.625921,6.8225 4.803793,11.70948 0.106593,2.92861 0.02167,3.67211 -1.094539,9.58102 -0.665557,3.52331 -1.210101,6.58917 -1.210101,6.81302 0,0.28561 0.265433,0.407 0.889929,0.407 4.300667,0 8.226339,2.45827 10.038729,6.2863 0.7925,1.67388 0.85003,1.99656 0.93602,5.25033 l 0.0916,3.46685 -0.72216,0.56805 -0.72217,0.56805 -47.787753,-0.0309 C 17.926981,295.1296 8.8358453,295.05827 7.3654928,294.76573 Z m 43.9512462,-4.61389 c 1.61113,-0.98229 1.637724,-1.19821 1.637724,-13.29816 0,-13.06713 -0.02434,-12.91544 2.472324,-15.40643 1.867017,-1.86278 3.353152,-2.50946 5.766967,-2.50946 3.337232,0 6.479286,2.12929 7.612866,5.15905 0.526833,1.40809 0.552273,1.97872 0.557819,12.51181 0.0054,10.2696 0.04073,11.11334 0.508375,12.14336 1.216472,2.67937 5.131996,2.62654 6.264751,-0.0845 0.296603,-0.70987 0.364813,-3.91417 0.364813,-17.13787 0,-8.94562 -0.09646,-16.32438 -0.214347,-16.39723 -0.11789,-0.0729 -1.338281,0.15088 -2.711979,0.49721 -7.852028,1.97962 -16.958412,1.97709 -24.779429,-0.007 -1.390145,-0.35264 -2.63067,-0.57742 -2.756723,-0.49952 -0.126053,0.0779 -0.229187,0.46532 -0.229187,0.86091 0,0.9463 -0.583681,1.74413 -1.576962,2.15556 -0.800049,0.33139 -0.804288,0.34417 -0.804288,2.42426 0,1.9648 0.03842,2.10573 0.63605,2.33295 0.34983,0.133 0.885611,0.50969 1.190625,0.83709 0.545756,0.5858 0.554575,0.78181 0.554575,12.32783 0,12.9669 0.01558,13.10105 1.637723,14.09004 0.493056,0.3006 1.338344,0.53397 1.934152,0.53397 0.595807,0 1.441095,-0.23337 1.934151,-0.53397 z m 18.571056,-42.94122 c 5.942494,-1.41367 11.354514,-3.97433 15.682608,-7.42012 1.81843,-1.44774 4.707357,-6.52227 6.182902,-10.86055 0.997378,-2.93242 1.190098,-2.70586 -3.279238,-3.85491 -2.47546,-0.63643 -2.72207,-3.63629 -0.372772,-4.53455 0.426046,-0.1629 1.358506,-0.0629 2.994422,0.32119 1.306642,0.30676 2.423454,0.51001 2.4818,0.45166 0.219413,-0.21941 0.723045,-5.2003 0.566946,-5.60709 -0.140999,-0.36743 -0.78537,-0.42471 -4.77797,-0.42471 h -4.614992 l -0.684979,-0.81405 c -0.890046,-1.05776 -0.865762,-1.88557 0.0866,-2.95209 l 0.771583,-0.86407 4.690676,-0.0886 4.690679,-0.0886 -0.169432,-2.55725 c -0.573243,-8.65197 -3.827647,-17.64905 -7.936697,-21.94169 -1.668664,-1.74321 -4.350819,-3.59999 -7.448598,-5.15644 -1.916681,-0.96301 -6.240237,-2.57891 -6.900248,-2.57891 -0.303924,0 -0.375793,0.6111 -0.375793,3.19535 0,3.17893 -0.004,3.19933 -0.773398,3.96875 -1.216988,1.21699 -2.803086,0.97651 -3.589488,-0.54422 -0.29604,-0.57248 -0.399614,-1.66031 -0.399614,-4.19718 0,-3.83844 0.04971,-3.74561 -2.006015,-3.74561 h -1.168985 v 5.5766 5.5766 l -0.773398,0.7734 c -0.96929,0.96929 -2.087639,1.01789 -3.114452,0.13533 l -0.742358,-0.63806 -0.08073,-5.71194 -0.08073,-5.71193 -1.109898,0.004 c -2.377757,0.008 -2.300523,-0.11798 -2.300523,3.74455 0,2.53459 -0.103618,3.62224 -0.399613,4.19463 -0.786402,1.52073 -2.3725,1.76121 -3.589488,0.54422 -0.770184,-0.77018 -0.773398,-0.7868 -0.773398,-3.99743 v -3.22403 l -0.727604,0.1809 c -1.908982,0.47462 -6.308564,2.41307 -8.677968,3.82349 -10.245016,6.09852 -16.524959,15.73983 -17.743654,27.24104 l -0.17876,1.68702 1.030139,-0.15748 c 2.352371,-0.35961 11.618907,-0.50309 12.736184,-0.1972 1.851832,0.50699 2.455267,2.25702 1.265714,3.67073 l -0.65428,0.77757 -5.894157,0.17363 c -3.241784,0.0955 -6.413984,0.2448 -7.049333,0.33178 l -1.155179,0.15815 0.170455,1.49064 c 0.163851,1.43289 1.058185,5.25961 1.281366,5.48279 0.0594,0.0594 0.838499,-0.18882 1.731325,-0.55161 0.892829,-0.36279 2.779734,-0.96007 4.193125,-1.3273 2.129758,-0.55336 2.721022,-0.61779 3.452899,-0.37625 1.599293,0.52782 2.11219,2.69861 0.897364,3.79801 -0.261639,0.23678 -1.356217,0.66781 -2.432399,0.95784 -3.372448,0.90888 -5.793153,1.86446 -5.793153,2.28687 0,0.21541 0.427781,1.12607 0.950624,2.02368 5.142569,8.82871 14.515671,15.46461 24.877868,17.61285 3.78756,0.78522 3.739731,0.78166 9.228798,0.68781 4.243533,-0.0726 5.460098,-0.18896 7.805208,-0.74685 z m -10.279917,-7.33986 c -3.170277,-0.63111 -5.632201,-3.37859 -6.025424,-6.72432 -0.163793,-1.39363 -0.239779,-1.52189 -1.18821,-2.00574 -2.17647,-1.11036 -3.764772,-3.37839 -4.094755,-5.84717 -0.303434,-2.27014 1.088621,-3.74225 2.955984,-3.12596 0.991488,0.32722 1.520015,1.11468 1.804918,2.68916 0.243724,1.34692 1.447475,2.33106 2.851248,2.33106 0.857819,0 1.239144,-0.17466 1.964073,-0.89959 0.570378,-0.57037 0.899584,-1.15613 0.899584,-1.60064 0,-1.94532 1.833726,-3.22499 3.434852,-2.39701 0.881113,0.45564 1.202111,1.02292 1.452091,2.56618 0.217779,1.34446 1.416709,2.33106 2.832733,2.33106 0.857819,0 1.239144,-0.17466 1.964073,-0.89959 0.570378,-0.57037 0.899583,-1.15613 0.899583,-1.60064 0,-1.93283 1.83364,-3.22503 3.415538,-2.407 1.122172,0.5803 1.437331,1.30935 1.269397,2.93648 -0.24942,2.41665 -1.610582,4.48548 -3.742968,5.68892 -1.367798,0.77194 -1.401217,0.81963 -1.544021,2.20326 -0.462073,4.47706 -4.74046,7.6391 -9.148696,6.76154 z m -3.448256,-25.23078 c -3.781737,-3.76 -4.104743,-4.15615 -4.104743,-5.0343 0,-2.22708 3.094469,-3.37431 9.101666,-3.37431 4.519115,0 7.38569,0.64938 8.559154,1.93894 1.277745,1.40416 0.986407,1.92895 -3.617324,6.51591 -3.618299,3.60512 -4.144677,4.0349 -4.94183,4.0349 -0.797218,0 -1.329091,-0.4344 -4.996923,-4.08114 z M 41.027861,202.33731 c -0.949687,-0.94969 -1.023045,-2.24368 -0.245078,-4.32299 1.378784,-3.68512 5.514136,-5.70007 9.387509,-4.57405 2.183762,0.63484 4.409979,2.85751 5.042977,5.03494 0.806923,2.77573 0.03397,4.49118 -2.023639,4.49118 -0.858732,0 -1.2172,-0.1536 -1.718456,-0.73635 -0.348358,-0.40499 -0.633823,-1.05713 -0.634368,-1.44919 -5.29e-4,-0.39207 -0.238722,-1.10278 -0.529288,-1.57935 -1.337135,-2.1931 -4.732197,-1.55528 -5.189574,0.97496 -0.500153,2.76687 -2.452571,3.79836 -4.090083,2.16085 z m 26.978231,0.37661 c -2.946562,-1.60142 -0.1274,-8.01077 4.072098,-9.25789 1.831092,-0.54378 3.337383,-0.50171 5.05568,0.14119 2.678305,1.00208 4.598815,3.52092 4.857202,6.37044 0.129952,1.43315 0.08937,1.57443 -0.670457,2.33426 -0.896771,0.89677 -1.562634,1.00088 -2.686023,0.41995 -0.722763,-0.37376 -1.338464,-1.54252 -1.338464,-2.54076 0,-0.80601 -1.281237,-2.06569 -2.294342,-2.25575 -1.818764,-0.3412 -3.526491,1.15057 -3.526491,3.08053 0,0.75274 -1.398765,2.10736 -2.162461,2.09422 -0.338613,-0.006 -0.92665,-0.17961 -1.306742,-0.38619 z"
         id="path99"
         inkscape:connector-curvature="0" />
      <path
         style="fill:#faab35;stroke-width:0.26458332"
         d="m 8.0731188,294.79087 c -4.4121176,-0.95959 -8.61244797,-4.23834 -10.6821581,-8.33841 -1.5531856,-3.07684 -1.6513701,-3.83056 -1.7798563,-13.66307 -0.1446328,-11.06817 0.026275,-12.86654 1.5083329,-15.87139 2.25322889,-4.56839 6.6089138,-7.24063 11.8020547,-7.24063 9.92177,0 16.154062,10.52239 11.454578,19.33953 -2.118654,3.975 -6.840262,6.86416 -11.1920233,6.84841 -1.9983488,-0.007 -3.4069761,-0.62008 -4.6859431,-2.03868 -3.1350041,-3.47729 -0.594715,-9.3326 4.0488895,-9.3326 2.7115969,0 3.0677489,3.28234 0.4172682,3.84559 -1.2182691,0.2589 -1.7827132,0.85347 -1.7827132,1.87786 0,1.27655 0.9034746,1.80221 2.7669473,1.60988 2.9589286,-0.30539 5.8532006,-2.38709 7.2064466,-5.18322 0.616532,-1.27391 0.722032,-1.83215 0.731346,-3.8699 0.0095,-2.07603 -0.08254,-2.57148 -0.71799,-3.86542 -0.985472,-2.00668 -3.10181,-3.96499 -5.098642,-4.71793 -2.1101089,-0.79565 -5.2014518,-0.68679 -7.1480037,0.2517 -1.9055653,0.91874 -3.8803316,3.00215 -4.64472605,4.90027 -0.63274995,1.57122 -0.63600274,1.63072 -0.63600274,11.63347 0,9.0282 0.0498652,10.21581 0.48866582,11.63831 1.30352687,4.22574 4.79456677,7.45714 8.99937037,8.33005 0.7711508,0.16009 2.7022823,0.25708 4.2914023,0.21552 l 2.889311,-0.0756 0.181356,-1.83533 c 0.549235,-5.55833 3.979579,-9.01627 9.711829,-9.78997 l 2.277647,-0.30743 -0.08637,-0.78051 c -0.04751,-0.42928 -0.613053,-3.62729 -1.256771,-7.10669 -1.326779,-7.17144 -1.437809,-9.33221 -0.641429,-12.48306 1.317757,-5.21366 4.608848,-9.445 9.19349,-11.82003 0.908968,-0.47088 1.653109,-0.97939 1.653646,-1.13002 5.29e-4,-0.15063 -0.91349,-0.92454 -2.031177,-1.71979 -4.160065,-2.95997 -8.605898,-7.94131 -11.379949,-12.7507 -0.652459,-1.13117 -1.334727,-2.05668 -1.516147,-2.05668 -0.600432,0 -3.429941,2.13548 -5.444664,4.10919 -2.253957,2.20806 -3.000233,2.53027 -4.013819,1.73298 -1.443422,-1.13539 -1.11751,-2.1797 1.500277,-4.80728 1.018646,-1.02246 2.893881,-2.5731 4.167188,-3.44586 1.273307,-0.87277 2.314784,-1.6696 2.314392,-1.77075 -2.65e-4,-0.10115 -0.357579,-1.59559 -0.79375,-3.32098 -0.436171,-1.7254 -0.793038,-3.4123 -0.793038,-3.74868 0,-0.90667 -0.270256,-1.44862 -0.722403,-1.44862 -0.220662,0 -1.624925,0.40949 -3.120581,0.90996 -2.802371,0.93774 -5.7307363,2.3065 -8.4757959,3.96172 -1.823267,1.0994 -2.1777062,1.14488 -3.123663,0.40079 -1.1106861,-0.87367 -0.9669473,-2.08987 0.383623,-3.24591 2.0919757,-1.79065 8.7299059,-4.75708 13.3723739,-5.97599 1.198504,-0.31468 1.421863,-0.79356 1.421863,-3.04847 0,-1.87748 0.800047,-5.95741 1.745667,-8.90225 l 0.900166,-2.80328 v -8.31649 c 0,-9.11287 -0.0078,-9.06447 1.60356,-9.89775 0.773041,-0.39976 0.77769,-0.41638 0.77769,-2.7809 v -2.37874 l -0.900309,-0.42932 c -0.49517,-0.23613 -1.030951,-0.71606 -1.190625,-1.0665 -0.371086,-0.81445 -0.382058,-8.34112 -0.0141,-9.66604 0.751205,-2.70479 3.92806,-4.33359 6.413013,-3.288 0.468268,0.19703 4.661397,3.48211 9.318064,7.30016 4.656666,3.81805 8.631274,7.00939 8.83246,7.09185 0.201187,0.0825 1.595766,-0.16882 3.09907,-0.55841 7.522826,-1.94959 14.977096,-1.99752 22.33201,-0.14357 1.673489,0.42183 3.227408,0.76729 3.453153,0.76768 0.225745,4e-4 4.27387,-3.16813 8.995833,-7.04116 4.721963,-3.87304 8.968517,-7.20679 9.436785,-7.40834 2.403676,-1.03457 5.414306,0.33083 6.336772,2.87391 0.22698,0.62573 0.3177,5.53476 0.33233,17.98266 0.0196,16.64806 0.0352,17.1603 0.56603,18.50693 0.88862,2.25443 1.78261,6.36312 2.12206,9.75276 l 0.31737,3.16915 1.08702,0.27409 c 3.84318,0.96906 8.99179,3.14221 12.23789,5.16542 1.97493,1.23092 2.21058,1.5257 2.21058,2.76523 0,0.79123 -1.02922,1.84965 -1.79861,1.84965 -0.22239,0 -1.48626,-0.64056 -2.80859,-1.42346 -2.8888,-1.71033 -4.22253,-2.31782 -7.68175,-3.49887 -3.37531,-1.1524 -3.52402,-1.14865 -3.71296,0.0937 -0.13511,0.88837 -1.22066,5.66481 -1.61718,7.11571 -0.12986,0.47516 0.13879,0.75806 1.65443,1.7422 3.52173,2.28672 6.7385,5.41193 7.11515,6.9126 0.13696,0.54569 0.003,0.85618 -0.65513,1.5139 -1.15697,1.15699 -1.78708,0.91995 -4.51209,-1.6974 -2.23233,-2.14413 -4.55286,-3.8792 -5.188143,-3.8792 -0.180809,0 -0.772745,0.80368 -1.315416,1.78594 -1.149032,2.07981 -3.077017,4.86928 -3.905456,5.65053 -0.481563,0.45414 -0.788151,0.51712 -1.847617,0.37957 -1.269265,-0.1648 -1.271455,-0.16372 -2.837243,1.38756 l -1.566998,1.55248 0.156509,1.32148 c 0.154302,1.30284 0.140219,1.33548 -0.999215,2.31537 -0.635648,0.54665 -1.483145,1.18894 -1.883328,1.42732 -0.400182,0.23839 -0.727604,0.56263 -0.727604,0.72053 0,0.15791 0.565547,0.56092 1.256771,0.89557 6.12123,2.96357 10.120312,9.36082 10.120312,16.18926 0,1.63136 -0.353454,4.20779 -1.190625,8.6788 -0.654844,3.49727 -1.190625,6.63765 -1.190625,6.97863 0,0.57853 0.146624,0.63812 2.194502,0.89184 4.079836,0.50546 7.103186,2.55045 8.712676,5.89321 0.77785,1.61552 0.84752,1.98939 0.94995,5.09813 0.10929,3.31696 0.10287,3.36242 -0.5696,4.03489 l -0.68014,0.68014 -47.43859,-0.021 c -38.482691,-0.0171 -47.7447958,-0.0876 -49.0605562,-0.3738 z m 43.2436202,-4.63903 c 1.61113,-0.98229 1.637724,-1.19821 1.637724,-13.29816 0,-13.06713 -0.02434,-12.91544 2.472324,-15.40643 1.867017,-1.86278 3.353152,-2.50946 5.766967,-2.50946 3.337232,0 6.479286,2.12929 7.612866,5.15905 0.526833,1.40809 0.552273,1.97872 0.557819,12.51181 0.0054,10.2696 0.04073,11.11334 0.508375,12.14336 1.216472,2.67937 5.131996,2.62654 6.264751,-0.0845 0.296603,-0.70987 0.364813,-3.91417 0.364813,-17.13787 0,-8.94562 -0.09646,-16.32438 -0.214347,-16.39723 -0.11789,-0.0729 -1.338281,0.15088 -2.711979,0.49721 -7.852028,1.97962 -16.958412,1.97709 -24.779429,-0.007 -1.390145,-0.35264 -2.63067,-0.57742 -2.756723,-0.49952 -0.126053,0.0779 -0.229187,0.46532 -0.229187,0.86091 0,0.9463 -0.583681,1.74413 -1.576962,2.15556 -0.800049,0.33139 -0.804288,0.34417 -0.804288,2.42426 0,1.9648 0.03842,2.10573 0.63605,2.33295 0.34983,0.133 0.885611,0.50969 1.190625,0.83709 0.545756,0.5858 0.554575,0.78181 0.554575,12.32783 0,12.9669 0.01558,13.10105 1.637723,14.09004 0.493056,0.3006 1.338344,0.53397 1.934152,0.53397 0.595807,0 1.441095,-0.23337 1.934151,-0.53397 z m 18.571056,-42.94122 c 5.942494,-1.41367 11.354514,-3.97433 15.682608,-7.42012 1.81843,-1.44774 4.707357,-6.52227 6.182902,-10.86055 0.997378,-2.93242 1.190098,-2.70586 -3.279238,-3.85491 -2.47546,-0.63643 -2.72207,-3.63629 -0.372772,-4.53455 0.426046,-0.1629 1.358506,-0.0629 2.994422,0.32119 1.306642,0.30676 2.423454,0.51001 2.4818,0.45166 0.219413,-0.21941 0.723045,-5.2003 0.566946,-5.60709 -0.140999,-0.36743 -0.78537,-0.42471 -4.77797,-0.42471 h -4.614992 l -0.684979,-0.81405 c -0.890046,-1.05776 -0.865762,-1.88557 0.0866,-2.95209 l 0.771583,-0.86407 4.690676,-0.0886 4.690679,-0.0886 -0.169432,-2.55725 c -0.573243,-8.65197 -3.827647,-17.64905 -7.936697,-21.94169 -1.668664,-1.74321 -4.350819,-3.59999 -7.448598,-5.15644 -1.916681,-0.96301 -6.240237,-2.57891 -6.900248,-2.57891 -0.303924,0 -0.375793,0.6111 -0.375793,3.19535 0,3.17893 -0.004,3.19933 -0.773398,3.96875 -1.216988,1.21699 -2.803086,0.97651 -3.589488,-0.54422 -0.29604,-0.57248 -0.399614,-1.66031 -0.399614,-4.19718 0,-3.83844 0.04971,-3.74561 -2.006015,-3.74561 h -1.168985 v 5.5766 5.5766 l -0.773398,0.7734 c -0.96929,0.96929 -2.087639,1.01789 -3.114452,0.13533 l -0.742358,-0.63806 -0.08073,-5.71194 -0.08073,-5.71193 -1.109898,0.004 c -2.377757,0.008 -2.300523,-0.11798 -2.300523,3.74455 0,2.53459 -0.103618,3.62224 -0.399613,4.19463 -0.786402,1.52073 -2.3725,1.76121 -3.589488,0.54422 -0.770184,-0.77018 -0.773398,-0.7868 -0.773398,-3.99743 v -3.22403 l -0.727604,0.1809 c -1.908982,0.47462 -6.308564,2.41307 -8.677968,3.82349 -10.245016,6.09852 -16.524959,15.73983 -17.743654,27.24104 l -0.17876,1.68702 1.030139,-0.15748 c 2.352371,-0.35961 11.618907,-0.50309 12.736184,-0.1972 1.851832,0.50699 2.455267,2.25702 1.265714,3.67073 l -0.65428,0.77757 -5.894157,0.17363 c -3.241784,0.0955 -6.413984,0.2448 -7.049333,0.33178 l -1.155179,0.15815 0.170455,1.49064 c 0.163851,1.43289 1.058185,5.25961 1.281366,5.48279 0.0594,0.0594 0.838499,-0.18882 1.731325,-0.55161 0.892829,-0.36279 2.779734,-0.96007 4.193125,-1.3273 2.129758,-0.55336 2.721022,-0.61779 3.452899,-0.37625 1.599293,0.52782 2.11219,2.69861 0.897364,3.79801 -0.261639,0.23678 -1.356217,0.66781 -2.432399,0.95784 -3.372448,0.90888 -5.793153,1.86446 -5.793153,2.28687 0,0.21541 0.427781,1.12607 0.950624,2.02368 5.142569,8.82871 14.515671,15.46461 24.877868,17.61285 3.78756,0.78522 3.739731,0.78166 9.228798,0.68781 4.243533,-0.0726 5.460098,-0.18896 7.805208,-0.74685 z m -10.279917,-7.33986 c -3.170277,-0.63111 -5.632201,-3.37859 -6.025424,-6.72432 -0.163793,-1.39363 -0.239779,-1.52189 -1.18821,-2.00574 -2.17647,-1.11036 -3.764772,-3.37839 -4.094755,-5.84717 -0.303434,-2.27014 1.088621,-3.74225 2.955984,-3.12596 0.991488,0.32722 1.520015,1.11468 1.804918,2.68916 0.243724,1.34692 1.447475,2.33106 2.851248,2.33106 0.857819,0 1.239144,-0.17466 1.964073,-0.89959 0.570378,-0.57037 0.899584,-1.15613 0.899584,-1.60064 0,-1.94532 1.833726,-3.22499 3.434852,-2.39701 0.881113,0.45564 1.202111,1.02292 1.452091,2.56618 0.217779,1.34446 1.416709,2.33106 2.832733,2.33106 0.857819,0 1.239144,-0.17466 1.964073,-0.89959 0.570378,-0.57037 0.899583,-1.15613 0.899583,-1.60064 0,-1.93283 1.83364,-3.22503 3.415538,-2.407 1.122172,0.5803 1.437331,1.30935 1.269397,2.93648 -0.24942,2.41665 -1.610582,4.48548 -3.742968,5.68892 -1.367798,0.77194 -1.401217,0.81963 -1.544021,2.20326 -0.462073,4.47706 -4.74046,7.6391 -9.148696,6.76154 z m -3.448256,-25.23078 c -3.781737,-3.76 -4.104743,-4.15615 -4.104743,-5.0343 0,-2.22708 3.094469,-3.37431 9.101666,-3.37431 4.519115,0 7.38569,0.64938 8.559154,1.93894 1.277745,1.40416 0.986407,1.92895 -3.617324,6.51591 -3.618299,3.60512 -4.144677,4.0349 -4.94183,4.0349 -0.797218,0 -1.329091,-0.4344 -4.996923,-4.08114 z M 41.027861,202.33731 c -0.949687,-0.94969 -1.023045,-2.24368 -0.245078,-4.32299 1.378784,-3.68512 5.514136,-5.70007 9.387509,-4.57405 2.183762,0.63484 4.409979,2.85751 5.042977,5.03494 0.806923,2.77573 0.03397,4.49118 -2.023639,4.49118 -0.858732,0 -1.2172,-0.1536 -1.718456,-0.73635 -0.348358,-0.40499 -0.633823,-1.05713 -0.634368,-1.44919 -5.29e-4,-0.39207 -0.238722,-1.10278 -0.529288,-1.57935 -1.337135,-2.1931 -4.732197,-1.55528 -5.189574,0.97496 -0.500153,2.76687 -2.452571,3.79836 -4.090083,2.16085 z m 26.978231,0.37661 c -2.946562,-1.60142 -0.1274,-8.01077 4.072098,-9.25789 1.831092,-0.54378 3.337383,-0.50171 5.05568,0.14119 2.678305,1.00208 4.598815,3.52092 4.857202,6.37044 0.129952,1.43315 0.08937,1.57443 -0.670457,2.33426 -0.896771,0.89677 -1.562634,1.00088 -2.686023,0.41995 -0.722763,-0.37376 -1.338464,-1.54252 -1.338464,-2.54076 0,-0.80601 -1.281237,-2.06569 -2.294342,-2.25575 -1.818764,-0.3412 -3.526491,1.15057 -3.526491,3.08053 0,0.75274 -1.398765,2.10736 -2.162461,2.09422 -0.338613,-0.006 -0.92665,-0.17961 -1.306742,-0.38619 z"
         id="path97"
         inkscape:connector-curvature="0" />
      <path
         style="fill:#a36326;stroke-width:0.26458332"
         d="m 8.0731188,294.79087 c -4.4121176,-0.95959 -8.61244797,-4.23834 -10.6821581,-8.33841 -1.5531856,-3.07684 -1.6513701,-3.83056 -1.7798563,-13.66307 -0.1446328,-11.06817 0.026275,-12.86654 1.5083329,-15.87139 2.25322889,-4.56839 6.6089138,-7.24063 11.8020547,-7.24063 9.92177,0 16.154062,10.52239 11.454578,19.33953 -2.118654,3.975 -6.840262,6.86416 -11.1920233,6.84841 -1.9983488,-0.007 -3.4069761,-0.62008 -4.6859431,-2.03868 -3.1350041,-3.47729 -0.594715,-9.3326 4.0488895,-9.3326 2.7115969,0 3.0677489,3.28234 0.4172682,3.84559 -1.2182691,0.2589 -1.7827132,0.85347 -1.7827132,1.87786 0,1.27655 0.9034746,1.80221 2.7669473,1.60988 2.9589286,-0.30539 5.8532006,-2.38709 7.2064466,-5.18322 0.616532,-1.27391 0.722032,-1.83215 0.731346,-3.8699 0.0095,-2.07603 -0.08254,-2.57148 -0.71799,-3.86542 -0.985472,-2.00668 -3.10181,-3.96499 -5.098642,-4.71793 -2.1101089,-0.79565 -5.2014518,-0.68679 -7.1480037,0.2517 -1.9055653,0.91874 -3.8803316,3.00215 -4.64472605,4.90027 -0.63274995,1.57122 -0.63600274,1.63072 -0.63600274,11.63347 0,9.0282 0.0498652,10.21581 0.48866582,11.63831 1.30352687,4.22574 4.79456677,7.45714 8.99937037,8.33005 0.7711508,0.16009 2.7022823,0.25708 4.2914023,0.21552 l 2.889311,-0.0756 0.181356,-1.83533 c 0.549235,-5.55833 3.979579,-9.01627 9.711829,-9.78997 l 2.277647,-0.30743 -0.08637,-0.78051 c -0.04751,-0.42928 -0.613053,-3.62729 -1.256771,-7.10669 -1.326779,-7.17144 -1.437809,-9.33221 -0.641429,-12.48306 1.317757,-5.21366 4.608848,-9.445 9.19349,-11.82003 0.908968,-0.47088 1.653109,-0.97939 1.653646,-1.13002 5.29e-4,-0.15063 -0.91349,-0.92454 -2.031177,-1.71979 -4.160065,-2.95997 -8.605898,-7.94131 -11.379949,-12.7507 -0.652459,-1.13117 -1.334727,-2.05668 -1.516147,-2.05668 -0.600432,0 -3.429941,2.13548 -5.444664,4.10919 -2.253957,2.20806 -3.000233,2.53027 -4.013819,1.73298 -1.443422,-1.13539 -1.11751,-2.1797 1.500277,-4.80728 1.018646,-1.02246 2.893881,-2.5731 4.167188,-3.44586 1.273307,-0.87277 2.314784,-1.6696 2.314392,-1.77075 -2.65e-4,-0.10115 -0.357579,-1.59559 -0.79375,-3.32098 -0.436171,-1.7254 -0.793038,-3.4123 -0.793038,-3.74868 0,-0.90667 -0.270256,-1.44862 -0.722403,-1.44862 -0.220662,0 -1.624925,0.40949 -3.120581,0.90996 -2.802371,0.93774 -5.7307363,2.3065 -8.4757959,3.96172 -1.823267,1.0994 -2.1777062,1.14488 -3.123663,0.40079 -1.1106861,-0.87367 -0.9669473,-2.08987 0.383623,-3.24591 2.0919757,-1.79065 8.7299059,-4.75708 13.3723739,-5.97599 1.198504,-0.31468 1.421863,-0.79356 1.421863,-3.04847 0,-1.87748 0.800047,-5.95741 1.745667,-8.90225 l 0.900166,-2.80328 v -8.33968 c 0,-7.89113 0.02798,-8.37526 0.5202,-9.00101 0.286107,-0.36373 0.880718,-0.81066 1.321355,-0.99318 0.676095,-0.28005 0.902602,-0.26538 1.451047,0.094 0.933076,0.61137 1.201303,1.93824 1.210291,5.98708 l 0.0079,3.57187 1.225232,-1.45521 c 3.270416,-3.88428 7.950721,-7.76305 12.291454,-10.18646 1.042609,-0.58208 1.90755,-1.13662 1.922092,-1.23231 0.05013,-0.32984 -14.526548,-12.12223 -14.988664,-12.12568 -0.419404,-0.003 -0.463161,0.3517 -0.464497,3.76685 -0.0016,4.24966 -0.259324,5.56665 -1.211093,6.19027 -0.609381,0.39928 -0.731229,0.39718 -1.676257,-0.029 -0.56051,-0.25276 -1.151853,-0.7509 -1.314098,-1.10699 -0.375613,-0.82438 -0.390187,-8.33895 -0.01876,-9.6763 0.751178,-2.70479 3.928033,-4.33359 6.412986,-3.288 0.468268,0.19703 4.661397,3.48211 9.318064,7.30016 4.656666,3.81805 8.631274,7.00939 8.83246,7.09185 0.201187,0.0825 1.595766,-0.16882 3.09907,-0.55841 7.522826,-1.94959 14.977096,-1.99752 22.33201,-0.14357 1.673489,0.42183 3.227408,0.76729 3.453153,0.76768 0.225745,4e-4 4.27387,-3.16813 8.995833,-7.04116 4.721963,-3.87304 8.968517,-7.20679 9.436785,-7.40834 2.403676,-1.03457 5.414306,0.33083 6.336763,2.87391 0.22698,0.62573 0.3177,5.53476 0.33233,17.98266 0.0196,16.64806 0.0352,17.1603 0.56603,18.50693 0.88862,2.25443 1.78261,6.36312 2.12206,9.75276 l 0.31737,3.16915 1.08702,0.27409 c 3.84318,0.96906 8.9918,3.14221 12.2379,5.16542 1.97493,1.23092 2.21058,1.5257 2.21058,2.76523 0,0.79123 -1.02922,1.84965 -1.79861,1.84965 -0.22239,0 -1.48626,-0.64056 -2.80859,-1.42346 -2.8888,-1.71033 -4.22254,-2.31782 -7.68176,-3.49887 -3.37531,-1.1524 -3.52402,-1.14865 -3.71296,0.0937 -0.13511,0.88837 -1.22065,5.66481 -1.61718,7.11571 -0.12986,0.47516 0.13879,0.75806 1.65443,1.7422 3.52173,2.28672 6.7385,5.41193 7.11515,6.9126 0.13696,0.54569 0.003,0.85618 -0.65513,1.5139 -1.15697,1.15699 -1.78708,0.91995 -4.51209,-1.6974 -2.23233,-2.14413 -4.55286,-3.8792 -5.188134,-3.8792 -0.180809,0 -0.772745,0.80368 -1.315416,1.78594 -1.148572,2.07898 -3.076569,4.86867 -3.905456,5.65095 -0.447873,0.42269 -0.808069,0.51482 -1.60596,0.41076 -2.396408,-0.31253 -2.421871,-1.63575 -0.09853,-5.11998 1.761038,-2.64096 2.582328,-4.08598 2.582328,-4.54348 0,-0.31269 -3.174103,-1.54511 -5.661011,-2.19802 -1.01078,-0.26537 -2.113196,-0.66295 -2.449809,-0.88351 -1.231003,-0.80659 -1.069456,-2.56038 0.31968,-3.47058 0.622639,-0.40797 0.878718,-0.4221 2.327153,-0.12846 0.895141,0.18148 2.875058,0.74443 4.399817,1.25101 2.447356,0.81309 2.807187,0.87332 3.070037,0.51385 0.284427,-0.38898 0.956956,-3.27685 1.306761,-5.61132 l 0.164537,-1.09804 -1.010978,-0.15436 c -3.053416,-0.46618 -6.914409,-0.71987 -9.814306,-0.64484 l -3.280344,0.0849 -0.638892,-0.74236 c -0.779671,-0.90593 -0.820242,-2.00592 -0.102404,-2.77643 0.616434,-0.66166 1.008713,-0.76467 3.595362,-0.9441 1.995847,-0.13845 9.849813,0.22912 10.706655,0.50107 0.459258,0.14576 0.507325,0.0191 0.507325,-1.33661 0,-1.90918 -0.865661,-6.1722 -1.757312,-8.65402 -3.156799,-8.78665 -9.750972,-16.15456 -18.269745,-20.41345 -2.050836,-1.0253 -6.630916,-2.80806 -7.214166,-2.80806 -0.116359,0 -0.260975,1.4843 -0.321371,3.29845 -0.100896,3.03065 -0.160938,3.35288 -0.739521,3.96875 -0.768474,0.81801 -2.058929,0.89019 -2.955552,0.16533 -0.593233,-0.4796 -0.631272,-0.70231 -0.756914,-4.43177 l -0.132292,-3.9268 -1.372881,-0.23296 c -2.308701,-0.39174 -2.198994,-0.67785 -2.198994,5.73478 0,5.56454 -0.0093,5.6595 -0.612365,6.22602 -0.893141,0.83906 -2.362581,0.78078 -3.072598,-0.12186 -0.515035,-0.65476 -0.54837,-1.03323 -0.54837,-6.22601 0,-6.29766 0.132937,-5.97609 -2.318348,-5.60796 l -1.51811,0.22799 -0.132292,3.9268 c -0.125643,3.72946 -0.163682,3.95217 -0.756915,4.43177 -0.902544,0.72965 -2.186969,0.65276 -2.967278,-0.17764 -0.594902,-0.63309 -0.648202,-0.92097 -0.734785,-3.96875 -0.05134,-1.80738 -0.131154,-3.28614 -0.177355,-3.28614 -0.0462,0 -1.135287,0.37095 -2.420189,0.82433 -12.658475,4.46656 -21.714792,14.63445 -24.252442,27.22921 -0.219049,1.08716 -0.437658,2.69104 -0.485799,3.56417 l -0.08753,1.5875 0.79375,-0.0421 c 0.436562,-0.0231 2.549408,-0.16508 4.695214,-0.31543 3.548104,-0.24861 6.76739,-0.20372 8.342246,0.11632 1.732195,0.35201 2.229643,2.48193 0.850661,3.64226 -0.770043,0.64795 -0.885444,0.66497 -3.505729,0.51686 -2.459722,-0.13904 -8.944953,0.25018 -10.473345,0.62856 -0.572855,0.14182 -0.606846,0.24665 -0.445966,1.37538 0.392565,2.75424 1.245494,5.85207 1.611257,5.85207 0.202835,0 1.11565,-0.27981 2.028476,-0.62181 2.685018,-1.00597 6.182396,-1.84378 6.921917,-1.65817 0.932971,0.23416 1.749227,1.18125 1.749227,2.02961 0,1.15112 -0.886447,2.01001 -2.44548,2.36945 -2.45645,0.56634 -6.330217,1.92222 -6.460297,2.2612 -0.394835,1.02893 3.564326,6.62579 7.143075,10.09781 4.321757,4.19287 9.382029,7.23741 14.991868,9.01994 3.682695,1.17018 6.550741,1.65692 10.715624,1.81858 8.98,0.34855 17.836623,-2.32062 24.854359,-7.4905 2.376885,-1.75102 3.790381,-1.49524 4.041344,0.7313 0.129225,1.14648 0.08784,1.23531 -1.019045,2.18722 -0.634559,0.54571 -1.481164,1.18724 -1.881347,1.42562 -0.400182,0.23839 -0.727604,0.56263 -0.727604,0.72053 0,0.15791 0.565547,0.56092 1.256771,0.89557 6.12123,2.96357 10.120312,9.36082 10.120312,16.18926 0,1.63136 -0.353454,4.20779 -1.190625,8.6788 -0.654844,3.49727 -1.190625,6.63765 -1.190625,6.97863 0,0.57853 0.146624,0.63812 2.194502,0.89184 4.079829,0.50546 7.103179,2.55045 8.712669,5.89321 0.77785,1.61552 0.84752,1.98939 0.94995,5.09813 0.10929,3.31696 0.10287,3.36242 -0.5696,4.03489 l -0.68014,0.68014 -47.438583,-0.021 C 18.650984,295.1476 9.3888792,295.07703 8.0731188,294.79087 Z M 41.69286,290.22476 c -0.36209,-1.24984 -0.444106,-25.50984 -0.0885,-26.1763 0.8862,-1.66083 3.400297,-1.25581 3.924606,0.63225 0.175252,0.6311 0.279707,5.22917 0.281255,12.38103 0.0024,10.94319 0.02283,11.41049 0.536435,12.2529 0.952214,1.56182 3.331591,2.10078 4.94131,1.11927 1.630514,-0.99418 1.617903,-0.89465 1.712577,-13.51867 l 0.08621,-11.49516 0.691304,-1.45521 c 2.052195,-4.31991 6.770229,-6.04637 10.92877,-3.99912 1.936292,0.95323 2.847205,1.90332 3.834196,3.99912 l 0.685313,1.45521 0.132291,11.65397 c 0.146894,12.94033 0.09294,12.56616 1.938401,13.44189 1.872152,0.8884 3.91064,0.272 4.861774,-1.4701 0.438074,-0.80238 0.482651,-1.9958 0.561287,-15.02681 0.04698,-7.78536 0.0039,-16.3385 -0.09574,-19.00697 -0.161528,-4.32586 -0.228145,-4.83684 -0.614588,-4.71406 -5.970785,1.897 -9.039417,2.39097 -14.853213,2.39097 -5.836758,0 -8.732154,-0.46666 -14.882811,-2.39871 -0.421474,-0.13239 -0.463058,0.11255 -0.463431,2.72969 -5.29e-4,3.28426 -0.419897,4.54614 -1.653236,4.97389 -0.965523,0.33486 -2.073531,-0.0694 -2.498293,-0.91163 -0.182521,-0.36188 -0.407263,-2.18836 -0.499431,-4.05883 l -0.167576,-3.40087 -0.831673,0.16161 c -1.70507,0.33132 -4.223067,1.81964 -5.877364,3.47393 -2.563325,2.56333 -4.082433,6.1992 -4.082433,9.77101 0,0.78066 0.709665,5.24428 1.577036,9.91915 1.649301,8.88926 1.665523,9.1869 0.555225,10.18718 -0.486188,0.43801 -1.109916,0.54124 -4.065259,0.67281 -2.473341,0.11012 -3.722338,0.28051 -4.28471,0.58451 -1.939602,1.04852 -3.307292,3.33728 -3.307292,5.53459 v 1.02507 h 10.614178 10.614176 z m 23.555771,0 c -0.111615,-0.40018 -0.274323,-6.02588 -0.361574,-12.50156 -0.169466,-12.57779 -0.155795,-12.459 -1.547162,-13.44245 -1.19181,-0.8424 -2.26876,-0.94907 -3.606718,-0.35723 -2.176015,0.96256 -2.126702,0.66446 -2.304629,13.93197 -0.08587,6.40292 -0.248576,11.96909 -0.361574,12.36927 l -0.205449,0.72761 h 4.29502 4.295021 z m 36.349349,0.0778 c 0.2103,-1.09259 -0.50958,-3.24729 -1.45321,-4.34972 -1.478562,-1.72736 -2.143103,-1.96174 -6.114901,-2.1567 -3.737146,-0.18345 -4.325114,-0.3976 -4.848447,-1.76591 -0.153855,-0.40227 0.273259,-3.27381 1.353281,-9.09828 0.867949,-4.68077 1.578091,-9.14314 1.578091,-9.91638 0,-5.16394 -3.127396,-10.17071 -7.738229,-12.38843 -1.086024,-0.52236 -2.229985,-0.94974 -2.542137,-0.94974 h -0.56755 l -0.0053,18.45469 c -0.0048,16.6714 -0.115673,20.31482 -0.676384,22.22806 l -0.175366,0.59837 10.545278,-0.0692 c 10.227584,-0.0671 10.548284,-0.0848 10.644894,-0.58675 z m -5.315382,-113.58401 -0.06876,-12.36927 h -0.560832 c -0.595828,0 -14.873149,11.42317 -14.901401,11.92249 -0.0087,0.15446 0.971889,0.83085 2.179172,1.50311 4.143946,2.30747 8.283937,5.71406 11.2489,9.25612 0.946933,1.13125 1.822945,2.05682 1.946693,2.05682 0.123745,0 0.194051,-5.56617 0.156231,-12.36927 z M 59.304462,239.6404 c -3.206617,-0.97895 -5.556249,-3.88987 -5.556249,-6.88355 0,-0.88094 -0.131988,-1.03887 -1.784932,-2.13568 -1.501249,-0.99616 -1.921759,-1.45089 -2.645834,-2.86116 -1.110847,-2.16358 -1.188156,-3.97316 -0.211468,-4.94984 1.361093,-1.3611 3.33149,-0.48206 3.670414,1.63745 0.622974,3.89587 5.551532,3.9113 6.173882,0.0193 0.485407,-3.03555 3.882152,-3.06783 4.435779,-0.0422 0.249624,1.36425 0.760521,2.12462 1.782689,2.65321 1.719585,0.88923 4.019623,-0.30462 4.337922,-2.25163 0.220904,-1.35124 0.609804,-2.03516 1.34869,-2.37182 0.992526,-0.45223 1.642142,-0.354 2.351757,0.35562 0.513789,0.51379 0.647007,0.91444 0.63782,1.91823 -0.02249,2.45757 -1.243248,4.58441 -3.396514,5.9175 -1.800669,1.11481 -1.88354,1.22275 -1.88354,2.45353 0,2.50651 -2.484003,5.61179 -5.113747,6.39274 -1.417166,0.42085 -3.061171,0.47962 -4.146669,0.14823 z m -3.119945,-25.238 c -4.454647,-4.48823 -4.658693,-4.87668 -3.28385,-6.25152 1.373688,-1.37369 7.617571,-2.25926 11.56317,-1.64001 4.121642,0.64688 5.688541,1.48607 5.688541,3.04663 0,0.66557 -0.637002,1.43256 -4.023804,4.8449 -3.698586,3.72647 -4.100441,4.05414 -4.972029,4.05414 -0.871587,0 -1.273442,-0.32767 -4.972028,-4.05414 z M 41.168479,202.19669 c -1.298246,-1.29825 -0.54624,-4.70472 1.487586,-6.73855 4.38622,-4.38622 12.053641,-1.64918 12.611398,4.50189 0.124598,1.37407 0.07283,1.58265 -0.546489,2.20197 -0.806214,0.80621 -1.974715,0.89835 -2.804064,0.2211 -0.311854,-0.25466 -0.734145,-1.10007 -0.938424,-1.87869 -0.437441,-1.66733 -0.938721,-2.29384 -2.157058,-2.69593 -1.83768,-0.60649 -3.645345,0.64207 -3.982535,2.75075 -0.338923,2.11952 -2.30932,2.99855 -3.670414,1.63746 z m 26.458333,0 c -1.843429,-1.84343 0.283667,-6.54632 3.721655,-8.22837 1.25463,-0.61384 1.691441,-0.69163 3.364026,-0.59912 2.255816,0.12476 3.589814,0.69352 5.048935,2.15264 1.305687,1.30569 2.054408,2.99525 2.093804,4.72488 0.02665,1.16976 -0.06869,1.44255 -0.691354,1.97814 -1.510805,1.29954 -3.129316,0.59883 -3.591176,-1.55475 -0.339944,-1.5851 -1.030462,-2.44497 -2.299856,-2.86391 -1.861965,-0.61451 -3.54589,0.61217 -3.920659,2.85606 -0.339254,2.03125 -2.385668,2.87414 -3.725375,1.53443 z"
         id="path95"
         inkscape:connector-curvature="0" />
      <path
         style="fill:#5e5f5f;stroke-width:0.26458332"
         d="m 8.0731188,294.79087 c -4.4121176,-0.95959 -8.61244797,-4.23834 -10.6821581,-8.33841 -1.5531856,-3.07684 -1.6513701,-3.83056 -1.7798563,-13.66307 -0.1446328,-11.06817 0.026275,-12.86654 1.5083329,-15.87139 2.25322889,-4.56839 6.6089138,-7.24063 11.8020547,-7.24063 9.92177,0 16.154062,10.52239 11.454578,19.33953 -2.118654,3.975 -6.840262,6.86416 -11.1920233,6.84841 -1.9983488,-0.007 -3.4069761,-0.62008 -4.6859431,-2.03868 -3.1350041,-3.47729 -0.594715,-9.3326 4.0488895,-9.3326 2.7115969,0 3.0677489,3.28234 0.4172682,3.84559 -1.2182691,0.2589 -1.7827132,0.85347 -1.7827132,1.87786 0,1.27655 0.9034746,1.80221 2.7669473,1.60988 2.9589286,-0.30539 5.8532006,-2.38709 7.2064466,-5.18322 0.616532,-1.27391 0.722032,-1.83215 0.731346,-3.8699 0.0095,-2.07603 -0.08254,-2.57148 -0.71799,-3.86542 -0.985472,-2.00668 -3.10181,-3.96499 -5.098642,-4.71793 -2.1101089,-0.79565 -5.2014518,-0.68679 -7.1480037,0.2517 -1.9055653,0.91874 -3.8803316,3.00215 -4.64472605,4.90027 -0.63274995,1.57122 -0.63600274,1.63072 -0.63600274,11.63347 0,9.0282 0.0498652,10.21581 0.48866582,11.63831 1.30352687,4.22574 4.79456677,7.45714 8.99937037,8.33005 0.7711508,0.16009 2.7022823,0.25708 4.2914023,0.21552 l 2.889311,-0.0756 0.181356,-1.83533 c 0.549235,-5.55833 3.979579,-9.01627 9.711829,-9.78997 l 2.277647,-0.30743 -0.08637,-0.78051 c -0.04751,-0.42928 -0.613053,-3.62729 -1.256771,-7.10669 -1.326779,-7.17144 -1.437809,-9.33221 -0.641429,-12.48306 1.317757,-5.21366 4.608848,-9.445 9.19349,-11.82003 0.908968,-0.47088 1.653109,-0.97939 1.653646,-1.13002 5.29e-4,-0.15063 -0.91349,-0.92454 -2.031177,-1.71979 -4.160065,-2.95997 -8.605898,-7.94131 -11.379949,-12.7507 -0.652459,-1.13117 -1.334727,-2.05668 -1.516147,-2.05668 -0.600432,0 -3.429941,2.13548 -5.444664,4.10919 -2.253957,2.20806 -3.000233,2.53027 -4.013819,1.73298 -1.443422,-1.13539 -1.11751,-2.1797 1.500277,-4.80728 1.018646,-1.02246 2.893881,-2.5731 4.167188,-3.44586 1.273307,-0.87277 2.314784,-1.6696 2.314392,-1.77075 -2.65e-4,-0.10115 -0.357579,-1.59559 -0.79375,-3.32098 -0.436171,-1.7254 -0.793038,-3.4123 -0.793038,-3.74868 0,-0.90667 -0.270256,-1.44862 -0.722403,-1.44862 -0.220662,0 -1.624925,0.40949 -3.120581,0.90996 -2.802371,0.93774 -5.7307363,2.3065 -8.4757959,3.96172 -1.823267,1.0994 -2.1777062,1.14488 -3.123663,0.40079 -1.1106861,-0.87367 -0.9669473,-2.08987 0.383623,-3.24591 2.0919757,-1.79065 8.7299059,-4.75708 13.3723739,-5.97599 1.198504,-0.31468 1.421863,-0.79356 1.421863,-3.04847 0,-1.87748 0.800047,-5.95741 1.745667,-8.90225 l 0.900166,-2.80328 v -8.39572 -8.39572 l 0.773398,-0.77339 c 0.914336,-0.91434 1.549199,-0.97153 2.498212,-0.22503 l 0.69714,0.54837 0.004,4.28027 c 0.0021,2.35416 0.10401,4.43794 0.226184,4.63064 0.16175,0.25512 0.585274,-0.10447 1.558105,-1.32292 3.082155,-3.86032 7.60694,-7.67871 12.200405,-10.29573 1.328483,-0.75687 2.415423,-1.47209 2.415423,-1.58938 0,-0.24384 -14.135729,-11.91024 -14.963213,-12.34934 -1.161174,-0.61616 -1.30266,-0.1399 -1.392161,4.68612 -0.08301,4.47595 -0.08751,4.50565 -0.763285,5.03721 -0.373883,0.2941 -0.836721,0.53472 -1.028531,0.53472 -0.699614,0 -1.645359,-0.60321 -1.931966,-1.23225 -0.37442,-0.82176 -0.388044,-8.33951 -0.01754,-9.67359 0.751202,-2.70479 3.928057,-4.33359 6.41301,-3.288 0.468268,0.19703 4.661397,3.48211 9.318064,7.30016 4.656666,3.81805 8.631274,7.00939 8.83246,7.09185 0.201187,0.0825 1.595766,-0.16882 3.09907,-0.55841 7.522826,-1.94959 14.977096,-1.99752 22.33201,-0.14357 1.673489,0.42183 3.227408,0.76729 3.453153,0.76768 0.225745,4e-4 4.27387,-3.16813 8.995833,-7.04116 4.721963,-3.87304 8.968517,-7.20679 9.436785,-7.40834 2.403676,-1.03457 5.414306,0.33083 6.33677,2.87391 0.22698,0.62573 0.3177,5.53476 0.33233,17.98266 0.0196,16.64806 0.0352,17.1603 0.56603,18.50693 0.88862,2.25443 1.78261,6.36312 2.12206,9.75276 l 0.31737,3.16915 1.08702,0.27409 c 3.84318,0.96906 8.9918,3.14221 12.2379,5.16542 1.97493,1.23092 2.21058,1.5257 2.21058,2.76523 0,0.79123 -1.02922,1.84965 -1.79861,1.84965 -0.22239,0 -1.48626,-0.64056 -2.80859,-1.42346 -2.8888,-1.71033 -4.22254,-2.31782 -7.68176,-3.49887 -3.37531,-1.1524 -3.52402,-1.14865 -3.71296,0.0937 -0.13511,0.88837 -1.22065,5.66481 -1.61718,7.11571 -0.12986,0.47516 0.13879,0.75806 1.65443,1.7422 3.52173,2.28672 6.7385,5.41193 7.11515,6.9126 0.13696,0.54569 0.003,0.85618 -0.65513,1.5139 -1.15697,1.15699 -1.78708,0.91995 -4.51209,-1.6974 -2.23233,-2.14413 -4.55286,-3.8792 -5.188141,-3.8792 -0.180809,0 -0.772745,0.80368 -1.315416,1.78594 -1.147265,2.07661 -3.082086,4.87686 -3.8892,5.6288 -1.390417,1.29538 -3.382521,0.10724 -3.116069,-1.85849 0.02958,-0.21828 0.742198,-1.4089 1.583581,-2.64583 1.834835,-2.69741 2.742332,-4.42739 2.564958,-4.88962 -0.15857,-0.41322 -2.980383,-1.5036 -5.85943,-2.26415 -1.263603,-0.3338 -2.303275,-0.77617 -2.579688,-1.09763 -0.661437,-0.76922 -0.581202,-1.86408 0.189678,-2.58829 0.564689,-0.5305 0.832162,-0.59192 1.983634,-0.45555 0.732014,0.0867 2.783456,0.64328 4.558757,1.23684 1.775301,0.59357 3.371112,1.02423 3.546247,0.95702 0.374505,-0.14371 1.36602,-4.21772 1.481561,-6.08754 0.07553,-1.22226 0.03721,-1.31013 -0.654193,-1.50029 -1.412899,-0.38862 -8.505912,-0.80425 -10.75483,-0.63022 -2.077067,0.16074 -2.330654,0.1269 -2.996687,-0.39982 -0.939183,-0.74273 -0.993952,-2.04662 -0.120441,-2.86724 0.505458,-0.47485 1.04839,-0.59835 3.241146,-0.73726 2.104765,-0.13333 7.341108,0.10589 10.836065,0.49504 0.461307,0.0514 0.539467,-0.12047 0.609481,-1.33998 0.181404,-3.15969 -1.405712,-8.88689 -3.701036,-13.35542 -3.602969,-7.01424 -9.822841,-12.9729 -17.160504,-16.43982 -3.038864,-1.43581 -6.596123,-2.65563 -6.882262,-2.36 -0.115321,0.11915 -0.248526,1.66303 -0.29601,3.43084 -0.07287,2.71294 -0.164939,3.30093 -0.590363,3.77031 -0.657894,0.72588 -2.090557,0.73965 -2.803263,0.0269 -0.478324,-0.47833 -0.529166,-0.88195 -0.529166,-4.20094 0,-2.6267 -0.09472,-3.75038 -0.33278,-3.94795 -0.183028,-0.1519 -1.046231,-0.31531 -1.918229,-0.36313 l -1.585449,-0.0869 -0.132292,5.74798 c -0.126,5.47465 -0.159901,5.77556 -0.712904,6.32795 -0.713057,0.71227 -1.993582,0.75835 -2.723263,0.098 -0.501732,-0.45406 -0.532583,-0.80604 -0.532583,-6.07659 0,-3.91123 -0.09292,-5.68754 -0.308819,-5.90344 -0.357222,-0.35722 -3.325582,-0.14819 -3.858368,0.27171 -0.236175,0.18613 -0.330729,1.31041 -0.330729,3.93242 0,3.31899 -0.05084,3.72261 -0.529167,4.20094 -0.787839,0.78784 -2.204093,0.70556 -2.891213,-0.16797 -0.485537,-0.61726 -0.54837,-1.06073 -0.54837,-3.87028 v -3.17313 l -0.994907,0.15909 c -1.390235,0.22231 -5.198309,1.75225 -7.654734,3.07539 -8.211955,4.42331 -14.77114,12.16003 -17.569666,20.72386 -0.946825,2.8974 -1.620301,6.60957 -1.510213,8.32425 0.06901,1.07493 0.156427,1.24658 0.60973,1.19731 7.173473,-0.77969 13.154328,-0.68586 14.128416,0.22164 0.829606,0.77289 0.74713,2.15983 -0.171646,2.88642 -0.664091,0.52519 -0.92392,0.56054 -2.976563,0.40501 -2.199486,-0.16665 -8.744261,0.20932 -10.583332,0.60798 -0.906645,0.19654 -0.924306,0.22535 -0.843241,1.37589 0.09751,1.38398 1.022192,5.51031 1.354312,6.04355 0.190154,0.3053 0.823802,0.17326 3.602149,-0.75066 4.267612,-1.41915 5.918104,-1.62703 6.701144,-0.84399 0.821354,0.82136 0.756904,2.22365 -0.134422,2.92477 -0.383426,0.3016 -0.899546,0.54837 -1.146929,0.54837 -0.726918,0 -6.177335,1.79315 -6.754888,2.22231 -0.523582,0.38906 -0.52083,0.40934 0.260582,1.92032 2.034844,3.93469 6.259214,8.74331 10.44,11.8839 2.557108,1.92088 7.410733,4.49773 10.367129,5.50402 7.572507,2.57751 15.568495,2.90551 23.15357,0.94978 4.980318,-1.28412 8.356898,-2.82653 12.820353,-5.85627 2.483003,-1.68544 3.285514,-1.86479 4.163285,-0.93045 0.949991,1.01122 0.765709,2.09304 -0.549193,3.22398 -0.618464,0.53193 -1.451901,1.16219 -1.852084,1.40057 -0.400182,0.23839 -0.727604,0.56263 -0.727604,0.72053 0,0.15791 0.565547,0.56092 1.256771,0.89557 6.12123,2.96357 10.120312,9.36082 10.120312,16.18926 0,1.63136 -0.353454,4.20779 -1.190625,8.6788 -0.654844,3.49727 -1.190625,6.63765 -1.190625,6.97863 0,0.57853 0.146624,0.63812 2.194502,0.89184 4.079834,0.50546 7.103184,2.55045 8.712674,5.89321 0.77785,1.61552 0.84752,1.98939 0.94995,5.09813 0.10929,3.31696 0.10287,3.36242 -0.5696,4.03489 l -0.68014,0.68014 -47.438588,-0.021 c -38.482691,-0.0171 -47.7447958,-0.0876 -49.0605562,-0.3738 z m 33.8898432,-4.43382 c -0.112003,-0.47294 -0.24789,-6.53388 -0.301974,-13.46875 l -0.09833,-12.60886 0.704501,-0.55416 c 0.387474,-0.30479 0.861436,-0.55416 1.053245,-0.55416 0.699614,0 1.645359,0.60321 1.931967,1.23225 0.201168,0.44152 0.293759,4.33954 0.293759,12.36711 0,11.72174 3.1e-5,11.72243 0.595312,12.59452 0.70956,1.03951 2.13143,1.85195 3.241146,1.85195 1.027668,0 2.478547,-0.77863 3.166485,-1.69933 0.516515,-0.69127 0.542888,-1.17974 0.669973,-12.40857 0.130122,-11.49732 0.142266,-11.71066 0.740661,-13.01189 0.771565,-1.67779 2.198055,-3.16068 3.889547,-4.04333 1.827387,-0.95357 4.688805,-0.97601 6.60342,-0.0518 1.659043,0.80085 3.046907,2.18258 3.868018,3.85093 l 0.641061,1.30252 0.132292,11.77396 c 0.130924,11.65227 0.13839,11.78251 0.722395,12.60123 1.62325,2.27567 4.973454,2.14738 6.432996,-0.24633 0.498531,-0.81761 0.515581,-1.48192 0.516536,-20.12481 l 0.0011,-19.27928 -0.595312,0.15072 c -0.327422,0.0829 -2.143125,0.56263 -4.034896,1.06608 -7.5639,2.01293 -15.449576,1.92754 -23.018749,-0.24926 -1.309687,-0.37665 -2.639441,-0.74657 -2.955004,-0.82206 -0.563337,-0.13474 -0.57535,-0.0739 -0.661458,3.35305 -0.08284,3.29669 -0.122351,3.51831 -0.712327,3.99547 -0.824961,0.66722 -1.843884,0.63974 -2.599471,-0.0701 -0.579077,-0.54402 -0.612584,-0.76335 -0.616415,-4.0349 -0.0021,-1.90279 -0.107146,-3.62234 -0.233146,-3.82123 -0.559599,-0.88332 -4.862359,1.29856 -7.175018,3.63836 -2.738427,2.77057 -4.216032,6.21967 -4.225541,9.86349 -0.0021,0.82421 0.705755,5.32345 1.573125,9.99832 1.088607,5.86728 1.506868,8.68431 1.350478,9.09564 -0.446024,1.17314 -0.956355,1.33816 -4.608255,1.49014 -3.179109,0.13231 -3.585358,0.20741 -4.718114,0.87218 -1.45548,0.85417 -2.25639,1.88824 -2.760929,3.5647 -0.388694,1.29153 -0.480153,2.77836 -0.188825,3.06969 0.09694,0.097 4.99202,0.17639 10.877877,0.17639 h 10.701557 z m 23.759519,0.70369 c 0.08592,-0.0859 -0.01331,-0.63667 -0.220488,-1.22389 -0.30236,-0.85698 -0.376989,-3.21491 -0.378174,-11.94848 -7.94e-4,-6.57081 -0.108241,-11.26519 -0.27101,-11.85121 -0.337405,-1.21479 -1.741326,-2.47364 -3.027881,-2.71499 -1.331206,-0.24974 -3.238751,0.69443 -3.971237,1.96561 -0.505513,0.8773 -0.542163,1.53891 -0.696172,12.56771 -0.08941,6.40292 -0.251756,12.02862 -0.360759,12.50156 l -0.198191,0.8599 h 4.483848 c 2.466118,0 4.554146,-0.0703 4.640064,-0.15621 z m 36.022269,-1.62531 c -0.0326,-2.12577 -1.00389,-3.80381 -2.86904,-4.95695 -1.224383,-0.75697 -1.480132,-0.80708 -4.826902,-0.94563 -3.113563,-0.1289 -3.599497,-0.21179 -4.084391,-0.69668 -0.342268,-0.34227 -0.548926,-0.88775 -0.546547,-1.44261 0.0021,-0.49073 0.668856,-4.45636 1.481667,-8.81252 0.84547,-4.53119 1.47784,-8.66807 1.47784,-9.66785 0,-5.15664 -3.129724,-10.16783 -7.773262,-12.44624 -1.181737,-0.57984 -2.446268,-1.08399 -2.810071,-1.12035 l -0.661458,-0.0661 -0.133855,19.84375 c -0.101201,15.00259 -0.214162,20.02546 -0.463021,20.58858 -0.707792,1.60158 -1.325287,1.51645 10.452605,1.44095 l 10.781775,-0.0691 -0.0254,-1.64923 z m -5.13404,-112.3829 c 0,-11.1769 -0.04617,-12.57937 -0.426677,-12.95987 -0.392512,-0.39251 -0.482547,-0.39024 -1.124479,0.0283 -1.293731,0.84361 -14.853009,12.03849 -14.853009,12.26302 0,0.12231 0.922734,0.71941 2.05052,1.32687 4.325406,2.32983 9.46009,6.63169 12.554278,10.51803 0.724569,0.91007 1.425845,1.58766 1.558385,1.50574 0.139433,-0.0862 0.240982,-5.43035 0.240982,-12.68213 z m -37.998041,62.1588 c -2.280938,-0.84247 -4.59437,-3.75299 -4.603485,-5.79164 -0.0065,-1.44957 -0.302942,-2.00923 -1.346263,-2.54149 -2.364941,-1.2065 -3.925869,-3.58817 -3.935981,-6.00552 -0.0069,-1.63998 0.602236,-2.44739 1.846273,-2.44739 1.049583,0 1.804421,0.79938 2.018395,2.1375 0.339325,2.12201 2.325856,3.50788 4.160406,2.90242 1.256204,-0.41458 1.995776,-1.31451 2.428554,-2.9551 0.4147,-1.57204 0.913146,-2.08482 2.026547,-2.08482 1.001353,0 1.757336,0.82116 1.967826,2.1375 0.342196,2.13997 2.324639,3.50828 4.190653,2.89244 1.167468,-0.3853 2.186881,-1.59188 2.412071,-2.85492 0.348792,-1.95632 1.965359,-2.76836 3.321965,-1.66871 0.514157,0.41678 0.617935,0.73383 0.586804,1.79279 -0.07281,2.47687 -1.419027,4.65767 -3.653737,5.91886 -1.350386,0.76211 -1.408028,0.84118 -1.584309,2.17344 -0.531117,4.0139 -3.11295,6.54079 -6.856791,6.71087 -1.233186,0.056 -2.268693,-0.0539 -2.978928,-0.31623 z m 3.85657,-3.94847 c 1.1489,-0.59411 1.862306,-1.65883 1.862306,-2.77936 0,-0.92212 -0.0999,-1.04223 -1.614768,-1.94136 l -1.61477,-0.95843 -0.8338,0.63597 c -0.458589,0.34978 -1.175861,0.76602 -1.593935,0.92497 -0.714951,0.27182 -0.752128,0.36004 -0.62543,1.4841 0.149845,1.3294 0.727753,2.12964 1.917079,2.65462 1.040116,0.45912 1.584449,0.45466 2.503318,-0.0205 z m -1.974152,-17.06228 c -0.291041,-0.12233 -2.234247,-1.94823 -4.318235,-4.05755 -3.486549,-3.52893 -3.78229,-3.90383 -3.704167,-4.69559 0.187265,-1.89786 2.977317,-2.7689 8.816152,-2.75232 5.943536,0.0169 8.598958,0.90899 8.598958,2.88894 0,0.71248 -0.552389,1.37312 -4.054139,4.84867 -2.229778,2.21309 -4.224075,4.01626 -4.43177,4.00704 -0.207698,-0.009 -0.615757,-0.11686 -0.906799,-0.23919 z m -19.33972,-16.17654 c -0.67214,-0.74345 -0.608682,-2.75472 0.135416,-4.29182 2.136251,-4.4129 7.714752,-5.63038 11.307611,-2.46782 1.473822,1.29731 2.46657,3.28396 2.47015,4.94316 0.0036,1.64967 -0.552791,2.37398 -1.823495,2.37398 -1.253164,0 -1.79293,-0.56173 -2.040578,-2.12358 -0.130368,-0.82222 -0.449344,-1.44632 -1.044474,-2.04361 -0.742344,-0.74504 -1.036463,-0.8599 -2.201984,-0.8599 -1.803278,0 -2.808787,0.87555 -3.340722,2.90893 -0.209161,0.79955 -0.584745,1.60322 -0.83463,1.78594 -0.712597,0.52106 -2.056736,0.40581 -2.627294,-0.22528 z m 26.615761,0.0283 c -1.179925,-1.17992 -0.304583,-4.70824 1.621245,-6.53488 2.045796,-1.94044 5.456267,-2.57104 7.946774,-1.46937 2.294358,1.01491 3.9972,3.33608 4.350144,5.92975 0.209883,1.54236 -0.564118,2.60367 -1.898825,2.60367 -1.172699,0 -1.836856,-0.67884 -2.06597,-2.11163 -0.264051,-1.65129 -1.59127,-2.91546 -3.060882,-2.91546 -2.023838,0 -3.137395,0.99033 -3.550549,3.15764 -0.09527,0.49978 -0.368853,1.12485 -0.60796,1.38907 -0.589346,0.65121 -2.06022,0.62497 -2.733977,-0.0488 z"
         id="path93"
         inkscape:connector-curvature="0" />
      <path
         style="fill:#685421;stroke-width:0.26458332"
         d="m 9.4305064,295.00443 c -0.4365625,-0.0561 -1.031875,-0.20425 -1.3229166,-0.32924 -0.2910417,-0.125 -1.1244791,-0.43431 -1.8520833,-0.68737 -3.3867869,-1.17791 -6.78178933,-4.08982 -8.4172751,-7.21953 -1.825322,-3.49299 -1.8489326,-3.66388 -1.9697006,-14.25653 -0.071392,-6.26189 -0.00708,-10.24596 0.1857817,-11.50938 0.6682467,-4.37757 3.38729405,-8.0579 7.3414497,-9.9369 1.8785757,-0.89269 2.3089043,-0.99079 4.7436934,-1.08138 4.1870464,-0.15578 7.0727684,0.92037 9.8112554,3.65886 6.995498,6.9955 3.721378,19.0363 -5.874371,21.60338 -1.984025,0.53078 -4.4546014,0.46054 -5.6734902,-0.16129 -2.6962136,-1.37551 -3.8484612,-4.78856 -2.5103607,-7.4359 1.3138271,-2.59931 5.4200171,-3.89089 6.4558049,-2.03064 0.363149,0.65221 0.363341,0.80231 0.0019,1.44853 -0.253872,0.45384 -0.7671682,0.82302 -1.3855439,0.99652 -1.4359037,0.40287 -2.0476373,1.02942 -2.0476373,2.09722 0,1.41597 1.0349875,2.10143 2.9104165,1.92753 2.7009257,-0.25044 5.4907987,-2.01748 7.0320957,-4.45397 2.916277,-4.61007 0.963541,-11.05504 -4.063381,-13.41114 -1.311035,-0.61447 -1.849759,-0.70898 -4.0270479,-0.70645 -2.2528299,0.003 -2.673723,0.0837 -4.057862,0.78178 -1.9726965,0.99491 -3.93450985,3.12204 -4.65470829,5.04694 -0.51967233,1.38895 -0.54784596,1.99482 -0.54784596,11.78142 0,9.74414 0.0305173,10.40776 0.54945119,11.94819 1.37963616,4.09539 4.58233016,7.01977 8.76878146,8.0068 2.0444555,0.48201 7.1073245,0.53701 7.5621835,0.0822 0.174625,-0.17462 0.3175,-0.87839 0.3175,-1.56392 0,-1.66788 0.790972,-4.11693 1.806239,-5.59257 1.893985,-2.75281 5.327692,-4.43226 9.061962,-4.43226 0.541976,0 1.0375,-0.14809 1.106647,-0.33073 0.06887,-0.1819 -0.398884,-3.06916 -1.039448,-6.41614 -1.895414,-9.90362 -1.812435,-13.10128 0.461902,-17.80006 1.433885,-2.9624 4.704945,-6.33995 7.576632,-7.82328 1.049567,-0.54214 1.973574,-1.09132 2.053346,-1.22039 0.07977,-0.12907 -0.991917,-1.08923 -2.381528,-2.13368 -4.61165,-3.4662 -8.709516,-8.08821 -11.269908,-12.71143 -0.683402,-1.23399 -1.329954,-2.09295 -1.577294,-2.09545 -0.681485,-0.007 -3.392422,2.01834 -5.700075,4.25832 -1.182768,1.14809 -2.351454,2.08743 -2.597083,2.08743 -1.37987,0 -2.245228,-1.40281 -1.615986,-2.61963 0.575851,-1.11357 4.303146,-4.50264 6.584852,-5.98732 1.111454,-0.72321 2.020824,-1.49352 2.020827,-1.7118 2e-6,-0.21828 -0.222182,-1.11125 -0.493742,-1.98437 -0.27156,-0.87313 -0.637805,-2.48047 -0.813877,-3.57188 -0.39837,-2.46934 -0.670867,-3.175 -1.226055,-3.175 -0.239353,0 -1.699027,0.42291 -3.243723,0.9398 -2.458827,0.82277 -5.356291,2.19878 -9.2264107,4.38161 -1.045183,0.58951 -1.1689262,0.60464 -1.8520833,0.22653 -0.5546973,-0.30702 -0.7515182,-0.63608 -0.8123435,-1.35816 -0.069382,-0.82365 0.053434,-1.06318 0.9050683,-1.76516 1.5992154,-1.31821 6.9239422,-3.85886 10.3132582,-4.92088 4.683073,-1.46741 4.27031,-1.16694 4.454023,-3.24238 0.32095,-3.62586 0.977316,-7.07301 1.876179,-9.85347 l 0.920287,-2.84674 v -8.26047 c 0,-5.15955 0.102267,-8.45155 0.272426,-8.7695 0.149836,-0.27997 0.642061,-0.70018 1.093837,-0.9338 0.771298,-0.39885 0.863632,-0.39329 1.51351,0.0912 0.688943,0.51358 0.692705,0.53653 0.824394,5.03105 0.07276,2.48331 0.207086,4.58952 0.298502,4.68046 0.09142,0.0909 0.76462,-0.58413 1.49601,-1.50017 3.07603,-3.85259 7.604268,-7.67295 12.19423,-10.28797 1.328483,-0.75687 2.415423,-1.47209 2.415423,-1.58938 0,-0.24384 -14.135729,-11.91024 -14.963213,-12.34934 -1.154049,-0.61238 -1.299382,-0.13529 -1.440952,4.73016 -0.131768,4.52854 -0.135038,4.54862 -0.824394,5.06239 -0.649862,0.48433 -0.742233,0.48989 -1.51351,0.091 -0.451776,-0.23362 -0.944001,-0.65383 -1.093837,-0.9338 -0.155676,-0.29088 -0.269936,-2.35907 -0.266616,-4.82591 0.0067,-5.01876 0.257974,-5.89207 2.118905,-7.36595 0.958432,-0.75909 1.348944,-0.9003 2.482861,-0.89778 0.858959,0.002 1.61181,0.17899 2.081829,0.48968 0.404952,0.26769 4.57214,3.63298 9.260416,7.47842 9.62302,7.89306 8.3762,7.26664 12.310329,6.18487 6.492888,-1.78535 15.262168,-1.7752 21.944839,0.0254 3.81598,1.0282 2.651258,1.60989 11.84584,-5.91611 10.913739,-8.93317 9.971815,-8.26525 11.655903,-8.26525 1.173711,0 1.574237,0.1336 2.397115,0.79962 0.543375,0.43978 1.233781,1.12876 1.534239,1.53106 0.535892,0.71753 0.548952,1.06956 0.686242,18.50551 l 0.13997,17.77408 0.74261,2.11666 c 0.89166,2.5415 1.64329,6.29384 1.89884,9.47957 0.16402,2.04468 0.25746,2.36305 0.74967,2.55424 0.30926,0.12012 1.97652,0.65623 3.70502,1.19134 3.45069,1.06827 8.80725,3.64729 10.35605,4.98612 1.17725,1.01765 1.3287,2.11768 0.39561,2.87326 -0.8206,0.66448 -1.28908,0.60531 -2.79624,-0.35319 -3.42271,-2.17672 -11.11425,-5.2929 -12.1157,-4.9086 -0.22663,0.087 -0.49845,0.8629 -0.68326,1.95042 -0.1688,0.99331 -0.60543,2.9371 -0.97029,4.31955 l -0.66338,2.51354 0.60891,0.47344 c 0.33489,0.26039 1.5614,1.16568 2.72557,2.01175 2.60845,1.89573 5.68854,5.05538 5.68854,5.83548 0,0.72065 -1.13047,1.86579 -1.84188,1.86579 -0.32259,0 -1.39462,-0.84023 -2.64087,-2.06984 -2.25821,-2.22808 -5.17149,-4.34503 -5.810202,-4.22202 -0.216805,0.0418 -0.996445,1.11966 -1.732529,2.39536 -1.500034,2.59968 -3.398456,5.16446 -3.990972,5.39183 -0.215434,0.0827 -0.806561,0.0725 -1.313617,-0.0226 -0.710771,-0.13334 -0.965268,-0.33694 -1.111204,-0.88896 -0.277953,-1.05141 -0.181489,-1.29392 1.49512,-3.75873 1.834835,-2.69741 2.742332,-4.42738 2.564958,-4.88962 -0.15857,-0.41322 -2.980383,-1.5036 -5.85943,-2.26415 -1.263603,-0.3338 -2.303275,-0.77616 -2.579688,-1.09762 -0.661437,-0.76923 -0.581202,-1.86409 0.189678,-2.58829 0.564689,-0.5305 0.832162,-0.59193 1.983634,-0.45555 0.732014,0.0867 2.783456,0.64327 4.558757,1.23684 1.775301,0.59356 3.371112,1.02422 3.546247,0.95701 0.374505,-0.14371 1.36602,-4.21771 1.481561,-6.08754 0.07553,-1.22225 0.03721,-1.31012 -0.654193,-1.50029 -1.412899,-0.38861 -8.505912,-0.80425 -10.75483,-0.63022 -2.077067,0.16074 -2.330654,0.1269 -2.996687,-0.39981 -0.939183,-0.74274 -0.993952,-2.04663 -0.120441,-2.86725 0.505458,-0.47485 1.04839,-0.59835 3.241146,-0.73725 2.104765,-0.13333 7.341108,0.10589 10.836065,0.49503 0.461307,0.0514 0.539467,-0.12047 0.609481,-1.33997 0.181404,-3.15969 -1.405712,-8.8869 -3.701036,-13.35543 -3.602969,-7.01424 -9.822841,-12.9729 -17.160504,-16.43982 -3.038864,-1.43581 -6.596123,-2.65563 -6.882262,-2.35999 -0.115321,0.11915 -0.248526,1.66302 -0.29601,3.43083 -0.07287,2.71294 -0.164939,3.30093 -0.590363,3.77032 -0.657894,0.72588 -2.090557,0.73965 -2.803263,0.0269 -0.478324,-0.47833 -0.529166,-0.88195 -0.529166,-4.20094 0,-2.6267 -0.09472,-3.75038 -0.33278,-3.94795 -0.183028,-0.1519 -1.046231,-0.31531 -1.918229,-0.36313 l -1.585449,-0.0869 -0.132292,5.74798 c -0.126,5.47465 -0.159901,5.77556 -0.712904,6.32795 -0.713057,0.71227 -1.993582,0.75835 -2.723263,0.098 -0.501732,-0.45406 -0.532583,-0.80604 -0.532583,-6.07659 0,-3.91123 -0.09292,-5.68754 -0.308819,-5.90344 -0.357222,-0.35722 -3.325582,-0.14819 -3.858368,0.27171 -0.236175,0.18613 -0.330729,1.31041 -0.330729,3.93242 0,3.31899 -0.05084,3.72261 -0.529167,4.20094 -0.787839,0.78784 -2.204093,0.70556 -2.891213,-0.16797 -0.485537,-0.61726 -0.54837,-1.06073 -0.54837,-3.87028 v -3.17313 l -0.994907,0.15909 c -1.390235,0.22231 -5.198309,1.75225 -7.654734,3.07539 -8.211955,4.42331 -14.77114,12.16003 -17.569666,20.72386 -0.946825,2.8974 -1.620301,6.60957 -1.510213,8.32425 0.06901,1.07493 0.156427,1.24658 0.60973,1.19731 7.173473,-0.77969 13.154328,-0.68586 14.128416,0.22164 0.829606,0.77289 0.74713,2.15983 -0.171646,2.88642 -0.664091,0.52519 -0.92392,0.56054 -2.976563,0.40501 -2.199486,-0.16665 -8.744261,0.20932 -10.583332,0.60798 -0.906645,0.19654 -0.924306,0.22535 -0.843241,1.37589 0.09751,1.38398 1.022192,5.51031 1.354312,6.04355 0.190154,0.3053 0.823802,0.17326 3.602149,-0.75066 4.267612,-1.41915 5.918104,-1.62703 6.701144,-0.84399 0.821354,0.82136 0.756904,2.22365 -0.134422,2.92477 -0.383426,0.3016 -0.899546,0.54837 -1.146929,0.54837 -0.726918,0 -6.177335,1.79315 -6.754888,2.22231 -0.523582,0.38906 -0.52083,0.40934 0.260582,1.92032 2.034844,3.93469 6.259214,8.74331 10.44,11.8839 2.557108,1.92088 7.410733,4.49773 10.367129,5.50402 7.572507,2.57751 15.568495,2.90551 23.15357,0.94978 4.980318,-1.28412 8.356898,-2.82653 12.820353,-5.85627 1.349251,-0.91586 2.556362,-1.54281 2.970464,-1.54281 0.898387,0 1.56796,0.99373 1.455539,2.16021 -0.07029,0.72928 -0.370301,1.08717 -1.804099,2.1521 -0.945885,0.70255 -1.756349,1.43837 -1.801032,1.63516 -0.04824,0.21247 0.650322,0.74231 1.719792,1.30442 5.979019,3.14252 9.60624,9.10452 9.60624,15.78961 0,1.61277 -0.362725,4.29292 -1.190625,8.79746 -0.654844,3.56295 -1.190625,6.78645 -1.190625,7.16332 0,0.61753 0.09974,0.68521 1.00974,0.68521 4.471424,0 8.291508,2.30912 10.067398,6.08542 0.58706,1.24833 0.69864,1.89853 0.78488,4.5736 0.10999,3.41172 -0.14829,4.53451 -1.10191,4.7903 -0.62286,0.16707 -93.726321,0.14732 -95.0298956,-0.0202 z m 32.5324556,-4.64738 c -0.112003,-0.47294 -0.24789,-6.53388 -0.301974,-13.46875 l -0.09833,-12.60886 0.704501,-0.55416 c 0.387474,-0.30479 0.861436,-0.55416 1.053245,-0.55416 0.699614,0 1.645359,0.60321 1.931967,1.23225 0.201168,0.44152 0.293759,4.33954 0.293759,12.36711 0,11.72174 3.1e-5,11.72243 0.595312,12.59452 0.70956,1.03951 2.13143,1.85195 3.241146,1.85195 1.027668,0 2.478547,-0.77863 3.166485,-1.69933 0.516515,-0.69127 0.542888,-1.17974 0.669973,-12.40857 0.130122,-11.49732 0.142266,-11.71066 0.740661,-13.01189 0.771565,-1.67779 2.198055,-3.16068 3.889547,-4.04333 1.827387,-0.95357 4.688805,-0.97601 6.60342,-0.0518 1.659043,0.80085 3.046907,2.18258 3.868018,3.85093 l 0.641061,1.30252 0.132292,11.77396 c 0.130924,11.65227 0.13839,11.78251 0.722395,12.60123 1.62325,2.27567 4.973454,2.14738 6.432996,-0.24633 0.498531,-0.81761 0.515581,-1.48192 0.516536,-20.12481 l 0.0011,-19.27928 -0.595312,0.15072 c -0.327422,0.0829 -2.143125,0.56263 -4.034896,1.06608 -7.5639,2.01293 -15.449576,1.92754 -23.018749,-0.24926 -1.309687,-0.37665 -2.639441,-0.74657 -2.955004,-0.82206 -0.563337,-0.13474 -0.57535,-0.0739 -0.661458,3.35305 -0.08284,3.29669 -0.122351,3.51831 -0.712327,3.99547 -0.824961,0.66722 -1.843884,0.63974 -2.599471,-0.0701 -0.579077,-0.54402 -0.612584,-0.76335 -0.616415,-4.0349 -0.0021,-1.90279 -0.107146,-3.62234 -0.233146,-3.82123 -0.559599,-0.88332 -4.862359,1.29856 -7.175018,3.63836 -2.738427,2.77057 -4.216032,6.21967 -4.225541,9.86349 -0.0021,0.82421 0.705755,5.32345 1.573125,9.99832 1.088607,5.86728 1.506868,8.68431 1.350478,9.09564 -0.446024,1.17314 -0.956355,1.33816 -4.608255,1.49014 -3.179109,0.13231 -3.585358,0.20741 -4.718114,0.87218 -1.45548,0.85417 -2.25639,1.88824 -2.760929,3.5647 -0.388694,1.29153 -0.480153,2.77836 -0.188825,3.06969 0.09694,0.097 4.99202,0.17639 10.877877,0.17639 h 10.701557 z m 23.759519,0.70369 c 0.08592,-0.0859 -0.01331,-0.63667 -0.220488,-1.22389 -0.30236,-0.85698 -0.376989,-3.21491 -0.378174,-11.94848 -7.94e-4,-6.57081 -0.108241,-11.26519 -0.27101,-11.85121 -0.337405,-1.21479 -1.741326,-2.47364 -3.027881,-2.71499 -1.331206,-0.24974 -3.238751,0.69443 -3.971237,1.96561 -0.505513,0.8773 -0.542163,1.53891 -0.696172,12.56771 -0.08941,6.40292 -0.251756,12.02862 -0.360759,12.50156 l -0.198191,0.8599 h 4.483848 c 2.466118,0 4.554146,-0.0703 4.640064,-0.15621 z m 36.022269,-1.62531 c -0.0326,-2.12577 -1.00389,-3.80381 -2.86904,-4.95695 -1.224383,-0.75697 -1.480132,-0.80708 -4.826902,-0.94563 -3.113563,-0.1289 -3.599497,-0.21179 -4.084391,-0.69668 -0.342268,-0.34227 -0.548926,-0.88775 -0.546547,-1.44261 0.0021,-0.49073 0.668856,-4.45636 1.481667,-8.81252 0.84547,-4.53119 1.47784,-8.66807 1.47784,-9.66785 0,-5.15664 -3.129724,-10.16783 -7.773262,-12.44624 -1.181737,-0.57984 -2.446268,-1.08399 -2.810071,-1.12035 l -0.661458,-0.0661 -0.133855,19.84375 c -0.101201,15.00259 -0.214162,20.02546 -0.463021,20.58858 -0.707792,1.60158 -1.325287,1.51645 10.452605,1.44095 l 10.781775,-0.0691 -0.0254,-1.64923 z m -5.13404,-112.3829 c 0,-11.1769 -0.04617,-12.57937 -0.426677,-12.95987 -0.392512,-0.39251 -0.482547,-0.39024 -1.124479,0.0283 -1.293731,0.84361 -14.853009,12.03849 -14.853009,12.26302 0,0.12231 0.922734,0.71941 2.05052,1.32687 4.325406,2.32983 9.46009,6.63169 12.554278,10.51803 0.724569,0.91007 1.425845,1.58766 1.558385,1.50574 0.139433,-0.0862 0.240982,-5.43035 0.240982,-12.68213 z m -37.998041,62.1588 c -2.280938,-0.84247 -4.59437,-3.75299 -4.603485,-5.79164 -0.0065,-1.44957 -0.302942,-2.00923 -1.346263,-2.54149 -2.364941,-1.2065 -3.925869,-3.58817 -3.935981,-6.00552 -0.0069,-1.63998 0.602236,-2.44739 1.846273,-2.44739 1.049583,0 1.804421,0.79938 2.018395,2.1375 0.339325,2.12201 2.325856,3.50788 4.160406,2.90242 1.256204,-0.41458 1.995776,-1.31451 2.428554,-2.9551 0.4147,-1.57204 0.913146,-2.08482 2.026547,-2.08482 1.001353,0 1.757336,0.82116 1.967826,2.1375 0.342196,2.13997 2.324639,3.50828 4.190653,2.89244 1.167468,-0.3853 2.186881,-1.59188 2.412071,-2.85492 0.348792,-1.95632 1.965359,-2.76836 3.321965,-1.66871 0.514157,0.41678 0.617935,0.73383 0.586804,1.79279 -0.07281,2.47687 -1.419027,4.65767 -3.653737,5.91886 -1.350386,0.76211 -1.408028,0.84118 -1.584309,2.17344 -0.531117,4.0139 -3.11295,6.54079 -6.856791,6.71087 -1.233186,0.056 -2.268693,-0.0539 -2.978928,-0.31623 z m 3.85657,-3.94847 c 1.1489,-0.59411 1.862306,-1.65883 1.862306,-2.77936 0,-0.92212 -0.0999,-1.04223 -1.614768,-1.94136 l -1.61477,-0.95843 -0.8338,0.63597 c -0.458589,0.34978 -1.175861,0.76602 -1.593935,0.92497 -0.714951,0.27182 -0.752128,0.36004 -0.62543,1.4841 0.149845,1.3294 0.727753,2.12964 1.917079,2.65462 1.040116,0.45912 1.584449,0.45466 2.503318,-0.0205 z m -1.974152,-17.06228 c -0.291041,-0.12233 -2.234247,-1.94823 -4.318235,-4.05755 -3.486549,-3.52893 -3.78229,-3.90383 -3.704167,-4.69559 0.187265,-1.89786 2.977317,-2.7689 8.816152,-2.75232 5.943536,0.0169 8.598958,0.90899 8.598958,2.88894 0,0.71248 -0.552389,1.37312 -4.054139,4.84867 -2.229778,2.21309 -4.224075,4.01626 -4.43177,4.00704 -0.207698,-0.009 -0.615757,-0.11686 -0.906799,-0.23919 z m 1.847342,-6.08918 c 0.56578,-0.57942 0.949465,-1.13271 0.852633,-1.22954 -0.09683,-0.0968 -1.014164,-0.17606 -2.038517,-0.17606 -1.024352,0 -1.941684,0.0792 -2.038516,0.17606 -0.169524,0.16952 1.717627,2.28301 2.038516,2.28301 0.08646,0 0.620102,-0.47406 1.185884,-1.05347 z M 41.155367,202.02404 c -0.67214,-0.74345 -0.608682,-2.75472 0.135416,-4.29182 2.136251,-4.4129 7.714752,-5.63038 11.307611,-2.46782 1.473822,1.29731 2.46657,3.28396 2.47015,4.94316 0.0036,1.64967 -0.552791,2.37398 -1.823495,2.37398 -1.253164,0 -1.79293,-0.56173 -2.040578,-2.12358 -0.130368,-0.82222 -0.449344,-1.44632 -1.044474,-2.04361 -0.742344,-0.74504 -1.036463,-0.8599 -2.201984,-0.8599 -1.803278,0 -2.808787,0.87555 -3.340722,2.90893 -0.209161,0.79955 -0.584745,1.60322 -0.83463,1.78594 -0.712597,0.52106 -2.056736,0.40581 -2.627294,-0.22528 z m 26.615761,0.0283 c -1.179925,-1.17992 -0.304583,-4.70824 1.621245,-6.53488 2.045796,-1.94044 5.456267,-2.57104 7.946774,-1.46937 2.294358,1.01491 3.9972,3.33608 4.350144,5.92975 0.209883,1.54236 -0.564118,2.60367 -1.898825,2.60367 -1.172699,0 -1.836856,-0.67884 -2.06597,-2.11163 -0.264051,-1.65129 -1.59127,-2.91546 -3.060882,-2.91546 -2.023838,0 -3.137395,0.99033 -3.550549,3.15764 -0.09527,0.49978 -0.368853,1.12485 -0.60796,1.38907 -0.589346,0.65121 -2.06022,0.62497 -2.733977,-0.0488 z"
         id="path91"
         inkscape:connector-curvature="0" />
      <path
         style="fill:#050403;stroke-width:0.26458332"
         d="m 9.6950897,295.00239 c -0.4365625,-0.0572 -0.9723437,-0.17569 -1.190625,-0.26327 -0.2182812,-0.0876 -1.1181336,-0.41126 -1.9996717,-0.71926 -4.8738637,-1.70292 -8.7275653,-5.88095 -10.0273822,-10.87128 -0.3348961,-1.28575 -0.4083621,-3.45678 -0.4083621,-12.06768 0,-9.68882 0.040142,-10.62976 0.519675,-12.18139 1.0017005,-3.24121 3.43424331,-6.10977 6.4326608,-7.58568 2.0406811,-1.00448 3.5276269,-1.35707 5.7582207,-1.36541 3.5256148,-0.0132 6.6054408,1.26767 9.1324928,3.79805 7.328397,7.33804 3.315861,19.88257 -6.918791,21.63045 -1.0213925,0.17443 -2.3720666,0.22984 -3.0623158,0.12562 -5.2426833,-0.79159 -6.1252316,-8.28378 -1.217351,-10.33442 1.9742046,-0.82487 3.6429078,-0.34712 3.6429078,1.04297 0,1.08612 -0.291237,1.44481 -1.4162677,1.74427 -1.3016235,0.34646 -1.9170133,0.84161 -2.1374252,1.71981 -0.2225368,0.88665 0.4993317,2.18099 1.3330739,2.39024 1.2785722,0.3209 3.480273,-0.0983 5.127509,-0.97626 1.922604,-1.02474 3.260825,-2.44125 4.200924,-4.4467 0.591166,-1.26108 0.697074,-1.84867 0.697222,-3.86821 1.45e-4,-2.02585 -0.104886,-2.60535 -0.703728,-3.8828 -0.922592,-1.96806 -2.592924,-3.74891 -4.299276,-4.58375 -4.9468857,-2.42029 -10.5714321,-0.42716 -12.94755801,4.58812 l -0.8346818,1.76177 -0.084492,9.35952 c -0.0931757,10.32141 0.0519589,11.95553 1.29534147,14.58466 0.97601824,2.06379 3.53105854,4.63835 5.58268504,5.62533 2.151976,1.03525 3.6446064,1.28225 7.2348953,1.19722 l 3.169486,-0.0751 0.187471,-1.87899 c 0.274203,-2.74828 1.072618,-4.62697 2.724803,-6.41153 1.915004,-2.06843 3.79812,-2.97148 6.660491,-3.19405 1.203267,-0.0936 2.316858,-0.29922 2.47465,-0.45701 0.20614,-0.20614 -0.05939,-2.14069 -0.943327,-6.87266 -0.676624,-3.62216 -1.293063,-7.47873 -1.369864,-8.57013 -0.307821,-4.37439 1.513448,-9.54036 4.542443,-12.88448 1.51288,-1.67027 4.241244,-3.66309 6.030103,-4.40442 0.545703,-0.22615 0.992187,-0.57484 0.992187,-0.77486 0,-0.20002 -0.863203,-0.94766 -1.918229,-1.66142 -4.168529,-2.82014 -9.971142,-9.40549 -12.249805,-13.90222 -0.351214,-0.69308 -0.765376,-1.33852 -0.920364,-1.43431 -0.456298,-0.28201 -3.614002,1.94402 -5.906577,4.16384 -1.771754,1.71553 -2.269906,2.05829 -2.991489,2.05829 -0.964624,0 -1.413534,-0.55317 -1.413534,-1.7418 0,-0.96085 3.284109,-4.1914 6.416145,-6.31151 1.591175,-1.07709 2.315104,-1.72944 2.315104,-2.0862 0,-0.28548 -0.230195,-1.30581 -0.511545,-2.26739 -0.28135,-0.96157 -0.646647,-2.52222 -0.811771,-3.4681 -0.521449,-2.98703 -0.490617,-2.91042 -1.171406,-2.91042 -1.723318,0 -8.373055,2.6851 -11.3228322,4.57205 -1.7117903,1.09502 -1.929862,1.16259 -2.9133111,0.90274 -0.7928199,-0.20948 -1.1651548,-1.08612 -0.8641352,-2.03454 0.4013462,-1.26454 7.1149865,-4.69572 12.1635335,-6.2165 1.74212,-0.52478 3.242712,-1.07586 3.33465,-1.22461 0.09193,-0.14876 0.242453,-1.48231 0.334481,-2.96345 0.185771,-2.98985 0.870468,-6.36578 1.780412,-8.7784 0.565796,-1.50014 0.607251,-2.08565 0.753354,-10.64048 0.167513,-9.80836 0.138276,-9.63145 1.653037,-10.00253 0.519673,-0.12731 0.849622,-0.0277 1.256771,0.37946 0.515427,0.51543 0.552365,0.84644 0.556146,4.98387 0.0044,4.86807 0.18892,5.6523 1.073584,4.56406 4.83957,-5.95325 9.02781,-9.54078 14.394351,-12.32977 1.012508,-0.5262 1.452965,-0.90664 1.402551,-1.21143 -0.07476,-0.45195 -15.089906,-12.91713 -15.559547,-12.91713 -0.141161,0 -0.494781,0.23812 -0.785823,0.52916 -0.485069,0.48507 -0.529167,0.88195 -0.529167,4.7625 0,3.93916 -0.03836,4.2717 -0.552095,4.78543 -0.407149,0.40715 -0.737098,0.50677 -1.256771,0.37946 -1.443987,-0.35374 -1.498425,-0.55857 -1.498425,-5.63791 0,-5.23967 0.227621,-6.14819 1.818558,-7.2585 0.455001,-0.31755 0.9096,-0.6979 1.010221,-0.84524 0.235601,-0.34498 3.097353,-0.35067 3.338274,-0.007 0.100621,0.14368 0.480603,0.45252 0.844405,0.6863 0.363802,0.23379 4.460086,3.53721 9.102851,7.34094 6.32143,5.17902 8.565364,6.87652 8.935024,6.75919 6.534168,-2.07386 14.517655,-2.72307 20.855873,-1.69597 1.680408,0.27231 6.319308,1.37652 7.17918,1.70888 0.356804,0.13791 9.384024,-6.96705 18.733367,-14.74427 0.539004,-0.44837 2.989609,-0.39958 3.571626,0.0711 1.50613,1.21803 2.243479,2.11573 2.501665,3.04567 0.19678,0.70879 0.2909,6.50399 0.29199,17.97925 0.002,16.42626 0.0178,16.97605 0.54378,18.35983 0.95693,2.51772 1.8492,6.70073 2.00968,9.42142 0.16215,2.74912 0.54518,3.83344 1.35658,3.84035 0.94734,0.008 6.90944,2.18816 9.45275,3.45647 3.56881,1.77969 5.15938,2.96218 5.15938,3.83564 0,1.93787 -1.4952,2.25924 -3.76517,0.80927 -2.29472,-1.46577 -5.1154,-2.78973 -7.99993,-3.75495 -3.61058,-1.20817 -4.04236,-1.19987 -4.23542,0.0815 -0.0822,0.5457 -0.50434,2.49441 -0.93803,4.33046 -0.43369,1.83605 -0.78853,3.45333 -0.78853,3.59397 0,0.14063 0.97051,0.88782 2.15669,1.66042 1.18618,0.7726 3.15071,2.37009 4.36562,3.54998 1.95099,1.89475 2.20894,2.25492 2.20894,3.08433 0,1.1409 -0.387,1.57407 -1.40626,1.57407 -0.60029,0 -1.25892,-0.46161 -2.97097,-2.08221 -2.44595,-2.3153 -5.25246,-4.31254 -5.777063,-4.11123 -0.188217,0.0722 -0.889455,1.10834 -1.558314,2.30248 -1.755368,3.13394 -3.511915,5.43793 -4.295841,5.63468 -0.416549,0.10455 -0.910042,0.006 -1.323692,-0.26545 -1.076859,-0.70558 -0.864846,-1.65132 0.994116,-4.43453 1.861053,-2.78633 2.715239,-4.51096 2.50525,-5.05818 -0.149839,-0.39047 -3.758329,-1.7559 -6.366388,-2.40899 -0.850318,-0.21293 -1.773052,-0.59259 -2.050521,-0.8437 -0.663718,-0.60066 -0.640395,-1.56155 0.05477,-2.25672 0.741511,-0.74151 2.145165,-0.55766 6.393632,0.83741 1.749931,0.57462 3.337579,1.04477 3.528108,1.04477 0.414319,0 1.01609,-1.92185 1.600909,-5.11274 0.370083,-2.01926 0.377015,-2.38548 0.05131,-2.71118 -0.579381,-0.57938 -4.105923,-0.96239 -9.401494,-1.02106 -5.322567,-0.059 -5.642142,-0.15143 -5.642142,-1.63236 0,-0.67291 0.173215,-1.00099 0.716264,-1.35666 0.626896,-0.41059 1.328391,-0.46415 5.622396,-0.42923 2.698372,0.0219 5.739569,0.16782 6.758215,0.32419 2.232472,0.34269 2.508123,0.13454 2.328777,-1.75845 -0.827595,-8.73526 -4.264342,-15.93384 -10.644467,-22.29582 -3.293216,-3.28384 -5.995347,-5.23813 -10.02099,-7.24757 -2.795003,-1.39516 -7.065375,-2.90321 -7.61923,-2.69067 -0.287819,0.11044 -0.370998,0.83524 -0.374031,3.25919 -0.0046,3.67481 -0.252682,4.39985 -1.548235,4.52483 -0.558753,0.0539 -1.062247,-0.0814 -1.38303,-0.37174 -0.44925,-0.40657 -0.504418,-0.85159 -0.504418,-4.06908 0,-2.47874 -0.103804,-3.75085 -0.330729,-4.05311 -0.242292,-0.32273 -0.825984,-0.46007 -2.182812,-0.5136 l -1.852084,-0.0731 -0.132291,5.82083 c -0.07276,3.20146 -0.233154,5.97701 -0.356431,6.16788 -0.585825,0.90708 -2.259346,0.87459 -2.880664,-0.0559 -0.106913,-0.16011 -0.19621,-2.73891 -0.198438,-5.73065 -0.003,-3.98296 -0.0943,-5.56296 -0.3411,-5.90048 -0.288486,-0.39453 -0.596292,-0.43438 -2.136318,-0.2766 -0.989599,0.10139 -1.969021,0.35409 -2.176494,0.56156 -0.290057,0.29006 -0.377222,1.2193 -0.377222,4.02149 0,3.24864 -0.05476,3.69381 -0.504417,4.10075 -0.320784,0.2903 -0.824278,0.42564 -1.38303,0.37174 -1.292619,-0.1247 -1.543632,-0.85236 -1.548236,-4.48822 -0.003,-2.35763 -0.08874,-3.11311 -0.365442,-3.21929 -1.101482,-0.42267 -8.208412,2.75927 -12.206165,5.46501 -2.900868,1.96334 -7.708979,6.7092 -9.58782,9.46368 -3.676023,5.38924 -6.338392,13.0758 -6.102331,17.61811 0.07522,1.44732 0.117224,1.53276 0.741193,1.50748 0.363802,-0.0147 2.447396,-0.1761 4.630208,-0.35858 4.385582,-0.36662 8.391702,-0.18986 9.326562,0.41151 0.712285,0.45819 0.822711,1.96931 0.182727,2.50045 -0.298876,0.24805 -1.775545,0.35898 -5.357813,0.40248 -5.257823,0.0639 -8.689426,0.43717 -9.259545,1.00729 -0.287552,0.28755 -0.280109,0.73665 0.04287,2.58703 0.214953,1.2315 0.587804,2.91667 0.828556,3.74483 0.505251,1.738 0.691369,1.80058 2.837786,0.95406 1.827665,-0.7208 5.973513,-1.82804 6.847953,-1.82889 1.285555,-10e-4 2.043613,1.66263 1.231633,2.70333 -0.181901,0.23314 -1.283229,0.67603 -2.447396,0.98419 -3.109513,0.8231 -5.984533,1.90663 -6.141016,2.31442 -0.216273,0.56359 0.428649,1.862 2.340967,4.71301 11.942347,17.80446 36.985103,22.39602 55.07954,10.09877 1.427888,-0.97042 2.826872,-1.76439 3.108855,-1.76439 0.700164,0 1.571026,0.92529 1.571026,1.66922 0,0.7955 -0.324241,1.16957 -2.315104,2.67091 -0.909505,0.68588 -1.653645,1.36338 -1.653645,1.50557 0,0.14219 0.536601,0.48854 1.192445,0.76966 4.321831,1.85255 7.984648,5.98044 9.553281,10.76624 0.674719,2.05854 0.762206,2.69959 0.751274,5.50486 -0.01037,2.65913 -0.214924,4.22572 -1.25901,9.64182 -0.858303,4.45239 -1.161425,6.55203 -0.973092,6.74037 0.150447,0.15044 1.283041,0.35203 2.516875,0.44797 3.905783,0.3037 6.775013,2.26083 8.397493,5.728 0.75042,1.6036 0.84139,2.07655 0.94195,4.89704 0.097,2.72027 0.0507,3.18897 -0.3595,3.64226 -0.25895,0.28613 -0.36306,0.52861 -0.23137,0.53884 0.1317,0.0102 0.001,0.12092 -0.28972,0.24599 -0.50575,0.21733 -93.34114,0.29676 -94.9854143,0.0813 z m 32.7909193,-3.75727 c 0.08036,-0.13002 -0.03168,-0.7403 -0.248967,-1.35618 -0.32837,-0.93069 -0.395079,-3.16925 -0.395079,-13.25734 0,-11.78479 0.01537,-12.15295 0.529167,-12.66673 0.664667,-0.66467 1.352145,-0.67221 2.153502,-0.0236 l 0.624623,0.50555 0.132291,12.17548 c 0.127963,11.777 0.150146,12.19937 0.677807,12.9057 1.009266,1.35101 1.893147,1.82126 3.423235,1.82126 1.530016,0 2.41383,-0.47018 3.423234,-1.82112 0.52668,-0.70489 0.550082,-1.1337 0.677807,-12.41907 l 0.132292,-11.68897 0.738211,-1.50326 c 1.344631,-2.73815 3.797758,-4.28254 6.802413,-4.28254 2.987543,0 5.386488,1.47316 6.836646,4.1983 l 0.703979,1.32291 0.132292,11.77396 c 0.09673,8.60875 0.219599,11.92632 0.457057,12.34073 1.430774,2.49697 4.650404,2.85695 6.694201,0.74848 l 0.918533,-0.94759 0.07112,-19.72761 0.07113,-19.72761 -0.732586,0.12572 c -0.402921,0.0692 -1.80273,0.44454 -3.110688,0.83419 -3.992345,1.18937 -6.958602,1.57914 -12.041687,1.58232 -5.027437,0.003 -8.08393,-0.40396 -12.170832,-1.62104 -1.236927,-0.36836 -2.57638,-0.72599 -2.976563,-0.79474 l -0.727604,-0.12498 v 3.30164 c 0,2.93955 -0.06014,3.3781 -0.54837,3.99878 -0.634722,0.80692 -1.678043,0.91928 -2.407359,0.25926 -0.423971,-0.38369 -0.483854,-0.88724 -0.483854,-4.06865 0,-4.21889 -0.118229,-4.48201 -1.775698,-3.95193 -6.456002,2.06475 -10.742236,8.16689 -10.308756,14.67617 0.07753,1.16416 0.797809,5.60825 1.600626,9.87575 1.544783,8.21152 1.573069,8.90569 0.372874,9.15053 -0.332568,0.0678 -1.92583,0.18099 -3.540579,0.25143 -1.6489,0.0719 -3.330684,0.29349 -3.836459,0.5054 -2.214856,0.928 -3.880881,3.18686 -4.129883,5.59946 -0.249711,2.41947 -1.014048,2.26638 11.315908,2.26638 6.056529,0 10.864077,-0.10383 10.946013,-0.23641 z m 23.562021,-0.0228 c 0.08812,-0.14258 -0.02392,-0.80158 -0.248968,-1.46446 -0.343347,-1.01129 -0.409183,-2.97823 -0.409183,-12.22492 0,-10.60481 -0.02064,-11.06234 -0.547939,-12.15161 -0.559163,-1.15507 -1.648357,-2.00509 -2.967704,-2.31602 -1.774143,-0.4181 -4.139999,1.11093 -4.690859,3.03166 -0.151577,0.52852 -0.260165,5.44931 -0.260165,11.78969 0,8.97504 -0.06925,11.07881 -0.395078,12.00231 -0.217292,0.61588 -0.32933,1.22616 -0.248968,1.35618 0.202171,0.32712 9.566108,0.30525 9.768864,-0.0228 z m 35.82734,0.0169 c 0.52298,-0.33114 0.24114,-3.06322 -0.45722,-4.43212 -0.63097,-1.2368 -2.139178,-2.641 -3.404447,-3.16966 -0.493294,-0.20611 -2.354995,-0.44408 -4.209534,-0.53807 -3.699242,-0.18747 -4.072625,-0.35504 -4.072625,-1.82768 0,-0.5014 0.663731,-4.45172 1.474957,-8.7785 1.291381,-6.88775 1.459801,-8.16324 1.353206,-10.24811 -0.228304,-4.46538 -2.393011,-8.40887 -6.010407,-10.94927 -2.153084,-1.51205 -5.142926,-2.65944 -5.63867,-2.16391 -0.225486,0.22539 -0.342403,5.67045 -0.439502,20.46846 -0.09254,14.10348 -0.220925,20.32038 -0.427268,20.69055 -0.663879,1.19095 -0.664757,1.19085 10.701919,1.18657 5.917848,-0.002 10.926161,-0.10943 11.129591,-0.23824 z M 96.811714,177.44774 c 0.05976,-11.12028 0.01588,-12.86733 -0.336827,-13.4056 -0.223049,-0.34041 -0.565391,-0.61893 -0.76076,-0.61893 -0.525941,0 -15.627455,12.42723 -15.71337,12.93074 -0.04953,0.29026 0.425019,0.68956 1.45519,1.22446 5.109143,2.65287 10.332563,7.02318 13.690165,11.45425 0.576919,0.76137 1.172231,1.34323 1.322917,1.29302 0.182594,-0.0608 0.296891,-4.35599 0.342685,-12.87794 z m -38.438836,61.28708 c -2.451275,-1.14148 -4.077809,-3.38397 -4.089689,-5.63841 -0.008,-1.52267 -0.203131,-1.90467 -1.181621,-2.31351 -3.801176,-1.58823 -5.796399,-8.09303 -2.482384,-8.09303 0.833586,0 1.425842,0.65439 1.676239,1.85208 0.340706,1.62965 0.901763,2.40134 2.146088,2.95176 2.379929,1.05276 4.406042,-0.14508 4.992825,-2.95176 0.254381,-1.21676 0.845155,-1.85208 1.722209,-1.85208 0.886982,0 1.529797,0.68616 1.751357,1.86945 0.411488,2.19764 2.305103,3.6632 4.259416,3.29657 1.278069,-0.23977 2.626529,-1.70287 2.855383,-3.09813 0.228618,-1.39384 0.782317,-2.06921 1.692039,-2.06384 0.909294,0.005 1.258295,0.25458 1.594361,1.13851 0.342365,0.90048 -0.03414,2.81732 -0.795285,4.04887 -0.681548,1.10277 -2.288299,2.54198 -3.310665,2.96546 -0.748591,0.31008 -0.83562,0.48259 -1.097724,2.17592 -0.165362,1.06833 -0.574903,2.33438 -0.977151,3.02077 -1.706695,2.91225 -5.666891,4.1296 -8.755398,2.69137 z m 4.096149,-3.23936 c 1.343874,-0.53771 2.191528,-1.83473 2.077421,-3.17874 -0.07492,-0.88248 -0.240012,-1.06855 -1.774037,-1.99947 -1.524902,-0.92538 -1.734827,-0.98715 -2.1323,-0.62744 -0.242483,0.21944 -0.969624,0.68077 -1.615866,1.02516 -1.136695,0.60577 -1.174457,0.66616 -1.158608,1.85291 0.01836,1.37449 0.714817,2.36188 2.100284,2.97766 1.032465,0.45888 1.241557,0.4547 2.503106,-0.0501 z m -1.97394,-17.56178 c -0.291041,-0.1209 -2.166276,-1.87795 -4.167187,-3.90457 -3.675039,-3.72225 -3.986533,-4.21658 -3.375956,-5.35745 0.799682,-1.49422 8.028833,-2.33712 12.578521,-1.46662 2.943566,0.5632 3.93937,1.1093 4.045532,2.21859 0.07937,0.82933 -0.169127,1.14287 -3.704167,4.67365 -2.084083,2.08157 -4.027368,3.84577 -4.31841,3.92044 -0.291041,0.0747 -0.767291,0.0369 -1.058333,-0.084 z m 2.093346,-5.80326 c 0.555562,-0.56895 0.929886,-1.16426 0.831832,-1.32292 -0.219416,-0.35502 -3.825494,-0.38026 -4.3785,-0.0306 -0.325911,0.20604 -0.212412,0.43668 0.64901,1.31886 0.574199,0.58803 1.233794,1.06915 1.46577,1.06915 0.231977,0 0.876324,-0.4655 1.431888,-1.03445 z M 41.463987,201.90118 c -1.005948,-1.00595 -0.25319,-4.28692 1.384348,-6.03384 2.393148,-2.55298 6.940674,-2.70774 9.754827,-0.33196 1.191014,1.00548 2.203384,3.16401 2.203384,4.69796 0,1.4573 -0.477192,2.08361 -1.5875,2.08361 -1.00748,0 -1.550511,-0.59734 -1.760881,-1.937 -0.220277,-1.40274 -1.776934,-3.07527 -2.904345,-3.12055 -1.237644,-0.0497 -1.776023,0.0588 -2.550289,0.51394 -0.773745,0.45483 -1.780318,2.22503 -1.780318,3.13094 0,1.20143 -1.876663,1.87946 -2.759226,0.9969 z m 26.443016,-0.10943 c -0.384109,-0.42444 -0.446165,-0.80758 -0.323419,-1.99686 0.446635,-4.32749 4.77671,-6.96903 9.234484,-5.63345 2.335583,0.69976 4.461695,3.51158 4.539343,6.00336 0.04816,1.5455 -0.385691,2.15215 -1.539132,2.15215 -1.060251,0 -1.618012,-0.60361 -1.846286,-1.99808 -0.228251,-1.39433 -1.08395,-2.43383 -2.363719,-2.87145 -2.195184,-0.75064 -4.163263,0.48205 -4.670488,2.92534 -0.308618,1.48661 -0.759949,1.94419 -1.917631,1.94419 -0.350816,0 -0.851733,-0.23634 -1.113152,-0.5252 z"
         id="path89"
         inkscape:connector-curvature="0" />
    </g>
  </g>
</svg>
