<?xml version="1.0" encoding="UTF-8" standalone="no"?>
<!-- Created with Inkscape (http://www.inkscape.org/) -->

<svg
   xmlns:dc="http://purl.org/dc/elements/1.1/"
   xmlns:cc="http://creativecommons.org/ns#"
   xmlns:rdf="http://www.w3.org/1999/02/22-rdf-syntax-ns#"
   xmlns:svg="http://www.w3.org/2000/svg"
   xmlns="http://www.w3.org/2000/svg"
   xmlns:sodipodi="http://sodipodi.sourceforge.net/DTD/sodipodi-0.dtd"
   xmlns:inkscape="http://www.inkscape.org/namespaces/inkscape"
   width="512"
   height="512"
   viewBox="0 0 135.46666 135.46667"
   version="1.1"
   id="svg8"
   inkscape:version="0.92.4 (5da689c313, 2019-01-14)"
   sodipodi:docname="gamepad.svg">
  <defs
     id="defs2" />
  <sodipodi:namedview
     id="base"
     pagecolor="#ffffff"
     bordercolor="#666666"
     borderopacity="1.0"
     inkscape:pageopacity="0.0"
     inkscape:pageshadow="2"
     inkscape:zoom="0.35"
     inkscape:cx="251.77895"
     inkscape:cy="560"
     inkscape:document-units="mm"
     inkscape:current-layer="layer1"
     showgrid="false"
     units="px"
     inkscape:window-width="675"
     inkscape:window-height="740"
     inkscape:window-x="683"
     inkscape:window-y="0"
     inkscape:window-maximized="0" />
  <metadata
     id="metadata5">
    <rdf:RDF>
      <cc:Work
         rdf:about="">
        <dc:format>image/svg+xml</dc:format>
        <dc:type
           rdf:resource="http://purl.org/dc/dcmitype/StillImage" />
        <dc:title></dc:title>
      </cc:Work>
    </rdf:RDF>
  </metadata>
  <g
     inkscape:label="Layer 1"
     inkscape:groupmode="layer"
     id="layer1"
     transform="translate(0,-161.53332)">
    <g
       id="g225"
       transform="matrix(0.93860796,0,0,0.93860796,0.29811864,18.719721)">
      <path
         style="fill:#f5e465;stroke-width:0.26458332"
         d="M 104.02174,279.66656 90.827673,266.47249 v -4.26496 -4.26496 l -2.483172,-0.1086 c -2.206612,-0.0965 -2.700198,-0.21603 -4.431771,-1.07314 -4.94507,-2.44774 -8.001317,-8.01811 -7.133481,-13.0016 0.159552,-0.91621 0.290092,-1.74753 0.290092,-1.84738 0,-0.0998 -2.827735,-0.14963 -6.283854,-0.11062 l -6.283854,0.0709 0.132292,0.79375 c 0.07276,0.43657 0.132291,1.99098 0.132291,3.45424 0,2.54155 -0.04439,2.75026 -0.992865,4.66849 -2.999917,6.06709 -10.622864,8.8156 -16.45527,5.93307 -1.287838,-0.63648 -2.389518,-1.45306 -3.424991,-2.53864 -0.839563,-0.8802 -1.631722,-1.53532 -1.760355,-1.45582 -0.128632,0.0795 -2.346899,3.14651 -4.929478,6.81556 -2.582582,3.66906 -5.381003,7.33886 -6.21871,8.15511 -1.757194,1.71218 -4.442755,3.21464 -6.864772,3.84056 -2.055379,0.53117 -5.410654,0.58151 -7.375431,0.11066 -5.608155,-1.34396 -10.3716615,-6.09771 -11.5443693,-11.52073 -0.6525525,-3.01763 -0.6320652,-3.28032 2.4245666,-31.08854 1.2076527,-10.98682 2.3192942,-21.28572 2.4703137,-22.88645 0.325081,-3.44569 1.25849,-6.85977 2.684539,-9.81911 1.014437,-2.10517 3.586582,-5.82436 4.723069,-6.82932 0.56929,-0.50341 0.58403,-0.50249 1.379234,0.0854 l 0.803794,0.59427 1.17526,-0.96304 c 1.30801,-1.07181 1.354461,-1.2019 0.755578,-2.11591 -0.230824,-0.35228 -0.336754,-0.77469 -0.235399,-0.93868 0.339014,-0.54854 3.145629,-2.20607 5.350924,-3.16015 l 2.182303,-0.94414 3.109363,-4.62342 3.109364,-4.62343 8.790302,-0.0697 8.790302,-0.0697 0.07324,3.90616 0.07324,3.90616 15.934059,0.0682 15.93406,0.0682 0.07323,-3.90467 0.07323,-3.90466 8.753128,-0.0697 8.753125,-0.0697 3.08623,4.63135 3.08622,4.63135 2.50802,1.172 c 7.59953,3.55128 12.89884,9.52917 15.32263,17.2847 0.37473,1.19904 0.80234,3.2231 0.95025,4.49791 0.83612,7.20664 1.66274,15.96285 1.5204,16.1052 -0.0905,0.0905 -0.5576,0.24747 -1.03793,0.34874 -0.85919,0.18116 -0.8721,0.20528 -0.79781,1.49069 0.10579,1.83026 0.19024,1.968 1.2067,1.968 1.18573,0 1.39599,0.31824 1.61715,2.44761 0.19837,1.90995 0.23841,1.84034 -1.24572,2.16554 -0.61754,0.13531 -0.7276,0.29375 -0.7276,1.04736 0,0.48836 0.0744,1.26 0.16536,1.71475 0.15134,0.75671 0.25301,0.82682 1.19893,0.82682 0.58997,0 1.08225,0.14195 1.14699,0.33073 0.22345,0.65155 2.51837,21.79161 2.5171,23.18668 -8e-4,0.78359 -0.1411,2.18346 -0.31198,3.11081 l -0.31067,1.68611 4.01484,4.06761 c 2.20816,2.23719 4.01484,4.22458 4.01484,4.41643 0,0.37714 -21.768,22.32712 -22.59082,22.77968 -0.43462,0.23904 -2.17991,-1.40783 -13.69219,-12.92011 z m -49.918025,-26.5822 c 3.891229,-0.82478 6.118251,-3.55767 6.118251,-7.50803 0,-4.4991 -3.13372,-7.63718 -7.626582,-7.63718 -3.400957,0 -5.83334,1.63869 -6.979497,4.70207 -0.9589,2.56289 -0.704628,5.07812 0.744339,7.3629 0.944544,1.48939 2.298639,2.43003 4.250783,2.95286 1.818243,0.48696 1.799439,0.48628 3.492706,0.12738 z m 36.400053,-0.0845 c 0.08886,-0.0889 0.212876,-2.27176 0.275598,-4.85089 0.07456,-3.06594 0.217154,-4.75663 0.4119,-4.88372 0.163825,-0.10692 1.339662,-0.19621 2.61297,-0.19844 2.640901,-0.005 2.747803,-0.12287 1.663639,-1.84031 -1.349145,-2.13718 -3.540054,-3.24962 -6.400006,-3.24962 -3.24231,0 -5.615075,1.44862 -6.888522,4.20556 -2.078482,4.4998 0.189613,9.52638 4.892092,10.84192 1.186514,0.33193 3.089479,0.31835 3.432329,-0.0245 z m -72.076227,-9.73542 c 0.125394,-0.83496 0.163766,-1.68547 0.08527,-1.89003 -0.165362,-0.43093 -3.276372,-0.87942 -3.629545,-0.52324 -0.123917,0.12497 -0.261884,0.99322 -0.306593,1.92945 -0.07727,1.61805 -0.04857,1.71192 0.58017,1.89789 0.363802,0.10761 1.197239,0.17503 1.852083,0.14984 l 1.190625,-0.0458 z m 0.691521,-6.93138 c 0.311183,-0.81847 0.43027,-2.98892 0.177845,-3.24135 -0.105394,-0.10539 -0.955302,-0.24025 -1.888685,-0.29968 -1.894869,-0.12066 -1.80564,-0.21679 -2.072971,2.23338 -0.153652,1.40826 0.0047,1.62545 1.280234,1.75545 2.2123,0.2255 2.250165,0.21873 2.503577,-0.4478 z m 20.938776,-15.03228 c 0.01659,-0.76398 0.105889,-2.93687 0.198438,-4.82864 l 0.168275,-3.43959 4.8251,-0.0721 c 4.801147,-0.0717 4.825865,-0.0751 4.979347,-0.68668 0.08484,-0.33802 0.1162,-1.07948 0.06969,-1.64769 l -0.08456,-1.03311 -4.894792,-0.14745 c -2.692135,-0.0811 -4.924557,-0.17039 -4.960937,-0.19844 -0.03638,-0.028 -0.06615,-2.17953 -0.06615,-4.78109 0,-5.39567 -0.0027,-5.40258 -2.029965,-5.27325 l -1.277326,0.0815 -0.132292,4.83885 c -0.106923,3.91094 -0.208396,4.88685 -0.529167,5.08918 -0.218281,0.13768 -2.450703,0.25215 -4.960937,0.25438 l -4.564062,0.004 v 1.54729 1.54729 l 2.819284,0.1725 c 1.550606,0.0949 3.740525,0.1725 4.866483,0.1725 1.622703,0 2.080501,0.0868 2.2078,0.41852 0.08833,0.23018 0.160599,2.43283 0.160599,4.89479 v 4.47627 h 1.5875 1.5875 z m 46.120728,-8.81629 c 0.49085,-0.49085 0.55114,-1.98886 0.09827,-2.44173 -0.452866,-0.45286 -1.950876,-0.39257 -2.441726,0.0983 -0.54189,0.54188 -0.530984,1.66421 0.02212,2.27537 0.53721,0.59361 1.759952,0.62947 2.321343,0.0681 z"
         id="path239"
         inkscape:connector-curvature="0" />
      <path
         style="fill:#e4aa4b;stroke-width:0.26458332"
         d="M 104.02174,279.66656 90.827673,266.47249 v -4.26496 -4.26496 l -2.483172,-0.1086 c -2.206612,-0.0965 -2.700198,-0.21603 -4.431771,-1.07314 -4.94507,-2.44774 -8.001317,-8.01811 -7.133481,-13.0016 0.159552,-0.91621 0.290092,-1.74753 0.290092,-1.84738 0,-0.0998 -2.827735,-0.14963 -6.283854,-0.11062 l -6.283854,0.0709 0.132292,0.79375 c 0.07276,0.43657 0.132291,1.99098 0.132291,3.45424 0,2.54155 -0.04439,2.75026 -0.992865,4.66849 -2.999917,6.06709 -10.622864,8.8156 -16.45527,5.93307 -1.287838,-0.63648 -2.389518,-1.45306 -3.424991,-2.53864 -0.839563,-0.8802 -1.631722,-1.53532 -1.760355,-1.45582 -0.128632,0.0795 -2.346899,3.14651 -4.929478,6.81556 -2.582582,3.66906 -5.381003,7.33886 -6.21871,8.15511 -1.757194,1.71218 -4.442755,3.21464 -6.864772,3.84056 -2.055379,0.53117 -5.410654,0.58151 -7.375431,0.11066 -5.608155,-1.34396 -10.3716615,-6.09771 -11.5443693,-11.52073 -0.6525525,-3.01763 -0.6320652,-3.28032 2.4245666,-31.08854 1.2076527,-10.98682 2.3192942,-21.28572 2.4703137,-22.88645 0.325081,-3.44569 1.25849,-6.85977 2.684539,-9.81911 1.014437,-2.10517 3.586582,-5.82436 4.723069,-6.82932 0.56929,-0.50341 0.58403,-0.50249 1.379234,0.0854 l 0.803794,0.59427 1.17526,-0.96304 c 1.30801,-1.07181 1.354461,-1.2019 0.755578,-2.11591 -0.230824,-0.35228 -0.336754,-0.77469 -0.235399,-0.93868 0.339014,-0.54854 3.145629,-2.20607 5.350924,-3.16015 l 2.182303,-0.94414 3.109363,-4.62342 3.109364,-4.62343 8.790302,-0.0697 8.790302,-0.0697 0.07324,3.90616 0.07324,3.90616 15.934059,0.0682 15.93406,0.0682 0.07323,-3.90467 0.07323,-3.90466 8.753128,-0.0697 8.753125,-0.0697 3.08623,4.63135 3.08622,4.63135 2.50802,1.172 c 7.59953,3.55128 12.89884,9.52917 15.32263,17.2847 0.37473,1.19904 0.80234,3.2231 0.95025,4.49791 0.83612,7.20664 1.66274,15.96285 1.5204,16.1052 -0.0905,0.0905 -0.5576,0.24747 -1.03793,0.34874 -0.85919,0.18116 -0.8721,0.20528 -0.79781,1.49069 0.10579,1.83026 0.19024,1.968 1.2067,1.968 1.18573,0 1.39599,0.31824 1.61715,2.44761 0.19837,1.90995 0.23841,1.84034 -1.24572,2.16554 -0.61754,0.13531 -0.7276,0.29375 -0.7276,1.04736 0,0.48836 0.0744,1.26 0.16536,1.71475 0.15134,0.75671 0.25301,0.82682 1.19893,0.82682 0.58997,0 1.08225,0.14195 1.14699,0.33073 0.22345,0.65155 2.51837,21.79161 2.5171,23.18668 -8e-4,0.78359 -0.1411,2.18346 -0.31198,3.11081 l -0.31067,1.68611 4.01484,4.06761 c 2.20816,2.23719 4.01484,4.22458 4.01484,4.41643 0,0.37714 -21.768,22.32712 -22.59082,22.77968 -0.43462,0.23904 -2.17991,-1.40783 -13.69219,-12.92011 z m 20.59496,-4.64869 c 3.82624,-3.81626 6.9568,-7.12112 6.9568,-7.34413 0,-0.22301 -3.03609,-3.43981 -6.74687,-7.14845 -3.71078,-3.70864 -6.74687,-6.87424 -6.74687,-7.03465 0,-0.16042 0.23812,-0.50717 0.52916,-0.77056 0.72652,-0.65749 0.67614,-0.88551 -0.45057,-2.03937 -1.12019,-1.14718 -1.39644,-1.21067 -2.06297,-0.47417 -0.26339,0.29104 -0.5985,0.52917 -0.74469,0.52917 -0.14619,0 -0.95233,-0.65485 -1.79143,-1.45521 l -1.52564,-1.45521 h -8.22172 -8.221727 v 6.26717 6.26717 l 4.686727,4.71304 c 2.57769,2.59217 4.87069,4.71303 5.09553,4.71303 0.22485,0 2.96762,-2.56739 6.09505,-5.70532 3.12743,-3.13793 5.8934,-5.82039 6.14661,-5.96102 0.36415,-0.20225 0.71335,-0.0225 1.67086,0.86011 2.17654,2.00626 2.48664,1.40831 -4.2214,8.13957 -3.28879,3.30017 -5.97963,6.17797 -5.97963,6.3951 0,0.41267 7.93436,8.4424 8.34213,8.4424 0.12862,0 3.36441,-3.1224 7.19065,-6.93867 z m -7.06611,-0.91317 c -0.65406,-0.27194 -0.78545,-0.66823 -0.7897,-2.38187 -0.005,-2.1552 0.3112,-2.46629 2.50949,-2.46629 2.19829,0 2.51483,0.31109 2.50949,2.46629 -0.002,0.89911 -0.11314,1.80718 -0.24647,2.01793 -0.2559,0.4045 -3.23133,0.67639 -3.98281,0.36394 z m -12.38118,-12.21737 c -0.24487,-0.15534 -0.32036,-0.81477 -0.26458,-2.31106 l 0.078,-2.09369 h 2.24896 2.24896 l 0.0782,1.9427 c 0.0485,1.2045 -0.0392,2.08421 -0.23084,2.31511 -0.34268,0.41291 -3.5603,0.52659 -4.15878,0.14694 z m -51.065695,-8.80297 c 3.891229,-0.82478 6.118251,-3.55767 6.118251,-7.50803 0,-4.4991 -3.13372,-7.63718 -7.626582,-7.63718 -3.400957,0 -5.83334,1.63869 -6.979497,4.70207 -0.9589,2.56289 -0.704628,5.07812 0.744339,7.3629 0.944544,1.48939 2.298639,2.43003 4.250783,2.95286 1.818243,0.48696 1.799439,0.48628 3.492706,0.12738 z m 36.400053,-0.0845 c 0.08886,-0.0889 0.212876,-2.27176 0.275598,-4.85089 0.07456,-3.06594 0.217154,-4.75663 0.4119,-4.88372 0.163825,-0.10692 1.339662,-0.19621 2.61297,-0.19844 2.640901,-0.005 2.747803,-0.12287 1.663639,-1.84031 -1.349145,-2.13718 -3.540054,-3.24962 -6.400006,-3.24962 -3.24231,0 -5.615075,1.44862 -6.888522,4.20556 -2.078482,4.4998 0.189613,9.52638 4.892092,10.84192 1.186514,0.33193 3.089479,0.31835 3.432329,-0.0245 z m -72.076227,-9.73542 c 0.125394,-0.83496 0.163766,-1.68547 0.08527,-1.89003 -0.165362,-0.43093 -3.276372,-0.87942 -3.629545,-0.52324 -0.123917,0.12497 -0.261884,0.99322 -0.306593,1.92945 -0.07727,1.61805 -0.04857,1.71192 0.58017,1.89789 0.363802,0.10761 1.197239,0.17503 1.852083,0.14984 l 1.190625,-0.0458 z m 0.691521,-6.93138 c 0.311183,-0.81847 0.43027,-2.98892 0.177845,-3.24135 -0.105394,-0.10539 -0.955302,-0.24025 -1.888685,-0.29968 -1.894869,-0.12066 -1.80564,-0.21679 -2.072971,2.23338 -0.153652,1.40826 0.0047,1.62545 1.280234,1.75545 2.2123,0.2255 2.250165,0.21873 2.503577,-0.4478 z m 20.938776,-15.03228 c 0.01659,-0.76398 0.105889,-2.93687 0.198438,-4.82864 l 0.168275,-3.43959 4.8251,-0.0721 c 4.801147,-0.0717 4.825865,-0.0751 4.979347,-0.68668 0.08484,-0.33802 0.1162,-1.07948 0.06969,-1.64769 l -0.08456,-1.03311 -4.894792,-0.14745 c -2.692135,-0.0811 -4.924557,-0.17039 -4.960937,-0.19844 -0.03638,-0.028 -0.06615,-2.17953 -0.06615,-4.78109 0,-5.39567 -0.0027,-5.40258 -2.029965,-5.27325 l -1.277326,0.0815 -0.132292,4.83885 c -0.106923,3.91094 -0.208396,4.88685 -0.529167,5.08918 -0.218281,0.13768 -2.450703,0.25215 -4.960937,0.25438 l -4.564062,0.004 v 1.54729 1.54729 l 2.819284,0.1725 c 1.550606,0.0949 3.740525,0.1725 4.866483,0.1725 1.622703,0 2.080501,0.0868 2.2078,0.41852 0.08833,0.23018 0.160599,2.43283 0.160599,4.89479 v 4.47627 h 1.5875 1.5875 z m 46.120728,-8.81629 c 0.49085,-0.49085 0.55114,-1.98886 0.09827,-2.44173 -0.452866,-0.45286 -1.950876,-0.39257 -2.441726,0.0983 -0.54189,0.54188 -0.530984,1.66421 0.02212,2.27537 0.53721,0.59361 1.759952,0.62947 2.321343,0.0681 z m 12.05744,-12.28423 c 0.643414,-0.64341 0.680061,-1.51139 0.09128,-2.16198 -0.891429,-0.98502 -2.737117,-0.30236 -2.737117,1.01236 0,0.75934 0.869455,1.67879 1.5875,1.67879 0.291042,0 0.767292,-0.23813 1.058333,-0.52917 z"
         id="path237"
         inkscape:connector-curvature="0" />
      <path
         style="fill:#67869f;stroke-width:0.26458332"
         d="M 104.02174,279.66656 90.827673,266.47249 v -4.26496 -4.26496 l -2.483172,-0.1086 c -2.206612,-0.0965 -2.700198,-0.21603 -4.431771,-1.07314 -4.94507,-2.44774 -8.001317,-8.01811 -7.133481,-13.0016 0.159552,-0.91621 0.290092,-1.74753 0.290092,-1.84738 0,-0.0998 -2.827735,-0.14963 -6.283854,-0.11062 l -6.283854,0.0709 0.132292,0.79375 c 0.07276,0.43657 0.132291,1.99098 0.132291,3.45424 0,2.54155 -0.04439,2.75026 -0.992865,4.66849 -2.999917,6.06709 -10.622864,8.8156 -16.45527,5.93307 -1.287838,-0.63648 -2.389518,-1.45306 -3.424991,-2.53864 -0.839563,-0.8802 -1.631722,-1.53532 -1.760355,-1.45582 -0.128632,0.0795 -2.346899,3.14651 -4.929478,6.81556 -2.582582,3.66906 -5.381003,7.33886 -6.21871,8.15511 -1.757194,1.71218 -4.442755,3.21464 -6.864772,3.84056 -2.055379,0.53117 -5.410654,0.58151 -7.375431,0.11066 -5.608155,-1.34396 -10.3716615,-6.09771 -11.5443693,-11.52073 -0.6525525,-3.01763 -0.6320652,-3.28032 2.4245666,-31.08854 1.2076527,-10.98682 2.3192942,-21.28572 2.4703137,-22.88645 0.325081,-3.44569 1.25849,-6.85977 2.684539,-9.81911 1.014437,-2.10517 3.586582,-5.82436 4.723069,-6.82932 0.56929,-0.50341 0.58403,-0.50249 1.379234,0.0854 l 0.803794,0.59427 1.17526,-0.96304 c 1.30801,-1.07181 1.354461,-1.2019 0.755578,-2.11591 -0.230824,-0.35228 -0.336754,-0.77469 -0.235399,-0.93868 0.339014,-0.54854 3.145629,-2.20607 5.350924,-3.16015 l 2.182303,-0.94414 3.109363,-4.62342 3.109364,-4.62343 8.790302,-0.0697 8.790302,-0.0697 0.07324,3.90616 0.07324,3.90616 15.934059,0.0682 15.93406,0.0682 0.07323,-3.90467 0.07323,-3.90466 8.753128,-0.0697 8.753125,-0.0697 3.08623,4.63135 3.08622,4.63135 2.50802,1.172 c 7.59953,3.55128 12.89884,9.52917 15.32263,17.2847 0.37473,1.19904 0.80234,3.2231 0.95025,4.49791 0.83612,7.20664 1.66274,15.96285 1.5204,16.1052 -0.0905,0.0905 -0.5576,0.24747 -1.03793,0.34874 -0.85919,0.18116 -0.8721,0.20528 -0.79781,1.49069 0.10579,1.83026 0.19024,1.968 1.2067,1.968 1.18573,0 1.39599,0.31824 1.61715,2.44761 0.19837,1.90995 0.23841,1.84034 -1.24572,2.16554 -0.61754,0.13531 -0.7276,0.29375 -0.7276,1.04736 0,0.48836 0.0744,1.26 0.16536,1.71475 0.15134,0.75671 0.25301,0.82682 1.19893,0.82682 0.58997,0 1.08225,0.14195 1.14699,0.33073 0.22345,0.65155 2.51837,21.79161 2.5171,23.18668 -8e-4,0.78359 -0.1411,2.18346 -0.31198,3.11081 l -0.31067,1.68611 4.01484,4.06761 c 2.20816,2.23719 4.01484,4.22458 4.01484,4.41643 0,0.37714 -21.768,22.32712 -22.59082,22.77968 -0.43462,0.23904 -2.17991,-1.40783 -13.69219,-12.92011 z m 21.7955,-1.34644 c 4.47563,-4.47389 8.13751,-8.31106 8.13751,-8.52704 0,-0.21599 -3.53521,-3.93515 -7.85604,-8.26481 l -7.85605,-7.87211 0.58001,-0.61738 c 0.80929,-0.86146 0.73757,-1.19645 -0.53342,-2.4915 -1.25919,-1.28302 -1.64317,-1.37124 -2.49308,-0.57279 l -0.5979,0.5617 -1.55974,-1.48774 -1.55974,-1.48774 h -8.34829 c -7.368479,0 -8.367144,0.0491 -8.508894,0.41851 -0.208635,0.54369 -0.206494,8.25883 0.0036,12.96726 l 0.164195,3.67985 10.877859,10.91406 c 5.98283,6.00274 10.99815,10.91406 11.14517,10.91406 0.14702,0 3.92918,-3.66045 8.40482,-8.13433 z m -8.63522,-4.98418 c -0.0883,-0.23018 -0.1606,-0.99559 -0.1606,-1.70089 0,-1.66604 0.44789,-2.11393 2.11393,-2.11393 2.067,0 2.11941,0.0563 2.11941,2.27727 v 1.95606 h -1.95607 c -1.5396,0 -1.99026,-0.0891 -2.11667,-0.41851 z m -10.31085,-1.42223 c -0.67476,-0.72137 -1.22683,-1.39992 -1.22683,-1.5079 0,-0.38312 11.76493,-11.99719 12.15304,-11.99719 0.52574,0 2.66363,2.1165 2.66363,2.63698 0,0.46071 -11.61406,12.17969 -12.07064,12.17969 -0.1608,0 -0.84444,-0.59021 -1.5192,-1.31158 z m -1.57961,-10.24189 c -0.097,-0.097 -0.17639,-1.05453 -0.17639,-2.1278 v -1.95141 l 2.05052,0.0773 2.05052,0.0773 0.0794,1.67675 c 0.0477,1.00843 -0.0443,1.82573 -0.23083,2.05052 -0.32054,0.38623 -3.4221,0.54848 -3.77319,0.19739 z m -51.187845,-8.58746 c 3.891229,-0.82478 6.118251,-3.55767 6.118251,-7.50803 0,-4.4991 -3.13372,-7.63718 -7.626582,-7.63718 -3.400957,0 -5.83334,1.63869 -6.979497,4.70207 -0.9589,2.56289 -0.704628,5.07812 0.744339,7.3629 0.944544,1.48939 2.298639,2.43003 4.250783,2.95286 1.818243,0.48696 1.799439,0.48628 3.492706,0.12738 z m 36.400053,-0.0845 c 0.08886,-0.0889 0.212876,-2.27176 0.275598,-4.85089 0.07456,-3.06594 0.217154,-4.75663 0.4119,-4.88372 0.163825,-0.10692 1.339662,-0.19621 2.61297,-0.19844 2.640901,-0.005 2.747803,-0.12287 1.663639,-1.84031 -1.349145,-2.13718 -3.540054,-3.24962 -6.400006,-3.24962 -3.24231,0 -5.615075,1.44862 -6.888522,4.20556 -2.078482,4.4998 0.189613,9.52638 4.892092,10.84192 1.186514,0.33193 3.089479,0.31835 3.432329,-0.0245 z m -72.076227,-9.73542 c 0.125394,-0.83496 0.163766,-1.68547 0.08527,-1.89003 -0.165362,-0.43093 -3.276372,-0.87942 -3.629545,-0.52324 -0.123917,0.12497 -0.261884,0.99322 -0.306593,1.92945 -0.07727,1.61805 -0.04857,1.71192 0.58017,1.89789 0.363802,0.10761 1.197239,0.17503 1.852083,0.14984 l 1.190625,-0.0458 z m 0.691521,-6.93138 c 0.311183,-0.81847 0.43027,-2.98892 0.177845,-3.24135 -0.105394,-0.10539 -0.955302,-0.24025 -1.888685,-0.29968 -1.894869,-0.12066 -1.80564,-0.21679 -2.072971,2.23338 -0.153652,1.40826 0.0047,1.62545 1.280234,1.75545 2.2123,0.2255 2.250165,0.21873 2.503577,-0.4478 z m 20.938776,-15.03228 c 0.01659,-0.76398 0.105889,-2.93687 0.198438,-4.82864 l 0.168275,-3.43959 4.8251,-0.0721 c 4.801147,-0.0717 4.825865,-0.0751 4.979347,-0.68668 0.08484,-0.33802 0.1162,-1.07948 0.06969,-1.64769 l -0.08456,-1.03311 -4.894792,-0.14745 c -2.692135,-0.0811 -4.924557,-0.17039 -4.960937,-0.19844 -0.03638,-0.028 -0.06615,-2.17953 -0.06615,-4.78109 0,-5.39567 -0.0027,-5.40258 -2.029965,-5.27325 l -1.277326,0.0815 -0.132292,4.83885 c -0.106923,3.91094 -0.208396,4.88685 -0.529167,5.08918 -0.218281,0.13768 -2.450703,0.25215 -4.960937,0.25438 l -4.564062,0.004 v 1.54729 1.54729 l 2.819284,0.1725 c 1.550606,0.0949 3.740525,0.1725 4.866483,0.1725 1.622703,0 2.080501,0.0868 2.2078,0.41852 0.08833,0.23018 0.160599,2.43283 0.160599,4.89479 v 4.47627 h 1.5875 1.5875 z m 46.120728,-8.81629 c 0.49085,-0.49085 0.55114,-1.98886 0.09827,-2.44173 -0.452866,-0.45286 -1.950876,-0.39257 -2.441726,0.0983 -0.54189,0.54188 -0.530984,1.66421 0.02212,2.27537 0.53721,0.59361 1.759952,0.62947 2.321343,0.0681 z m 12.238825,-12.06576 c 1.21924,-1.14542 0.433359,-3.12888 -1.239718,-3.12888 -1.649264,0 -2.422453,1.8723 -1.276797,3.0918 0.72214,0.76868 1.722075,0.78341 2.516515,0.0371 z"
         id="path235"
         inkscape:connector-curvature="0" />
      <path
         style="fill:#5c768c;stroke-width:0.26458332"
         d="m 104.19474,279.57846 -12.970192,-12.96142 -0.132291,-4.43494 -0.132292,-4.43494 -2.04448,-0.0436 c -1.124466,-0.024 -2.493685,-0.18717 -3.042709,-0.3626 -5.89449,-1.88349 -9.817176,-7.89169 -8.846832,-13.5503 0.17712,-1.03287 0.221374,-1.97861 0.09835,-2.10164 -0.123028,-0.12303 -3.013456,-0.19168 -6.423173,-0.15255 l -6.199483,0.0711 v 3.58176 3.58175 l -0.994616,2.01632 c -2.197979,4.45578 -6.690601,7.02443 -11.85414,6.77755 -3.107317,-0.14856 -5.587251,-1.32225 -7.765801,-3.67534 -0.818404,-0.88397 -1.596911,-1.56828 -1.730018,-1.52067 -0.133104,0.0476 -2.418942,3.18217 -5.07964,6.96571 -2.6607,3.78355 -5.468014,7.49024 -6.238477,8.2371 -1.568861,1.5208 -4.170874,2.98839 -6.553973,3.69657 -2.415141,0.71771 -6.104233,0.65291 -8.585658,-0.15081 -5.800514,-1.87873 -10.2309869,-7.32417 -10.7570217,-13.22131 -0.1140861,-1.27897 0.5463629,-8.04592 2.5064769,-25.68134 1.4637584,-13.16963 2.7876808,-25.148 2.9420498,-26.6186 0.154369,-1.47059 0.522417,-3.54618 0.817884,-4.61241 0.997081,-3.59809 3.330076,-7.90024 5.733665,-10.57315 l 1.070657,-1.19063 0.810156,0.59532 c 0.445586,0.32742 0.884236,0.59531 0.974779,0.59531 0.376489,0 2.502637,-1.94562 2.502637,-2.29014 0,-0.20587 -0.202659,-0.68361 -0.450355,-1.06164 -0.440926,-0.67294 -0.434002,-0.70053 0.330729,-1.3179 0.876905,-0.70793 5.893696,-3.27028 6.399921,-3.26879 0.179944,5.3e-4 1.74823,-2.12585 3.485079,-4.7253 1.736852,-2.59945 3.355535,-4.8021 3.597074,-4.89479 0.24154,-0.0927 4.046254,-0.16852 8.454918,-0.16852 6.307391,0 8.07739,0.0743 8.304953,0.34846 0.169953,0.20478 0.319683,1.86853 0.363128,4.03489 l 0.07393,3.68644 h 16.007291 16.007291 l 0.07375,-3.82554 c 0.05116,-2.65375 0.172723,-3.88843 0.396875,-4.03085 0.177721,-0.11291 3.985463,-0.20712 8.461655,-0.20935 7.428133,-0.004 8.172763,0.0364 8.530803,0.45897 0.21575,0.25466 1.6731,2.36647 3.23856,4.69292 l 2.84627,4.22989 3.20521,1.59094 c 3.62682,1.80021 5.26819,2.96683 7.86059,5.58703 4.26624,4.31199 7.1899,10.43655 7.69833,16.12667 0.0903,1.01071 0.47995,4.76428 0.86586,8.34127 0.38591,3.57699 0.62538,6.70238 0.53215,6.94531 -0.0932,0.24293 -0.44813,0.44169 -0.78868,0.44169 -0.34056,0 -0.85031,0.17481 -1.13278,0.38847 -0.71243,0.53885 -1.89603,0.50771 -2.19499,-0.0577 -0.13465,-0.25466 -0.55249,-3.38005 -0.92855,-6.94531 -0.37605,-3.56526 -0.80229,-7.55385 -0.9472,-8.86354 -0.93468,-8.44784 -7.00482,-15.99848 -15.14724,-18.84163 -3.34929,-1.1695 -5.88903,-1.39509 -15.729467,-1.39712 l -9.033857,-0.002 -1.885489,4.69635 c -1.037021,2.58299 -1.997728,4.87495 -2.134907,5.09323 -0.212519,0.33816 -1.611008,0.40711 -9.45357,0.46605 -7.017906,0.0527 -9.349001,-0.0101 -9.813967,-0.26458 -0.452313,-0.24756 -1.101508,-1.56381 -2.513541,-5.09626 l -1.903728,-4.7625 -8.598958,-0.0787 c -12.631371,-0.11567 -14.137115,0.14178 -18.018932,3.08092 -5.361463,4.05945 -9.144553,10.76439 -9.651713,17.10616 -0.08146,1.01865 -0.739316,7.26943 -1.461898,13.89062 -0.952243,8.72565 -1.433964,12.25485 -1.750501,12.82456 -0.338263,0.60882 -0.440478,1.53912 -0.453398,4.12654 -0.01146,2.29604 -0.122117,3.46755 -0.353894,3.74682 -0.448823,0.54078 -0.843669,3.87536 -0.551479,4.65738 0.146021,0.39081 0.03664,2.23245 -0.298584,5.02708 -0.679446,5.66434 -0.675892,7.5071 0.01743,9.04054 1.075481,2.37866 2.925475,3.72343 6.026541,4.38072 3.324191,0.70458 7.97332,0.31231 9.168,-0.77354 0.341579,-0.31046 2.934377,-3.85201 5.761776,-7.8701 l 5.140724,-7.30563 0.133784,-2.55772 c 0.118811,-2.27143 0.243342,-2.7794 1.112562,-4.53814 1.525016,-3.08566 3.91595,-5.20439 7.363743,-6.5254 1.347279,-0.5162 1.989209,-0.53164 22.030879,-0.52972 15.131399,0.001 20.95955,0.0862 21.828124,0.31729 3.8037,1.01215 7.172124,4.08094 8.4424,7.69143 l 0.50626,1.43893 6.36504,0.1323 6.36503,0.13229 2.12238,2.11046 c 2.40674,2.39321 2.63439,3.0591 1.2953,3.78882 -0.45491,0.2479 -1.16808,0.72818 -1.58484,1.06731 l -0.75774,0.61659 -1.54794,-1.47649 -1.54794,-1.47648 h -8.34829 c -7.36848,0 -8.367144,0.0491 -8.508895,0.41851 -0.208634,0.54369 -0.206494,8.25883 0.0036,12.96726 l 0.164195,3.67985 10.87786,10.91406 c 5.98283,6.00274 10.99958,10.91406 11.14834,10.91406 0.42942,0 16.53915,-16.23187 16.53915,-16.66455 0,-0.21424 -3.52958,-3.92633 -7.84351,-8.24908 l -7.84352,-7.85955 0.63362,-0.77798 c 0.3485,-0.42789 0.83645,-1.15017 1.08434,-1.60507 0.77617,-1.42434 1.33159,-1.1518 4.9196,2.41405 l 3.26129,3.24114 -0.16898,-1.98437 c -0.15911,-1.86862 -0.90152,-8.6751 -1.91353,-17.54344 -0.52873,-4.63324 -0.5886,-4.51628 2.18215,-4.26263 1.01865,0.0933 1.87609,0.19012 1.90542,0.21527 0.0293,0.0252 0.60716,4.92313 1.28407,10.88441 1.22426,10.78167 1.34206,13.37137 0.74949,16.47609 -0.16113,0.84424 -0.0222,1.02073 3.96319,5.03433 l 4.13017,4.15942 -11.315,11.30369 c -6.22325,6.21703 -11.42831,11.30369 -11.56681,11.30369 -0.13849,0 -6.08839,-5.83264 -13.222,-12.96141 z M 55.436397,253.05443 c 3.110106,-1.08595 5.052388,-3.96829 5.052388,-7.49773 0,-1.7239 -0.113898,-2.19503 -0.903991,-3.73921 -2.482638,-4.85214 -9.133797,-5.69832 -12.793681,-1.62765 -1.395161,1.55175 -2.000937,3.19376 -2.000937,5.4237 0,3.81261 2.34793,6.84314 6.010671,7.75811 1.183193,0.29557 3.294287,0.15111 4.63555,-0.31722 z m 35.323596,0.2184 c 0.101899,-0.1019 0.248108,-2.35155 0.324913,-4.99922 l 0.139642,-4.81395 2.645833,-0.13229 c 2.95601,-0.1478 3.047349,-0.24295 1.950681,-2.03202 -1.4018,-2.28684 -3.856083,-3.58302 -6.784361,-3.58302 -1.723895,0 -2.202815,0.11448 -3.72011,0.88929 -2.071553,1.05784 -3.285366,2.50324 -3.91182,4.65817 -1.300149,4.47236 1.292947,8.97244 5.851027,10.15391 0.899303,0.2331 3.223662,0.13966 3.504195,-0.14087 z M 76.470078,188.10492 c 0.599178,-1.4137 1.031637,-2.66386 0.961017,-2.77812 -0.149895,-0.24253 -16.863488,-0.28658 -17.104986,-0.0451 -0.150342,0.15034 0.474755,2.00658 1.48218,4.40138 l 0.417385,0.99219 h 6.577494 6.577496 z m 40.711942,85.23102 c -0.0883,-0.23018 -0.1606,-0.99559 -0.1606,-1.70089 0,-1.66604 0.44789,-2.11393 2.11393,-2.11393 2.067,0 2.11941,0.0563 2.11941,2.27727 v 1.95606 h -1.95607 c -1.5396,0 -1.99026,-0.0891 -2.11667,-0.41851 z m -10.31085,-1.42223 c -0.67476,-0.72137 -1.22683,-1.39992 -1.22683,-1.5079 0,-0.38312 11.76493,-11.99719 12.15304,-11.99719 0.52574,0 2.66363,2.1165 2.66363,2.63698 0,0.46071 -11.61406,12.17969 -12.07064,12.17969 -0.1608,0 -0.84444,-0.59021 -1.5192,-1.31158 z m -1.57961,-10.24189 c -0.097,-0.097 -0.17639,-1.05453 -0.17639,-2.1278 v -1.95141 l 2.05052,0.0773 2.05052,0.0773 0.0794,1.67675 c 0.0477,1.00843 -0.0443,1.82573 -0.23083,2.05052 -0.32054,0.38623 -3.4221,0.54848 -3.77319,0.19739 z M 64.350114,229.26853 c -0.419118,-0.78313 -0.199133,-3.89727 0.297503,-4.21147 0.593333,-0.37537 8.016903,-0.31617 8.400057,0.067 0.329586,0.32959 0.446813,3.53557 0.156901,4.29107 -0.137102,0.35728 -0.774446,0.41851 -4.356317,0.41851 -4.013837,0 -4.208825,-0.0245 -4.498144,-0.56509 z m 30.181726,0.14389 c -2.755839,-1.19183 -4.331703,-4.36118 -3.694536,-7.43039 0.840415,-4.04826 5.331253,-6.25536 9.129307,-4.48675 2.352549,1.09549 3.620509,3.13858 3.634319,5.85605 0.0135,2.66723 -1.35906,4.91893 -3.645132,5.97962 -1.307997,0.60689 -4.11167,0.649 -5.423958,0.0815 z m 4.034895,-4.92277 c 0.99631,-1.15223 0.167244,-2.85811 -1.389062,-2.85811 -0.91798,0 -1.852083,0.80944 -1.852083,1.60489 0,1.8443 2.046009,2.63541 3.241145,1.25322 z m 26.797445,5.09295 c -0.0853,-0.13807 -0.22805,-1.19633 -0.31714,-2.3517 -0.19145,-2.48274 -0.14591,-2.52229 2.55625,-2.21983 l 1.71833,0.19235 0.21655,1.55174 c 0.24814,1.77821 0.12955,2.28404 -0.53605,2.28634 -0.25923,8e-4 -0.81236,0.17949 -1.22917,0.39688 -0.85325,0.445 -2.17401,0.52407 -2.40877,0.14422 z m -93.221087,-2.18314 c -0.223163,-0.22317 -0.3175,-1.71686 -0.3175,-5.02709 v -4.70958 h -4.608569 c -2.534712,0 -4.7969,-0.0723 -5.027083,-0.1606 -0.365102,-0.1401 -0.418514,-0.94933 -0.418514,-6.34069 0,-5.83929 0.02822,-6.19519 0.511772,-6.45398 0.29543,-0.15811 2.42054,-0.2739 5.027083,-0.2739 h 4.515311 v -4.51531 c 0,-2.60654 0.115784,-4.73165 0.273891,-5.02708 0.258477,-0.48297 0.612921,-0.51177 6.297083,-0.51177 4.331928,0 6.112343,0.0892 6.340692,0.3175 0.223163,0.22316 0.3175,1.71685 0.3175,5.02708 v 4.70958 h 4.51531 c 2.606543,0 4.731655,0.11579 5.027083,0.2739 0.482968,0.25847 0.511773,0.61292 0.511773,6.29708 0,4.33193 -0.08915,6.11234 -0.3175,6.34069 -0.223163,0.22316 -1.716852,0.3175 -5.027083,0.3175 h -4.709583 v 4.70958 c 0,3.31023 -0.09434,4.80392 -0.3175,5.02709 -0.450403,0.4504 -12.143763,0.4504 -12.594166,0 z m 7.98809,-4.39843 c 0.07411,-0.1199 0.218329,-2.38209 0.320496,-5.02708 l 0.185756,-4.80908 h 4.669287 c 3.278891,0 4.76383,-0.0945 4.986787,-0.3175 0.351496,-0.35149 0.427918,-2.80323 0.103306,-3.31419 -0.147272,-0.23181 -1.562007,-0.34509 -4.956886,-0.39688 l -4.750795,-0.0725 -0.132292,-4.83885 c -0.147642,-5.40035 -0.12342,-5.33655 -2.02888,-5.34355 -2.025044,-0.007 -1.939869,-0.22691 -1.939869,4.99842 0,3.28821 -0.09448,4.77576 -0.3175,4.99877 -0.223137,0.22314 -1.715733,0.3175 -5.022043,0.3175 h -4.704542 l -0.15474,0.61654 c -0.08511,0.33909 -0.117142,1.14277 -0.07119,1.78594 l 0.08355,1.1694 1.852083,0.16557 c 1.018646,0.0911 3.238331,0.18036 4.93263,0.19844 2.544733,0.0272 3.10848,0.10566 3.241145,0.45138 0.08833,0.23018 0.1606,2.41299 0.1606,4.85069 0,2.4377 0.07937,4.51156 0.176389,4.60857 0.254228,0.25423 3.206412,0.21773 3.366701,-0.0416 z m 43.420449,-5.30849 c -3.073238,-0.79683 -4.878133,-3.15732 -4.888981,-6.39395 -0.01037,-3.09228 1.609005,-5.38887 4.389935,-6.22581 2.506154,-0.75424 4.799329,-0.18926 6.619475,1.63089 3.171944,3.17194 2.11079,8.87448 -1.968627,10.57921 -1.1318,0.47296 -3.142462,0.67135 -4.151802,0.40966 z m 2.719252,-4.93954 c 0.720905,-0.50494 0.805355,-2.08445 0.150157,-2.80844 -0.645925,-0.71374 -2.32442,-0.65247 -2.854407,0.10419 -1.327219,1.89487 0.809381,4.03147 2.70425,2.70425 z m 21.178056,4.80528 c -2.42303,-0.65243 -4.24818,-2.84392 -4.61847,-5.54548 -0.38016,-2.77362 1.4136,-5.79333 4.02081,-6.76881 1.71677,-0.64232 2.75359,-0.6822 4.45148,-0.17121 2.78093,0.83694 4.4003,3.13353 4.38994,6.22581 -0.007,2.1414 -0.58774,3.50618 -2.05374,4.82791 -1.04664,0.94365 -3.21597,1.8218 -4.40462,1.78302 -0.30101,-0.01 -1.10444,-0.16788 -1.7854,-0.35124 z M 95.435585,205.39299 c -1.716484,-0.55353 -2.734783,-1.27041 -3.549481,-2.49885 -4.210306,-6.3485 3.393123,-13.50553 9.444446,-8.88996 2.80794,2.14172 3.03941,7.15136 0.45006,9.74071 -1.54475,1.54475 -4.380999,2.28146 -6.345025,1.6481 z m 2.981806,-4.97423 c 1.21924,-1.14542 0.433359,-3.12888 -1.239718,-3.12888 -1.649264,0 -2.422453,1.8723 -1.276797,3.0918 0.72214,0.76868 1.722075,0.78341 2.516515,0.0371 z"
         id="path233"
         inkscape:connector-curvature="0" />
      <path
         style="fill:#b84558;stroke-width:0.26458332"
         d="m 104.12802,279.24929 -13.025696,-13.03546 -0.07118,-4.23333 -0.07118,-4.23334 -2.513542,-0.15036 c -2.121683,-0.12692 -2.802278,-0.28843 -4.365624,-1.03597 -4.774584,-2.28303 -7.896421,-7.90592 -7.020399,-12.64477 0.501386,-2.71224 1.167472,-2.45967 -6.274913,-2.37925 l -6.548437,0.0708 0.09523,0.66146 c 0.05238,0.3638 0.111908,1.97381 0.132292,3.5778 0.03582,2.81914 0.0069,2.97786 -0.868318,4.7625 -3.824425,7.7984 -14.439785,9.39578 -19.946389,3.00149 -0.609756,-0.70805 -1.239506,-1.28742 -1.399444,-1.28749 -0.159938,-8e-5 -2.508144,3.13916 -5.218234,6.97608 -5.341591,7.56256 -6.982682,9.36553 -9.776618,10.74098 -2.438886,1.20066 -4.212977,1.59159 -7.203935,1.58742 -2.037807,-0.003 -3.044565,-0.13963 -4.380922,-0.59521 -5.090809,-1.73552 -9.1054226,-6.10405 -10.4010583,-11.31798 -0.4988253,-2.00738 -0.5369076,-3.40919 -0.1661373,-6.11551 0.3482472,-2.54192 4.8897553,-43.36563 5.2687926,-47.36128 0.356371,-3.75672 1.225938,-6.87184 2.784481,-9.97508 1.203031,-2.39538 4.082164,-6.4744 4.751062,-6.73108 0.20585,-0.079 0.582506,0.0865 0.837014,0.36771 0.689623,0.76202 1.43835,0.62458 2.747547,-0.50437 l 1.176195,-1.01426 -0.551638,-0.93496 c -0.303401,-0.51423 -0.475502,-1.05369 -0.382446,-1.19881 0.332878,-0.51913 3.274055,-2.23439 5.275437,-3.07659 l 2.037506,-0.8574 3.154984,-4.68239 3.154984,-4.6824 h 8.552828 8.552828 l 0.004,3.63802 c 0.0021,2.00091 0.09913,3.78779 0.215342,3.97083 0.166716,0.26261 3.584575,0.31843 16.201677,0.26459 l 15.99039,-0.0682 0.132291,-3.83646 0.132292,-3.83646 h 8.598958 8.59896 l 3.04271,4.59677 3.0427,4.59676 2.24896,0.96843 c 8.91122,3.8373 15.40698,12.47285 16.39746,21.79899 0.14222,1.33919 0.57596,5.38467 0.96385,8.98997 0.38789,3.60529 0.63831,6.62203 0.55648,6.70386 -0.17719,0.17719 -1.83941,0.62714 -3.00893,0.81449 -0.65071,0.10425 -0.8674,0.0262 -0.98668,-0.35534 -0.20329,-0.65031 -1.17119,-9.18842 -1.5002,-13.23372 -0.58419,-7.18287 -2.73703,-11.90709 -7.47852,-16.41105 -3.64272,-3.46022 -8.38436,-5.62708 -13.4909,-6.16512 -2.920676,-0.30774 -18.961807,-0.34609 -19.433733,-0.0465 -0.182722,0.116 -1.166011,2.28707 -2.185088,4.82459 -1.019077,2.53752 -2.053196,4.7625 -2.298039,4.9444 -0.641754,0.47678 -18.315259,0.47678 -18.915537,0 -0.229021,-0.1819 -1.21393,-2.37798 -2.188687,-4.88019 -0.974756,-2.50221 -1.940028,-4.68868 -2.145045,-4.85883 -0.580195,-0.48152 -19.843046,-0.17185 -21.885364,0.35183 -4.702256,1.20572 -9.489728,5.63368 -12.366382,11.43771 -1.592937,3.21397 -2.30804,5.90273 -2.638821,9.92188 -0.414989,5.0423 -2.61839,24.13248 -2.916417,25.26771 -0.152811,0.58208 -0.385829,2.54661 -0.517816,4.36562 -0.131987,1.81901 -0.360599,3.84307 -0.508027,4.49792 -0.147428,0.65484 -0.274903,1.905 -0.283278,2.77812 -0.0084,0.87313 -0.250018,3.61156 -0.536986,6.08542 -0.737758,6.35998 -0.707682,7.36344 0.279937,9.33984 1.380892,2.76341 3.613025,4.11121 7.653279,4.62119 2.823522,0.35639 6.336086,-0.03 7.412617,-0.8154 0.65988,-0.48143 2.709812,-3.25308 8.466666,-11.44753 l 3.042708,-4.33106 0.154311,-2.54512 c 0.12718,-2.09766 0.299992,-2.85644 0.982943,-4.31587 1.545349,-3.30233 4.610888,-5.8343 8.382031,-6.92309 1.33142,-0.3844 2.064284,-0.42137 4.630208,-0.23357 3.982167,0.29147 29.229162,0.29588 32.814047,0.006 1.948823,-0.15772 3.233258,-0.1298 4.302807,0.0935 4.417134,0.92235 8.246105,4.32567 9.467926,8.41541 l 0.33594,1.12448 h 6.33851 6.3385 l 2.09727,2.04095 c 1.4117,1.37379 2.07206,2.20663 2.02014,2.54778 -0.0424,0.27876 -0.69835,1.03933 -1.45761,1.69015 l -1.38047,1.18331 -1.55387,-1.48214 -1.55386,-1.48213 h -8.34829 c -7.368479,0 -8.367144,0.0491 -8.508894,0.41851 -0.208635,0.54369 -0.206494,8.25883 0.0036,12.96726 l 0.164195,3.67985 10.877859,10.91406 c 5.98283,6.00273 10.99958,10.91405 11.14834,10.91405 0.42942,0 16.53915,-16.23187 16.53915,-16.66455 0,-0.21424 -3.53226,-3.92901 -7.84947,-8.25505 l -7.84948,-7.86552 1.20215,-1.40067 c 0.66118,-0.77036 1.41165,-1.44227 1.6677,-1.49313 0.30933,-0.0614 1.56034,0.99967 3.72787,3.162 1.79427,1.78996 3.32569,3.19108 3.40317,3.11361 0.18293,-0.18294 -0.47423,-7.1129 -1.45897,-15.38538 -0.86726,-7.28556 -0.9102,-8.01656 -0.48627,-8.27856 0.38559,-0.23831 3.46663,-0.166 3.70706,0.087 0.24723,0.26014 2.62191,21.48228 2.61245,23.34692 -0.004,0.80037 -0.17588,2.16959 -0.38182,3.04271 l -0.37442,1.5875 4.15235,4.17692 4.15236,4.17692 -11.18561,11.16891 c -6.15209,6.14291 -11.33288,11.20081 -11.51286,11.23979 -0.17999,0.039 -6.18881,-5.79508 -13.35294,-12.96458 z M 56.27121,252.74553 c 1.656657,-0.81052 2.906324,-2.11266 3.69339,-3.84846 0.761918,-1.68035 0.761918,-4.96113 0,-6.64147 -1.658715,-3.65815 -5.773226,-5.51978 -9.685763,-4.38238 -2.165857,0.62963 -3.599507,1.83865 -4.672864,3.94069 -0.79213,1.5513 -0.903991,2.01687 -0.903991,3.76242 0,1.74783 0.110829,2.20767 0.903991,3.75076 0.50723,0.98681 1.334236,2.1044 1.884265,2.54633 2.360686,1.89674 5.956715,2.25389 8.780972,0.87211 z m 34.503547,0.58309 c 0.223162,-0.22316 0.3175,-1.71685 0.3175,-5.02708 v -4.70958 l 2.447395,-0.004 c 2.968416,-0.005 3.323016,-0.16307 2.86185,-1.27643 -2.177971,-5.25808 -9.638866,-6.36337 -13.48205,-1.99728 -3.803099,4.32055 -1.679831,11.37592 3.93776,13.08471 1.060876,0.32271 3.569562,0.2777 3.917545,-0.0703 z M 75.420402,190.60915 c 0.320508,-0.39562 2.178105,-4.85485 2.178105,-5.22862 0,-0.16698 -3.15577,-0.26149 -8.731249,-0.26149 -7.080771,0 -8.73125,0.0664 -8.73125,0.35126 0,0.30868 0.499346,1.63702 1.732852,4.60968 l 0.356814,0.8599 h 6.463395 c 4.851426,0 6.530218,-0.0825 6.731333,-0.33073 z m 41.761618,82.72679 c -0.0883,-0.23018 -0.1606,-0.99559 -0.1606,-1.70089 0,-1.66604 0.44789,-2.11393 2.11393,-2.11393 2.067,0 2.11941,0.0563 2.11941,2.27727 v 1.95606 h -1.95607 c -1.5396,0 -1.99026,-0.0891 -2.11667,-0.41851 z m -10.31085,-1.42223 c -0.67476,-0.72137 -1.22683,-1.39992 -1.22683,-1.5079 0,-0.38312 11.76493,-11.99719 12.15304,-11.99719 0.52574,0 2.66363,2.1165 2.66363,2.63698 0,0.46071 -11.61406,12.17969 -12.07064,12.17969 -0.1608,0 -0.84444,-0.59021 -1.5192,-1.31158 z m -1.57961,-10.24189 c -0.097,-0.097 -0.17639,-1.05453 -0.17639,-2.1278 v -1.95141 l 2.05052,0.0773 2.05052,0.0773 0.0794,1.67675 c 0.0477,1.00843 -0.0443,1.82573 -0.23083,2.05052 -0.32054,0.38623 -3.4221,0.54848 -3.77319,0.19739 z M 64.785115,229.41785 c -0.546404,-0.5464 -0.583602,-3.61348 -0.0492,-4.05699 0.249327,-0.20692 1.624489,-0.28076 4.299479,-0.23084 l 3.932909,0.0734 0.07895,1.97855 c 0.105381,2.6408 0.08761,2.65165 -4.343958,2.65165 -2.831229,0 -3.582082,-0.0797 -3.91818,-0.41577 z m 31.466516,0.24117 c -1.531281,-0.36017 -2.382977,-0.75298 -3.213279,-1.482 -3.33111,-2.92475 -2.619645,-8.56884 1.310819,-10.39883 5.056172,-2.35412 10.356019,2.07019 8.813979,7.3579 -0.52612,1.80407 -1.7366,3.28412 -3.207352,3.9216 -1.180748,0.51178 -2.898995,0.79072 -3.704167,0.60133 z m 2.16576,-4.8986 c 1.211718,-1.13835 0.439516,-3.21707 -1.195072,-3.21707 -1.732873,0 -2.522879,1.90112 -1.321443,3.17999 0.72214,0.76869 1.722075,0.78342 2.516515,0.0371 z m 27.132509,4.3456 c -0.10239,-0.25466 -0.18795,-1.23693 -0.19014,-2.18281 l -0.004,-1.71979 1.91032,-0.0776 c 2.16042,-0.0877 2.11186,-0.14 2.25241,2.42412 l 0.0706,1.2882 -1.32292,0.35376 c -1.80699,0.48321 -2.49626,0.46141 -2.71632,-0.0859 z m -93.331732,-1.97948 c -0.06806,-0.1846 -0.154461,-2.41922 -0.19201,-4.96583 l -0.06827,-4.63021 -4.894792,-0.13229 -4.894791,-0.13229 -0.07124,-6.06666 c -0.05491,-4.67686 0.0057,-6.11549 0.264583,-6.2798 0.1847,-0.11723 2.449178,-0.21497 5.032172,-0.2172 l 4.696354,-0.004 0.004,-4.69636 c 0.0021,-2.58299 0.09997,-4.84747 0.217199,-5.03217 0.164317,-0.25888 1.602947,-0.3195 6.279801,-0.26458 l 6.06666,0.0712 0.07198,4.96094 0.07198,4.96094 h 4.724264 c 3.687212,0 4.790588,0.0799 5.026396,0.36404 0.211502,0.25485 0.280744,2.13977 0.230833,6.28385 l -0.07129,5.91982 -4.894791,0.13229 -4.894792,0.13229 -0.132291,4.89479 -0.132292,4.89479 -6.157989,0.071 c -4.784749,0.0552 -6.185582,-0.004 -6.281727,-0.26458 z m 8.125082,-3.97365 c 0.02804,-0.0364 0.11734,-2.2688 0.198437,-4.96093 l 0.147447,-4.89479 4.894792,-0.1323 4.894791,-0.13229 0.08031,-1.71298 c 0.06496,-1.38554 -0.0079,-1.77751 -0.381299,-2.05052 -0.332161,-0.24288 -1.745888,-0.33754 -5.041249,-0.33754 H 40.55684 v -4.70958 c 0,-3.31023 -0.09434,-4.80392 -0.3175,-5.02709 -0.174625,-0.17462 -0.984249,-0.3175 -1.799166,-0.3175 -0.814917,0 -1.624542,0.14288 -1.799167,0.3175 -0.222956,0.22296 -0.3175,1.7079 -0.3175,4.98679 v 4.66929 l -4.828645,0.18628 c -2.655755,0.10245 -4.924083,0.28151 -5.040728,0.3979 -0.116645,0.11639 -0.176176,0.97343 -0.132292,1.90453 l 0.07979,1.69292 4.960937,0.072 4.960937,0.072 v 4.70375 c 0,3.30568 0.09437,4.79811 0.3175,5.02124 0.260829,0.26083 3.524147,0.48238 3.702241,0.25135 z m 43.074378,-5.73731 c -2.805371,-0.85336 -4.547888,-3.12455 -4.580707,-5.9705 -0.04528,-3.92655 3.040367,-6.7974 6.880037,-6.40111 3.840411,0.39637 6.257994,3.88308 5.38798,7.7707 -0.277741,1.24109 -0.572399,1.73818 -1.696849,2.86263 -1.747174,1.74718 -3.903866,2.37299 -5.990461,1.73828 z m 3.269136,-5.11485 c 0.340863,-0.45655 0.451192,-0.89435 0.338519,-1.34328 -0.58874,-2.34572 -3.620386,-2.17982 -3.821898,0.20914 -0.180658,2.14172 2.161717,2.90436 3.483379,1.13414 z m 20.525146,4.96776 c -4.87016,-1.56299 -5.62446,-8.78357 -1.1891,-11.38286 4.32742,-2.53603 9.55369,0.52382 9.49561,5.55945 -0.0492,4.26341 -4.16859,7.1514 -8.30651,5.82341 z M 95.588461,205.26016 c -1.181134,-0.38673 -2.231794,-1.02723 -2.944645,-1.7951 -2.778329,-2.99277 -2.123768,-7.79344 1.340289,-9.82994 1.021908,-0.60077 1.516541,-0.71087 3.193568,-0.71087 1.677916,0 2.171456,0.10998 3.195767,0.71217 4.22765,2.48538 4.00691,8.85019 -0.385257,11.10862 -1.140706,0.58654 -3.380632,0.84879 -4.399722,0.51512 z m 2.82893,-4.8414 c 1.21924,-1.14542 0.433359,-3.12888 -1.239718,-3.12888 -1.649264,0 -2.422453,1.8723 -1.276797,3.0918 0.72214,0.76868 1.722075,0.78341 2.516515,0.0371 z"
         id="path231"
         inkscape:connector-curvature="0" />
      <path
         style="fill:#4e5f6e;stroke-width:0.26458332"
         d="m 104.12802,279.24929 -13.025696,-13.03546 -0.07118,-4.23333 -0.07118,-4.23334 -2.513542,-0.15036 c -2.121683,-0.12692 -2.802278,-0.28843 -4.365624,-1.03597 -4.774584,-2.28303 -7.896421,-7.90592 -7.020399,-12.64477 0.501386,-2.71224 1.167472,-2.45967 -6.274913,-2.37925 l -6.548437,0.0708 0.09523,0.66146 c 0.05238,0.3638 0.111908,1.97381 0.132292,3.5778 0.03582,2.81914 0.0069,2.97786 -0.868318,4.7625 -3.824425,7.7984 -14.439785,9.39578 -19.946389,3.00149 -0.609756,-0.70805 -1.239506,-1.28742 -1.399444,-1.28749 -0.159938,-8e-5 -2.508144,3.13916 -5.218234,6.97608 -5.341591,7.56256 -6.982682,9.36553 -9.776618,10.74098 -2.438886,1.20066 -4.212977,1.59159 -7.203935,1.58742 -2.037807,-0.003 -3.044565,-0.13963 -4.380922,-0.59521 -5.090809,-1.73552 -9.1054226,-6.10405 -10.4010583,-11.31798 -0.4988253,-2.00738 -0.5369076,-3.40919 -0.1661373,-6.11551 0.3482472,-2.54192 4.8897553,-43.36563 5.2687926,-47.36128 0.356371,-3.75672 1.225938,-6.87184 2.784481,-9.97508 1.203031,-2.39538 4.082164,-6.4744 4.751062,-6.73108 0.20585,-0.079 0.582506,0.0865 0.837014,0.36771 0.689623,0.76202 1.43835,0.62458 2.747547,-0.50437 l 1.176195,-1.01426 -0.551638,-0.93496 c -0.303401,-0.51423 -0.475502,-1.05369 -0.382446,-1.19881 0.332878,-0.51913 3.274055,-2.23439 5.275437,-3.07659 l 2.037506,-0.8574 3.154984,-4.68239 3.154984,-4.6824 h 8.552828 8.552828 l 0.004,3.63802 c 0.0021,2.00091 0.09913,3.78779 0.215342,3.97083 0.166716,0.26261 3.584575,0.31843 16.201677,0.26459 l 15.99039,-0.0682 0.132291,-3.83646 0.132292,-3.83646 h 8.598958 8.59896 l 3.04271,4.59677 3.0427,4.59676 2.24896,0.96843 c 8.91122,3.8373 15.40698,12.47285 16.39746,21.79899 0.14222,1.33919 0.57596,5.38467 0.96385,8.98997 0.38789,3.60529 0.63831,6.62203 0.55648,6.70386 -0.17719,0.17719 -1.83941,0.62714 -3.00893,0.81449 -0.65071,0.10425 -0.8674,0.0262 -0.98668,-0.35534 -0.20329,-0.65031 -1.17119,-9.18842 -1.5002,-13.23372 -0.58419,-7.18287 -2.73703,-11.90709 -7.47852,-16.41105 -3.64272,-3.46022 -8.38436,-5.62708 -13.4909,-6.16512 -2.920676,-0.30774 -18.961807,-0.34609 -19.433733,-0.0465 -0.182722,0.116 -1.166011,2.28707 -2.185088,4.82459 -1.019077,2.53752 -2.053196,4.7625 -2.298039,4.9444 -0.641754,0.47678 -18.315259,0.47678 -18.915537,0 -0.229021,-0.1819 -1.21393,-2.37798 -2.188687,-4.88019 -0.974756,-2.50221 -1.940028,-4.68868 -2.145045,-4.85883 -0.580195,-0.48152 -19.843046,-0.17185 -21.885364,0.35183 -4.702256,1.20572 -9.489728,5.63368 -12.366382,11.43771 -1.592937,3.21397 -2.30804,5.90273 -2.638821,9.92188 -0.414989,5.0423 -2.61839,24.13248 -2.916417,25.26771 -0.152811,0.58208 -0.385829,2.54661 -0.517816,4.36562 -0.131987,1.81901 -0.360599,3.84307 -0.508027,4.49792 -0.147428,0.65484 -0.274903,1.905 -0.283278,2.77812 -0.0084,0.87313 -0.250018,3.61156 -0.536986,6.08542 -0.737758,6.35998 -0.707682,7.36344 0.279937,9.33984 1.380892,2.76341 3.613025,4.11121 7.653279,4.62119 2.823522,0.35639 6.336086,-0.03 7.412617,-0.8154 0.65988,-0.48143 2.709812,-3.25308 8.466666,-11.44753 l 3.042708,-4.33106 0.154311,-2.54512 c 0.12718,-2.09766 0.299992,-2.85644 0.982943,-4.31587 1.545349,-3.30233 4.610888,-5.8343 8.382031,-6.92309 1.33142,-0.3844 2.064284,-0.42137 4.630208,-0.23357 3.982167,0.29147 29.229162,0.29588 32.814047,0.006 1.948823,-0.15772 3.233258,-0.1298 4.302807,0.0935 4.417134,0.92235 8.246105,4.32567 9.467926,8.41541 l 0.33594,1.12448 h 6.33851 6.3385 l 2.08628,2.03026 c 1.14746,1.11664 2.08629,2.23847 2.08629,2.49295 0,0.45058 -2.27539,2.61542 -2.75257,2.61883 -0.13145,0.001 -0.87022,-0.59526 -1.6417,-1.32489 l -1.40268,-1.3266 -8.54475,0.0698 -8.544762,0.0698 -0.06994,8.45554 -0.06994,8.45554 11.045892,11.05748 c 6.07525,6.08161 11.16759,11.05748 11.31631,11.05748 0.43415,0 16.80371,-16.49898 16.80371,-16.93657 0,-0.21835 -3.51235,-3.90783 -7.80521,-8.19885 -4.29286,-4.29101 -7.80444,-7.92166 -7.8035,-8.06811 0.003,-0.48294 2.14705,-2.7798 2.59475,-2.7798 0.24123,0 1.89477,1.45266 3.67452,3.22814 1.77976,1.77548 3.29931,3.16476 3.37679,3.08729 0.18293,-0.18294 -0.47423,-7.1129 -1.45897,-15.38538 -0.86726,-7.28556 -0.9102,-8.01656 -0.48627,-8.27856 0.38559,-0.23831 3.46663,-0.166 3.70706,0.087 0.24723,0.26014 2.62191,21.48228 2.61245,23.34692 -0.004,0.80037 -0.17588,2.16959 -0.38182,3.04271 l -0.37442,1.5875 4.15235,4.17692 4.15236,4.17692 -11.18561,11.16891 c -6.15209,6.14291 -11.33288,11.20081 -11.51286,11.23979 -0.17999,0.039 -6.18881,-5.79508 -13.35294,-12.96458 z M 56.27121,252.74553 c 1.656657,-0.81052 2.906324,-2.11266 3.69339,-3.84846 0.761918,-1.68035 0.761918,-4.96113 0,-6.64147 -1.658715,-3.65815 -5.773226,-5.51978 -9.685763,-4.38238 -2.165857,0.62963 -3.599507,1.83865 -4.672864,3.94069 -0.79213,1.5513 -0.903991,2.01687 -0.903991,3.76242 0,1.74783 0.110829,2.20767 0.903991,3.75076 0.50723,0.98681 1.334236,2.1044 1.884265,2.54633 2.360686,1.89674 5.956715,2.25389 8.780972,0.87211 z m 34.503547,0.58309 c 0.223162,-0.22316 0.3175,-1.71685 0.3175,-5.02708 v -4.70958 l 2.447395,-0.004 c 2.968416,-0.005 3.323016,-0.16307 2.86185,-1.27643 -2.177971,-5.25808 -9.638866,-6.36337 -13.48205,-1.99728 -3.803099,4.32055 -1.679831,11.37592 3.93776,13.08471 1.060876,0.32271 3.569562,0.2777 3.917545,-0.0703 z M 75.420402,190.60915 c 0.320508,-0.39562 2.178105,-4.85485 2.178105,-5.22862 0,-0.16698 -3.15577,-0.26149 -8.731249,-0.26149 -7.080771,0 -8.73125,0.0664 -8.73125,0.35126 0,0.30868 0.499346,1.63702 1.732852,4.60968 l 0.356814,0.8599 h 6.463395 c 4.851426,0 6.530218,-0.0825 6.731333,-0.33073 z M 48.36205,178.90133 v -1.85208 h -5.412612 -5.41261 l -1.126736,1.5875 c -0.619705,0.87313 -1.130827,1.73841 -1.135828,1.92285 -0.0071,0.26381 1.387896,0.32026 6.539349,0.26459 l 6.548437,-0.0708 z m 54.00959,1.58224 c -0.0849,-0.22118 -0.63946,-1.11654 -1.23241,-1.9897 l -1.07809,-1.58756 -5.47663,0.0715 -5.476628,0.0715 -0.08044,1.55788 c -0.04424,0.85683 -0.0182,1.72003 0.05784,1.91822 0.111614,0.29086 1.420963,0.36036 6.789475,0.36036 5.842173,0 6.632423,-0.0489 6.496883,-0.40214 z m 15.10159,93.10533 c -0.10297,-0.10297 -0.18722,-1.00082 -0.18722,-1.99521 v -1.80799 h 1.99596 1.99597 l -0.0777,1.91823 -0.0777,1.91823 -1.731,0.077 c -0.95205,0.0423 -1.81525,-0.007 -1.91823,-0.11025 z m -10.47228,-1.81291 c -0.60061,-0.65159 -1.09203,-1.27766 -1.09203,-1.39127 0,-0.29915 11.73016,-11.9761 12.03069,-11.9761 0.42038,0 2.5214,2.19737 2.5214,2.63703 0,0.54617 -11.39355,11.91505 -11.94091,11.91505 -0.23491,0 -0.91853,-0.53312 -1.51915,-1.18471 z m -1.77608,-10.55272 c -0.0761,-0.1982 -0.10209,-1.0614 -0.0578,-1.91823 l 0.0804,-1.55788 1.8284,-0.0792 c 2.11282,-0.0915 2.26265,0.0302 2.26859,1.8435 0.007,1.99599 -0.0724,2.07216 -2.14922,2.07216 -1.30192,0 -1.8721,-0.10428 -1.97036,-0.36035 z M 64.785115,229.41785 c -0.546404,-0.5464 -0.583602,-3.61348 -0.0492,-4.05699 0.249327,-0.20692 1.624489,-0.28076 4.299479,-0.23084 l 3.932909,0.0734 0.07895,1.97855 c 0.105381,2.6408 0.08761,2.65165 -4.343958,2.65165 -2.831229,0 -3.582082,-0.0797 -3.91818,-0.41577 z m 31.466516,0.24117 c -1.531281,-0.36017 -2.382977,-0.75298 -3.213279,-1.482 -3.33111,-2.92475 -2.619645,-8.56884 1.310819,-10.39883 5.056172,-2.35412 10.356019,2.07019 8.813979,7.3579 -0.52612,1.80407 -1.7366,3.28412 -3.207352,3.9216 -1.180748,0.51178 -2.898995,0.79072 -3.704167,0.60133 z m 2.16576,-4.8986 c 1.211718,-1.13835 0.439516,-3.21707 -1.195072,-3.21707 -1.732873,0 -2.522879,1.90112 -1.321443,3.17999 0.72214,0.76869 1.722075,0.78342 2.516515,0.0371 z m 27.132509,4.3456 c -0.10239,-0.25466 -0.18795,-1.23693 -0.19014,-2.18281 l -0.004,-1.71979 1.91032,-0.0776 c 2.16042,-0.0877 2.11186,-0.14 2.25241,2.42412 l 0.0706,1.2882 -1.32292,0.35376 c -1.80699,0.48321 -2.49626,0.46141 -2.71632,-0.0859 z m -93.331732,-1.97948 c -0.06806,-0.1846 -0.154461,-2.41922 -0.19201,-4.96583 l -0.06827,-4.63021 -4.894792,-0.13229 -4.894791,-0.13229 -0.07124,-6.06666 c -0.05491,-4.67686 0.0057,-6.11549 0.264583,-6.2798 0.1847,-0.11723 2.449178,-0.21497 5.032172,-0.2172 l 4.696354,-0.004 0.004,-4.69636 c 0.0021,-2.58299 0.09997,-4.84747 0.217199,-5.03217 0.164317,-0.25888 1.602947,-0.3195 6.279801,-0.26458 l 6.06666,0.0712 0.07198,4.96094 0.07198,4.96094 h 4.724264 c 3.687212,0 4.790588,0.0799 5.026396,0.36404 0.211502,0.25485 0.280744,2.13977 0.230833,6.28385 l -0.07129,5.91982 -4.894791,0.13229 -4.894792,0.13229 -0.132291,4.89479 -0.132292,4.89479 -6.157989,0.071 c -4.784749,0.0552 -6.185582,-0.004 -6.281727,-0.26458 z m 8.125082,-3.97365 c 0.02804,-0.0364 0.11734,-2.2688 0.198437,-4.96093 l 0.147447,-4.89479 4.894792,-0.1323 4.894791,-0.13229 0.08031,-1.71298 c 0.06496,-1.38554 -0.0079,-1.77751 -0.381299,-2.05052 -0.332161,-0.24288 -1.745888,-0.33754 -5.041249,-0.33754 H 40.55684 v -4.70958 c 0,-3.31023 -0.09434,-4.80392 -0.3175,-5.02709 -0.174625,-0.17462 -0.984249,-0.3175 -1.799166,-0.3175 -0.814917,0 -1.624542,0.14288 -1.799167,0.3175 -0.222956,0.22296 -0.3175,1.7079 -0.3175,4.98679 v 4.66929 l -4.828645,0.18628 c -2.655755,0.10245 -4.924083,0.28151 -5.040728,0.3979 -0.116645,0.11639 -0.176176,0.97343 -0.132292,1.90453 l 0.07979,1.69292 4.960937,0.072 4.960937,0.072 v 4.70375 c 0,3.30568 0.09437,4.79811 0.3175,5.02124 0.260829,0.26083 3.524147,0.48238 3.702241,0.25135 z m 43.074378,-5.73731 c -2.805371,-0.85336 -4.547888,-3.12455 -4.580707,-5.9705 -0.04528,-3.92655 3.040367,-6.7974 6.880037,-6.40111 3.840411,0.39637 6.257994,3.88308 5.38798,7.7707 -0.277741,1.24109 -0.572399,1.73818 -1.696849,2.86263 -1.747174,1.74718 -3.903866,2.37299 -5.990461,1.73828 z m 3.269136,-5.11485 c 0.340863,-0.45655 0.451192,-0.89435 0.338519,-1.34328 -0.58874,-2.34572 -3.620386,-2.17982 -3.821898,0.20914 -0.180658,2.14172 2.161717,2.90436 3.483379,1.13414 z m 20.525146,4.96776 c -4.87016,-1.56299 -5.62446,-8.78357 -1.1891,-11.38286 4.32742,-2.53603 9.55369,0.52382 9.49561,5.55945 -0.0492,4.26341 -4.16859,7.1514 -8.30651,5.82341 z m 3.45951,-4.63278 c 0.63302,-0.63302 0.68487,-1.77663 0.11729,-2.58696 -0.50494,-0.72091 -2.08445,-0.80536 -2.80843,-0.15016 -0.71374,0.64593 -0.65248,2.32442 0.10418,2.85441 0.81033,0.56757 1.95394,0.51573 2.58696,-0.11729 z m -15.082959,-7.37555 c -1.181134,-0.38673 -2.231794,-1.02723 -2.944645,-1.7951 -2.778329,-2.99277 -2.123768,-7.79344 1.340289,-9.82994 1.021908,-0.60077 1.516541,-0.71087 3.193568,-0.71087 1.677916,0 2.171456,0.10998 3.195767,0.71217 4.22765,2.48538 4.00691,8.85019 -0.385257,11.10862 -1.140706,0.58654 -3.380632,0.84879 -4.399722,0.51512 z m 2.912129,-4.79529 c 0.701029,-0.70102 0.699256,-2.1453 -0.0034,-2.78121 -1.22044,-1.10448 -3.171586,-0.2635 -3.171586,1.36701 0,1.1128 0.791556,1.94337 1.852083,1.94337 0.440973,0 1.028935,-0.23518 1.322917,-0.52917 z"
         id="path229"
         inkscape:connector-curvature="0" />
      <path
         style="fill:#050506;stroke-width:0.26458332"
         d="m 104.26019,279.117 -12.893521,-12.90317 -0.07106,-4.36562 -0.07106,-4.36563 -2.680935,-0.14683 c -2.321502,-0.12715 -2.915552,-0.26234 -4.430858,-1.00832 -3.427087,-1.68715 -5.851549,-4.75826 -6.673709,-8.45371 -0.381916,-1.71664 -0.400355,-2.29839 -0.129017,-4.07089 0.17412,-1.13741 0.2437,-2.18594 0.154623,-2.33007 -0.09974,-0.16139 -2.633543,-0.26205 -6.596237,-0.26205 -7.239857,0 -7.20708,-0.008 -6.726798,1.731 0.157088,0.56892 0.238091,2.12094 0.180009,3.44893 -0.09079,2.07592 -0.228515,2.6642 -0.982064,4.19487 -2.204157,4.47728 -6.810293,7.0452 -12.000748,6.69041 -2.892227,-0.1977 -5.043077,-1.24455 -7.24975,-3.52858 -0.95218,-0.98556 -1.836801,-1.68521 -2.034701,-1.60927 -0.192567,0.0739 -2.573446,3.28956 -5.290844,7.14593 -2.955922,4.19487 -5.506427,7.5286 -6.34892,8.29859 -2.789767,2.54969 -6.244984,3.85896 -10.230672,3.87667 -5.685208,0.0253 -10.9458262,-3.31641 -13.4842068,-8.56546 -0.5873318,-1.21452 -1.067876,-2.41586 -1.067876,-2.66963 0,-0.25377 -0.1073474,-0.52775 -0.2385496,-0.60883 -0.4169318,-0.25768 -0.5814168,-3.12417 -0.2893875,-5.04318 0.4930283,-3.23982 4.9927699,-42.71408 5.2931369,-46.43437 0.33906,-4.19952 0.994743,-7.20808 2.232674,-10.24449 0.929977,-2.28106 3.203546,-5.90815 4.660042,-7.4343 0.828576,-0.8682 0.843833,-0.87232 1.402906,-0.37957 0.31087,0.27399 0.892641,0.70149 1.292823,0.94999 0.906998,0.56322 0.925001,1.22027 0.05581,2.03683 -1.071291,1.00643 -3.2373,4.56383 -4.118041,6.76338 -0.445326,1.11215 -0.973278,2.98997 -1.173225,4.17294 -0.199948,1.18296 -1.608693,13.52131 -3.130545,27.41855 -3.0554906,27.90212 -3.0076849,26.9289 -1.477348,30.07564 1.38459,2.84705 4.545829,5.20768 7.95214,5.93821 0.763553,0.16375 2.260984,0.24172 3.327625,0.17327 2.476244,-0.15892 5.216794,-1.44945 7.002483,-3.29749 0.67595,-0.69956 3.682279,-4.75171 6.680728,-9.0048 l 5.451728,-7.73288 v -1.67038 c 0,-3.49101 1.248109,-6.4288 3.741748,-8.80733 4.570468,-4.35949 11.599471,-4.65856 16.186287,-0.6887 l 1.270815,1.09988 h 8.978407 8.97841 l 1.643529,-1.32437 c 2.696762,-2.17308 5.750475,-2.95708 9.299458,-2.3875 4.568756,0.73323 8.624995,4.04888 9.719841,7.9452 0.18401,0.65485 0.44736,1.33946 0.58522,1.52136 0.18836,0.24853 1.8388,0.33073 6.64103,0.33073 h 6.39037 l 1.9689,1.98212 1.9689,1.98213 -1.17072,1.19287 c -0.64389,0.65608 -1.28324,1.19288 -1.42079,1.19288 -0.13754,0 -0.87953,-0.59532 -1.64886,-1.32292 l -1.39879,-1.32292 h -8.42959 c -6.203565,0 -8.513428,0.0838 -8.747084,0.3175 -0.3541,0.3541 -0.436488,7.84424 -0.152209,13.83771 l 0.163144,3.43958 10.749839,10.79936 c 5.91242,5.93965 10.97205,10.9221 11.24363,11.07213 0.42809,0.23648 1.61606,-0.84749 8.92969,-8.14799 4.63974,-4.63142 8.4359,-8.57609 8.4359,-8.76595 0,-0.18986 -3.51234,-3.89507 -7.80521,-8.23381 -4.29286,-4.33873 -7.8052,-8.00086 -7.8052,-8.13806 0,-0.1372 0.53742,-0.7769 1.19428,-1.42156 l 1.19428,-1.1721 3.37346,3.36597 c 1.8554,1.85129 3.52063,3.36597 3.70051,3.36597 0.61456,0 0.3824,-3.12635 -1.2648,-17.03268 -0.42878,-3.6199 -0.71524,-6.68576 -0.63659,-6.81302 0.19499,-0.31549 3.55135,-0.29525 3.55135,0.0214 0,0.13905 0.53579,4.95983 1.19063,10.71286 1.29038,11.33646 1.35237,12.42297 0.86941,15.23938 l -0.32122,1.87319 4.10365,4.08006 4.10365,4.08006 -11.05928,11.05113 c -6.0826,6.07813 -11.20774,11.08304 -11.3892,11.12202 -0.18146,0.039 -6.13201,-5.73555 -13.22345,-12.83229 z M 56.039229,253.14405 c 1.717831,-0.75763 3.386878,-2.41389 4.133667,-4.10199 0.821804,-1.85767 0.841341,-5.05475 0.04167,-6.8195 -0.789676,-1.7427 -2.49782,-3.49098 -4.119531,-4.21632 -2.088496,-0.93413 -5.092326,-0.88931 -7.11958,0.10622 -5.353081,2.62876 -6.160883,10.25594 -1.485222,14.02331 2.250164,1.81306 5.78027,2.2294 8.548991,1.00828 z m 34.901837,0.35088 c 0.346167,-0.34617 0.415774,-1.18776 0.415774,-5.02708 v -4.61131 h 2.33068 c 1.616885,0 2.487972,-0.11691 2.844271,-0.38172 0.502861,-0.37375 0.497639,-0.41258 -0.249981,-1.85883 -1.35282,-2.61699 -4.004419,-4.20567 -7.041637,-4.21894 -2.587225,-0.0113 -4.330848,0.69384 -6.106583,2.46957 -1.868199,1.8682 -2.45932,3.44699 -2.318654,6.19274 0.182017,3.55296 2.55539,6.5389 6.043987,7.60393 1.23484,0.37698 3.635828,0.27796 4.082143,-0.16836 z m 26.609524,18.27515 v -1.71979 h 1.71979 1.71979 v 1.71979 1.71979 h -1.71979 -1.71979 z m -10.39735,-0.0773 c -0.53885,-0.55184 -0.97973,-1.1184 -0.97973,-1.25903 0,-0.14062 2.6191,-2.87275 5.82022,-6.07139 l 5.82021,-5.81571 1.25452,1.25452 1.25452,1.25451 -5.81571,5.82022 c -3.19864,3.20112 -5.94139,5.82022 -6.095,5.82022 -0.15361,0 -0.72017,-0.4515 -1.25903,-1.00334 z m -1.59709,-10.28555 c -0.097,-0.097 -0.17639,-0.93589 -0.17639,-1.86417 v -1.68778 l 1.78593,0.0782 1.78594,0.0782 0.0807,1.41054 c 0.0465,0.81255 -0.0514,1.56968 -0.23084,1.78594 -0.31938,0.38483 -2.90122,0.54315 -3.24536,0.199 z M 65.074898,229.12807 c -0.09701,-0.097 -0.17639,-0.93364 -0.17639,-1.85916 v -1.68277 l 3.902604,0.0732 3.902604,0.0732 0.08355,1.1694 c 0.175823,2.46077 0.269988,2.40248 -3.880956,2.40248 -2.010265,0 -3.734403,-0.0794 -3.831415,-0.17639 z m 29.886829,-0.19608 c -2.354202,-0.87642 -3.754252,-3.20434 -3.558095,-5.91618 0.148145,-2.04812 0.901705,-3.44399 2.412449,-4.46876 4.236032,-2.87338 9.463139,0.1733 9.135129,5.32452 -0.12613,1.9808 -0.97358,3.4629 -2.59273,4.53441 -1.300167,0.86041 -3.834875,1.10746 -5.396753,0.52601 z m 3.68318,-3.98113 c 1.207209,-1.20721 0.614489,-3.31697 -1.049184,-3.73452 -0.726681,-0.18239 -2.129954,0.46202 -2.370363,1.08851 -0.599858,1.56321 0.426363,3.29544 1.952313,3.29544 0.515506,0 1.057862,-0.24006 1.467234,-0.64943 z m 27.288713,4.15516 c -0.0632,-0.10914 -0.19986,-0.89924 -0.30374,-1.75578 -0.14263,-1.1761 -0.10214,-1.61231 0.1654,-1.78188 0.4387,-0.27807 3.05874,-0.30594 3.21603,-0.0342 0.0632,0.10915 0.19431,0.85481 0.2914,1.65703 l 0.17652,1.45859 -1.408,0.32735 c -1.63444,0.37999 -1.9802,0.40084 -2.13761,0.12891 z M 32.795733,227.0114 c -0.09701,-0.097 -0.17639,-2.17087 -0.17639,-4.60857 0,-2.4377 -0.07227,-4.62051 -0.1606,-4.85069 -0.137964,-0.35953 -0.818517,-0.41909 -4.828645,-0.42257 -2.567425,-0.002 -4.819304,-0.10005 -5.004175,-0.21739 -0.258433,-0.16402 -0.319591,-1.52385 -0.264583,-5.88292 l 0.07155,-5.66959 4.755617,-0.0725 c 2.786708,-0.0425 4.868009,-0.18455 5.027084,-0.34315 0.155202,-0.15474 0.328123,-2.33333 0.403757,-5.08688 l 0.132291,-4.81622 5.522553,-0.0716 c 3.799173,-0.0493 5.634447,0.0213 5.881116,0.22597 0.272385,0.22606 0.375872,1.45152 0.430572,5.0987 l 0.07201,4.80111 4.894791,0.13229 4.894792,0.1323 0.07161,5.52255 c 0.04993,3.85035 -0.01998,5.6329 -0.230833,5.88698 -0.236236,0.28464 -1.337982,0.36442 -5.03255,0.36442 h -4.730104 v 4.60857 c 0,2.53472 -0.07227,4.7969 -0.160599,5.02709 -0.139465,0.36344 -0.899628,0.41851 -5.776735,0.41851 -3.088875,0 -5.695513,-0.0794 -5.792525,-0.17639 z m 7.708193,-3.84528 c 0.223163,-0.22316 0.3175,-1.71685 0.3175,-5.02708 v -4.70958 h 4.709583 c 3.310231,0 4.80392,-0.0943 5.027083,-0.3175 0.351472,-0.35147 0.431448,-3.32684 0.103307,-3.84336 -0.147273,-0.23182 -1.562008,-0.34509 -4.956887,-0.39688 l -4.750795,-0.0725 -0.07244,-4.74297 c -0.04507,-2.95096 -0.182269,-4.87531 -0.363127,-5.09323 -0.339908,-0.40957 -3.316063,-0.4791 -3.930057,-0.0918 -0.320771,0.20233 -0.422244,1.17824 -0.529167,5.08918 l -0.132292,4.83885 -4.894791,0.13229 -4.894792,0.13229 -0.07878,1.80976 c -0.04816,1.10645 0.04154,1.95473 0.230834,2.18281 0.245112,0.29534 1.286401,0.37306 4.998404,0.37306 h 4.688793 l 0.180138,4.79834 c 0.09908,2.63909 0.243756,4.90127 0.321509,5.02708 0.21749,0.35191 3.661232,0.27599 4.025974,-0.0888 z m 84.475134,-2.36853 c -0.25908,-0.6269 -1.61485,-12.57698 -1.61017,-14.19231 0.005,-1.5733 -0.81071,-4.9121 -1.71378,-7.01844 -1.31225,-3.06072 -2.42444,-4.77626 -4.6129,-7.11537 -3.1773,-3.39602 -6.33597,-5.36953 -10.79023,-6.74164 l -2.32743,-0.71695 -10.683541,-0.0981 c -7.375278,-0.0677 -10.771414,-0.0102 -10.967314,0.18571 -0.156078,0.15608 -1.129313,2.39699 -2.162749,4.9798 l -1.878976,4.69601 -9.423915,0.0695 -9.423916,0.0695 -1.957398,-4.96425 -1.957401,-4.96426 H 44.771946 c -10.48739,0 -10.736352,0.0122 -12.68177,0.62147 -2.772532,0.8683 -4.894197,1.79081 -6.539924,2.84356 -0.774318,0.49533 -1.559044,0.9006 -1.743836,0.9006 -0.184792,0 -0.713613,-0.65747 -1.175158,-1.46104 l -0.839173,-1.46103 1.11415,-0.80858 c 0.612782,-0.44473 2.007119,-1.22108 3.098525,-1.72524 1.091406,-0.50416 2.282031,-1.06122 2.645833,-1.23791 0.390257,-0.18954 1.908985,-2.18944 3.704167,-4.87774 l 3.042708,-4.55648 8.466666,0.0604 8.466666,0.0604 0.132292,3.83646 0.132292,3.83646 16.122688,0.0682 c 12.72295,0.0538 16.167242,-0.002 16.33397,-0.26459 0.116202,-0.18304 0.213103,-1.96991 0.215331,-3.97082 l 0.0041,-3.63802 h 8.471463 8.471464 l 3.03856,4.6442 c 2.51342,3.84157 3.18706,4.69592 3.89781,4.9435 1.8281,0.63678 5.04473,2.41531 7.00848,3.87512 5.89401,4.3815 9.87987,11.25354 10.66031,18.37951 1.24686,11.38485 1.60454,15.06989 1.49134,15.36488 -0.0724,0.1886 -0.60763,0.41903 -1.18946,0.51207 -0.58183,0.093 -1.24411,0.24062 -1.47173,0.32797 -0.27414,0.1052 -0.50053,-0.0509 -0.6706,-0.46245 z M 76.619324,188.71005 c 0.55617,-1.29917 1.078426,-2.69815 1.160566,-3.10886 l 0.149346,-0.74673 h -9.01329 c -4.957309,0 -9.071191,0.0937 -9.141959,0.20819 -0.153448,0.24828 1.758918,5.19647 2.225685,5.75889 0.274381,0.33061 1.363284,0.38082 6.966823,0.32124 l 6.64161,-0.0706 z m 25.850016,-7.97115 c 0,-0.43057 -2.00113,-3.54742 -2.493685,-3.88403 -0.340016,-0.23237 -5.46613,-0.21916 -8.618815,0.0222 l -2.248958,0.17218 v 1.85208 1.85209 l 5.820833,0.14009 c 3.201458,0.0771 6.207785,0.16635 6.680725,0.19844 0.62647,0.0425 0.8599,-0.0533 0.8599,-0.35305 z m -53.763337,-1.66223 c 0.04774,-1.00843 -0.04427,-1.82572 -0.230833,-2.05052 -0.338751,-0.40817 -4.052046,-0.472 -8.569864,-0.14732 l -2.371331,0.17042 -1.12531,1.5875 c -0.618921,0.87313 -1.1294,1.73837 -1.134401,1.92277 -0.0071,0.26385 1.414241,0.32022 6.671641,0.26459 l 6.680729,-0.0707 z m 33.785026,37.56351 c -2.644693,-1.20146 -3.870333,-4.17622 -3.012543,-7.31176 0.437052,-1.59759 2.454359,-3.43621 4.175053,-3.80523 3.898082,-0.83599 7.183323,1.78575 7.168324,5.72057 -0.01331,3.48987 -2.417199,5.89842 -5.87267,5.88405 -0.775033,-0.003 -1.869993,-0.22043 -2.458164,-0.48763 z m 3.828293,-3.46972 c 1.317932,-0.70534 1.122963,-3.12991 -0.31133,-3.87161 -2.155915,-1.11487 -4.216461,1.73642 -2.542532,3.51824 0.616122,0.65583 1.97444,0.82402 2.853862,0.35337 z m 20.488318,3.4585 c -2.29452,-1.04203 -3.41486,-3.10749 -3.23318,-5.96069 0.0877,-1.37701 0.26835,-1.9513 0.89387,-2.84131 2.16368,-3.07854 6.78492,-3.26366 9.32256,-0.37345 2.45678,2.79812 1.44613,7.65493 -1.91013,9.17931 -1.40393,0.63765 -3.66432,0.63593 -5.07312,-0.004 z m 3.55703,-3.62308 c 1.69417,-1.18664 0.94813,-3.7781 -1.09434,-3.80134 -1.50482,-0.0171 -2.61662,2.0762 -1.70776,3.21541 0.80533,1.00944 1.87741,1.23361 2.8021,0.58593 z m -15.702809,-8.53653 c -1.293876,-0.5878 -2.608754,-2.035 -3.042203,-3.34836 -0.517636,-1.56846 -0.225229,-3.85173 0.680985,-5.31749 2.147665,-3.47377 7.606395,-3.47377 9.754057,0 0.90622,1.46576 1.19862,3.74903 0.68099,5.31749 -0.75198,2.2785 -3.003632,3.83018 -5.558017,3.83018 -0.84288,0 -1.901492,-0.20274 -2.515812,-0.48182 z m 3.983046,-3.86016 c 1.970883,-1.97088 -0.939515,-4.91759 -2.971536,-3.00861 -1.324215,1.24404 -0.331501,3.65804 1.504302,3.65804 0.515506,0 1.057862,-0.24005 1.467234,-0.64943 z"
         id="path227"
         inkscape:connector-curvature="0" />
    </g>
  </g>
</svg>
