<?xml version="1.0" encoding="UTF-8" standalone="no"?>
<!-- Created with Inkscape (http://www.inkscape.org/) -->

<svg
   xmlns:dc="http://purl.org/dc/elements/1.1/"
   xmlns:cc="http://creativecommons.org/ns#"
   xmlns:rdf="http://www.w3.org/1999/02/22-rdf-syntax-ns#"
   xmlns:svg="http://www.w3.org/2000/svg"
   xmlns="http://www.w3.org/2000/svg"
   xmlns:sodipodi="http://sodipodi.sourceforge.net/DTD/sodipodi-0.dtd"
   xmlns:inkscape="http://www.inkscape.org/namespaces/inkscape"
   width="512"
   height="512"
   viewBox="0 0 135.46666 135.46667"
   version="1.1"
   id="svg8"
   inkscape:version="0.92.4 (5da689c313, 2019-01-14)"
   sodipodi:docname="happy.svg">
  <defs
     id="defs2" />
  <sodipodi:namedview
     id="base"
     pagecolor="#ffffff"
     bordercolor="#666666"
     borderopacity="1.0"
     inkscape:pageopacity="0.0"
     inkscape:pageshadow="2"
     inkscape:zoom="0.35"
     inkscape:cx="251.77895"
     inkscape:cy="560"
     inkscape:document-units="mm"
     inkscape:current-layer="layer1"
     showgrid="false"
     units="px"
     inkscape:window-width="675"
     inkscape:window-height="740"
     inkscape:window-x="683"
     inkscape:window-y="0"
     inkscape:window-maximized="0" />
  <metadata
     id="metadata5">
    <rdf:RDF>
      <cc:Work
         rdf:about="">
        <dc:format>image/svg+xml</dc:format>
        <dc:type
           rdf:resource="http://purl.org/dc/dcmitype/StillImage" />
        <dc:title></dc:title>
      </cc:Work>
    </rdf:RDF>
  </metadata>
  <g
     inkscape:label="Layer 1"
     inkscape:groupmode="layer"
     id="layer1"
     transform="translate(0,-161.53332)">
    <g
       id="g271"
       transform="matrix(0.64847597,0,0,0.64847597,20.052476,98.153952)">
      <path
         style="fill:#cfd2d4;stroke-width:0.35277778"
         d="M 16.530162,293.15583 C -0.27486738,291.15609 -5.3966602,277.16371 6.2113834,264.96564 l 2.9492444,-3.09915 -1.0758974,-3.21134 c -0.5917438,-1.76623 -1.1763883,-3.83977 -1.29921,-4.60786 -0.2737495,-1.71193 -0.6656983,-1.74911 -3.1934065,-0.3029 -3.10618391,1.77718 -5.6167037,1.29954 -6.4506216,-1.22725 -0.3184942,-0.96505 -0.2968763,-1.46769 0.1044317,-2.42816 0.5765278,-1.37982 1.94575465,-2.32095 5.8340882,-4.01 l 2.6904276,-1.1687 0.4181267,-3.73992 c 0.2299694,-2.05695 0.6851671,-5.08566 1.0115497,-6.73047 0.3263825,-1.6448 0.517218,-3.06675 0.4240787,-3.15989 -0.093139,-0.0931 -2.0430229,-0.26976 -4.3330748,-0.39249 -3.83194524,-0.20536 -4.24602132,-0.29666 -5.1964244,-1.14585 -1.8140983,-1.6209 -1.2101844,-4.81948 1.07961076,-5.71807 0.82431077,-0.32349 3.84679574,-0.27277 10.23518954,0.17174 0.704543,0.049 1.111661,-0.519 2.961472,-4.13195 l 2.144638,-4.18879 -1.817639,-7.27649 c -2.436174,-9.75264 -3.2446271,-14.68579 -3.476129,-21.21121 -0.2257567,-6.36347 0.1894635,-9.53693 1.64565,-12.57744 2.724264,-5.68826 7.79925,-6.63409 16.642522,-3.1017 1.673296,0.66839 3.189446,1.21525 3.369226,1.21525 0.179782,0 1.257042,-1.13067 2.393918,-2.51261 3.994425,-4.85545 11.753028,-10.42616 18.778001,-13.48268 4.108947,-1.78777 9.39486,-3.36391 14.35282,-4.27968 l 4.277575,-0.79009 -0.08241,-1.90289 c -0.04532,-1.04658 -0.314431,-2.93476 -0.598015,-4.19594 -1.675401,-7.45096 -0.639166,-14.59043 3.041411,-20.9547 2.000165,-3.45859 6.774236,-8.13251 9.925635,-9.71741 3.880291,-1.95148 10.763299,-2.61377 17.152069,-1.65038 3.15381,0.47557 4.24875,0.83494 7.58472,2.48934 5.27381,2.61541 8.20104,4.84813 9.5432,7.27897 0.91142,1.65069 1.05828,2.28387 1.05828,4.56252 0,2.27816 -0.14706,2.91248 -1.05828,4.5647 -1.68113,3.04823 -4.7139,4.88233 -8.15767,4.93346 -2.29949,0.0341 -3.94798,-0.55441 -7.0225,-2.50719 -3.651765,-2.31941 -5.28652,-2.93403 -7.803931,-2.93403 -1.946116,0 -2.315037,0.1168 -3.275521,1.037 -2.447928,2.34526 -2.986743,5.13574 -1.955228,10.12596 0.295067,1.42746 0.652254,4.1035 0.79375,5.94676 l 0.257267,3.35139 2.822222,0.63961 c 12.289201,2.78512 21.533531,7.70535 29.414541,15.65567 l 4.36733,4.40573 2.75734,-1.0896 c 3.91137,-1.54563 6.50638,-2.16945 9.14551,-2.19851 4.06844,-0.0448 6.54618,1.59316 8.32225,5.50156 1.28596,2.82985 1.67597,6.05354 1.45079,11.99184 -0.24957,6.58156 -1.13355,12.02426 -3.4819,21.43803 l -1.8231,7.30821 2.11815,4.15706 c 1.86177,3.65391 2.22118,4.15019 2.96945,4.10023 8.40516,-0.56116 9.35992,-0.55997 10.46804,0.013 1.37152,0.70924 1.84854,1.54088 1.84854,3.22272 0,0.93231 -0.26699,1.55205 -0.97264,2.25769 -0.91873,0.91874 -1.203,0.98499 -5.12924,1.1954 -2.28613,0.12252 -4.28475,0.30196 -4.44137,0.39876 -0.15663,0.0968 -0.003,1.47292 0.34067,3.05804 0.34399,1.58512 0.80587,4.56735 1.0264,6.62716 0.22053,2.05982 0.51007,3.84794 0.64343,3.97361 0.13336,0.12566 1.48859,0.74237 3.01163,1.37046 5.1285,2.11494 6.85699,4.90928 4.55098,7.35731 -1.48438,1.57581 -2.41731,1.61201 -5.34805,0.20749 -1.40731,-0.67443 -2.6933,-1.22624 -2.85776,-1.22624 -0.16447,0 -0.48768,0.91281 -0.71825,2.02847 -0.23058,1.11566 -0.79745,3.07955 -1.25973,4.36421 -0.46228,1.28466 -0.84029,2.47528 -0.84002,2.64583 2.7e-4,0.17055 1.25578,1.60607 2.79003,3.19003 7.42984,7.6706 8.3745,16.94229 2.33043,22.87285 -4.25218,4.17232 -10.09851,5.82083 -20.64317,5.82083 -8.01429,0 -12.84765,-0.87576 -16.95481,-3.07205 l -2.31454,-1.23769 -3.32991,0.8937 c -9.07523,2.43565 -13.740418,2.98232 -28.200743,3.30456 -14.558945,0.32444 -23.47565,-0.45597 -33.42604,-2.92551 l -5.027425,-1.24773 -1.851742,1.04514 c -2.746752,1.55029 -5.663356,2.41647 -9.612848,2.85483 -4.031146,0.44742 -11.801001,0.43138 -15.698611,-0.0324 z m 77.258332,-7.16415 c 4.598529,-0.61767 10.530876,-1.75661 13.057096,-2.50681 l 1.70241,-0.50556 -0.19678,-3.29813 c -0.1629,-2.73054 -0.0695,-3.71622 0.54296,-5.72746 1.34754,-4.42544 4.47042,-8.7667 8.45036,-11.74725 4.96404,-3.71753 9.78691,-5.32236 15.99491,-5.32236 h 3.80755 l 0.36715,-1.32292 c 0.20193,-0.7276 0.55062,-2.25137 0.77487,-3.38616 0.46767,-2.36656 0.26252,-2.67308 -1.81442,-2.71098 -0.67909,-0.0124 -2.79319,-0.14815 -4.69799,-0.3017 -3.02387,-0.24374 -3.57552,-0.39139 -4.34788,-1.16376 -0.54117,-0.54117 -0.96037,-1.44952 -1.07977,-2.33969 -0.17756,-1.32382 -0.0782,-1.57202 1.10114,-2.75139 l 1.2963,-1.29631 4.97003,0.246 4.97002,0.246 -0.24908,-2.22274 c -0.137,-1.2225 -0.41323,-2.99331 -0.61386,-3.93511 -0.35697,-1.67576 -0.38849,-1.70794 -1.4742,-1.5051 -0.61018,0.114 -3.49068,1.4018 -6.40109,2.86178 -2.91042,1.45997 -5.65674,2.6532 -6.10294,2.65162 -3.13287,-0.0111 -4.76119,-4.16532 -2.44652,-6.24165 1.48108,-1.32858 5.2298,-3.3572 9.35223,-5.06096 2.26559,-0.93635 4.17089,-1.85737 4.23401,-2.04672 0.0631,-0.18935 -1.03023,-2.58761 -2.42965,-5.32948 l -2.54441,-4.98522 0.99539,-3.60345 c 0.54747,-1.9819 1.05863,-3.78197 1.13593,-4.00017 0.0773,-0.21819 -0.67079,-1.32944 -1.66241,-2.46944 -2.16098,-2.48433 -8.52072,-8.2666 -8.94893,-8.13635 -0.16686,0.0507 -0.68746,1.31043 -1.15687,2.79929 -2.26805,7.19367 -8.68349,12.95937 -16.18873,14.54919 -11.193493,2.37108 -22.451877,-4.70923 -25.365162,-15.95196 -0.94694,-3.65436 -0.634591,-9.45802 0.693381,-12.88359 0.215625,-0.55621 -0.03521,-0.61668 -2.53244,-0.61047 -7.327406,0.0182 -17.289085,2.29725 -24.467604,5.59772 -2.617181,1.20331 -3.725609,1.01122 -6.895084,-1.19489 -2.713352,-1.88863 -3.725235,-2.24153 -4.684039,-1.63362 -0.339936,0.21553 0.01923,0.64492 1.322917,1.58151 0.984246,0.70711 1.789539,1.43827 1.789539,1.62478 0,0.18652 -1.606899,1.41235 -3.570887,2.72407 -4.911506,3.28032 -10.676015,8.28898 -14.152347,12.29667 -1.660783,1.91463 -3.139619,3.31473 -3.442166,3.25888 -0.364643,-0.0673 -0.891545,-1.53114 -1.685786,-4.68343 -2.873728,-11.40565 -4.003952,-23.93338 -2.361821,-26.17913 0.403824,-0.55226 0.65759,-0.5715 2.48447,-0.1883 2.387773,0.50084 9.032476,3.65058 14.222793,6.74194 2.015801,1.20061 3.720621,2.12741 3.788484,2.05954 0.06787,-0.0679 -1.81955,-1.40137 -4.194256,-2.96335 -7.82878,-5.14941 -12.561102,-7.60686 -15.496104,-8.04699 -1.584567,-0.23762 -1.662981,-0.20707 -2.216728,0.86376 -2.302715,4.45296 -0.784029,18.87981 3.538478,33.61398 0.667506,2.27534 1.213648,4.55645 1.213648,5.06913 0,0.51269 -0.540321,1.82605 -1.200715,2.91858 -1.513972,2.50467 -3.219404,5.98445 -3.013078,6.14792 0.08627,0.0683 1.985477,0.70237 4.220467,1.40894 4.241723,1.34098 10.253568,4.09489 12.871997,5.89641 2.558116,1.76003 2.907768,4.41137 0.814092,6.17308 -1.58393,1.33279 -2.679362,1.12761 -7.449129,-1.39528 -4.945825,-2.61601 -12.87998,-5.45766 -13.307388,-4.7661 -0.321762,0.52062 -1.279005,5.40292 -1.595275,8.13649 l -0.228636,1.97615 3.120916,-0.47077 c 1.716504,-0.25892 5.105291,-0.56297 7.530638,-0.67568 5.068365,-0.23552 5.811146,-0.0127 6.819025,2.04553 0.558232,1.14 0.586341,1.49702 0.208118,2.64305 -0.240513,0.72876 -0.451573,1.37185 -0.469025,1.42908 -0.01746,0.0572 1.245453,0.53349 2.806453,1.05834 9.270287,3.1169 15.791427,11.40782 16.28909,20.70982 0.168519,3.14984 -0.347916,11.4592 -0.781639,12.57647 -0.262273,0.67561 0.625493,1.02952 4.761311,1.89812 5.542971,1.16412 10.214148,1.83285 16.933333,2.42416 3.510485,0.30895 19.406242,-0.14682 23.283333,-0.66757 z M 66.7599,275.78884 c -2.404287,-0.58348 -4.612965,-1.9213 -6.434512,-3.89744 -2.349888,-2.54933 -2.966335,-4.2951 -3.146647,-8.91127 l -0.154608,-3.95815 1.06893,-1.06893 c 0.820293,-0.82029 1.385225,-1.06894 2.428688,-1.06894 2.696291,0 3.986188,1.89498 3.986188,5.85606 0,3.87927 1.841158,5.90322 5.381251,5.91548 1.811898,0.006 3.010055,-0.65756 4.29834,-2.38151 0.645488,-0.86377 0.740706,-1.57864 0.845978,-6.35132 l 0.118622,-5.37799 -1.205286,-0.91932 c -1.778022,-1.35616 -5.9725,-5.77564 -6.850232,-7.21769 -1.751743,-2.87798 -1.327764,-5.70324 1.240867,-8.26867 1.012638,-1.01138 2.177528,-1.7857 3.049627,-2.02712 1.869768,-0.51762 12.933397,-0.51152 14.667695,0.008 4.03817,1.20986 6.345982,5.85048 4.776967,9.60566 -0.566321,1.3554 -6.652298,7.85049 -7.653863,8.16837 -0.630241,0.20004 -0.678299,0.59735 -0.678299,5.60741 0,5.01107 0.05609,5.47453 0.793749,6.55837 1.29176,1.89799 2.508162,2.60154 4.497917,2.60154 1.989755,0 3.206157,-0.70355 4.497917,-2.60154 0.635166,-0.93325 0.79375,-1.65618 0.79375,-3.61841 0,-3.92775 1.179424,-5.5574 4.02203,-5.5574 1.366537,0 2.88774,1.23659 3.238011,2.63219 0.12817,0.51064 0.166,2.33024 0.0841,4.04356 -0.12514,2.61739 -0.33092,3.48478 -1.287875,5.42864 -1.398126,2.84 -3.91044,5.19762 -6.690681,6.27871 -3.987807,1.55065 -9.363516,0.79754 -12.399645,-1.73713 l -1.200933,-1.00259 -1.966528,1.34253 c -1.989071,1.35791 -5.278801,2.44185 -7.244115,2.38687 -0.589824,-0.0165 -1.884652,-0.22712 -2.877393,-0.46805 z m -8.123301,-42.51405 c -0.800785,-0.48829 -1.279402,-1.18965 -1.722766,-2.52448 -0.794099,-2.39081 -3.06269,-4.71192 -5.162776,-5.28229 -2.072453,-0.56286 -6.667655,-0.21764 -9.258762,0.69559 -1.146034,0.40392 -2.448253,0.73439 -2.893818,0.73439 -3.263583,0 -4.892082,-4.35094 -2.370801,-6.33418 1.697659,-1.33538 6.317276,-2.55963 10.374016,-2.74924 5.795239,-0.27086 9.119327,0.94929 12.59338,4.6226 1.850686,1.95682 3.264313,4.38718 3.904925,6.71348 0.95902,3.48256 -2.38089,6.00373 -5.463398,4.12413 z m 33.513948,0.32896 c -2.221445,-0.89647 -2.472044,-3.68329 -0.657384,-7.31058 1.544408,-3.08709 4.282214,-5.73936 7.495794,-7.2616 2.286913,-1.08329 2.564303,-1.1294 6.793983,-1.1294 3.89131,0 4.79579,0.12134 7.69371,1.03212 2.44139,0.76731 3.50495,1.29471 4.14514,2.05554 1.94969,2.31708 0.26587,5.90817 -2.77027,5.90817 -0.46433,0 -1.7819,-0.34161 -2.92794,-0.75914 -1.57775,-0.57481 -2.94628,-0.76755 -5.63618,-0.79375 -3.36592,-0.0328 -3.64381,0.0215 -5.29167,1.03375 -1.448675,0.88991 -1.95912,1.50863 -3.055913,3.70417 -0.724203,1.44969 -1.654605,2.91362 -2.067556,3.25317 -0.795553,0.65414 -2.466139,0.77424 -3.721714,0.26755 z m 31.176873,-48.38542 c 2.57241,-1.57633 9.14146,-4.88116 10.96798,-5.51789 1.17774,-0.41056 1.30751,-0.64484 0.80056,-1.44533 -0.42005,-0.66324 -1.59791,-0.33318 -5.51289,1.54482 -7.30867,3.50593 -10.41225,5.68781 -9.45383,6.64622 0.40543,0.40543 0.7467,0.27441 3.19818,-1.22782 z"
         id="path285"
         inkscape:connector-curvature="0" />
      <path
         style="fill:#9c9c9c;stroke-width:0.35277778"
         d="M 16.706551,293.04152 C 9.4322106,292.01795 4.1762589,288.96779 1.70819,284.33761 c -2.40232989,-4.50686 -1.75112223,-10.22856 1.7745385,-15.5916 0.9087308,-1.38231 2.6410556,-3.44917 3.8496109,-4.59302 l 2.197373,-2.07974 -1.0699961,-3.22682 c -0.5884979,-1.77476 -1.1789865,-3.90842 -1.3121968,-4.74147 -0.1332103,-0.83305 -0.4600604,-1.59824 -0.7263331,-1.70042 -0.2662728,-0.10218 -1.6581515,0.39432 -3.0930635,1.10332 -2.89590792,1.43089 -3.82396887,1.42827 -5.1795069,-0.0146 -1.1023649,-1.17341 -1.0787704,-2.99896 0.05474,-4.23539 0.4753681,-0.51853 2.21368057,-1.56231 3.8629167,-2.3195 1.6492361,-0.7572 3.236736,-1.50502 3.5277777,-1.66182 0.3692885,-0.19896 0.6074163,-1.1798 0.7881578,-3.24639 0.1424453,-1.62871 0.5790078,-4.58025 0.9701388,-6.55898 0.3911315,-1.97871 0.7111478,-3.82153 0.7111478,-4.09515 0,-0.38792 -0.9517232,-0.55061 -4.3215277,-0.73872 -4.72473721,-0.26374 -5.7664787,-0.66579 -6.3631303,-2.45574 -0.4442834,-1.33285 0.2794956,-2.93901 1.6418736,-3.64352 0.90730774,-0.46919 1.82347091,-0.52336 5.5065598,-0.3256 2.4299929,0.13047 4.735669,0.27217 5.1237246,0.31488 0.5695712,0.0627 1.1300312,-0.73826 2.9079392,-4.15568 1.21131,-2.32833 2.203498,-4.42718 2.204861,-4.66409 0.0014,-0.23693 -0.554351,-2.45943 -1.23492,-4.93889 -1.433112,-5.22116 -3.111053,-13.58233 -3.7189835,-18.53168 -0.6318359,-5.14398 -0.2923275,-13.32747 0.6531745,-15.74406 1.118408,-2.85852 2.342702,-4.48325 4.197275,-5.57011 2.868587,-1.6811 6.845732,-1.28271 13.552159,1.35751 l 2.686505,1.05763 4.54544,-4.56457 c 4.942734,-4.96354 8.332487,-7.4319 14.208219,-10.34616 4.527066,-2.24535 10.824061,-4.33342 15.913607,-5.27693 2.23132,-0.41364 4.431504,-0.8245 4.889292,-0.91302 0.794566,-0.15364 0.821229,-0.25228 0.587368,-2.17301 -0.13474,-1.10663 -0.476723,-3.12331 -0.759964,-4.48151 -1.280499,-6.14023 -0.968047,-10.98725 1.057458,-16.40416 1.462186,-3.91039 3.266228,-6.62127 6.586576,-9.89744 5.494556,-5.42144 12.864571,-7.40134 21.682326,-5.82478 3.527803,0.63075 5.038723,1.17095 8.913503,3.18683 7.06505,3.67564 9.6127,6.66397 9.60388,11.26511 -0.005,2.42669 -1.24917,4.99361 -3.29353,6.79313 -3.10823,2.73597 -7.48994,2.99721 -11.1148,0.66267 -1.09581,-0.70574 -3.18301,-1.87026 -4.63822,-2.58782 -2.189614,-1.07969 -3.023087,-1.30465 -4.833694,-1.30465 -2.070375,0 -2.264191,0.0745 -3.60921,1.38791 -1.759997,1.71859 -2.617868,4.09448 -2.400709,6.6488 0.138257,1.62622 0.887399,7.00603 1.601827,11.50317 l 0.245953,1.54822 4.596324,1.15056 c 10.999009,2.75329 19.811839,7.46838 26.660529,14.26405 1.86307,1.84865 3.73882,3.83243 4.16834,4.40839 l 0.78093,1.04721 1.6525,-0.63352 c 5.328,-2.0426 8.0914,-2.77152 10.68153,-2.81755 2.40939,-0.0428 2.85323,0.0598 4.40972,1.01997 6.6091,4.07683 6.83357,17.89908 0.66813,41.14168 l -0.99828,3.76333 2.08875,4.23651 c 1.14881,2.33008 2.2475,4.30352 2.44153,4.38542 0.19402,0.0819 1.46402,0.0223 2.82222,-0.13242 1.35819,-0.15473 3.68757,-0.28948 5.1764,-0.29945 2.41172,-0.0161 2.82535,0.0815 3.79236,0.89519 1.40814,1.18487 1.52656,3.26373 0.25817,4.53211 -0.74662,0.74663 -1.2628,0.85236 -5.29727,1.08506 -2.45852,0.1418 -4.53374,0.36089 -4.6116,0.48687 -0.0779,0.12597 0.15597,1.47787 0.51962,3.00421 0.36365,1.52634 0.85519,4.65763 1.09231,6.95844 l 0.43113,4.18327 1.96527,0.73434 c 2.80326,1.04746 5.27298,2.45363 6.05457,3.44726 1.39708,1.77611 0.40023,4.68799 -1.76791,5.16419 -0.76898,0.1689 -1.63762,-0.086 -3.51468,-1.03124 -1.37129,-0.69058 -2.71506,-1.25559 -2.98614,-1.25559 -0.30714,0 -0.58309,0.56503 -0.73224,1.49931 -0.13164,0.82461 -0.70755,2.8974 -1.2798,4.60618 -0.57226,1.70878 -1.04047,3.24403 -1.04047,3.41165 0,0.16763 1.23124,1.551 2.73608,3.07416 7.38679,7.47668 8.47771,16.58853 2.68904,22.46014 -4.16331,4.22296 -10.70568,6.19443 -20.59456,6.20592 -7.30175,0.008 -13.01192,-1.16682 -17.22732,-3.54584 l -1.92465,-1.08621 -4.09416,1.07165 c -6.16551,1.61383 -11.133437,2.47306 -17.629282,3.04907 -10.854718,0.96253 -27.093485,0.47816 -35.324591,-1.05365 -1.649236,-0.30692 -5.317,-1.12586 -8.150585,-1.81985 l -5.15197,-1.26181 -1.374418,0.90625 c -4.865596,3.20826 -15.698982,4.58641 -25.363304,3.22655 z m 77.434721,-6.69583 c 4.679361,-0.64312 11.528288,-2.0196 13.581948,-2.72967 0.90552,-0.31309 1.36813,-0.6707 1.29117,-0.9981 -0.41383,-1.76028 -0.44493,-5.77562 -0.0575,-7.4277 1.94162,-8.28022 10.24217,-15.84683 19.32629,-17.61748 2.84674,-0.55487 9.92539,-0.25968 12.00054,0.50044 l 1.51602,0.55532 0.64155,-1.49667 c 0.82904,-1.93408 1.83711,-6.35181 1.51456,-6.6374 -0.49152,-0.4352 -6.79018,-1.37846 -10.53905,-1.57829 -4.46451,-0.23798 -5.60835,-0.59015 -6.3074,-1.94198 -0.64437,-1.24606 -0.64437,-1.86459 0,-3.11066 0.91596,-1.77126 1.98819,-1.95247 8.77284,-1.48264 3.33325,0.23083 6.60121,0.51453 7.26212,0.63043 l 1.20166,0.21075 -0.23417,-2.51963 c -0.3397,-3.65499 -1.32926,-7.84547 -1.90483,-8.06634 -1.24529,-0.47786 -9.03844,2.34781 -13.94659,5.0568 -4.02596,2.22207 -5.13522,2.3683 -6.62959,0.87393 -1.38791,-1.38791 -1.3681,-2.79387 0.0623,-4.42303 1.36405,-1.55356 8.75663,-5.22522 14.25232,-7.07867 2.1343,-0.7198 3.9379,-1.36057 4.008,-1.42393 0.0701,-0.0634 -0.63037,-1.51305 -1.55659,-3.22154 -0.92622,-1.70849 -1.9885,-3.69389 -2.36063,-4.412 l -0.67659,-1.30564 1.40682,-4.88966 c 3.20268,-11.13153 4.40602,-18.12933 4.44284,-25.83655 0.0231,-4.84521 -0.0806,-6.10169 -0.61872,-7.49653 -0.62934,-1.63109 -0.68604,-1.67569 -2.13075,-1.67569 -2.28724,0 -5.33958,0.92507 -9.32134,2.82502 -3.67253,1.7524 -9.41733,5.06519 -9.76821,5.63293 -0.24414,0.39502 0.53442,2.12538 0.95629,2.12538 0.17559,0 1.66512,-0.79494 3.31007,-1.76654 3.71163,-2.19229 6.53408,-3.62335 10.17394,-5.15844 3.17132,-1.3375 4.64041,-1.50842 4.91236,-0.57155 1.16408,4.0103 -0.0794,15.8275 -2.75183,26.15051 -1.04185,4.02451 -1.40471,4.48071 -2.44281,3.07118 -2.32388,-3.15534 -8.83239,-9.63655 -11.45949,-11.41139 -0.97325,-0.65753 -1.28036,-0.34746 -1.64196,1.65779 -0.12473,0.69168 -0.86321,2.58261 -1.64106,4.20207 -5.10507,10.62841 -18.31301,14.91349 -28.885437,9.37136 -4.708214,-2.46807 -8.57342,-7.05503 -10.24426,-12.15717 -0.730166,-2.22966 -0.855695,-3.2699 -0.827995,-6.86143 0.02328,-3.01901 0.200375,-4.67613 0.617362,-5.77699 1.029246,-2.71725 1.154109,-2.64028 -3.913206,-2.41243 -7.552185,0.33957 -13.608885,1.68115 -21.131483,4.68068 -2.163459,0.86266 -4.331625,1.56846 -4.81814,1.56846 -0.4896,0 -2.277414,-0.92482 -4.003933,-2.07119 -5.463783,-3.62785 -10.756318,-6.80872 -15.113804,-9.08355 -4.245024,-2.21613 -9.934787,-4.36748 -11.550832,-4.36748 -2.448664,0 -3.478614,4.82074 -2.750595,12.8743 0.652795,7.22141 1.846722,12.98135 5.214786,25.15803 l 0.615541,2.22539 -0.908711,1.65517 c -0.499791,0.91034 -1.582086,2.88166 -2.405099,4.3807 -1.474302,2.68532 -1.584461,3.44808 -0.497977,3.44808 1.149516,0 8.190629,2.56278 11.577331,4.21385 5.827325,2.8409 7.598297,4.50901 7.060773,6.65067 -0.323553,1.28915 -1.773039,2.54103 -2.942127,2.54103 -0.581463,0 -3.080763,-1.05918 -5.748673,-2.43624 -4.603493,-2.37611 -10.009431,-4.4667 -12.118466,-4.68645 -0.942855,-0.0983 -1.096511,0.0329 -1.525063,1.30186 -0.545145,1.61416 -1.722302,9.22728 -1.466323,9.48326 0.0933,0.0933 1.641265,-0.0502 3.43993,-0.3189 1.798667,-0.26869 5.22236,-0.59699 7.608208,-0.72955 l 4.337907,-0.24102 1.188445,1.06188 c 1.400415,1.25127 1.626126,3.10199 0.526503,4.31706 -0.808376,0.89324 -0.541905,1.15272 1.755553,1.70944 0.970139,0.23508 3.107891,1.08465 4.750558,1.88791 2.323501,1.13621 3.576811,2.05739 5.644445,4.14869 1.461777,1.47851 3.18492,3.58346 3.829205,4.67767 1.650499,2.80308 2.888686,6.70867 3.109542,9.80835 0.181885,2.55272 -0.323384,10.82351 -0.779748,12.76381 -0.201821,0.85805 -0.09874,0.97854 1.137027,1.32895 4.124064,1.1694 13.682013,2.7434 20.232582,3.33188 3.674596,0.33011 20.4438,-0.12519 24.341666,-0.66091 z M 67.376636,275.55395 c -3.705514,-0.72822 -7.168074,-3.46271 -8.80104,-6.95044 -0.790084,-1.68749 -0.964681,-2.60947 -1.065999,-5.62915 l -0.121158,-3.61113 1.06317,-1.06317 c 0.726874,-0.72688 1.410441,-1.06317 2.16105,-1.06317 2.446351,0 3.53671,1.77084 3.540534,5.75016 0.0021,2.32799 0.564642,3.64783 2.107642,4.94617 2.597196,2.1854 6.820832,1.24726 8.389465,-1.86344 0.715811,-1.4195 0.79375,-2.08348 0.79375,-6.7622 v -5.18815 l -1.23075,-0.76064 c -1.741311,-1.07619 -7.174314,-7.19455 -7.432262,-8.36982 -0.118449,-0.53969 -0.28302,-1.19669 -0.365711,-1.46 -0.250123,-0.79645 0.573949,-3.33154 1.466656,-4.51186 0.461758,-0.61053 1.668918,-1.52334 2.682579,-2.02847 1.782995,-0.88851 2.05045,-0.91816 8.211947,-0.91067 5.549656,0.007 6.550448,0.095 7.780041,0.68621 1.844244,0.8867 2.367499,1.33401 3.482467,2.977 1.103937,1.62675 1.25361,4.19965 0.346364,5.95406 -0.775345,1.49936 -5.651479,6.795 -7.092026,7.70217 l -1.146527,0.72202 7.05e-4,5.35109 c 7.06e-4,6.04212 0.32657,7.20021 2.420126,8.59866 2.58771,1.72854 5.867111,1.2163 7.71385,-1.20489 0.807268,-1.05839 0.980098,-1.70355 1.149244,-4.29004 0.109495,-1.67437 0.397203,-3.39786 0.639353,-3.82997 0.954049,-1.70249 3.31596,-2.02054 4.898182,-0.65957 0.900762,0.7748 0.996784,1.09306 1.114972,3.69559 0.19225,4.23357 -0.778376,7.14 -3.290718,9.85363 -2.635864,2.84704 -5.346316,4.0713 -9.021491,4.07482 -2.278038,0.002 -2.997098,-0.15931 -4.938889,-1.10922 -1.249973,-0.61148 -2.698605,-1.45753 -3.219189,-1.88012 l -0.94651,-0.76834 -1.129068,0.95005 c -1.57268,1.32333 -3.36035,2.17261 -5.550133,2.63675 -2.093747,0.44378 -2.428237,0.44495 -4.610467,0.0161 z M 58.92273,233.03812 c -0.441823,-0.30947 -1.199769,-1.46041 -1.684324,-2.55764 -1.058181,-2.39617 -2.637426,-4.14221 -4.548522,-5.02892 -2.11939,-0.98336 -6.143805,-0.89649 -9.599754,0.20721 -1.511109,0.4826 -3.17518,0.87947 -3.697936,0.88195 -1.333003,0.006 -2.737658,-1.33239 -2.977011,-2.83723 -0.315249,-1.98203 1.008662,-3.27016 4.569965,-4.44645 2.513675,-0.83027 3.475968,-0.95617 7.471402,-0.97756 4.454106,-0.0238 4.654896,0.008 6.975768,1.10739 3.001172,1.42159 5.743476,4.11994 7.242595,7.1265 1.524691,3.05786 1.537352,4.91591 0.04207,6.17411 -1.237495,1.04128 -2.62514,1.16952 -3.794252,0.35064 z m 32.721962,-0.46854 c -1.231138,-1.23113 -1.319597,-2.43556 -0.363665,-4.95138 3.281864,-8.63716 12.993053,-11.80775 23.791323,-7.76761 3.14916,1.17826 4.01951,3.67053 1.99043,5.69963 -1.23004,1.23002 -1.97644,1.22647 -6.15693,-0.0293 -3.17077,-0.9525 -7.19435,-0.98494 -9.19954,-0.0742 -1.759131,0.79902 -3.91346,3.24927 -4.45962,5.0722 -0.874557,2.91901 -3.699542,3.95312 -5.601998,2.05066 z M 22.741078,209.31947 c -0.391961,-0.6342 -2.297301,-8.91433 -3.077767,-13.37519 -0.92634,-5.29463 -1.177831,-15.58676 -0.399966,-16.36842 0.918225,-0.92271 8.154012,2.11384 15.307632,6.42396 4.774495,2.87668 8.770296,5.57195 8.770296,5.91579 0,0.15064 -1.486493,1.25693 -3.303316,2.45841 -4.496798,2.97379 -10.53622,8.20183 -13.809786,11.95449 -2.841896,3.25781 -3.155781,3.52704 -3.487093,2.99096 z m -7.269249,41.39103 c 1.550775,-0.8304 1.563016,-0.85032 0.529166,-0.86119 -1.722767,-0.0181 -2.645833,0.35824 -2.645833,1.07872 0,0.8396 0.176291,0.82149 2.116667,-0.21753 z"
         id="path283"
         inkscape:connector-curvature="0" />
      <path
         style="fill:#eb324d;stroke-width:0.35277778"
         d="M 18.382133,293.19685 C 12.584545,292.44309 7.2458393,290.23822 4.359571,287.40556 1.7525087,284.84693 0.86363116,282.80882 0.71076232,279.03918 0.49848535,273.8046 2.3209671,269.70621 6.9546248,264.998 l 2.9511293,-2.99861 -0.6158237,-1.5875 c -0.338703,-0.87313 -1.0202065,-3.13531 -1.514452,-5.02708 -0.5741469,-2.1976 -1.0697168,-3.43959 -1.372446,-3.43959 -0.2605994,0 -1.5771413,0.55563 -2.9256481,1.23472 -1.3485068,0.6791 -2.78550547,1.23473 -3.19332998,1.23473 -1.01532407,0 -2.80389222,-1.86512 -2.80389222,-2.9239 0,-0.47383 0.3339807,-1.2861 0.7421792,-1.80504 0.7540544,-0.95862 4.3489442,-2.93657 6.7545072,-3.71641 1.4878205,-0.48233 1.5335903,-0.59996 1.8242612,-4.68862 0.1066281,-1.49986 0.5336074,-4.41504 0.9488427,-6.47817 0.6322043,-3.14116 0.6760574,-3.80114 0.269675,-4.05855 -0.2669145,-0.16907 -2.1521737,-0.31217 -4.1894654,-0.318 -2.2420093,-0.006 -4.04808999,-0.18463 -4.57544761,-0.45147 -1.93577029,-0.97952 -2.24697919,-3.30964 -0.65469589,-4.90192 0.72122625,-0.72123 0.96071791,-0.74104 6.4292211,-0.53198 l 5.6800894,0.21716 2.232697,-4.527 2.232698,-4.52699 -1.233047,-4.54525 c -5.1182119,-18.86672 -5.693088,-32.23833 -1.6273,-37.85099 1.240015,-1.71179 4.025005,-3.1979 6.003077,-3.20331 2.278275,-0.006 5.390536,0.73985 9.078366,2.17631 l 3.633717,1.41539 3.598227,-3.80146 c 3.74837,-3.96007 7.397429,-6.89952 11.668957,-9.39975 5.82076,-3.40704 13.880903,-6.25654 21.208249,-7.49776 1.939406,-0.32853 3.62815,-0.76229 3.752761,-0.96392 0.282851,-0.45766 0.07842,-2.25898 -0.784108,-6.9092 -1.904743,-10.26916 0.617188,-18.80961 7.573271,-25.64667 2.783286,-2.73566 5.412736,-4.28232 9.3916,-5.52419 3.620456,-1.13001 9.863596,-1.14857 13.758336,-0.0409 3.46153,0.98446 6.83048,2.51478 9.97776,4.53233 5.05134,3.23814 6.58154,5.38346 6.59505,9.24617 0.009,2.71407 -0.55738,4.14367 -2.46263,6.21063 -1.93326,2.09734 -3.82432,2.80829 -6.99343,2.62922 -2.10159,-0.11875 -2.73641,-0.3254 -4.51644,-1.47023 -3.2036,-2.0604 -6.843291,-3.73394 -8.659197,-3.98153 -2.992846,-0.40805 -5.570004,1.49696 -6.839659,5.05582 -0.613463,1.71953 -0.606883,3.63297 0.02156,6.26524 0.276881,1.15977 0.690213,3.97391 0.918517,6.25363 0.328422,3.2795 0.533735,4.17706 0.983315,4.29872 0.312522,0.0846 1.441348,0.33918 2.508501,0.56581 13.373663,2.84013 25.580933,9.98535 32.540793,19.04693 0.9207,1.19873 0.97309,1.21748 2.10517,0.75328 3.93905,-1.61516 8.19456,-2.87472 10.40549,-3.07986 2.31123,-0.21443 2.71926,-0.14896 4.49928,0.72192 6.92958,3.39032 7.5049,16.26247 1.73143,38.73877 l -1.60817,6.26064 2.22468,4.40897 2.22469,4.40896 5.56975,-0.22961 c 5.16596,-0.21296 5.62387,-0.18086 6.3163,0.44289 1.12561,1.01395 1.47424,2.21776 0.9846,3.39983 -0.66468,1.60468 -1.93563,2.03448 -6.03414,2.04057 -1.99842,0.003 -3.86093,0.14933 -4.13891,0.32523 -0.43358,0.27438 -0.3958,0.88781 0.26584,4.31613 0.4242,2.19796 0.87461,5.39994 1.00093,7.11551 0.21581,2.93104 0.2849,3.1417 1.14527,3.4919 3.44659,1.40288 6.4679,2.95808 7.14326,3.67697 1.15707,1.23164 1.07583,3.14169 -0.17955,4.22152 -1.30129,1.11932 -2.04532,1.05831 -4.86041,-0.3985 -2.87992,-1.49036 -3.40131,-1.52779 -3.6858,-0.26458 -0.66406,2.94859 -0.97081,4.04152 -1.82756,6.51131 l -0.94318,2.71895 2.17484,1.96811 c 2.35337,2.12968 4.77627,5.56072 6.10512,8.64538 0.68838,1.59796 0.83882,2.56268 0.85265,5.46806 0.0147,3.09717 -0.096,3.76461 -0.90728,5.46805 -2.41491,5.07059 -8.53556,8.44874 -17.23473,9.5123 -8.21413,1.00426 -16.63131,-0.20065 -22.15157,-3.17097 l -2.56316,-1.37917 -4.66879,1.19376 c -19.628241,5.01875 -43.242275,4.8961 -62.169819,-0.3229 l -3.17325,-0.87497 -3.17675,1.55978 c -1.747209,0.85789 -4.129246,1.7981 -5.293413,2.08936 -4.754735,1.18958 -11.874151,1.56369 -17.021639,0.89444 z m 69.585528,-5.98331 c 7.941758,-0.57786 19.843329,-2.77282 21.217149,-3.91299 0.29369,-0.24374 0.32238,-0.68414 0.096,-1.47347 -0.17759,-0.61919 -0.31953,-2.23811 -0.31544,-3.59758 0.0208,-6.91992 5.40904,-14.34354 13.27865,-18.29472 5.39332,-2.70788 12.7947,-3.14908 19.08839,-1.13786 0.68422,0.21865 0.87782,0.0718 1.32906,-1.0082 0.29051,-0.69527 0.83999,-2.56957 1.22107,-4.16511 0.54829,-2.2956 0.60222,-2.9901 0.25844,-3.32807 -0.57729,-0.56754 -6.20188,-1.44527 -11.21091,-1.7495 -3.77724,-0.22941 -4.09657,-0.30709 -5.0075,-1.21802 -1.26881,-1.2688 -1.28464,-2.73603 -0.0429,-3.97775 0.83378,-0.83377 1.18983,-0.92875 3.43959,-0.91746 2.45382,0.0123 7.18544,0.38735 11.24078,0.89098 l 2.02847,0.25191 v -1.60504 c 0,-1.61833 -0.6757,-5.63879 -1.39936,-8.32626 -0.46648,-1.73237 -0.76897,-1.78165 -4.38344,-0.71422 -3.61948,1.06892 -8.01652,2.94124 -11.14472,4.74559 -3.16592,1.8261 -4.55309,1.99313 -5.84268,0.70354 -1.13616,-1.13616 -1.12423,-2.65351 0.0317,-4.02723 1.25489,-1.49135 9.06361,-5.31505 14.23951,-6.97268 2.34138,-0.74983 4.25594,-1.52209 4.25459,-1.71612 -0.001,-0.19403 -0.81416,-1.8609 -1.80625,-3.70417 -0.9921,-1.84326 -2.02952,-3.78188 -2.3054,-4.30804 -0.45941,-0.87619 -0.38029,-1.3794 0.94072,-5.98359 3.26501,-11.37967 4.39848,-18.1206 4.40897,-26.22087 0.007,-5.30124 -0.0741,-6.16098 -0.69778,-7.40833 -0.63345,-1.2669 -0.85526,-1.42203 -2.17037,-1.5179 -3.07214,-0.22398 -8.86302,1.99981 -15.7267,6.0393 -4.09614,2.4107 -4.26635,2.5968 -3.71386,4.0605 0.2324,0.61572 0.5627,1.11949 0.734,1.11949 0.17129,0 2.25261,-1.11754 4.62515,-2.48342 5.45502,-3.14048 10.54014,-5.36878 12.3619,-5.41699 l 1.4018,-0.0371 0.32367,1.94028 c 0.36574,2.19246 -0.14791,9.5281 -1.02514,14.64027 -0.72992,4.25373 -2.63799,12.26614 -3.01863,12.67592 -0.18102,0.19487 -1.96699,-1.41517 -4.38664,-3.95454 -3.54569,-3.72111 -9.23259,-8.78448 -9.51716,-8.47367 -0.0529,0.0578 -0.35827,1.13695 -0.67858,2.39813 -1.62834,6.41162 -5.78471,11.4403 -11.665,14.11319 -6.32701,2.87595 -14.08222,2.34717 -19.783215,-1.34887 -4.578741,-2.96847 -8.311472,-8.46359 -9.339594,-13.74924 -0.557823,-2.86782 -0.262646,-7.41662 0.656597,-10.11847 0.394378,-1.15915 0.64093,-2.23072 0.547896,-2.38125 -0.278317,-0.45033 -5.451877,-0.3106 -9.899029,0.26735 -5.347233,0.69493 -10.952963,2.16142 -16.035133,4.19488 -2.218697,0.88774 -4.466466,1.61407 -4.995044,1.61407 -0.603045,0 -2.305667,-0.90356 -4.570652,-2.4256 -11.098276,-7.45791 -20.344927,-12.16834 -25.36416,-12.92102 -1.462999,-0.2194 -1.668964,-0.15652 -2.358436,0.72001 -1.167693,1.48448 -1.547847,3.49474 -1.534774,8.11591 0.02004,7.08367 1.681255,16.86145 4.456841,26.23259 0.692441,2.33787 1.258984,4.63811 1.258984,5.11163 0,0.47353 -0.736144,2.10439 -1.635876,3.62414 -1.94335,3.28254 -3.01839,5.67803 -2.650265,5.90554 0.146321,0.0904 2.400873,0.8671 5.010117,1.72593 7.477758,2.46131 13.825581,5.93907 14.301506,7.83531 0.271974,1.08363 -0.425333,2.89726 -1.292341,3.36127 -1.22852,0.65748 -2.410915,0.31716 -6.72924,-1.93684 -4.360336,-2.27593 -12.647915,-5.34322 -13.526262,-5.00617 -0.83674,0.32108 -2.755477,10.87531 -2.088058,11.48559 0.176078,0.161 1.669516,0.0846 3.318752,-0.16985 1.649236,-0.25442 5.09068,-0.57523 7.647654,-0.71291 l 4.649043,-0.25033 1.124868,1.12487 c 0.947741,0.94774 1.089737,1.30051 0.901777,2.2403 -0.122696,0.61349 -0.565227,1.47963 -0.9834,1.92475 -0.418175,0.44513 -0.693547,0.87518 -0.611935,0.95567 0.08161,0.0805 1.180257,0.41018 2.441437,0.73264 8.792337,2.24798 15.360611,9.15496 17.180461,18.06638 0.480424,2.35253 0.507785,3.60043 0.187996,8.57408 -0.205843,3.20146 -0.485105,6.17519 -0.620582,6.6083 -0.305294,0.97599 0.04618,1.12529 5.507796,2.3395 10.685159,2.37552 22.626838,3.18574 34.365162,2.33163 z M 66.223406,274.92947 c -2.220698,-0.73508 -4.785082,-2.43568 -5.854982,-3.8828 -1.905568,-2.57742 -2.347137,-3.97839 -2.497491,-7.92383 -0.136909,-3.59261 -0.09828,-3.8656 0.661462,-4.6743 0.569309,-0.60601 1.17825,-0.85557 2.068287,-0.84765 2.309258,0.0205 3.201702,1.40364 3.201702,4.96196 0,2.56126 0.600935,4.10422 2.084736,5.35276 2.176258,1.8312 5.080085,1.93798 7.418599,0.27281 1.994775,-1.4204 2.292103,-2.44736 2.429803,-8.39241 l 0.124573,-5.37838 -0.996622,-0.79523 c -1.666843,-1.33002 -6.829834,-6.73501 -7.330789,-7.6744 -1.794083,-3.36424 -0.185635,-7.43245 3.556794,-8.99614 1.846428,-0.77149 13.355849,-0.7571 15.21382,0.019 1.524924,0.63699 3.103485,2.04613 3.812526,3.40334 0.57423,1.09917 0.654441,3.7044 0.15453,5.01925 -0.416034,1.09426 -5.252511,6.33945 -7.126552,7.72879 l -1.349752,1.00067 v 5.29602 c 0,4.15041 0.123585,5.55647 0.571309,6.49997 1.213637,2.55755 4.203736,4.02148 6.790969,3.32481 3.130963,-0.84308 4.61192,-3.19643 4.624419,-7.34857 0.0068,-2.25653 0.114448,-2.68038 0.873658,-3.43958 1.195786,-1.19579 3.086816,-1.17859 4.304559,0.0392 0.875968,0.87597 0.900391,1.02057 0.759749,4.49792 -0.172473,4.26426 -0.850924,6.07007 -3.24026,8.62446 -3.029345,3.23862 -7.206865,4.51797 -11.385518,3.48678 -2.155836,-0.53201 -3.002012,-0.96552 -5.662143,-2.90088 -0.73296,-0.53326 -0.849733,-0.50518 -2.116667,0.50893 -3.18455,2.54907 -7.489056,3.40974 -11.090719,2.21753 z m -7.125533,-42.07941 c -0.356157,-0.20706 -1.086958,-1.35317 -1.623995,-2.54691 -1.151131,-2.55875 -3.554666,-4.94157 -5.540809,-5.49307 -2.264642,-0.62882 -5.471262,-0.4451 -8.73405,0.50042 -1.673875,0.48507 -3.445101,0.88195 -3.936055,0.88195 -1.218512,0 -2.624469,-1.47783 -2.624469,-2.75862 0,-1.74494 1.165553,-2.77296 4.339533,-3.82747 2.534631,-0.8421 3.459696,-0.9633 7.478522,-0.9798 4.444073,-0.0182 4.659761,0.016 6.964098,1.10763 1.400666,0.6635 3.112509,1.86099 4.165202,2.91368 1.98944,1.98944 4.004867,5.85013 4.004867,7.67159 0,2.24563 -2.530965,3.6712 -4.492844,2.5306 z m 32.797919,-0.33322 c -2.934956,-2.30863 1.276516,-9.87994 7.085588,-12.73836 2.33354,-1.14824 2.46764,-1.17041 6.97168,-1.15272 3.98959,0.0157 4.95631,0.1397 7.36504,0.94494 1.52496,0.5098 3.15215,1.28341 3.61597,1.71915 1.14576,1.07639 1.13567,2.87842 -0.0226,4.03668 -1.06809,1.0681 -2.2387,1.0996 -4.98789,0.13424 -2.75429,-0.96716 -7.01829,-1.27271 -9.21436,-0.66028 -2.16474,0.60368 -5.020832,3.37519 -5.732278,5.5625 -0.877503,2.69784 -3.159722,3.66525 -5.081154,2.15385 z M 22.762411,208.99453 c -0.378839,-0.62886 -2.717112,-11.52448 -3.198684,-14.90486 -0.72322,-5.07663 -1.017556,-10.79095 -0.654157,-12.7 l 0.302188,-1.5875 1.451758,0.0638 c 1.888754,0.0831 6.528832,2.0934 11.793373,5.10953 4.856223,2.78219 10.531606,6.52943 10.531606,6.95361 0,0.15989 -1.309688,1.16278 -2.910417,2.22863 -4.577404,3.04787 -7.907753,5.88249 -12.532748,10.66724 -2.357324,2.43875 -4.36198,4.43409 -4.454788,4.43409 -0.09281,0 -0.240466,-0.11906 -0.328131,-0.26458 z m 3.733723,77.1004 c 0.502938,-0.58165 0.617361,-1.39652 0.617361,-4.39659 0,-3.8978 0.430001,-5.40313 1.744349,-6.10655 1.180204,-0.63162 2.730302,-0.41147 3.873027,0.55007 l 1.085402,0.91331 v 4.37836 c 0,4.99787 -0.02392,4.96841 2.985576,3.67839 2.422377,-1.03835 3.941924,-2.34052 4.800219,-4.11352 2.623897,-5.42025 -4.150258,-14.32733 -12.562953,-16.51856 -6.074626,-1.58224 -13.010208,0.42675 -17.7148,5.13134 -3.3009535,3.30096 -4.9676993,7.57145 -4.1800002,10.70989 0.3713406,1.47954 2.3742234,3.42487 4.6201402,4.48738 3.376186,1.59723 3.278833,1.69525 3.414019,-3.43766 0.114987,-4.36595 0.133714,-4.45549 1.106777,-5.29167 1.415848,-1.21667 3.178758,-1.14599 4.505381,0.18063 1.001249,1.00125 1.031196,1.13291 1.031196,4.53347 0,1.92625 0.171104,3.9931 0.38023,4.593 0.640955,1.83864 2.982847,2.22516 4.294076,0.70871 z m 108.302776,0.14972 c 0.50413,-0.44268 0.61736,-1.1387 0.61736,-3.79473 0,-4.1413 0.22958,-5.23806 1.32592,-6.33441 1.6433,-1.6433 4.57156,-0.92873 5.35046,1.30563 0.20855,0.59824 0.37918,2.49276 0.37918,4.21006 0,1.71729 0.12952,3.12236 0.28781,3.12236 0.50576,0 1.80007,-2.65327 2.19686,-4.50346 0.79501,-3.70697 -1.02096,-8.61379 -4.65606,-12.58086 -2.61221,-2.85076 -4.35375,-3.72957 -7.39088,-3.72957 -6.37839,0 -13.24494,4.05195 -16.17155,9.54283 -2.77253,5.20179 -1.44187,9.18809 3.87163,11.59834 2.78781,1.26458 2.81219,1.23926 2.81219,-2.92048 0,-2.00833 0.17063,-4.14098 0.37917,-4.73922 0.6615,-1.89757 2.71214,-2.6978 4.65032,-1.8147 1.4936,0.68053 1.81621,1.66239 1.96225,5.97212 0.0758,2.23682 0.31329,4.27248 0.52936,4.53737 0.94242,1.15533 2.62299,1.21143 3.85598,0.12872 z M 16.283682,250.72019 c 1.299731,-0.57675 2.363147,-1.18348 2.363147,-1.3483 0,-0.33504 -3.6182,0.0343 -4.850695,0.49518 -0.436562,0.16324 -0.79375,0.59177 -0.79375,0.95229 0,0.69518 0.341543,1.20389 0.701611,1.04502 0.119098,-0.0526 1.279957,-0.56744 2.579687,-1.14419 z M 56.14229,182.59124 c 7.025767,-2.42598 12.231441,-3.33628 20.430254,-3.57256 10.759958,-0.3101 19.22394,1.18267 29.072906,5.12753 l 1.80278,0.72208 4.42785,-2.95729 c 2.43532,-1.62651 4.53358,-3.12835 4.6628,-3.33743 0.3286,-0.53169 -3.26364,-5.41448 -5.92107,-8.04828 l -2.21689,-2.19719 -1.57002,1.64734 c -2.04249,2.14308 -4.50935,3.29477 -7.045184,3.28915 -5.914644,-0.0131 -10.302673,-5.7098 -8.848012,-11.48679 0.229817,-0.91268 0.289454,-1.7878 0.132528,-1.94473 -0.832023,-0.83202 -12.713458,-1.66298 -16.451714,-1.1506 -1.541776,0.21132 -1.641157,0.29209 -1.844784,1.49931 -1.175865,6.97117 -5.470677,12.57978 -11.358301,14.83285 -5.946613,2.27564 -12.760868,1.36549 -17.635636,-2.3555 -0.826629,-0.63098 -1.646277,-1.14724 -1.821434,-1.14724 -0.358761,0 -4.614312,4.55163 -4.614312,4.93536 0,0.13596 1.389062,1.09294 3.086805,2.12661 1.697743,1.03368 4.580883,2.87527 6.406981,4.09243 l 3.320171,2.21301 1.26594,-0.54798 c 0.696263,-0.30139 2.81952,-1.08443 4.718342,-1.74008 z m 26.757648,-32.95157 c -0.05447,-1.06715 -0.420857,-3.60715 -0.814183,-5.64445 -1.209823,-6.2664 -0.425295,-10.68244 2.571242,-14.47335 4.847921,-6.13308 11.7042,-6.48189 20.567723,-1.04636 1.57972,0.96876 3.25415,1.76138 3.72095,1.76138 1.08988,0 2.48171,-1.30433 2.48171,-2.3257 0,-1.37776 -0.39046,-1.90698 -2.42547,-3.28735 -5.13704,-3.48452 -9.912707,-5.13355 -14.860638,-5.13133 -5.445816,0.002 -8.655872,1.40462 -12.468683,5.4464 -4.722531,5.00613 -6.404279,11.27334 -4.986931,18.58431 0.294827,1.52078 0.693749,3.85509 0.886492,5.18736 0.19274,1.33226 0.441428,2.56951 0.552634,2.74945 0.111209,0.17994 1.253394,0.28053 2.538193,0.22354 l 2.336,-0.10362 z"
         id="path281"
         inkscape:connector-curvature="0" />
      <path
         style="fill:#5f6061;stroke-width:0.35277778"
         d="M 18.382133,293.19685 C 12.584545,292.44309 7.2458393,290.23822 4.359571,287.40556 1.7525087,284.84693 0.86363116,282.80882 0.71076232,279.03918 0.49848535,273.8046 2.3209671,269.70621 6.9546248,264.998 l 2.9511293,-2.99861 -0.6158237,-1.5875 c -0.338703,-0.87313 -1.0202065,-3.13531 -1.514452,-5.02708 -0.5741469,-2.1976 -1.0697168,-3.43959 -1.372446,-3.43959 -0.2605994,0 -1.5771413,0.55563 -2.9256481,1.23472 -1.3485068,0.6791 -2.78550547,1.23473 -3.19332998,1.23473 -1.01532407,0 -2.80389222,-1.86512 -2.80389222,-2.9239 0,-0.47383 0.3339807,-1.2861 0.7421792,-1.80504 0.7540544,-0.95862 4.3489442,-2.93657 6.7545072,-3.71641 1.4878205,-0.48233 1.5335903,-0.59996 1.8242612,-4.68862 0.1066281,-1.49986 0.5336074,-4.41504 0.9488427,-6.47817 0.6322043,-3.14116 0.6760574,-3.80114 0.269675,-4.05855 -0.2669145,-0.16907 -2.1521737,-0.31217 -4.1894654,-0.318 -2.2420093,-0.006 -4.04808999,-0.18463 -4.57544761,-0.45147 -1.93577029,-0.97952 -2.24697919,-3.30964 -0.65469589,-4.90192 0.72122625,-0.72123 0.96071791,-0.74104 6.4292211,-0.53198 l 5.6800894,0.21716 2.232697,-4.527 2.232698,-4.52699 -1.233047,-4.54525 c -5.1182119,-18.86672 -5.693088,-32.23833 -1.6273,-37.85099 1.240015,-1.71179 4.025005,-3.1979 6.003077,-3.20331 2.278275,-0.006 5.390536,0.73985 9.078366,2.17631 l 3.633717,1.41539 3.598227,-3.80146 c 3.74837,-3.96007 7.397429,-6.89952 11.668957,-9.39975 5.82076,-3.40704 13.880903,-6.25654 21.208249,-7.49776 1.939406,-0.32853 3.62815,-0.76229 3.752761,-0.96392 0.282851,-0.45766 0.07842,-2.25898 -0.784108,-6.9092 -1.904743,-10.26916 0.617188,-18.80961 7.573271,-25.64667 2.783286,-2.73566 5.412736,-4.28232 9.3916,-5.52419 3.620456,-1.13001 9.863596,-1.14857 13.758336,-0.0409 3.46153,0.98446 6.83048,2.51478 9.97776,4.53233 5.05134,3.23814 6.58154,5.38346 6.59505,9.24617 0.009,2.71407 -0.55738,4.14367 -2.46263,6.21063 -1.93326,2.09734 -3.82432,2.80829 -6.99343,2.62922 -2.10159,-0.11875 -2.73641,-0.3254 -4.51644,-1.47023 -3.2036,-2.0604 -6.843291,-3.73394 -8.659197,-3.98153 -2.992846,-0.40805 -5.570004,1.49696 -6.839659,5.05582 -0.613463,1.71953 -0.606883,3.63297 0.02156,6.26524 0.276881,1.15977 0.690213,3.97391 0.918517,6.25363 0.328422,3.2795 0.533735,4.17706 0.983315,4.29872 0.312522,0.0846 1.441348,0.33918 2.508501,0.56581 13.373663,2.84013 25.580933,9.98535 32.540793,19.04693 0.9207,1.19873 0.97309,1.21748 2.10517,0.75328 3.93905,-1.61516 8.19456,-2.87472 10.40549,-3.07986 2.31123,-0.21443 2.71926,-0.14896 4.49928,0.72192 6.92958,3.39032 7.5049,16.26247 1.73143,38.73877 l -1.60817,6.26064 2.22468,4.40897 2.22469,4.40896 5.56975,-0.22961 c 5.16596,-0.21296 5.62387,-0.18086 6.3163,0.44289 1.12561,1.01395 1.47424,2.21776 0.9846,3.39983 -0.66468,1.60468 -1.93563,2.03448 -6.03414,2.04057 -1.99842,0.003 -3.86093,0.14933 -4.13891,0.32523 -0.43358,0.27438 -0.3958,0.88781 0.26584,4.31613 0.4242,2.19796 0.87461,5.39994 1.00093,7.11551 0.21581,2.93104 0.2849,3.1417 1.14527,3.4919 3.44659,1.40288 6.4679,2.95808 7.14326,3.67697 1.15707,1.23164 1.07583,3.14169 -0.17955,4.22152 -1.30129,1.11932 -2.04532,1.05831 -4.86041,-0.3985 -2.87992,-1.49036 -3.40131,-1.52779 -3.6858,-0.26458 -0.66406,2.94859 -0.97081,4.04152 -1.82756,6.51131 l -0.94318,2.71895 2.17484,1.96811 c 2.35337,2.12968 4.77627,5.56072 6.10512,8.64538 0.68838,1.59796 0.83882,2.56268 0.85265,5.46806 0.0147,3.09717 -0.096,3.76461 -0.90728,5.46805 -2.41491,5.07059 -8.53556,8.44874 -17.23473,9.5123 -8.21413,1.00426 -16.63131,-0.20065 -22.15157,-3.17097 l -2.56316,-1.37917 -4.66879,1.19376 c -19.628241,5.01875 -43.242275,4.8961 -62.169819,-0.3229 l -3.17325,-0.87497 -3.17675,1.55978 c -1.747209,0.85789 -4.129246,1.7981 -5.293413,2.08936 -4.754735,1.18958 -11.874151,1.56369 -17.021639,0.89444 z m 69.585528,-5.98331 c 7.941758,-0.57786 19.843329,-2.77282 21.217149,-3.91299 0.29369,-0.24374 0.32238,-0.68414 0.096,-1.47347 -0.17759,-0.61919 -0.31953,-2.23811 -0.31544,-3.59758 0.0208,-6.91992 5.40904,-14.34354 13.27865,-18.29472 5.39332,-2.70788 12.7947,-3.14908 19.08839,-1.13786 0.68422,0.21865 0.87782,0.0718 1.32906,-1.0082 0.29051,-0.69527 0.83999,-2.56957 1.22107,-4.16511 0.54829,-2.2956 0.60222,-2.9901 0.25844,-3.32807 -0.57729,-0.56754 -6.20188,-1.44527 -11.21091,-1.7495 -3.77724,-0.22941 -4.09657,-0.30709 -5.0075,-1.21802 -1.26881,-1.2688 -1.28464,-2.73603 -0.0429,-3.97775 0.83378,-0.83377 1.18983,-0.92875 3.43959,-0.91746 2.45382,0.0123 7.18544,0.38735 11.24078,0.89098 l 2.02847,0.25191 v -1.60504 c 0,-1.61833 -0.6757,-5.63879 -1.39936,-8.32626 -0.46648,-1.73237 -0.76897,-1.78165 -4.38344,-0.71422 -3.61948,1.06892 -8.01652,2.94124 -11.14472,4.74559 -3.16592,1.8261 -4.55309,1.99313 -5.84268,0.70354 -1.13616,-1.13616 -1.12423,-2.65351 0.0317,-4.02723 1.25489,-1.49135 9.06361,-5.31505 14.23951,-6.97268 2.34138,-0.74983 4.25594,-1.52209 4.25459,-1.71612 -0.001,-0.19403 -0.81416,-1.8609 -1.80625,-3.70417 -0.9921,-1.84326 -2.02952,-3.78188 -2.3054,-4.30804 -0.45941,-0.87619 -0.38029,-1.3794 0.94072,-5.98359 3.26501,-11.37967 4.39848,-18.1206 4.40897,-26.22087 0.007,-5.30124 -0.0741,-6.16098 -0.69778,-7.40833 -0.63345,-1.2669 -0.85526,-1.42203 -2.17037,-1.5179 -3.07214,-0.22398 -8.86302,1.99981 -15.7267,6.0393 -4.17732,2.45848 -4.30597,2.60757 -3.63518,4.21299 l 0.52135,1.24776 -2.63097,1.7117 c -1.44703,0.94144 -2.62271,1.94983 -2.61261,2.24087 0.0101,0.29104 1.36523,1.39898 3.0114,2.46209 l 2.99305,1.93293 -0.23633,1.39884 c -1.11767,6.61545 -5.74283,12.55793 -11.9692,15.37825 -6.33981,2.8717 -14.084503,2.34233 -19.783215,-1.35223 -4.578741,-2.96847 -8.311472,-8.46359 -9.339594,-13.74924 -0.557823,-2.86782 -0.262646,-7.41662 0.656597,-10.11847 0.394378,-1.15915 0.64093,-2.23072 0.547896,-2.38125 -0.278317,-0.45033 -5.451877,-0.3106 -9.899029,0.26735 -5.347233,0.69493 -10.952963,2.16142 -16.035133,4.19488 -2.218697,0.88774 -4.466466,1.61407 -4.995044,1.61407 -0.603045,0 -2.305667,-0.90356 -4.570652,-2.4256 -11.098276,-7.45791 -20.344927,-12.16834 -25.36416,-12.92102 -1.462999,-0.2194 -1.668964,-0.15652 -2.358436,0.72001 -1.167693,1.48448 -1.547847,3.49474 -1.534774,8.11591 0.02004,7.08367 1.681255,16.86145 4.456841,26.23259 0.692441,2.33787 1.258984,4.63811 1.258984,5.11163 0,0.47353 -0.736144,2.10439 -1.635876,3.62414 -1.94335,3.28254 -3.01839,5.67803 -2.650265,5.90554 0.146321,0.0904 2.400873,0.8671 5.010117,1.72593 7.477758,2.46131 13.825581,5.93907 14.301506,7.83531 0.271974,1.08363 -0.425333,2.89726 -1.292341,3.36127 -1.22852,0.65748 -2.410915,0.31716 -6.72924,-1.93684 -4.360336,-2.27593 -12.647915,-5.34322 -13.526262,-5.00617 -0.83674,0.32108 -2.755477,10.87531 -2.088058,11.48559 0.176078,0.161 1.669516,0.0846 3.318752,-0.16985 1.649236,-0.25442 5.09068,-0.57523 7.647654,-0.71291 l 4.649043,-0.25033 1.124868,1.12487 c 0.947741,0.94774 1.089737,1.30051 0.901777,2.2403 -0.122696,0.61349 -0.565227,1.47963 -0.9834,1.92475 -0.418175,0.44513 -0.693547,0.87518 -0.611935,0.95567 0.08161,0.0805 1.180257,0.41018 2.441437,0.73264 8.792337,2.24798 15.360611,9.15496 17.180461,18.06638 0.480424,2.35253 0.507785,3.60043 0.187996,8.57408 -0.205843,3.20146 -0.485105,6.17519 -0.620582,6.6083 -0.305294,0.97599 0.04618,1.12529 5.507796,2.3395 10.685159,2.37552 22.626838,3.18574 34.365162,2.33163 z M 66.223406,274.92947 c -2.220698,-0.73508 -4.785082,-2.43568 -5.854982,-3.8828 -1.905568,-2.57742 -2.347137,-3.97839 -2.497491,-7.92383 -0.136909,-3.59261 -0.09828,-3.8656 0.661462,-4.6743 0.569309,-0.60601 1.17825,-0.85557 2.068287,-0.84765 2.309258,0.0205 3.201702,1.40364 3.201702,4.96196 0,2.56126 0.600935,4.10422 2.084736,5.35276 2.176258,1.8312 5.080085,1.93798 7.418599,0.27281 1.994775,-1.4204 2.292103,-2.44736 2.429803,-8.39241 l 0.124573,-5.37838 -0.996622,-0.79523 c -1.666843,-1.33002 -6.829834,-6.73501 -7.330789,-7.6744 -1.794083,-3.36424 -0.185635,-7.43245 3.556794,-8.99614 1.846428,-0.77149 13.355849,-0.7571 15.21382,0.019 1.524924,0.63699 3.103485,2.04613 3.812526,3.40334 0.57423,1.09917 0.654441,3.7044 0.15453,5.01925 -0.416034,1.09426 -5.252511,6.33945 -7.126552,7.72879 l -1.349752,1.00067 v 5.29602 c 0,4.15041 0.123585,5.55647 0.571309,6.49997 1.213637,2.55755 4.203736,4.02148 6.790969,3.32481 3.130963,-0.84308 4.61192,-3.19643 4.624419,-7.34857 0.0068,-2.25653 0.114448,-2.68038 0.873658,-3.43958 1.195786,-1.19579 3.086816,-1.17859 4.304559,0.0392 0.875968,0.87597 0.900391,1.02057 0.759749,4.49792 -0.172473,4.26426 -0.850924,6.07007 -3.24026,8.62446 -3.029345,3.23862 -7.206865,4.51797 -11.385518,3.48678 -2.155836,-0.53201 -3.002012,-0.96552 -5.662143,-2.90088 -0.73296,-0.53326 -0.849733,-0.50518 -2.116667,0.50893 -3.18455,2.54907 -7.489056,3.40974 -11.090719,2.21753 z m 16.047667,-29.44456 c 1.718073,-1.93053 2.037711,-2.46736 1.624675,-2.72863 -0.282808,-0.17889 -2.701992,-0.32769 -5.375963,-0.33066 -6.082947,-0.007 -6.232091,0.15972 -3.03652,3.3894 1.996948,2.01826 2.390337,2.26624 3.451387,2.17558 0.977988,-0.0836 1.58968,-0.54295 3.336421,-2.50569 z m -23.1732,-12.63485 c -0.356157,-0.20706 -1.086958,-1.35317 -1.623995,-2.54691 -1.151131,-2.55875 -3.554666,-4.94157 -5.540809,-5.49307 -2.264642,-0.62882 -5.471262,-0.4451 -8.73405,0.50042 -1.673875,0.48507 -3.445101,0.88195 -3.936055,0.88195 -1.218512,0 -2.624469,-1.47783 -2.624469,-2.75862 0,-1.74494 1.165553,-2.77296 4.339533,-3.82747 2.534631,-0.8421 3.459696,-0.9633 7.478522,-0.9798 4.444073,-0.0182 4.659761,0.016 6.964098,1.10763 1.400666,0.6635 3.112509,1.86099 4.165202,2.91368 1.98944,1.98944 4.004867,5.85013 4.004867,7.67159 0,2.24563 -2.530965,3.6712 -4.492844,2.5306 z m 32.797919,-0.33322 c -2.934956,-2.30863 1.276516,-9.87994 7.085588,-12.73836 2.33354,-1.14824 2.46764,-1.17041 6.97168,-1.15272 3.98959,0.0157 4.95631,0.1397 7.36504,0.94494 1.52496,0.5098 3.15215,1.28341 3.61597,1.71915 1.14576,1.07639 1.13567,2.87842 -0.0226,4.03668 -1.06809,1.0681 -2.2387,1.0996 -4.98789,0.13424 -2.75429,-0.96716 -7.01829,-1.27271 -9.21436,-0.66028 -2.16474,0.60368 -5.020832,3.37519 -5.732278,5.5625 -0.877503,2.69784 -3.159722,3.66525 -5.081154,2.15385 z m -65.399658,53.57809 c 0.502938,-0.58165 0.617361,-1.39652 0.617361,-4.39659 0,-3.8978 0.430001,-5.40313 1.744349,-6.10655 1.180204,-0.63162 2.730302,-0.41147 3.873027,0.55007 l 1.085402,0.91331 v 4.37836 c 0,4.99787 -0.02392,4.96841 2.985576,3.67839 2.422377,-1.03835 3.941924,-2.34052 4.800219,-4.11352 2.623897,-5.42025 -4.150258,-14.32733 -12.562953,-16.51856 -6.074626,-1.58224 -13.010208,0.42675 -17.7148,5.13134 -3.3009535,3.30096 -4.9676993,7.57145 -4.1800002,10.70989 0.3713406,1.47954 2.3742234,3.42487 4.6201402,4.48738 3.376186,1.59723 3.278833,1.69525 3.414019,-3.43766 0.114987,-4.36595 0.133714,-4.45549 1.106777,-5.29167 1.415848,-1.21667 3.178758,-1.14599 4.505381,0.18063 1.001249,1.00125 1.031196,1.13291 1.031196,4.53347 0,1.92625 0.171104,3.9931 0.38023,4.593 0.640955,1.83864 2.982847,2.22516 4.294076,0.70871 z m 108.302776,0.14972 c 0.50413,-0.44268 0.61736,-1.1387 0.61736,-3.79473 0,-4.1413 0.22958,-5.23806 1.32592,-6.33441 1.6433,-1.6433 4.57156,-0.92873 5.35046,1.30563 0.20855,0.59824 0.37918,2.49276 0.37918,4.21006 0,1.71729 0.12952,3.12236 0.28781,3.12236 0.50576,0 1.80007,-2.65327 2.19686,-4.50346 0.79501,-3.70697 -1.02096,-8.61379 -4.65606,-12.58086 -2.61221,-2.85076 -4.35375,-3.72957 -7.39088,-3.72957 -6.37839,0 -13.24494,4.05195 -16.17155,9.54283 -2.77253,5.20179 -1.44187,9.18809 3.87163,11.59834 2.78781,1.26458 2.81219,1.23926 2.81219,-2.92048 0,-2.00833 0.17063,-4.14098 0.37917,-4.73922 0.6615,-1.89757 2.71214,-2.6978 4.65032,-1.8147 1.4936,0.68053 1.81621,1.66239 1.96225,5.97212 0.0758,2.23682 0.31329,4.27248 0.52936,4.53737 0.94242,1.15533 2.62299,1.21143 3.85598,0.12872 z M 16.283682,250.72019 c 1.299731,-0.57675 2.363147,-1.18348 2.363147,-1.3483 0,-0.33504 -3.6182,0.0343 -4.850695,0.49518 -0.436562,0.16324 -0.79375,0.59177 -0.79375,0.95229 0,0.69518 0.341543,1.20389 0.701611,1.04502 0.119098,-0.0526 1.279957,-0.56744 2.579687,-1.14419 z M 56.14229,182.59124 c 7.025767,-2.42598 12.231441,-3.33628 20.430254,-3.57256 10.759958,-0.3101 19.22394,1.18267 29.072906,5.12753 l 1.80278,0.72208 4.42785,-2.95729 c 2.43532,-1.62651 4.53358,-3.12835 4.6628,-3.33743 0.3286,-0.53169 -3.26364,-5.41448 -5.92107,-8.04828 l -2.21689,-2.19719 -1.57002,1.64734 c -2.04249,2.14308 -4.50935,3.29477 -7.045184,3.28915 -5.914644,-0.0131 -10.302673,-5.7098 -8.848012,-11.48679 0.229817,-0.91268 0.289454,-1.7878 0.132528,-1.94473 -0.832023,-0.83202 -12.713458,-1.66298 -16.451714,-1.1506 -1.541776,0.21132 -1.641157,0.29209 -1.844784,1.49931 -1.175865,6.97117 -5.470677,12.57978 -11.358301,14.83285 -5.946613,2.27564 -12.760868,1.36549 -17.635636,-2.3555 -0.826629,-0.63098 -1.646277,-1.14724 -1.821434,-1.14724 -0.358761,0 -4.614312,4.55163 -4.614312,4.93536 0,0.13596 1.389062,1.09294 3.086805,2.12661 1.697743,1.03368 4.580883,2.87527 6.406981,4.09243 l 3.320171,2.21301 1.26594,-0.54798 c 0.696263,-0.30139 2.81952,-1.08443 4.718342,-1.74008 z m 26.757648,-32.95157 c -0.05447,-1.06715 -0.420857,-3.60715 -0.814183,-5.64445 -1.209823,-6.2664 -0.425295,-10.68244 2.571242,-14.47335 4.847921,-6.13308 11.7042,-6.48189 20.567723,-1.04636 1.57972,0.96876 3.25415,1.76138 3.72095,1.76138 1.08988,0 2.48171,-1.30433 2.48171,-2.3257 0,-1.37776 -0.39046,-1.90698 -2.42547,-3.28735 -5.13704,-3.48452 -9.912707,-5.13355 -14.860638,-5.13133 -5.445816,0.002 -8.655872,1.40462 -12.468683,5.4464 -4.722531,5.00613 -6.404279,11.27334 -4.986931,18.58431 0.294827,1.52078 0.693749,3.85509 0.886492,5.18736 0.19274,1.33226 0.441428,2.56951 0.552634,2.74945 0.111209,0.17994 1.253394,0.28053 2.538193,0.22354 l 2.336,-0.10362 z"
         id="path279"
         inkscape:connector-curvature="0" />
      <path
         style="fill:#36464d;stroke-width:0.35277778"
         d="m 19.352384,293.22234 c -5.912127,-0.79484 -11.5788939,-2.98382 -14.5391192,-5.61622 -1.9845503,-1.76477 -3.7272574,-5.08773 -4.03617991,-7.69609 -0.5561217,-4.69558 1.67212541,-9.94642 6.22292341,-14.66425 1.6520706,-1.71271 3.0474417,-3.16102 3.1008257,-3.21847 0.05338,-0.0574 -0.2113426,-0.82392 -0.5882782,-1.70328 -0.6311516,-1.47241 -1.1872345,-3.33405 -2.1603257,-7.23228 -0.2141115,-0.85773 -0.5823437,-1.49931 -0.860533,-1.49931 -0.2674486,0 -1.5336096,0.55563 -2.8136917,1.23473 -2.6409381,1.40104 -4.11577992,1.55289 -5.13951,0.52916 -0.957061,-0.95706 -0.9352385,-2.94531 0.043065,-3.92362 0.71949805,-0.7195 6.2210886,-3.48471 6.933083,-3.48471 0.7576658,0 1.0818887,-1.04741 1.4742171,-4.7625 0.2253911,-2.1343 0.7180492,-5.30146 1.0947954,-7.03812 0.427531,-1.97075 0.560349,-3.2822 0.3533697,-3.48918 -0.1823928,-0.18239 -2.2526946,-0.41074 -4.6006706,-0.50745 -3.51119149,-0.1446 -4.42299292,-0.29691 -5.1362313,-0.85794 -1.0740534,-0.84485 -1.1647268,-2.65456 -0.1931521,-3.85503 0.74923857,-0.92576 1.75940784,-1.0022 8.6745793,-0.65645 l 3.5277781,0.17639 2.37416,-4.54581 2.37416,-4.54581 -1.402345,-5.15558 c -5.2217699,-19.1973 -5.5656436,-33.07019 -0.944341,-38.0976 2.689464,-2.92581 7.993954,-2.82616 15.306113,0.28754 1.396065,0.59448 2.611328,1.08087 2.700581,1.08087 0.08926,0 1.222661,-1.25654 2.518678,-2.79232 7.783343,-9.22324 19.934043,-15.60962 34.222993,-17.98751 l 3.527778,-0.58708 0.110659,-1.33061 c 0.06086,-0.73183 -0.23096,-3.10772 -0.648501,-5.27974 -2.109879,-10.97553 0.440627,-19.9597 7.5559,-26.61569 2.73848,-2.56172 5.141391,-3.96864 8.814926,-5.16121 6.385037,-2.07283 12.195146,-1.41805 19.79757,2.23111 7.76253,3.72601 10.57336,6.73245 10.57336,11.30917 0,7.20394 -7.85563,11.16358 -13.92904,7.02094 -0.87076,-0.59394 -2.84481,-1.70226 -4.386768,-2.46292 -2.358697,-1.16357 -3.15444,-1.38302 -5.01481,-1.38302 -1.965086,0 -2.348558,0.12056 -3.444717,1.083 -3.010905,2.64361 -3.705821,5.31148 -2.705572,10.38702 0.38186,1.93767 0.793393,4.79303 0.914516,6.34525 0.336183,4.30833 0.352125,4.34784 1.856292,4.60096 2.672186,0.44968 9.349849,2.32216 11.914439,3.34093 4.03531,1.60299 8.10353,3.73982 11.61387,6.10017 3.27075,2.19925 9.02234,7.47317 10.48239,9.61183 0.4528,0.66324 1.01912,1.28178 1.25849,1.37454 0.23938,0.0927 1.52779,-0.29629 2.86314,-0.86453 6.49845,-2.76534 11.42584,-3.18959 14.20051,-1.22267 5.89112,4.17613 6.00588,18.11471 0.32123,39.01372 l -1.40293,5.15772 2.27296,4.50068 c 1.25014,2.47538 2.33765,4.56537 2.41671,4.64442 0.079,0.0791 2.25706,-0.0269 4.84002,-0.23558 2.58296,-0.20863 5.15077,-0.27951 5.70624,-0.15751 2.26487,0.49746 3.1278,2.98093 1.57523,4.5335 -0.73841,0.73841 -1.21945,0.83138 -5.13623,0.99269 -2.37683,0.0979 -4.48421,0.34068 -4.68305,0.53952 -0.24688,0.24688 -0.13084,1.47488 0.36583,3.8717 0.40006,1.93058 0.81867,4.6874 0.93026,6.12625 0.39357,5.0749 0.13645,4.65033 3.7145,6.13341 5.06771,2.10054 6.62501,4.11005 4.89225,6.3129 -1.00529,1.27801 -2.27858,1.19927 -5.31241,-0.32854 -1.37399,-0.69193 -2.69055,-1.18424 -2.92568,-1.09401 -0.23513,0.0902 -0.6287,1.09291 -0.87459,2.2282 -0.2459,1.13528 -0.91219,3.43944 -1.48064,5.12036 l -1.03354,3.0562 2.94538,2.94539 c 7.4339,7.43389 8.50629,16.4978 2.6308,22.2357 -2.20062,2.14909 -5.87254,3.93548 -10.50427,5.11032 -3.27029,0.82952 -4.38598,0.93973 -9.525,0.9409 -5.16266,0.001 -6.23968,-0.10573 -9.525,-0.94551 -2.03729,-0.52076 -4.97442,-1.58143 -6.52695,-2.35705 -1.55252,-0.77562 -3.07701,-1.41022 -3.38775,-1.41022 -0.31074,0 -2.37424,0.46842 -4.58556,1.04094 -10.405155,2.69393 -18.507907,3.68747 -30.126131,3.694 -11.649481,0.007 -17.825914,-0.73798 -29.707296,-3.581 l -5.36563,-1.2839 -2.924648,1.45901 c -5.579269,2.78331 -14.688174,4.16764 -21.445481,3.25918 z m 7.29138,-6.76552 c 0.687508,-0.64158 0.776842,-1.14238 0.881945,-4.9441 0.1143,-4.13429 0.139396,-4.24949 1.106763,-5.08079 1.293667,-1.11171 2.844076,-1.10573 3.965112,0.0153 0.826897,0.82689 0.865911,1.06437 0.865911,5.27084 0,2.42272 0.147062,4.49583 0.326803,4.60692 0.527773,0.32618 4.156237,-1.18298 5.770012,-2.39989 0.818349,-0.61709 1.856422,-1.83408 2.306828,-2.70441 1.708146,-3.3007 0.11865,-8.00036 -4.075222,-12.0492 -7.757216,-7.48895 -19.000541,-7.46363 -26.558629,0.0598 -3.0247302,3.01088 -4.2779545,5.37701 -4.5013052,8.49863 -0.1511617,2.11268 -0.064345,2.57791 0.7358694,3.94337 0.4989876,0.85146 1.5118263,1.94695 2.2507529,2.43442 1.5855529,1.04599 5.2288319,2.46372 5.5376519,2.1549 0.118565,-0.11857 0.215573,-2.08194 0.215573,-4.36305 0,-3.94725 0.04409,-4.19986 0.913304,-5.23286 1.18029,-1.4027 2.943075,-1.49443 4.218009,-0.2195 0.811623,0.81163 0.866235,1.10467 0.871109,4.67431 0.0032,2.34461 0.175365,4.1447 0.447925,4.68339 0.923698,1.82558 3.13648,2.13108 4.721588,0.65188 z m 64.322508,0.75923 c 6.443207,-0.66808 17.833498,-2.89229 18.566798,-3.62559 0.105,-0.105 -10e-4,-1.38262 -0.23629,-2.83915 -0.36335,-2.25241 -0.3419,-3.02596 0.1435,-5.17541 1.18182,-5.23325 5.03622,-10.53634 10.02787,-13.79688 6.07041,-3.96518 12.69032,-5.03512 20.11522,-3.25111 2.24543,0.53952 2.62267,0.55317 2.91202,0.10537 0.60118,-0.93039 1.78759,-5.06499 1.9897,-6.93401 0.18554,-1.71582 0.14429,-1.84604 -0.64292,-2.02945 -2.01358,-0.46913 -8.23944,-1.25415 -10.09927,-1.2734 -3.11806,-0.0323 -5.44245,-0.51278 -5.96988,-1.23408 -0.72445,-0.99075 -0.58149,-2.86737 0.28441,-3.73328 0.72265,-0.72264 0.97621,-0.74652 5.90903,-0.55641 2.83469,0.10924 6.39052,0.38986 7.90186,0.6236 1.51133,0.23373 2.8525,0.32034 2.98038,0.19247 0.31108,-0.31108 -0.47277,-6.38611 -1.19494,-9.2611 -0.32217,-1.28256 -0.81013,-2.38817 -1.10375,-2.50084 -1.34533,-0.51625 -11.10133,3.2495 -16.65874,6.43015 -2.49249,1.42653 -4.58611,0.53538 -4.58611,-1.95206 0,-1.79549 1.4181,-2.98942 6.45291,-5.43288 3.69849,-1.79491 10.88295,-4.42677 12.08427,-4.42677 1.37984,0 0.86155,-1.41943 -3.0419,-8.33093 l -0.81993,-1.45177 1.48542,-5.25101 c 3.25117,-11.493 4.4333,-18.45016 4.45882,-26.24129 0.0169,-5.14586 -0.034,-5.57198 -0.86403,-7.23194 -0.7906,-1.58118 -1.0152,-1.77501 -2.16836,-1.8712 -2.83543,-0.23654 -8.90138,2.11792 -16.16376,6.27387 -3.97195,2.27297 -4.37264,2.7125 -3.84713,4.22002 0.27187,0.77986 0.28519,1.22803 0.041,1.38117 -2.75995,1.7312 -5.02386,3.50384 -5.01666,3.92806 0.005,0.29258 1.1185,1.23667 2.47452,2.09797 3.95282,2.51071 3.90017,2.43097 3.30096,4.99955 -1.64335,7.0444 -7.6043,13.06995 -14.77844,14.93857 -2.69849,0.70288 -7.426545,0.69603 -10.181531,-0.0147 -9.375666,-2.41884 -15.932245,-11.40714 -15.287502,-20.95737 0.11145,-1.65081 0.533996,-3.95269 0.938999,-5.11529 1.035968,-2.97386 0.768668,-3.13921 -4.576028,-2.83073 -7.850851,0.45313 -14.752024,2.01278 -21.948676,4.96032 -2.110617,0.86447 -4.039902,1.57174 -4.287305,1.57174 -0.247399,0 -2.819576,-1.56056 -5.715945,-3.46792 -9.508321,-6.26154 -15.020929,-9.25983 -20.239641,-11.00826 -3.978837,-1.33303 -5.710699,-1.37004 -6.676155,-0.14266 -1.176892,1.49618 -1.568596,4.40065 -1.353035,10.03273 0.276805,7.23227 1.815045,15.53234 4.70723,25.39936 l 1.188968,4.0563 -0.817692,1.58814 c -0.44973,0.87348 -1.494535,2.81552 -2.321788,4.31565 -0.827254,1.50012 -1.452204,2.98682 -1.388779,3.30378 0.07986,0.39908 1.560563,1.04152 4.815516,2.08934 5.393896,1.73638 11.526271,4.65562 13.306095,6.33421 1.849939,1.74471 1.606995,3.88067 -0.54266,4.77109 -1.001282,0.41474 -1.265262,0.35015 -3.453067,-0.84496 -5.678896,-3.10213 -13.543488,-6.21013 -15.714357,-6.21013 -1.037582,0 -1.296148,0.65775 -2.149521,5.46806 -0.876513,4.94074 -0.954235,6.17846 -0.401293,6.39065 0.273875,0.10509 2.429328,-0.0595 4.789895,-0.36576 2.360567,-0.30626 5.814957,-0.55684 7.676421,-0.55684 2.989397,0 3.479793,0.0895 4.20097,0.76705 1.148351,1.07882 1.04757,2.47299 -0.288795,3.99502 -0.607907,0.69237 -1.044469,1.30797 -0.970139,1.36801 0.07433,0.0601 1.325767,0.38893 2.780976,0.73087 6.444953,1.51439 12.259327,6.08011 15.073319,11.83627 2.170352,4.43957 2.685969,7.44952 2.400928,14.01566 -0.128274,2.95494 -0.380803,5.88717 -0.561171,6.51608 -0.235253,0.82028 -0.203955,1.26285 0.110741,1.56585 0.782817,0.7537 11.925423,2.98646 18.077571,3.62239 4.048767,0.41851 20.91484,0.43604 24.870833,0.0259 z M 66.216858,274.7369 c -5.240147,-1.87183 -7.99665,-5.6821 -8.329125,-11.51322 -0.1885,-3.30601 0.07485,-4.20026 1.514771,-5.14374 1.020995,-0.66898 2.329935,-0.44355 3.350521,0.57704 0.563665,0.56366 0.698059,1.18461 0.704328,3.25421 0.0085,2.81162 0.716139,4.83524 2.150575,6.15012 2.770382,2.53947 7.53006,1.78713 9.382157,-1.483 0.733499,-1.29509 0.795584,-1.84608 0.80094,-7.10779 l 0.0058,-5.70386 -1.2074,-0.74622 c -1.547629,-0.95649 -6.768592,-6.66381 -7.246987,-7.92208 -1.030463,-2.71033 0.160116,-5.69529 2.962783,-7.42816 1.698509,-1.05017 1.835454,-1.07322 7.103897,-1.19588 7.661734,-0.17838 10.186338,0.51237 12.10461,3.31191 1.100688,1.60635 1.31082,3.39713 0.609568,5.19488 -0.545059,1.39734 -5.212429,6.5969 -7.761545,8.64655 l -0.99556,0.80049 0.139457,5.37312 c 0.156344,6.02381 0.433031,6.93335 2.615575,8.59806 0.955407,0.72872 1.763025,1.00047 3.263565,1.09809 2.452776,0.15959 4.021367,-0.59761 5.469897,-2.64043 0.863974,-1.21845 1.033551,-1.85351 1.197762,-4.48561 0.213804,-3.42705 0.66821,-4.30041 2.412516,-4.63685 0.846039,-0.16318 1.318236,-0.0125 2.116667,0.67551 1.010052,0.87035 1.026806,0.94346 0.975984,4.25901 -0.04515,2.9457 -0.184414,3.65393 -1.098236,5.58524 -1.971061,4.16571 -5.44783,6.56935 -9.970357,6.89294 -2.842792,0.2034 -5.174883,-0.47117 -7.747956,-2.24113 -0.963725,-0.66293 -1.913435,-1.20532 -2.110461,-1.20532 -0.197026,0 -1.080692,0.55147 -1.963706,1.22548 -2.772067,2.11597 -7.366645,2.91205 -10.450043,1.81064 z m 15.819843,-28.96465 c 1.127721,-1.26083 2.050404,-2.49114 2.050404,-2.73403 0,-0.32929 -1.325368,-0.46645 -5.210908,-0.53927 -6.491503,-0.12168 -6.646887,0.0291 -3.403124,3.30195 3.069234,3.09676 3.770912,3.09369 6.563628,-0.0286 z M 59.56905,232.79696 c -0.531579,-0.26254 -1.302381,-1.30513 -1.940278,-2.62441 -1.232457,-2.54892 -2.61155,-4.09735 -4.586111,-5.1492 -2.108341,-1.12312 -6.776074,-1.01748 -10.636934,0.24074 -3.888574,1.26724 -5.414454,0.65797 -5.414454,-2.16196 0,-1.37993 1.106678,-2.30097 3.859822,-3.21233 7.610726,-2.51937 14.123289,-1.51625 18.480402,2.84649 1.954646,1.95717 3.651475,4.95063 3.990509,7.03985 0.345525,2.12923 -1.899461,3.93627 -3.752956,3.02082 z m 33.171775,-0.003 c -0.479206,-0.24109 -1.113038,-0.86907 -1.408521,-1.39551 -0.488446,-0.87023 -0.477489,-1.12607 0.120667,-2.81712 1.001021,-2.82999 2.951607,-5.49972 5.259705,-7.19885 4.517464,-3.32557 9.917404,-3.73572 17.295554,-1.31367 2.37638,0.7801 2.83298,1.06395 3.30555,2.05494 0.47379,0.99355 0.48218,1.28779 0.0618,2.16495 -0.87017,1.81555 -1.91099,2.01876 -5.2386,1.02276 -7.91668,-2.36957 -12.517477,-0.9802 -15.171921,4.58169 -1.433975,3.00463 -2.526559,3.75492 -4.224204,2.90081 z m 41.629525,54.24599 c 1.2345,-0.63839 1.32207,-0.986 1.50181,-5.96147 0.13262,-3.67125 0.18384,-3.88969 1.09601,-4.67431 1.23074,-1.05864 2.73208,-1.04912 3.9811,0.0252 0.96038,0.82609 0.9895,0.9578 1.11112,5.02709 0.0687,2.29832 0.24188,4.3027 0.38484,4.45419 0.45384,0.48086 4.22203,-1.21145 5.81015,-2.60937 1.95008,-1.71653 2.45402,-2.9494 2.2663,-5.54449 -0.51563,-7.12857 -9.42723,-14.18043 -17.90123,-14.16546 -9.41544,0.0166 -18.91704,8.91085 -17.51325,16.39373 0.29321,1.56292 2.28298,3.85078 4.19931,4.82843 2.1881,1.11628 4.07364,1.70374 4.29885,1.33934 0.11101,-0.17961 0.23419,-2.24885 0.27373,-4.59829 0.0708,-4.20462 0.0874,-4.28509 1.06171,-5.12261 1.19116,-1.02395 2.68958,-1.09323 3.82181,-0.17669 0.76263,0.61736 0.85174,1.02623 1.05722,4.8507 0.25599,4.76481 0.39011,5.24176 1.66952,5.93692 1.19541,0.64952 1.62011,0.64909 2.881,-0.003 z M 15.469572,251.5936 c 0.75941,-0.38743 2.294511,-1.04629 3.411334,-1.46415 1.891487,-0.70769 1.971145,-0.78183 1.162839,-1.08214 -1.13649,-0.42226 -6.520565,0.33011 -7.066069,0.98741 -0.530022,0.63863 -0.117523,2.26328 0.57465,2.26328 0.295075,0 1.157835,-0.31698 1.917246,-0.7044 z m 38.984201,-68.00684 c 4.28542,-1.65417 10.309055,-3.142 15.481687,-3.82395 5.757672,-0.75908 15.719683,-0.50858 21.279937,0.53509 4.443017,0.83397 11.042453,2.75047 14.047613,4.0795 2.34761,1.03822 1.83096,1.22448 7.70938,-2.77924 2.30497,-1.56988 4.88466,-3.30431 5.73264,-3.8543 0.84799,-0.54998 1.5418,-1.15954 1.5418,-1.35457 0,-0.19503 -1.46844,-1.81003 -3.2632,-3.58888 -3.06469,-3.03753 -7.26529,-6.22741 -8.20059,-6.22741 -0.22957,0 -0.58507,0.35719 -0.78999,0.79375 -0.70537,1.50271 -2.9206,3.73181 -4.4391,4.46691 -3.1545,1.52706 -8.011575,0.56325 -10.186348,-2.02132 -1.920716,-2.28264 -2.528288,-5.93108 -1.518437,-9.11816 0.34828,-1.09918 -0.476892,-1.42 -5.267543,-2.048 -4.272524,-0.56008 -10.295453,-0.68007 -12.700042,-0.25302 l -1.386082,0.24617 -0.567764,2.6642 c -1.373364,6.44443 -5.480103,11.24021 -11.505219,13.43559 -1.63394,0.59537 -2.893963,0.76266 -5.792354,0.76907 -4.27053,0.009 -6.526159,-0.66611 -9.961982,-2.98357 -1.113465,-0.75103 -2.238357,-1.36551 -2.499762,-1.36551 -0.555505,0 -5.177144,4.68879 -5.177144,5.25236 0,0.21014 0.595312,0.76016 1.322916,1.22227 0.727605,0.46211 3.693637,2.37516 6.591184,4.25122 3.498144,2.26493 5.453923,3.32977 5.820833,3.16919 0.303911,-0.13301 1.981317,-0.79333 3.727567,-1.46739 z m 28.902239,-31.7891 c 0.251083,-0.40626 -0.37435,-5.56475 -1.039978,-8.57763 -1.315491,-5.9544 0.03873,-11.09298 3.955729,-15.00997 4.618059,-4.61806 11.569696,-4.1987 19.724077,1.18987 2.19507,1.45054 3.69307,1.54917 4.91841,0.32383 2.2396,-2.2396 0.40813,-4.64192 -5.92806,-7.77575 -7.247244,-3.58443 -12.692842,-3.92698 -18.547796,-1.16673 -2.589936,1.221 -6.132477,4.52065 -7.644507,7.12037 -2.700204,4.64262 -3.598281,10.20066 -2.514918,15.56441 0.313514,1.55222 0.732212,3.99163 0.930434,5.4209 0.198226,1.42928 0.447107,2.73897 0.553071,2.91042 0.251188,0.40644 5.342364,0.40669 5.593538,2.8e-4 z"
         id="path277"
         inkscape:connector-curvature="0" />
      <path
         style="fill:#2d2e2f;stroke-width:0.35277778"
         d="m 19.881551,293.24514 c -3.108884,-0.39543 -8.708614,-1.9604 -10.840856,-3.02973 -5.5589229,-2.78782 -8.09137624,-6.48602 -8.09400937,-11.81986 -0.002364,-4.802 2.03980167,-9.0162 6.55686737,-13.5307 L 10.295,262.075 9.6567145,260.4497 C 9.305658,259.55578 8.590769,257.23689 8.0680723,255.29661 7.4207152,252.89358 6.9408749,251.73436 6.5630574,251.6607 c -0.3050618,-0.0595 -1.6757982,0.45647 -3.0460809,1.14653 -2.94809117,1.48464 -3.66444489,1.54243 -4.8181277,0.38875 -1.0072151,-1.00721 -1.1053674,-2.163 -0.2833515,-3.33659 0.5307546,-0.75776 6.5548238,-3.91139 7.4715415,-3.91139 0.6879978,0 1.0172517,-1.1673 1.2325819,-4.36987 0.1159383,-1.72433 0.5655049,-4.85508 0.9990371,-6.95723 0.4335321,-2.10215 0.6646672,-3.94571 0.5136328,-4.0968 -0.1510341,-0.15109 -2.3395661,-0.35454 -4.8634047,-0.4521 -4.28791325,-0.16576 -4.63296343,-0.23194 -5.2623719,-1.00922 -0.9341711,-1.15365 -0.8535966,-2.57822 0.2019106,-3.56982 0.86535083,-0.81296 0.9409257,-0.81978 6.5287722,-0.58942 l 5.6532872,0.23305 1.385365,-2.91166 c 0.761951,-1.60141 1.817376,-3.66195 2.345389,-4.57897 l 0.960023,-1.66732 -1.443909,-5.38824 c -2.894484,-10.80134 -4.057882,-18.07476 -4.07823,-25.49657 -0.02196,-8.00796 1.482253,-11.93709 5.281559,-13.79592 1.741161,-0.85187 2.168878,-0.92022 4.438384,-0.70929 2.296893,0.21347 5.484605,1.14293 9.907334,2.88874 l 1.690955,0.66748 0.940608,-1.22828 c 1.927624,-2.51716 6.000764,-6.48727 8.872421,-8.64799 7.256201,-5.45977 16.384831,-9.23042 26.492556,-10.94296 1.843264,-0.3123 3.500219,-0.71179 3.682122,-0.88775 0.465476,-0.45028 0.272884,-3.08825 -0.526236,-7.20791 -1.985151,-10.23397 0.534367,-18.77707 7.574972,-25.68496 2.503445,-2.45626 6.622242,-4.81438 9.377475,-5.36886 0.679097,-0.13667 1.393472,-0.37305 1.5875,-0.5253 0.605261,-0.47491 5.550563,-0.73064 7.584722,-0.39221 8.819696,1.46736 18.664656,7.13585 20.135906,11.59375 0.22065,0.66859 0.3396,2.30552 0.26433,3.63764 -0.1125,1.99091 -0.3251,2.68986 -1.19437,3.92669 -2.98144,4.24207 -7.97246,5.12322 -12.50309,2.20739 -3.1466,-2.0251 -6.753011,-3.63794 -8.643054,-3.86531 -2.550657,-0.30684 -4.568264,0.7962 -6.07109,3.31909 -1.502001,2.5215 -1.739311,4.35394 -1.025045,7.9151 0.31756,1.58329 0.765507,4.68345 0.995433,6.88925 0.484346,4.64657 -0.09762,4.10471 5.924314,5.516 11.989142,2.80975 23.231942,9.59896 30.087632,18.16908 1.26038,1.57557 1.27422,1.58185 2.43511,1.10606 3.84449,-1.57569 8.29643,-2.91689 10.30469,-3.10443 3.03372,-0.28329 5.00825,0.44888 6.84845,2.53945 4.22328,4.79791 4.10063,17.11163 -0.34426,34.56323 -0.7907,3.10445 -1.59069,6.27945 -1.77776,7.05556 -0.32204,1.33608 -0.21856,1.64559 1.94622,5.82083 l 2.28636,4.40972 5.79591,-0.13302 5.79592,-0.13302 0.76642,0.97435 c 0.86957,1.10548 0.92938,1.54666 0.37474,2.76397 -0.58878,1.29222 -1.76518,1.64251 -5.53395,1.64782 -4.1245,0.006 -5.01048,0.2026 -5.01048,1.11295 0,0.37549 0.32167,2.30166 0.71484,4.28038 0.39316,1.97873 0.82972,5.02075 0.97014,6.76005 0.28787,3.56583 -0.20853,3.00922 4.66502,5.23092 3.65271,1.66515 4.37444,2.31751 4.37444,3.95394 0,0.95942 -0.22519,1.50797 -0.81519,1.98573 -1.13777,0.92131 -1.81422,0.83713 -4.61759,-0.57462 -3.446,-1.73538 -3.74058,-1.68023 -4.24006,0.79375 -0.22525,1.11566 -0.89843,3.49012 -1.49595,5.27658 l -1.08642,3.24811 2.85071,2.8051 c 2.33571,2.29835 3.15078,3.40957 4.51169,6.15099 1.51244,3.04666 1.67625,3.62529 1.83171,6.47039 0.14348,2.62584 0.0483,3.44808 -0.59621,5.15182 -1.62787,4.30303 -6.39324,7.85401 -12.37827,9.22386 -1.4445,0.33061 -3.26136,0.79185 -4.03747,1.02498 -0.85614,0.25716 -3.49227,0.40941 -6.70278,0.38713 -4.73259,-0.0328 -5.73467,-0.15347 -9.48463,-1.14168 -2.54344,-0.67026 -5.21719,-1.65741 -6.79649,-2.50927 l -2.60353,-1.40433 -4.73872,1.21452 c -12.062545,3.09159 -25.534627,4.48814 -36.319802,3.76501 -9.27312,-0.62174 -16.413473,-1.72233 -24.318489,-3.74836 l -4.803838,-1.2312 -2.91586,1.52511 c -1.728449,0.90404 -4.065147,1.77668 -5.738086,2.14289 -1.552222,0.33978 -3.181618,0.75711 -3.620879,0.92739 -1.118729,0.43369 -9.000529,0.66927 -11.548565,0.34518 z m 68.08611,-5.68306 c 8.212003,-0.60458 20.769949,-2.92763 21.666599,-4.00802 0.2479,-0.2987 0.25507,-0.83528 0.022,-1.64786 -0.5865,-2.04503 -0.40758,-5.80923 0.38922,-8.18808 2.36958,-7.0744 8.78622,-12.89459 16.60469,-15.06119 3.2771,-0.90814 9.07351,-0.97529 12.13154,-0.14055 1.15643,0.31566 2.42009,0.59347 2.80815,0.61736 0.92174,0.0567 1.74745,-1.63799 2.72255,-5.58784 0.64844,-2.62663 0.68235,-3.10714 0.24882,-3.52594 -0.63423,-0.61269 -6.33446,-1.51061 -11.59977,-1.82723 -3.56277,-0.21424 -4.13819,-0.33897 -4.8507,-1.05148 -1.01659,-1.01659 -1.02938,-2.22827 -0.0369,-3.49007 l 0.77154,-0.98086 4.43193,0.21317 c 2.43756,0.11724 5.99331,0.40559 7.90165,0.64076 2.67179,0.32926 3.52912,0.33148 3.72801,0.01 0.56974,-0.92186 -1.08993,-10.65412 -1.96634,-11.53053 -0.39568,-0.39568 -0.86269,-0.36425 -2.85227,0.19196 -4.96077,1.38683 -8.90991,3.02219 -12.83779,5.3162 -2.64979,1.54756 -4.17156,1.7437 -5.23992,0.67534 -1.06325,-1.06325 -0.91565,-2.69567 0.35071,-3.87862 2.05832,-1.92277 10.02382,-5.60728 15.25809,-7.05777 1.38374,-0.38346 2.66483,-0.84614 2.84688,-1.02818 0.516,-0.51601 0.0679,-1.697 -2.04016,-5.37736 -1.12109,-1.95723 -1.94993,-3.83385 -1.94763,-4.40973 0.002,-0.55138 0.64526,-3.22501 1.42902,-5.9414 2.91749,-10.11151 4.38069,-19.56111 4.13681,-26.71624 -0.16462,-4.82992 -0.78936,-6.96426 -2.23069,-7.62098 -1.64285,-0.74853 -6.3974,0.57513 -11.80581,3.28673 -4.14701,2.07917 -9.17044,5.16438 -9.54336,5.86119 -0.40058,0.74849 -8.43552,6.22496 -9.8634,6.72272 -0.81542,0.28426 -1.52422,0.11912 -4.10674,-0.95678 -6.706137,-2.79386 -12.776762,-4.37955 -19.52539,-5.10018 -2.037292,-0.21755 -3.854979,-0.54343 -4.039306,-0.72419 -0.505784,-0.496 -5.651418,-0.39468 -10.19321,0.20069 -5.436245,0.71263 -11.378886,2.25601 -16.20109,4.20761 -2.192112,0.88717 -4.396895,1.61305 -4.899522,1.61305 -0.523826,0 -2.099772,-0.80666 -3.692451,-1.89 -11.312095,-7.69451 -21.060269,-12.67133 -26.382938,-13.46951 -1.414153,-0.21207 -1.675706,-0.13816 -2.443708,0.69053 -1.258841,1.35831 -1.718111,3.70868 -1.694491,8.67175 0.03408,7.15953 1.459157,15.62853 4.294369,25.52062 0.769764,2.68572 1.39957,5.21544 1.39957,5.62161 0,0.40617 -0.864416,2.25689 -1.920924,4.11271 -2.182229,3.83323 -2.813767,5.31923 -2.413713,5.67943 0.152731,0.13752 2.182693,0.83693 4.511026,1.55425 4.767068,1.46865 12.256713,4.98 13.903512,6.51834 0.647357,0.60472 1.089543,1.37055 1.089543,1.88701 0,1.29076 -1.278812,2.72826 -2.427093,2.72826 -0.530627,0 -3.098793,-1.0923 -5.707034,-2.42733 -2.608245,-1.33502 -6.615726,-3.02776 -8.905517,-3.76164 -3.615687,-1.15883 -4.229797,-1.26778 -4.669185,-0.8284 -0.564863,0.56487 -1.770142,5.94933 -2.131149,9.5207 -0.183231,1.81267 -0.12822,2.36636 0.248909,2.50525 0.266269,0.0981 1.8335,-0.0239 3.482736,-0.27109 3.960167,-0.59351 10.977252,-1.01164 12.128461,-0.72271 2.349627,0.58972 2.512219,3.52035 0.275446,4.96469 -1.198859,0.77414 -1.733833,0.84649 -7.465018,1.00958 -7.258782,0.20655 -8.243344,0.41686 -8.404915,1.79531 -0.06305,0.53792 0.11395,1.2418 0.393333,1.56419 0.279385,0.3224 0.845284,1.69742 1.257555,3.05561 1.054991,3.47559 0.997278,3.42288 3.063255,2.79736 6.94557,-2.10292 14.797017,-0.90851 20.959868,3.18855 3.416159,2.27106 7.023464,6.24727 8.645095,9.52919 l 1.323269,2.6781 -0.201108,4.13257 c -0.110606,2.27291 -0.246225,4.59651 -0.301367,5.16355 -0.09716,0.99904 -0.02374,1.05094 2.369181,1.67475 10.968373,2.85934 25.177503,4.0268 37.747222,3.1014 z M 66.04357,274.52371 c -2.671681,-0.87418 -5.422085,-3.23472 -6.738817,-5.78358 -0.782239,-1.51423 -0.954458,-2.37919 -1.078862,-5.41864 -0.181924,-4.44477 0.227101,-5.37905 2.354951,-5.37905 2.07283,0 2.597904,0.83098 2.865014,4.53412 0.26779,3.71258 1.095763,5.33541 3.302494,6.47287 3.631674,1.87194 7.951678,0.0191 9.032952,-3.87419 0.532398,-1.91698 0.477065,-10.38034 -0.07267,-11.11515 -0.242534,-0.32418 -0.923424,-0.94984 -1.513085,-1.39034 -2.320769,-1.73372 -6.480379,-6.60305 -6.866928,-8.03858 -0.759411,-2.82024 0.629115,-5.57026 3.570058,-7.07062 1.182109,-0.60307 2.10295,-0.68477 7.717649,-0.68477 6.796666,0 8.081172,0.24444 9.821012,1.86892 2.150798,2.00819 2.471268,5.14587 0.785519,7.69088 -0.876335,1.32303 -5.249386,5.7526 -7.206099,7.29925 -0.486315,0.38439 -0.575487,1.27443 -0.575487,5.74397 0,5.98096 0.249897,6.95296 2.235874,8.69667 2.466795,2.16588 5.593468,2.24027 8.028841,0.19104 1.628034,-1.3699 2.418355,-3.36605 2.427538,-6.13135 0.006,-1.81879 0.169065,-2.53876 0.738907,-3.2632 0.9323,-1.18522 2.804548,-1.27436 3.893534,-0.18538 0.679556,0.67956 0.732632,1.055 0.611551,4.32596 -0.112229,3.03179 -0.282285,3.88777 -1.107422,5.5743 -2.735982,5.59214 -9.603673,8.03554 -15.30145,5.44398 -1.197236,-0.54455 -2.534596,-1.37096 -2.97191,-1.83646 -1.008806,-1.07382 -1.147311,-1.06385 -2.721289,0.19589 -3.205938,2.56589 -7.447812,3.37162 -11.231876,2.13346 z m 15.993131,-28.75146 c 1.127721,-1.26083 2.050404,-2.49114 2.050404,-2.73403 0,-0.32929 -1.325368,-0.46645 -5.210908,-0.53927 -6.491503,-0.12168 -6.646887,0.0291 -3.403124,3.30195 3.069234,3.09676 3.770912,3.09369 6.563628,-0.0286 z M 59.255702,232.57428 c -0.269356,-0.17058 -1.063106,-1.47254 -1.763888,-2.89326 -2.636062,-5.34415 -7.081217,-6.81313 -14.292795,-4.7233 -1.673875,0.48507 -3.410211,0.88195 -3.858529,0.88195 -1.049323,0 -2.349217,-1.38437 -2.349217,-2.50188 0,-1.56821 0.941969,-2.36727 3.980631,-3.37672 2.541397,-0.84426 3.463604,-0.96522 7.484646,-0.98173 4.264547,-0.0175 4.728408,0.0478 6.615515,0.93221 4.061587,1.9034 8.165874,7.14478 8.165874,10.42824 0,1.96508 -2.336983,3.27639 -3.982237,2.23449 z m 32.768903,-0.38461 c -2.465937,-2.46594 1.878849,-9.74767 7.319208,-12.26676 1.700497,-0.7874 2.641157,-0.96206 5.803977,-1.07766 3.27688,-0.11978 4.20717,-0.0152 7.05555,0.79341 1.80455,0.51225 3.67786,1.22 4.16293,1.57276 1.19278,0.86745 1.38598,2.88949 0.37288,3.90259 -0.91957,0.91957 -2.18821,0.91727 -4.81557,-0.009 -2.63577,-0.92897 -7.29941,-1.27732 -9.17045,-0.68499 -2.885058,0.91337 -4.9633,2.95162 -6.1233,6.00549 -0.909571,2.39458 -3.12571,3.2434 -4.605225,1.76389 z m -65.371753,54.53535 c 0.957305,-0.82281 0.993034,-0.97632 1.088037,-4.6743 0.125384,-4.88055 0.226614,-5.28727 1.476866,-5.9338 1.473372,-0.76191 2.045179,-0.67375 3.214542,0.49561 1.030422,1.03042 1.031198,1.03453 1.031198,5.46806 0,5.02773 -0.113457,4.87922 2.863434,3.74809 2.608562,-0.99117 4.458239,-2.38911 5.489504,-4.14883 2.777261,-4.73904 -1.617811,-12.63247 -9.058494,-16.26881 -6.065918,-2.96447 -11.916428,-2.73446 -17.746481,0.6977 -5.9378686,3.49563 -9.7566763,10.00032 -8.3584056,14.23712 0.6701144,2.03046 2.5190365,3.81103 5.2777136,5.08258 3.724594,1.71678 3.685281,1.75469 3.89384,-3.75441 0.192782,-5.09232 0.372056,-5.54975 2.328419,-5.94102 0.845588,-0.16912 1.310459,-0.0224 2.111942,0.66659 0.996759,0.85685 1.03067,0.99322 1.126522,4.5305 0.120958,4.46381 0.235204,5.02528 1.206686,5.93036 1.055897,0.98371 2.8212,0.92475 4.054677,-0.13544 z m 108.437778,-0.18044 c 1.01648,-1.01647 1.0312,-1.08737 1.0312,-4.96602 0,-3.87865 0.0147,-3.94956 1.03119,-4.96603 1.1222,-1.1222 1.65781,-1.2375 2.97039,-0.63945 1.34553,0.61306 1.63322,1.60416 1.72952,5.95825 0.0861,3.89442 0.1212,4.06142 0.87528,4.16861 1.37091,0.19485 4.96653,-1.68917 6.45846,-3.3841 2.20967,-2.51032 2.31096,-5.1261 0.35254,-9.10422 -2.18241,-4.4331 -6.94922,-8.05134 -12.7105,-9.64787 -3.09895,-0.85877 -4.29196,-0.89213 -7.51086,-0.21005 -5.5585,1.17783 -10.80833,5.12432 -13.16806,9.89892 -2.82045,5.7068 -1.10384,9.8531 5.02932,12.1478 3.07756,1.15147 2.94827,1.31214 2.94827,-3.66384 0,-2.40948 0.0986,-4.63785 0.21914,-4.95194 0.24678,-0.6431 1.91715,-1.60331 2.78909,-1.60331 0.3156,0 1.03786,0.46404 1.60502,1.0312 1.01648,1.01647 1.0312,1.08738 1.0312,4.96603 0,3.87865 0.0147,3.94955 1.03119,4.96602 0.70379,0.70379 1.38445,1.0312 2.14381,1.0312 0.75935,0 1.44001,-0.32741 2.1438,-1.0312 z M 53.578033,184.05198 c 15.890921,-6.28389 34.22814,-6.22973 50.721327,0.14983 1.60938,0.62251 3.13273,1.05256 3.38521,0.95567 0.88864,-0.341 12.91504,-8.39887 12.91504,-8.65327 0,-0.6282 -4.86989,-5.50632 -7.40124,-7.41375 -3.9794,-2.99857 -12.42672,-6.90971 -17.998765,-8.33348 -1.26118,-0.32226 -2.65068,-0.81631 -3.087779,-1.09789 -0.437102,-0.28158 -2.342102,-0.74521 -4.233333,-1.03028 -3.920818,-0.591 -14.258452,-0.70392 -15.262236,-0.16672 -0.365604,0.19567 -2.526978,0.67413 -4.803048,1.06324 -7.940629,1.35752 -16.588588,4.90979 -22.346856,9.17929 -1.498988,1.11143 -3.060594,2.12715 -3.470236,2.25717 -0.994929,0.31578 -5.004844,4.72226 -5.004844,5.49981 0,0.38229 0.899414,1.15337 2.38125,2.04148 1.309687,0.78493 4.206875,2.62501 6.438194,4.08906 2.231319,1.46405 4.198613,2.66555 4.371763,2.66999 0.173154,0.004 1.701151,-0.54012 3.395553,-1.21015 z m 29.421885,-31.80422 c 0.896977,-0.3442 0.818321,-1.34369 -0.885158,-11.24801 -0.749903,-4.36006 0.881701,-9.18858 4.241751,-12.55289 2.36457,-2.36757 4.341759,-3.14886 7.968766,-3.14886 3.491555,0 7.701873,1.54171 11.705593,4.28628 2.08365,1.42836 3.23935,1.59267 4.45829,0.63385 3.19446,-2.51276 1.26043,-5.25328 -6.22114,-8.81531 -3.82577,-1.82147 -6.449484,-2.45482 -10.169434,-2.45482 -5.427211,0 -8.901261,1.52776 -12.748955,5.60652 -4.957106,5.25479 -6.670767,11.87483 -5.078077,19.61709 0.319313,1.55223 0.700317,3.93348 0.84667,5.29167 l 0.266104,2.46944 2.469444,0.20229 c 1.358195,0.11126 2.49615,0.23032 2.528785,0.26458 0.03263,0.0343 0.310452,-0.034 0.617361,-0.15183 z"
         id="path275"
         inkscape:connector-curvature="0" />
      <path
         style="fill:#020202;stroke-width:0.35277778"
         d="m 20.420431,293.33225 c -1.590079,-0.1043 -2.125627,-0.24951 -1.763889,-0.47827 0.386413,-0.24437 0.240263,-0.32989 -0.570643,-0.33391 -1.861651,-0.009 -6.55489,-1.35905 -9.151298,-2.63201 -10.2420676,-5.02145 -10.4662011,-16.49401 -0.5021287,-25.70213 1.6411727,-1.51665 2.1139027,-2.1623 1.9240207,-2.62778 -0.9257235,-2.26934 -2.0487714,-5.81105 -2.4125361,-7.60833 -0.6038617,-2.98355 -1.030201,-3.14124 -4.1787169,-1.54556 -1.4195012,0.71941 -2.99286963,1.3073 -3.49637382,1.30643 -1.28555998,-0.002 -2.15791908,-1.08732 -2.01976668,-2.51233 0.140832,-1.45265 1.73236003,-2.64021 5.7568863,-4.29564 l 2.821657,-1.16066 0.436607,-4.04217 c 0.2401337,-2.22319 0.7679711,-5.61008 1.1729719,-7.52643 0.4451255,-2.1062 0.608741,-3.61188 0.4136821,-3.80694 -0.1774755,-0.17748 -2.2925585,-0.41411 -4.7001846,-0.52585 -5.10341274,-0.23685 -5.9650015,-0.583 -5.9650015,-2.39644 0,-1.33249 0.672145,-2.19975 1.954247,-2.52153 0.46561692,-0.11687 3.0200074,-0.0315 5.676423,0.18976 2.6564159,0.22124 4.9468203,0.27693 5.0897873,0.12375 0.142967,-0.15317 1.305367,-2.32492 2.58311,-4.82611 l 2.32317,-4.54762 -1.399993,-5.10592 c -3.493529,-12.74127 -4.9336582,-24.33447 -3.867125,-31.13078 0.515572,-3.2854 2.168831,-6.50203 3.946498,-7.67844 2.768337,-1.832 7.23649,-1.44508 13.580062,1.17596 1.594273,0.65872 3.128709,1.10941 3.409855,1.00152 0.28115,-0.10789 0.946859,-0.82485 1.479359,-1.59324 1.547576,-2.23316 7.149769,-7.37308 10.393998,-9.53632 7.187847,-4.79285 17.490503,-8.68176 25.600352,-9.66327 1.143378,-0.13839 2.277304,-0.4102 2.519839,-0.60405 0.63784,-0.50979 0.544696,-2.53058 -0.316325,-6.86272 -1.425783,-7.17369 -0.79714,-13.2648 1.927377,-18.67496 2.271225,-4.51005 5.383791,-8.02367 9.248019,-10.43963 1.616287,-1.01052 6.201929,-2.74152 7.262633,-2.74152 0.387946,0 0.62055,-0.13721 0.516908,-0.30491 -0.272768,-0.44135 4.571051,-0.7374 6.849582,-0.41864 1.067153,0.14929 1.702153,0.30528 1.411111,0.34665 -0.291041,0.0414 0.706657,0.37895 2.217105,0.7502 4.47684,1.10033 10.79064,4.31022 13.76664,6.99886 2.04798,1.85023 2.86377,3.66943 2.86377,6.38618 0,4.37373 -2.94264,7.73646 -7.29161,8.33255 -2.12137,0.29077 -4.2418,-0.37816 -7.08776,-2.23595 -5.048136,-3.29533 -9.354403,-4.19048 -11.901525,-2.47398 -2.559548,1.72488 -4.085202,5.78318 -3.478809,9.25377 0.941744,5.3899 1.383259,8.6653 1.385108,10.27555 0.0025,2.15709 0.312487,2.47785 2.859296,2.95848 7.956454,1.50155 15.81392,4.70448 22.48057,9.16372 3.23575,2.16436 8.33151,6.86184 10.71093,9.87377 l 1.24809,1.57987 3.13777,-1.28333 c 10.97766,-4.48977 15.94416,-2.81365 17.62026,5.94657 1.28613,6.72195 -0.0436,17.95735 -3.75021,31.68814 l -1.4285,5.29167 1.71045,3.175 c 0.94075,1.74625 2.02336,3.81 2.40579,4.58611 0.78594,1.59497 -0.12626,1.45834 7.96492,1.19293 3.65159,-0.11978 4.18539,-0.0606 4.8507,0.53744 0.92545,0.83195 0.97334,2.45358 0.0983,3.32864 -0.53624,0.53623 -1.43578,0.68644 -5.16662,0.86272 -2.48453,0.11739 -4.67577,0.37188 -4.86941,0.56552 -0.23426,0.23426 -0.0951,1.62788 0.41574,4.16436 0.4223,2.09676 0.89872,5.37149 1.05872,7.2772 0.18326,2.1829 0.47265,3.63174 0.78212,3.91577 0.27018,0.24797 1.48205,0.81103 2.69306,1.25126 4.71578,1.71429 6.48389,3.57955 5.33781,5.6311 -0.77618,1.38943 -2.14095,1.3499 -5.13258,-0.14866 -1.41744,-0.71002 -2.8321,-1.23935 -3.14369,-1.17628 -0.40196,0.0814 -0.85239,1.2501 -1.55071,4.02373 -0.54131,2.14998 -1.24029,4.40429 -1.55329,5.00956 -0.313,0.60528 -0.56909,1.28955 -0.56909,1.52061 0,0.23106 1.23031,1.63038 2.73403,3.1096 5.65038,5.55837 7.83229,12.01869 5.94429,17.6002 -0.91612,2.70835 -3.75712,5.64507 -7.02141,7.25798 -2.65819,1.31344 -7.33935,2.6916 -9.1425,2.6916 -0.56249,0 -0.93896,0.13552 -0.83659,0.30116 0.10237,0.16564 -1.15826,0.39603 -2.8014,0.51199 -3.31421,0.23389 -9.05047,-0.0686 -8.80586,-0.46443 0.0862,-0.13948 -0.68751,-0.35282 -1.71936,-0.47409 -2.60766,-0.30648 -7.12631,-1.81916 -9.1545,-3.06459 -0.93453,-0.57386 -2.04578,-1.04233 -2.46945,-1.04104 -0.42367,0.001 -2.91343,0.54198 -5.53281,1.20155 -5.72787,1.4423 -12.438123,2.61262 -16.741659,2.91986 -1.778183,0.12695 -2.864855,0.32902 -2.485333,0.46215 0.37091,0.13011 -1.779091,0.33763 -4.777783,0.46115 -5.894814,0.24283 -16.497088,-0.0666 -15.856059,-0.46282 0.216616,-0.13388 -0.946637,-0.34645 -2.585004,-0.47239 -4.124843,-0.31706 -10.420032,-1.42251 -16.405253,-2.8808 -2.778866,-0.67707 -5.356168,-1.23104 -5.72734,-1.23104 -0.371171,0 -1.4313,0.46514 -2.35585,1.03365 -2.040149,1.25449 -6.327849,2.69354 -9.032303,3.03144 -1.094123,0.1367 -1.902368,0.38923 -1.796098,0.56117 0.106268,0.17195 -0.332091,0.31358 -0.974132,0.31475 -0.642041,0.001 -2.437349,0.0601 -3.989571,0.13089 -1.552222,0.0708 -3.849726,0.0614 -5.105564,-0.021 z m 6.104172,-6.1253 c 1.210088,-0.95185 1.641708,-2.6542 1.650661,-6.51034 0.0079,-3.39947 0.106412,-3.73061 1.296289,-4.35691 1.153922,-0.60738 1.815345,-0.49759 2.773254,0.46032 0.827563,0.82756 0.86591,1.0624 0.86591,5.30274 0,5.09534 0.04282,5.16147 2.757953,4.25964 2.544389,-0.84511 4.83766,-2.43222 5.955813,-4.12186 0.847891,-1.28125 0.987623,-1.84543 0.987623,-3.98761 0,-3.17089 -1.168121,-5.70128 -4.056906,-8.7881 -5.256515,-5.61686 -13.252001,-7.79192 -19.994124,-5.43911 -5.041345,1.75929 -9.703636,5.76504 -11.6018771,9.96811 -1.70486,3.77489 -1.4174502,6.61257 0.9273942,9.15642 1.5044183,1.6321 4.9873669,3.41893 6.8160949,3.49681 l 1.098307,0.0468 -0.125548,-3.76207 c -0.07672,-2.29887 0.03718,-4.25514 0.292836,-5.02979 0.692377,-2.09793 2.577278,-2.60675 4.082081,-1.10195 0.810512,0.81051 0.866709,1.10956 0.87841,4.67431 0.01342,4.08905 0.33333,5.15443 1.790218,5.96192 1.225455,0.67922 2.558387,0.59445 3.605611,-0.2293 z m 64.441669,0.36188 c 6.35037,-0.65846 18.268068,-2.97409 18.982278,-3.68829 0.10006,-0.10007 -0.0186,-1.49239 -0.2637,-3.09405 -0.38373,-2.5076 -0.36777,-3.24331 0.11494,-5.2965 1.81839,-7.73459 8.67229,-14.42195 17.14981,-16.73309 3.29597,-0.89855 9.62599,-0.81375 12.64911,0.16946 1.23318,0.40106 2.44583,0.65105 2.69476,0.55553 1.01652,-0.39008 3.30557,-8.58904 2.68038,-9.60062 -0.38184,-0.61783 -5.29841,-1.4203 -11.10255,-1.81213 -3.76912,-0.25446 -5.04829,-0.46804 -5.55625,-0.92775 -0.89431,-0.80933 -0.85906,-2.66768 0.0665,-3.50528 1.02674,-0.92919 5.04805,-0.81703 14.70021,0.41001 1.58801,0.20188 1.87899,0.145 2.09152,-0.40886 0.31045,-0.80903 -0.37395,-6.24767 -1.19641,-9.50731 l -0.62308,-2.46945 -1.41111,0.031 c -2.33386,0.0512 -7.45875,1.89523 -12.83724,4.61909 -5.27725,2.67258 -6.35723,2.90156 -7.10401,1.50618 -0.18891,-0.353 -0.34347,-1.12749 -0.34347,-1.72111 0,-0.86304 0.30044,-1.29848 1.4993,-2.17302 2.43182,-1.77395 8.21592,-4.38516 13.22917,-5.97227 3.51465,-1.11267 4.67263,-1.6237 4.66754,-2.05982 -0.004,-0.31901 -0.81849,-2.08814 -1.81058,-3.93141 -0.99209,-1.84326 -2.03711,-3.79709 -2.32225,-4.34184 -0.48162,-0.92006 -0.41581,-1.34619 0.92608,-5.99722 3.12441,-10.8293 4.40716,-18.35656 4.43026,-25.99705 0.0177,-5.8427 -0.3198,-7.74952 -1.61811,-9.1431 -0.68473,-0.73498 -0.99686,-0.80399 -2.93327,-0.64855 -3.66361,0.29408 -12.34615,4.21549 -17.83203,8.05372 -6.63627,4.64311 -11.42914,7.73515 -11.98998,7.73515 -0.35612,0 -1.91826,-0.54391 -3.47142,-1.20869 -11.435087,-4.89442 -25.306863,-6.72074 -36.474184,-4.80209 -5.01395,0.86144 -9.204107,2.07684 -14.165122,4.10873 -2.140761,0.87679 -4.148903,1.52706 -4.462543,1.44505 -0.313637,-0.082 -2.507897,-1.44727 -4.876126,-3.03388 C 30.588792,178.8398 20.472814,174.3656 17.24326,176.09401 c -0.358406,0.19181 -0.943282,1.10462 -1.299724,2.02847 -0.979955,2.5399 -0.877265,12.07559 0.19604,18.20415 0.857903,4.8986 2.639052,12.38487 4.079773,17.14751 1.02728,3.39591 1.263093,2.41989 -2.069774,8.56668 -0.918595,1.69416 -1.61906,3.41926 -1.556588,3.83356 0.09303,0.61693 0.656291,0.90898 3.112195,1.61368 6.413637,1.84031 15.019323,5.92501 15.883061,7.53892 0.621897,1.16203 0.388471,2.36876 -0.610154,3.15427 -1.158819,0.91153 -1.805072,0.78631 -4.700898,-0.91089 -3.127163,-1.83278 -6.807118,-3.44747 -10.696061,-4.69321 -3.936492,-1.26097 -5.006476,-1.34771 -5.48956,-0.44506 -0.405623,0.75791 -1.639345,6.8443 -1.910566,9.4255 -0.298519,2.84099 -0.330392,2.82802 5.286863,2.15111 2.685731,-0.32365 6.290548,-0.62157 8.010699,-0.66204 2.893918,-0.0681 3.177216,-0.0122 3.792362,0.74742 1.281387,1.58245 0.706857,3.18932 -1.448704,4.05181 -1.015026,0.40613 -2.555737,0.57158 -5.322578,0.57158 -3.972647,0 -8.4754,0.52092 -9.585436,1.10892 -0.339549,0.17986 -0.615121,0.59925 -0.612382,0.93197 0.0068,0.82483 2.355902,7.81018 2.810839,8.35834 0.289098,0.34834 0.862544,0.29159 2.743586,-0.27155 1.822665,-0.54566 3.408036,-0.71429 6.787818,-0.722 3.846879,-0.009 4.769943,0.10963 7.231944,0.92756 4.046612,1.34437 6.998645,3.19552 10.275517,6.44353 2.293123,2.27292 3.158511,3.44369 4.321581,5.84659 1.389355,2.8704 1.454203,3.15306 1.452322,6.33019 -0.0011,1.82909 -0.172547,3.93997 -0.381035,4.69083 -0.252603,0.90974 -0.26143,1.48286 -0.02646,1.71784 0.794448,0.79444 12.063807,3.06416 18.723278,3.77098 3.885085,0.41235 20.80363,0.4248 24.725065,0.0182 z M 65.418825,274.00076 c -2.561318,-1.05297 -4.857291,-3.23604 -6.129143,-5.82776 -0.837777,-1.70718 -0.952359,-2.35706 -0.953759,-5.40959 -0.0014,-3.22098 0.05802,-3.51768 0.831236,-4.14514 1.052371,-0.85397 1.865926,-0.85534 2.916191,-0.005 0.711832,0.57641 0.857077,1.0859 1.030838,3.61598 0.246676,3.5918 1.018265,5.33237 2.922429,6.59248 1.183008,0.78288 1.812442,0.93866 3.792675,0.93866 2.116681,0 2.517316,-0.11578 3.692793,-1.06717 2.389678,-1.93415 2.627521,-2.76833 2.627521,-9.21558 v -5.70762 l -1.349753,-1.00066 c -1.87404,-1.38934 -6.710518,-6.63453 -7.126552,-7.72879 -0.800481,-2.10542 -0.347451,-4.0534 1.375661,-5.91517 1.761465,-1.90321 2.609299,-2.13463 8.368566,-2.28426 7.031891,-0.18269 8.890744,0.19683 10.92437,2.23046 1.767886,1.76788 2.230977,3.38491 1.585948,5.53783 -0.307936,1.0278 -1.359588,2.36083 -3.838007,4.86487 -1.877614,1.89703 -3.731345,3.61472 -4.1194,3.8171 -0.658841,0.34359 -0.705556,0.72579 -0.705556,5.77263 0,2.97257 0.121356,5.83833 0.269681,6.36834 0.37344,1.33445 2.31249,3.45546 3.682228,4.02777 2.338073,0.97691 5.122954,0.48586 6.927504,-1.22152 1.515519,-1.43391 2.025092,-2.69089 2.218344,-5.47207 0.253263,-3.64484 0.365732,-3.98401 1.473168,-4.44273 4.937292,-2.04509 4.658232,9.04675 -0.341238,13.56348 -3.990294,3.60499 -10.30267,3.93857 -14.471481,0.76474 -0.837152,-0.63734 -1.697983,-1.26632 -1.912958,-1.39773 -0.214972,-0.1314 -1.241097,0.39544 -2.280271,1.17077 -3.440659,2.56708 -7.601663,3.1416 -11.411035,1.57555 z m 16.986857,-27.96423 c 1.39246,-1.50799 2.168881,-2.64039 2.116667,-3.08714 -0.07761,-0.66403 -0.383537,-0.71152 -5.197743,-0.80683 -5.578257,-0.11044 -6.702778,0.0248 -6.702778,0.80606 0,0.28323 1.174429,1.73204 2.609843,3.21958 2.46484,2.55434 2.675544,2.69198 3.792361,2.47727 0.857423,-0.16485 1.787094,-0.88209 3.38165,-2.60894 z M 59.576646,232.4399 c -0.512982,-0.25808 -1.099665,-1.04984 -1.419508,-1.9157 -0.906607,-2.45428 -2.538977,-4.42616 -4.60672,-5.56484 -1.752441,-0.96505 -2.194242,-1.0536 -5.093868,-1.02097 -2.416139,0.0272 -3.869799,0.26207 -6.081966,0.98276 -2.411554,0.78564 -3.042828,0.87548 -3.704167,0.52718 -1.073569,-0.5654 -1.314591,-0.99135 -1.320965,-2.33456 -0.0064,-1.34424 0.662245,-1.87383 3.674042,-2.91004 5.190981,-1.78596 10.631195,-1.7353 14.451235,0.13457 4.706168,2.30361 8.949432,9.16955 7.037906,11.38789 -0.866101,1.00511 -1.87114,1.24943 -2.935989,0.71371 z m 33.26477,0.10008 c -1.767451,-0.71212 -1.834077,-2.56362 -0.208322,-5.7892 2.870715,-5.69565 8.958846,-8.66296 15.757316,-7.68 6.34028,0.91671 9.51174,2.67849 8.78515,4.88025 -0.59492,1.80274 -1.70225,2.01164 -5.08219,0.95878 -4.02138,-1.25266 -8.63463,-1.34716 -10.76758,-0.22056 -2.140459,1.13057 -3.650919,2.80574 -4.785816,5.30772 -0.699213,1.54147 -1.278633,2.32082 -1.901529,2.55764 -0.492735,0.18734 -0.925234,0.33055 -0.961111,0.31825 -0.03587,-0.0123 -0.412037,-0.16209 -0.835918,-0.33288 z M 135.14612,286.9 l 1.1521,-1.02856 0.11768,-4.2607 c 0.11275,-4.0819 0.15545,-4.29041 1.01771,-4.96866 1.14323,-0.89927 1.88481,-0.89363 3.05036,0.0232 0.91421,0.71911 0.92952,0.8027 0.92952,5.07208 0,5.30604 0.11397,5.4763 2.95426,4.41361 2.9639,-1.10893 5.17288,-2.75385 6.14035,-4.57241 0.70008,-1.31595 0.81713,-1.95146 0.68428,-3.71525 -0.48546,-6.44529 -7.20023,-12.81381 -15.23314,-14.44764 -7.64305,-1.55453 -16.58123,3.00101 -20.18644,10.28846 -1.1446,2.31364 -1.24093,2.74384 -1.1147,4.97782 0.11426,2.02216 0.31253,2.67392 1.14581,3.7664 1.20213,1.57607 3.54577,3.12603 5.9183,3.91406 2.72392,0.90474 2.75795,0.85052 2.75795,-4.39439 0,-4.51857 0.0108,-4.58006 0.92952,-5.30274 0.51124,-0.40216 1.2042,-0.73118 1.53992,-0.73118 0.33573,0 1.02869,0.32902 1.53993,0.73116 0.899,0.70715 0.92952,0.8531 0.92952,4.4446 0,2.6259 0.1604,4.05147 0.5477,4.86765 1.01636,2.14182 3.34836,2.55716 5.17937,0.92248 z M 52.601749,184.76507 c 1.066966,-0.47186 3.507655,-1.34183 5.423757,-1.93326 15.871056,-4.8988 32.704193,-4.04397 48.331424,2.4544 1.07807,0.4483 1.2123,0.38713 5.90044,-2.68904 2.6385,-1.73128 5.67427,-3.68152 6.74614,-4.33388 1.07188,-0.65235 1.94887,-1.40593 1.94887,-1.67463 0,-0.66795 -4.57275,-5.43023 -7.29107,-7.59326 -4.14148,-3.29548 -11.11461,-6.674 -18.139107,-8.78851 -6.567569,-1.97696 -8.078124,-2.19255 -15.668431,-2.23629 -5.959669,-0.0343 -7.713087,0.0832 -11.288889,0.75663 -10.277132,1.93554 -17.387118,4.96809 -25.08795,10.7005 -3.490923,2.5986 -6.838438,6.07521 -6.838438,7.10216 0,0.38981 0.638097,1.02313 1.617394,1.60527 0.889568,0.5288 3.866131,2.42608 6.614584,4.21619 2.748452,1.7901 5.175874,3.25854 5.394265,3.26319 0.21839,0.005 1.270045,-0.37761 2.337011,-0.84947 z m 31.072684,-34.94901 c -0.03295,-1.3582 -0.414994,-4.2769 -0.849005,-6.48601 -0.68253,-3.47406 -0.737973,-4.34695 -0.410482,-6.46271 0.709228,-4.582 3.442804,-8.62739 7.008611,-10.37198 3.983817,-1.9491 9.459189,-1.04018 15.111663,2.50855 3.48317,2.1868 4.17726,2.40334 5.68463,1.77352 1.33903,-0.55948 1.91309,-1.46268 1.91309,-3.00998 0,-1.62401 -0.48964,-2.29653 -2.82835,-3.88472 -11.308364,-7.67936 -22.816197,-6.93703 -29.507636,1.90346 -4.157349,5.49253 -5.243834,11.31622 -3.646279,19.54446 0.387466,1.99566 0.704486,4.10954 0.704486,4.6975 0,2.22053 0.406132,2.47186 3.811972,2.35899 l 3.067195,-0.10164 z"
         id="path273"
         inkscape:connector-curvature="0" />
    </g>
  </g>
</svg>
